ISO-10303-21;
HEADER;
/* Generated by software containing ST-Developer
 * from STEP Tools, Inc. (www.steptools.com) 
 */

FILE_DESCRIPTION(
/* description */ (''),
/* implementation_level */ '2;1');

FILE_NAME(
/* name */ 'mr3_recreation.step',
/* time_stamp */ '2026-08-26T09:58:24+02:00',
/* author */ (''),
/* organization */ (''),
/* preprocessor_version */ 'ST-DEVELOPER v20.1',
/* originating_system */ 'Autodesk Translation Framework v15.8.0.0',
/* authorisation */ '');

FILE_SCHEMA (('AUTOMOTIVE_DESIGN { 1 0 10303 214 3 1 1 }'));
ENDSEC;

DATA;
#10=MECHANICAL_DESIGN_GEOMETRIC_PRESENTATION_REPRESENTATION('',(#1015,#1016,
#1017,#1018,#1019,#1020,#1021,#1022,#1023,#1024,#1025,#1026,#1027,#1028,
#1029,#1030,#1031,#1032,#1033,#1034,#1035,#1036,#1037,#1038,#1039,#1040,
#1041,#1042,#1043,#1044,#1045,#1046,#1047,#1048,#1049,#1050,#1051,#1052,
#1053,#1054,#1055,#1056,#1057,#1058,#1059,#1060,#1061),#1751);
#11=SHAPE_REPRESENTATION_RELATIONSHIP('SRR','None',#1758,#12);
#12=ADVANCED_BREP_SHAPE_REPRESENTATION('',(#13),#1750);
#13=MANIFOLD_SOLID_BREP('Body1',#1119);
#14=FACE_BOUND('',#131,.T.);
#15=FACE_BOUND('',#132,.T.);
#16=FACE_BOUND('',#134,.T.);
#17=FACE_BOUND('',#135,.T.);
#18=FACE_BOUND('',#137,.T.);
#19=FACE_BOUND('',#140,.T.);
#20=FACE_BOUND('',#141,.T.);
#21=FACE_OUTER_BOUND('',#78,.T.);
#22=FACE_OUTER_BOUND('',#79,.T.);
#23=FACE_OUTER_BOUND('',#80,.T.);
#24=FACE_OUTER_BOUND('',#81,.T.);
#25=FACE_OUTER_BOUND('',#82,.T.);
#26=FACE_OUTER_BOUND('',#83,.T.);
#27=FACE_OUTER_BOUND('',#84,.T.);
#28=FACE_OUTER_BOUND('',#85,.T.);
#29=FACE_OUTER_BOUND('',#86,.T.);
#30=FACE_OUTER_BOUND('',#87,.T.);
#31=FACE_OUTER_BOUND('',#88,.T.);
#32=FACE_OUTER_BOUND('',#89,.T.);
#33=FACE_OUTER_BOUND('',#90,.T.);
#34=FACE_OUTER_BOUND('',#91,.T.);
#35=FACE_OUTER_BOUND('',#92,.T.);
#36=FACE_OUTER_BOUND('',#93,.T.);
#37=FACE_OUTER_BOUND('',#94,.T.);
#38=FACE_OUTER_BOUND('',#95,.T.);
#39=FACE_OUTER_BOUND('',#96,.T.);
#40=FACE_OUTER_BOUND('',#97,.T.);
#41=FACE_OUTER_BOUND('',#98,.T.);
#42=FACE_OUTER_BOUND('',#99,.T.);
#43=FACE_OUTER_BOUND('',#100,.T.);
#44=FACE_OUTER_BOUND('',#101,.T.);
#45=FACE_OUTER_BOUND('',#102,.T.);
#46=FACE_OUTER_BOUND('',#103,.T.);
#47=FACE_OUTER_BOUND('',#104,.T.);
#48=FACE_OUTER_BOUND('',#105,.T.);
#49=FACE_OUTER_BOUND('',#106,.T.);
#50=FACE_OUTER_BOUND('',#107,.T.);
#51=FACE_OUTER_BOUND('',#108,.T.);
#52=FACE_OUTER_BOUND('',#109,.T.);
#53=FACE_OUTER_BOUND('',#110,.T.);
#54=FACE_OUTER_BOUND('',#111,.T.);
#55=FACE_OUTER_BOUND('',#112,.T.);
#56=FACE_OUTER_BOUND('',#113,.T.);
#57=FACE_OUTER_BOUND('',#114,.T.);
#58=FACE_OUTER_BOUND('',#115,.T.);
#59=FACE_OUTER_BOUND('',#116,.T.);
#60=FACE_OUTER_BOUND('',#117,.T.);
#61=FACE_OUTER_BOUND('',#118,.T.);
#62=FACE_OUTER_BOUND('',#119,.T.);
#63=FACE_OUTER_BOUND('',#120,.T.);
#64=FACE_OUTER_BOUND('',#121,.T.);
#65=FACE_OUTER_BOUND('',#122,.T.);
#66=FACE_OUTER_BOUND('',#123,.T.);
#67=FACE_OUTER_BOUND('',#124,.T.);
#68=FACE_OUTER_BOUND('',#125,.T.);
#69=FACE_OUTER_BOUND('',#126,.T.);
#70=FACE_OUTER_BOUND('',#127,.T.);
#71=FACE_OUTER_BOUND('',#128,.T.);
#72=FACE_OUTER_BOUND('',#129,.T.);
#73=FACE_OUTER_BOUND('',#130,.T.);
#74=FACE_OUTER_BOUND('',#133,.T.);
#75=FACE_OUTER_BOUND('',#136,.T.);
#76=FACE_OUTER_BOUND('',#138,.T.);
#77=FACE_OUTER_BOUND('',#139,.T.);
#78=EDGE_LOOP('',(#670,#671,#672,#673,#674,#675,#676,#677,#678,#679,#680,
#681));
#79=EDGE_LOOP('',(#682,#683,#684,#685));
#80=EDGE_LOOP('',(#686,#687,#688,#689));
#81=EDGE_LOOP('',(#690,#691,#692,#693));
#82=EDGE_LOOP('',(#694,#695,#696,#697));
#83=EDGE_LOOP('',(#698,#699,#700,#701));
#84=EDGE_LOOP('',(#702,#703,#704,#705));
#85=EDGE_LOOP('',(#706,#707,#708,#709));
#86=EDGE_LOOP('',(#710,#711,#712,#713));
#87=EDGE_LOOP('',(#714,#715,#716,#717));
#88=EDGE_LOOP('',(#718,#719,#720,#721));
#89=EDGE_LOOP('',(#722,#723,#724,#725));
#90=EDGE_LOOP('',(#726,#727,#728,#729));
#91=EDGE_LOOP('',(#730,#731,#732,#733));
#92=EDGE_LOOP('',(#734,#735,#736,#737));
#93=EDGE_LOOP('',(#738,#739,#740,#741));
#94=EDGE_LOOP('',(#742,#743,#744));
#95=EDGE_LOOP('',(#745,#746,#747,#748,#749,#750,#751,#752,#753));
#96=EDGE_LOOP('',(#754,#755,#756,#757));
#97=EDGE_LOOP('',(#758,#759,#760,#761));
#98=EDGE_LOOP('',(#762,#763,#764,#765));
#99=EDGE_LOOP('',(#766,#767,#768,#769));
#100=EDGE_LOOP('',(#770,#771,#772,#773));
#101=EDGE_LOOP('',(#774,#775,#776,#777));
#102=EDGE_LOOP('',(#778,#779,#780,#781));
#103=EDGE_LOOP('',(#782,#783,#784,#785));
#104=EDGE_LOOP('',(#786,#787,#788,#789));
#105=EDGE_LOOP('',(#790,#791,#792,#793));
#106=EDGE_LOOP('',(#794,#795,#796,#797));
#107=EDGE_LOOP('',(#798,#799,#800,#801));
#108=EDGE_LOOP('',(#802,#803,#804));
#109=EDGE_LOOP('',(#805,#806,#807,#808,#809,#810,#811,#812,#813,#814));
#110=EDGE_LOOP('',(#815,#816,#817,#818));
#111=EDGE_LOOP('',(#819,#820,#821,#822));
#112=EDGE_LOOP('',(#823,#824,#825,#826));
#113=EDGE_LOOP('',(#827,#828,#829,#830));
#114=EDGE_LOOP('',(#831,#832,#833,#834));
#115=EDGE_LOOP('',(#835,#836,#837,#838));
#116=EDGE_LOOP('',(#839,#840,#841,#842));
#117=EDGE_LOOP('',(#843,#844,#845,#846));
#118=EDGE_LOOP('',(#847,#848,#849,#850));
#119=EDGE_LOOP('',(#851,#852,#853,#854));
#120=EDGE_LOOP('',(#855,#856,#857,#858));
#121=EDGE_LOOP('',(#859,#860,#861,#862));
#122=EDGE_LOOP('',(#863,#864,#865,#866));
#123=EDGE_LOOP('',(#867,#868,#869));
#124=EDGE_LOOP('',(#870,#871,#872,#873));
#125=EDGE_LOOP('',(#874,#875,#876,#877));
#126=EDGE_LOOP('',(#878,#879,#880,#881));
#127=EDGE_LOOP('',(#882,#883,#884,#885));
#128=EDGE_LOOP('',(#886,#887,#888,#889));
#129=EDGE_LOOP('',(#890,#891,#892,#893));
#130=EDGE_LOOP('',(#894,#895,#896,#897));
#131=EDGE_LOOP('',(#898,#899,#900,#901,#902,#903,#904,#905,#906,#907));
#132=EDGE_LOOP('',(#908,#909,#910));
#133=EDGE_LOOP('',(#911,#912,#913,#914));
#134=EDGE_LOOP('',(#915,#916,#917,#918,#919,#920,#921,#922,#923));
#135=EDGE_LOOP('',(#924,#925,#926));
#136=EDGE_LOOP('',(#927,#928,#929,#930));
#137=EDGE_LOOP('',(#931,#932,#933,#934));
#138=EDGE_LOOP('',(#935,#936,#937,#938));
#139=EDGE_LOOP('',(#939,#940,#941,#942));
#140=EDGE_LOOP('',(#943,#944,#945,#946,#947,#948,#949,#950,#951,#952,#953,
#954));
#141=EDGE_LOOP('',(#955,#956,#957));
#142=LINE('',#1454,#286);
#143=LINE('',#1456,#287);
#144=LINE('',#1458,#288);
#145=LINE('',#1460,#289);
#146=LINE('',#1462,#290);
#147=LINE('',#1464,#291);
#148=LINE('',#1466,#292);
#149=LINE('',#1468,#293);
#150=LINE('',#1470,#294);
#151=LINE('',#1472,#295);
#152=LINE('',#1474,#296);
#153=LINE('',#1475,#297);
#154=LINE('',#1478,#298);
#155=LINE('',#1480,#299);
#156=LINE('',#1481,#300);
#157=LINE('',#1484,#301);
#158=LINE('',#1485,#302);
#159=LINE('',#1488,#303);
#160=LINE('',#1489,#304);
#161=LINE('',#1492,#305);
#162=LINE('',#1493,#306);
#163=LINE('',#1496,#307);
#164=LINE('',#1497,#308);
#165=LINE('',#1500,#309);
#166=LINE('',#1501,#310);
#167=LINE('',#1504,#311);
#168=LINE('',#1505,#312);
#169=LINE('',#1508,#313);
#170=LINE('',#1509,#314);
#171=LINE('',#1512,#315);
#172=LINE('',#1513,#316);
#173=LINE('',#1516,#317);
#174=LINE('',#1517,#318);
#175=LINE('',#1520,#319);
#176=LINE('',#1521,#320);
#177=LINE('',#1523,#321);
#178=LINE('',#1527,#322);
#179=LINE('',#1529,#323);
#180=LINE('',#1531,#324);
#181=LINE('',#1532,#325);
#182=LINE('',#1535,#326);
#183=LINE('',#1537,#327);
#184=LINE('',#1538,#328);
#185=LINE('',#1540,#329);
#186=LINE('',#1541,#330);
#187=LINE('',#1546,#331);
#188=LINE('',#1548,#332);
#189=LINE('',#1550,#333);
#190=LINE('',#1552,#334);
#191=LINE('',#1554,#335);
#192=LINE('',#1556,#336);
#193=LINE('',#1558,#337);
#194=LINE('',#1560,#338);
#195=LINE('',#1561,#339);
#196=LINE('',#1564,#340);
#197=LINE('',#1566,#341);
#198=LINE('',#1567,#342);
#199=LINE('',#1570,#343);
#200=LINE('',#1571,#344);
#201=LINE('',#1574,#345);
#202=LINE('',#1575,#346);
#203=LINE('',#1578,#347);
#204=LINE('',#1579,#348);
#205=LINE('',#1582,#349);
#206=LINE('',#1583,#350);
#207=LINE('',#1586,#351);
#208=LINE('',#1587,#352);
#209=LINE('',#1590,#353);
#210=LINE('',#1591,#354);
#211=LINE('',#1594,#355);
#212=LINE('',#1595,#356);
#213=LINE('',#1597,#357);
#214=LINE('',#1601,#358);
#215=LINE('',#1603,#359);
#216=LINE('',#1605,#360);
#217=LINE('',#1606,#361);
#218=LINE('',#1609,#362);
#219=LINE('',#1611,#363);
#220=LINE('',#1612,#364);
#221=LINE('',#1614,#365);
#222=LINE('',#1615,#366);
#223=LINE('',#1620,#367);
#224=LINE('',#1622,#368);
#225=LINE('',#1624,#369);
#226=LINE('',#1626,#370);
#227=LINE('',#1628,#371);
#228=LINE('',#1630,#372);
#229=LINE('',#1632,#373);
#230=LINE('',#1634,#374);
#231=LINE('',#1636,#375);
#232=LINE('',#1637,#376);
#233=LINE('',#1640,#377);
#234=LINE('',#1642,#378);
#235=LINE('',#1643,#379);
#236=LINE('',#1646,#380);
#237=LINE('',#1647,#381);
#238=LINE('',#1650,#382);
#239=LINE('',#1651,#383);
#240=LINE('',#1654,#384);
#241=LINE('',#1655,#385);
#242=LINE('',#1658,#386);
#243=LINE('',#1659,#387);
#244=LINE('',#1662,#388);
#245=LINE('',#1663,#389);
#246=LINE('',#1666,#390);
#247=LINE('',#1667,#391);
#248=LINE('',#1670,#392);
#249=LINE('',#1671,#393);
#250=LINE('',#1674,#394);
#251=LINE('',#1675,#395);
#252=LINE('',#1677,#396);
#253=LINE('',#1681,#397);
#254=LINE('',#1683,#398);
#255=LINE('',#1685,#399);
#256=LINE('',#1686,#400);
#257=LINE('',#1689,#401);
#258=LINE('',#1691,#402);
#259=LINE('',#1692,#403);
#260=LINE('',#1694,#404);
#261=LINE('',#1695,#405);
#262=LINE('',#1700,#406);
#263=LINE('',#1702,#407);
#264=LINE('',#1704,#408);
#265=LINE('',#1705,#409);
#266=LINE('',#1708,#410);
#267=LINE('',#1710,#411);
#268=LINE('',#1711,#412);
#269=LINE('',#1714,#413);
#270=LINE('',#1716,#414);
#271=LINE('',#1717,#415);
#272=LINE('',#1719,#416);
#273=LINE('',#1720,#417);
#274=LINE('',#1725,#418);
#275=LINE('',#1727,#419);
#276=LINE('',#1729,#420);
#277=LINE('',#1730,#421);
#278=LINE('',#1733,#422);
#279=LINE('',#1735,#423);
#280=LINE('',#1736,#424);
#281=LINE('',#1739,#425);
#282=LINE('',#1741,#426);
#283=LINE('',#1742,#427);
#284=LINE('',#1744,#428);
#285=LINE('',#1745,#429);
#286=VECTOR('',#1194,10.);
#287=VECTOR('',#1195,10.);
#288=VECTOR('',#1196,10.);
#289=VECTOR('',#1197,10.);
#290=VECTOR('',#1198,10.);
#291=VECTOR('',#1199,10.);
#292=VECTOR('',#1200,10.);
#293=VECTOR('',#1201,10.);
#294=VECTOR('',#1202,10.);
#295=VECTOR('',#1203,10.);
#296=VECTOR('',#1204,10.);
#297=VECTOR('',#1205,10.);
#298=VECTOR('',#1208,10.);
#299=VECTOR('',#1209,10.);
#300=VECTOR('',#1210,10.);
#301=VECTOR('',#1213,10.);
#302=VECTOR('',#1214,10.);
#303=VECTOR('',#1217,10.);
#304=VECTOR('',#1218,10.);
#305=VECTOR('',#1221,10.);
#306=VECTOR('',#1222,10.);
#307=VECTOR('',#1225,10.);
#308=VECTOR('',#1226,10.);
#309=VECTOR('',#1229,10.);
#310=VECTOR('',#1230,10.);
#311=VECTOR('',#1233,10.);
#312=VECTOR('',#1234,10.);
#313=VECTOR('',#1237,10.);
#314=VECTOR('',#1238,10.);
#315=VECTOR('',#1241,10.);
#316=VECTOR('',#1242,10.);
#317=VECTOR('',#1245,10.);
#318=VECTOR('',#1246,10.);
#319=VECTOR('',#1249,10.);
#320=VECTOR('',#1250,10.);
#321=VECTOR('',#1253,10.);
#322=VECTOR('',#1256,10.);
#323=VECTOR('',#1257,10.);
#324=VECTOR('',#1258,10.);
#325=VECTOR('',#1259,10.);
#326=VECTOR('',#1262,10.);
#327=VECTOR('',#1263,10.);
#328=VECTOR('',#1264,10.);
#329=VECTOR('',#1267,10.);
#330=VECTOR('',#1268,10.);
#331=VECTOR('',#1273,10.);
#332=VECTOR('',#1274,10.);
#333=VECTOR('',#1275,10.);
#334=VECTOR('',#1276,10.);
#335=VECTOR('',#1277,10.);
#336=VECTOR('',#1278,10.);
#337=VECTOR('',#1279,10.);
#338=VECTOR('',#1280,10.);
#339=VECTOR('',#1281,10.);
#340=VECTOR('',#1284,10.);
#341=VECTOR('',#1285,10.);
#342=VECTOR('',#1286,10.);
#343=VECTOR('',#1289,10.);
#344=VECTOR('',#1290,10.);
#345=VECTOR('',#1293,10.);
#346=VECTOR('',#1294,10.);
#347=VECTOR('',#1297,10.);
#348=VECTOR('',#1298,10.);
#349=VECTOR('',#1301,10.);
#350=VECTOR('',#1302,10.);
#351=VECTOR('',#1305,10.);
#352=VECTOR('',#1306,10.);
#353=VECTOR('',#1309,10.);
#354=VECTOR('',#1310,10.);
#355=VECTOR('',#1313,10.);
#356=VECTOR('',#1314,10.);
#357=VECTOR('',#1317,10.);
#358=VECTOR('',#1320,10.);
#359=VECTOR('',#1321,10.);
#360=VECTOR('',#1322,10.);
#361=VECTOR('',#1323,10.);
#362=VECTOR('',#1326,10.);
#363=VECTOR('',#1327,10.);
#364=VECTOR('',#1328,10.);
#365=VECTOR('',#1331,10.);
#366=VECTOR('',#1332,10.);
#367=VECTOR('',#1337,10.);
#368=VECTOR('',#1338,10.);
#369=VECTOR('',#1339,10.);
#370=VECTOR('',#1340,10.);
#371=VECTOR('',#1341,10.);
#372=VECTOR('',#1342,10.);
#373=VECTOR('',#1343,10.);
#374=VECTOR('',#1344,10.);
#375=VECTOR('',#1345,10.);
#376=VECTOR('',#1346,10.);
#377=VECTOR('',#1349,10.);
#378=VECTOR('',#1350,10.);
#379=VECTOR('',#1351,10.);
#380=VECTOR('',#1354,10.);
#381=VECTOR('',#1355,10.);
#382=VECTOR('',#1358,10.);
#383=VECTOR('',#1359,10.);
#384=VECTOR('',#1362,10.);
#385=VECTOR('',#1363,10.);
#386=VECTOR('',#1366,10.);
#387=VECTOR('',#1367,10.);
#388=VECTOR('',#1370,10.);
#389=VECTOR('',#1371,10.);
#390=VECTOR('',#1374,10.);
#391=VECTOR('',#1375,10.);
#392=VECTOR('',#1378,10.);
#393=VECTOR('',#1379,10.);
#394=VECTOR('',#1382,10.);
#395=VECTOR('',#1383,10.);
#396=VECTOR('',#1386,10.);
#397=VECTOR('',#1389,10.);
#398=VECTOR('',#1390,10.);
#399=VECTOR('',#1391,10.);
#400=VECTOR('',#1392,10.);
#401=VECTOR('',#1395,10.);
#402=VECTOR('',#1396,10.);
#403=VECTOR('',#1397,10.);
#404=VECTOR('',#1400,10.);
#405=VECTOR('',#1401,10.);
#406=VECTOR('',#1406,10.);
#407=VECTOR('',#1407,10.);
#408=VECTOR('',#1408,10.);
#409=VECTOR('',#1409,10.);
#410=VECTOR('',#1412,10.);
#411=VECTOR('',#1413,10.);
#412=VECTOR('',#1414,10.);
#413=VECTOR('',#1417,10.);
#414=VECTOR('',#1418,10.);
#415=VECTOR('',#1419,10.);
#416=VECTOR('',#1422,10.);
#417=VECTOR('',#1423,10.);
#418=VECTOR('',#1428,10.);
#419=VECTOR('',#1429,10.);
#420=VECTOR('',#1430,10.);
#421=VECTOR('',#1431,10.);
#422=VECTOR('',#1434,10.);
#423=VECTOR('',#1435,10.);
#424=VECTOR('',#1436,10.);
#425=VECTOR('',#1439,10.);
#426=VECTOR('',#1440,10.);
#427=VECTOR('',#1441,10.);
#428=VECTOR('',#1444,10.);
#429=VECTOR('',#1445,10.);
#430=VERTEX_POINT('',#1452);
#431=VERTEX_POINT('',#1453);
#432=VERTEX_POINT('',#1455);
#433=VERTEX_POINT('',#1457);
#434=VERTEX_POINT('',#1459);
#435=VERTEX_POINT('',#1461);
#436=VERTEX_POINT('',#1463);
#437=VERTEX_POINT('',#1465);
#438=VERTEX_POINT('',#1467);
#439=VERTEX_POINT('',#1469);
#440=VERTEX_POINT('',#1471);
#441=VERTEX_POINT('',#1473);
#442=VERTEX_POINT('',#1477);
#443=VERTEX_POINT('',#1479);
#444=VERTEX_POINT('',#1483);
#445=VERTEX_POINT('',#1487);
#446=VERTEX_POINT('',#1491);
#447=VERTEX_POINT('',#1495);
#448=VERTEX_POINT('',#1499);
#449=VERTEX_POINT('',#1503);
#450=VERTEX_POINT('',#1507);
#451=VERTEX_POINT('',#1511);
#452=VERTEX_POINT('',#1515);
#453=VERTEX_POINT('',#1519);
#454=VERTEX_POINT('',#1525);
#455=VERTEX_POINT('',#1526);
#456=VERTEX_POINT('',#1528);
#457=VERTEX_POINT('',#1530);
#458=VERTEX_POINT('',#1534);
#459=VERTEX_POINT('',#1536);
#460=VERTEX_POINT('',#1544);
#461=VERTEX_POINT('',#1545);
#462=VERTEX_POINT('',#1547);
#463=VERTEX_POINT('',#1549);
#464=VERTEX_POINT('',#1551);
#465=VERTEX_POINT('',#1553);
#466=VERTEX_POINT('',#1555);
#467=VERTEX_POINT('',#1557);
#468=VERTEX_POINT('',#1559);
#469=VERTEX_POINT('',#1563);
#470=VERTEX_POINT('',#1565);
#471=VERTEX_POINT('',#1569);
#472=VERTEX_POINT('',#1573);
#473=VERTEX_POINT('',#1577);
#474=VERTEX_POINT('',#1581);
#475=VERTEX_POINT('',#1585);
#476=VERTEX_POINT('',#1589);
#477=VERTEX_POINT('',#1593);
#478=VERTEX_POINT('',#1599);
#479=VERTEX_POINT('',#1600);
#480=VERTEX_POINT('',#1602);
#481=VERTEX_POINT('',#1604);
#482=VERTEX_POINT('',#1608);
#483=VERTEX_POINT('',#1610);
#484=VERTEX_POINT('',#1618);
#485=VERTEX_POINT('',#1619);
#486=VERTEX_POINT('',#1621);
#487=VERTEX_POINT('',#1623);
#488=VERTEX_POINT('',#1625);
#489=VERTEX_POINT('',#1627);
#490=VERTEX_POINT('',#1629);
#491=VERTEX_POINT('',#1631);
#492=VERTEX_POINT('',#1633);
#493=VERTEX_POINT('',#1635);
#494=VERTEX_POINT('',#1639);
#495=VERTEX_POINT('',#1641);
#496=VERTEX_POINT('',#1645);
#497=VERTEX_POINT('',#1649);
#498=VERTEX_POINT('',#1653);
#499=VERTEX_POINT('',#1657);
#500=VERTEX_POINT('',#1661);
#501=VERTEX_POINT('',#1665);
#502=VERTEX_POINT('',#1669);
#503=VERTEX_POINT('',#1673);
#504=VERTEX_POINT('',#1679);
#505=VERTEX_POINT('',#1680);
#506=VERTEX_POINT('',#1682);
#507=VERTEX_POINT('',#1684);
#508=VERTEX_POINT('',#1688);
#509=VERTEX_POINT('',#1690);
#510=VERTEX_POINT('',#1698);
#511=VERTEX_POINT('',#1699);
#512=VERTEX_POINT('',#1701);
#513=VERTEX_POINT('',#1703);
#514=VERTEX_POINT('',#1707);
#515=VERTEX_POINT('',#1709);
#516=VERTEX_POINT('',#1713);
#517=VERTEX_POINT('',#1715);
#518=VERTEX_POINT('',#1723);
#519=VERTEX_POINT('',#1724);
#520=VERTEX_POINT('',#1726);
#521=VERTEX_POINT('',#1728);
#522=VERTEX_POINT('',#1732);
#523=VERTEX_POINT('',#1734);
#524=VERTEX_POINT('',#1738);
#525=VERTEX_POINT('',#1740);
#526=EDGE_CURVE('',#430,#431,#142,.T.);
#527=EDGE_CURVE('',#431,#432,#143,.T.);
#528=EDGE_CURVE('',#432,#433,#144,.T.);
#529=EDGE_CURVE('',#433,#434,#145,.T.);
#530=EDGE_CURVE('',#434,#435,#146,.T.);
#531=EDGE_CURVE('',#435,#436,#147,.T.);
#532=EDGE_CURVE('',#436,#437,#148,.T.);
#533=EDGE_CURVE('',#437,#438,#149,.T.);
#534=EDGE_CURVE('',#438,#439,#150,.T.);
#535=EDGE_CURVE('',#439,#440,#151,.T.);
#536=EDGE_CURVE('',#440,#441,#152,.T.);
#537=EDGE_CURVE('',#441,#430,#153,.T.);
#538=EDGE_CURVE('',#442,#435,#154,.T.);
#539=EDGE_CURVE('',#443,#442,#155,.T.);
#540=EDGE_CURVE('',#443,#436,#156,.T.);
#541=EDGE_CURVE('',#444,#434,#157,.T.);
#542=EDGE_CURVE('',#442,#444,#158,.T.);
#543=EDGE_CURVE('',#445,#433,#159,.T.);
#544=EDGE_CURVE('',#444,#445,#160,.T.);
#545=EDGE_CURVE('',#446,#432,#161,.T.);
#546=EDGE_CURVE('',#445,#446,#162,.T.);
#547=EDGE_CURVE('',#447,#431,#163,.T.);
#548=EDGE_CURVE('',#446,#447,#164,.T.);
#549=EDGE_CURVE('',#448,#430,#165,.T.);
#550=EDGE_CURVE('',#447,#448,#166,.T.);
#551=EDGE_CURVE('',#449,#441,#167,.T.);
#552=EDGE_CURVE('',#448,#449,#168,.T.);
#553=EDGE_CURVE('',#450,#440,#169,.T.);
#554=EDGE_CURVE('',#449,#450,#170,.T.);
#555=EDGE_CURVE('',#451,#439,#171,.T.);
#556=EDGE_CURVE('',#450,#451,#172,.T.);
#557=EDGE_CURVE('',#452,#438,#173,.T.);
#558=EDGE_CURVE('',#451,#452,#174,.T.);
#559=EDGE_CURVE('',#453,#437,#175,.T.);
#560=EDGE_CURVE('',#452,#453,#176,.T.);
#561=EDGE_CURVE('',#453,#443,#177,.T.);
#562=EDGE_CURVE('',#454,#455,#178,.T.);
#563=EDGE_CURVE('',#454,#456,#179,.T.);
#564=EDGE_CURVE('',#457,#456,#180,.T.);
#565=EDGE_CURVE('',#455,#457,#181,.T.);
#566=EDGE_CURVE('',#455,#458,#182,.T.);
#567=EDGE_CURVE('',#459,#457,#183,.T.);
#568=EDGE_CURVE('',#458,#459,#184,.T.);
#569=EDGE_CURVE('',#458,#454,#185,.T.);
#570=EDGE_CURVE('',#456,#459,#186,.T.);
#571=EDGE_CURVE('',#460,#461,#187,.T.);
#572=EDGE_CURVE('',#461,#462,#188,.T.);
#573=EDGE_CURVE('',#462,#463,#189,.T.);
#574=EDGE_CURVE('',#463,#464,#190,.T.);
#575=EDGE_CURVE('',#464,#465,#191,.T.);
#576=EDGE_CURVE('',#465,#466,#192,.T.);
#577=EDGE_CURVE('',#466,#467,#193,.T.);
#578=EDGE_CURVE('',#467,#468,#194,.T.);
#579=EDGE_CURVE('',#468,#460,#195,.T.);
#580=EDGE_CURVE('',#469,#464,#196,.T.);
#581=EDGE_CURVE('',#470,#469,#197,.T.);
#582=EDGE_CURVE('',#470,#465,#198,.T.);
#583=EDGE_CURVE('',#471,#463,#199,.T.);
#584=EDGE_CURVE('',#469,#471,#200,.T.);
#585=EDGE_CURVE('',#472,#462,#201,.T.);
#586=EDGE_CURVE('',#471,#472,#202,.T.);
#587=EDGE_CURVE('',#473,#461,#203,.T.);
#588=EDGE_CURVE('',#472,#473,#204,.T.);
#589=EDGE_CURVE('',#474,#460,#205,.T.);
#590=EDGE_CURVE('',#473,#474,#206,.T.);
#591=EDGE_CURVE('',#475,#468,#207,.T.);
#592=EDGE_CURVE('',#474,#475,#208,.T.);
#593=EDGE_CURVE('',#476,#467,#209,.T.);
#594=EDGE_CURVE('',#475,#476,#210,.T.);
#595=EDGE_CURVE('',#477,#466,#211,.T.);
#596=EDGE_CURVE('',#476,#477,#212,.T.);
#597=EDGE_CURVE('',#477,#470,#213,.T.);
#598=EDGE_CURVE('',#478,#479,#214,.T.);
#599=EDGE_CURVE('',#478,#480,#215,.T.);
#600=EDGE_CURVE('',#481,#480,#216,.T.);
#601=EDGE_CURVE('',#479,#481,#217,.T.);
#602=EDGE_CURVE('',#479,#482,#218,.T.);
#603=EDGE_CURVE('',#483,#481,#219,.T.);
#604=EDGE_CURVE('',#482,#483,#220,.T.);
#605=EDGE_CURVE('',#482,#478,#221,.T.);
#606=EDGE_CURVE('',#480,#483,#222,.T.);
#607=EDGE_CURVE('',#484,#485,#223,.T.);
#608=EDGE_CURVE('',#485,#486,#224,.T.);
#609=EDGE_CURVE('',#486,#487,#225,.T.);
#610=EDGE_CURVE('',#487,#488,#226,.T.);
#611=EDGE_CURVE('',#488,#489,#227,.T.);
#612=EDGE_CURVE('',#489,#490,#228,.T.);
#613=EDGE_CURVE('',#490,#491,#229,.T.);
#614=EDGE_CURVE('',#491,#492,#230,.T.);
#615=EDGE_CURVE('',#492,#493,#231,.T.);
#616=EDGE_CURVE('',#493,#484,#232,.T.);
#617=EDGE_CURVE('',#494,#488,#233,.T.);
#618=EDGE_CURVE('',#495,#494,#234,.T.);
#619=EDGE_CURVE('',#495,#489,#235,.T.);
#620=EDGE_CURVE('',#496,#487,#236,.T.);
#621=EDGE_CURVE('',#494,#496,#237,.T.);
#622=EDGE_CURVE('',#497,#486,#238,.T.);
#623=EDGE_CURVE('',#496,#497,#239,.T.);
#624=EDGE_CURVE('',#498,#485,#240,.T.);
#625=EDGE_CURVE('',#497,#498,#241,.T.);
#626=EDGE_CURVE('',#499,#484,#242,.T.);
#627=EDGE_CURVE('',#498,#499,#243,.T.);
#628=EDGE_CURVE('',#500,#493,#244,.T.);
#629=EDGE_CURVE('',#499,#500,#245,.T.);
#630=EDGE_CURVE('',#501,#492,#246,.T.);
#631=EDGE_CURVE('',#500,#501,#247,.T.);
#632=EDGE_CURVE('',#502,#491,#248,.T.);
#633=EDGE_CURVE('',#501,#502,#249,.T.);
#634=EDGE_CURVE('',#503,#490,#250,.T.);
#635=EDGE_CURVE('',#502,#503,#251,.T.);
#636=EDGE_CURVE('',#503,#495,#252,.T.);
#637=EDGE_CURVE('',#504,#505,#253,.T.);
#638=EDGE_CURVE('',#504,#506,#254,.T.);
#639=EDGE_CURVE('',#507,#506,#255,.T.);
#640=EDGE_CURVE('',#505,#507,#256,.T.);
#641=EDGE_CURVE('',#505,#508,#257,.T.);
#642=EDGE_CURVE('',#509,#507,#258,.T.);
#643=EDGE_CURVE('',#508,#509,#259,.T.);
#644=EDGE_CURVE('',#508,#504,#260,.T.);
#645=EDGE_CURVE('',#506,#509,#261,.T.);
#646=EDGE_CURVE('',#510,#511,#262,.T.);
#647=EDGE_CURVE('',#510,#512,#263,.T.);
#648=EDGE_CURVE('',#512,#513,#264,.T.);
#649=EDGE_CURVE('',#511,#513,#265,.T.);
#650=EDGE_CURVE('',#514,#510,#266,.T.);
#651=EDGE_CURVE('',#514,#515,#267,.T.);
#652=EDGE_CURVE('',#515,#512,#268,.T.);
#653=EDGE_CURVE('',#516,#514,#269,.T.);
#654=EDGE_CURVE('',#516,#517,#270,.T.);
#655=EDGE_CURVE('',#517,#515,#271,.T.);
#656=EDGE_CURVE('',#511,#516,#272,.T.);
#657=EDGE_CURVE('',#513,#517,#273,.T.);
#658=EDGE_CURVE('',#518,#519,#274,.T.);
#659=EDGE_CURVE('',#519,#520,#275,.T.);
#660=EDGE_CURVE('',#521,#520,#276,.T.);
#661=EDGE_CURVE('',#518,#521,#277,.T.);
#662=EDGE_CURVE('',#522,#518,#278,.T.);
#663=EDGE_CURVE('',#523,#521,#279,.T.);
#664=EDGE_CURVE('',#522,#523,#280,.T.);
#665=EDGE_CURVE('',#524,#522,#281,.T.);
#666=EDGE_CURVE('',#525,#523,#282,.T.);
#667=EDGE_CURVE('',#524,#525,#283,.T.);
#668=EDGE_CURVE('',#519,#524,#284,.T.);
#669=EDGE_CURVE('',#520,#525,#285,.T.);
#670=ORIENTED_EDGE('',*,*,#526,.T.);
#671=ORIENTED_EDGE('',*,*,#527,.T.);
#672=ORIENTED_EDGE('',*,*,#528,.T.);
#673=ORIENTED_EDGE('',*,*,#529,.T.);
#674=ORIENTED_EDGE('',*,*,#530,.T.);
#675=ORIENTED_EDGE('',*,*,#531,.T.);
#676=ORIENTED_EDGE('',*,*,#532,.T.);
#677=ORIENTED_EDGE('',*,*,#533,.T.);
#678=ORIENTED_EDGE('',*,*,#534,.T.);
#679=ORIENTED_EDGE('',*,*,#535,.T.);
#680=ORIENTED_EDGE('',*,*,#536,.T.);
#681=ORIENTED_EDGE('',*,*,#537,.T.);
#682=ORIENTED_EDGE('',*,*,#531,.F.);
#683=ORIENTED_EDGE('',*,*,#538,.F.);
#684=ORIENTED_EDGE('',*,*,#539,.F.);
#685=ORIENTED_EDGE('',*,*,#540,.T.);
#686=ORIENTED_EDGE('',*,*,#530,.F.);
#687=ORIENTED_EDGE('',*,*,#541,.F.);
#688=ORIENTED_EDGE('',*,*,#542,.F.);
#689=ORIENTED_EDGE('',*,*,#538,.T.);
#690=ORIENTED_EDGE('',*,*,#529,.F.);
#691=ORIENTED_EDGE('',*,*,#543,.F.);
#692=ORIENTED_EDGE('',*,*,#544,.F.);
#693=ORIENTED_EDGE('',*,*,#541,.T.);
#694=ORIENTED_EDGE('',*,*,#528,.F.);
#695=ORIENTED_EDGE('',*,*,#545,.F.);
#696=ORIENTED_EDGE('',*,*,#546,.F.);
#697=ORIENTED_EDGE('',*,*,#543,.T.);
#698=ORIENTED_EDGE('',*,*,#527,.F.);
#699=ORIENTED_EDGE('',*,*,#547,.F.);
#700=ORIENTED_EDGE('',*,*,#548,.F.);
#701=ORIENTED_EDGE('',*,*,#545,.T.);
#702=ORIENTED_EDGE('',*,*,#526,.F.);
#703=ORIENTED_EDGE('',*,*,#549,.F.);
#704=ORIENTED_EDGE('',*,*,#550,.F.);
#705=ORIENTED_EDGE('',*,*,#547,.T.);
#706=ORIENTED_EDGE('',*,*,#537,.F.);
#707=ORIENTED_EDGE('',*,*,#551,.F.);
#708=ORIENTED_EDGE('',*,*,#552,.F.);
#709=ORIENTED_EDGE('',*,*,#549,.T.);
#710=ORIENTED_EDGE('',*,*,#536,.F.);
#711=ORIENTED_EDGE('',*,*,#553,.F.);
#712=ORIENTED_EDGE('',*,*,#554,.F.);
#713=ORIENTED_EDGE('',*,*,#551,.T.);
#714=ORIENTED_EDGE('',*,*,#535,.F.);
#715=ORIENTED_EDGE('',*,*,#555,.F.);
#716=ORIENTED_EDGE('',*,*,#556,.F.);
#717=ORIENTED_EDGE('',*,*,#553,.T.);
#718=ORIENTED_EDGE('',*,*,#534,.F.);
#719=ORIENTED_EDGE('',*,*,#557,.F.);
#720=ORIENTED_EDGE('',*,*,#558,.F.);
#721=ORIENTED_EDGE('',*,*,#555,.T.);
#722=ORIENTED_EDGE('',*,*,#533,.F.);
#723=ORIENTED_EDGE('',*,*,#559,.F.);
#724=ORIENTED_EDGE('',*,*,#560,.F.);
#725=ORIENTED_EDGE('',*,*,#557,.T.);
#726=ORIENTED_EDGE('',*,*,#532,.F.);
#727=ORIENTED_EDGE('',*,*,#540,.F.);
#728=ORIENTED_EDGE('',*,*,#561,.F.);
#729=ORIENTED_EDGE('',*,*,#559,.T.);
#730=ORIENTED_EDGE('',*,*,#562,.F.);
#731=ORIENTED_EDGE('',*,*,#563,.T.);
#732=ORIENTED_EDGE('',*,*,#564,.F.);
#733=ORIENTED_EDGE('',*,*,#565,.F.);
#734=ORIENTED_EDGE('',*,*,#566,.F.);
#735=ORIENTED_EDGE('',*,*,#565,.T.);
#736=ORIENTED_EDGE('',*,*,#567,.F.);
#737=ORIENTED_EDGE('',*,*,#568,.F.);
#738=ORIENTED_EDGE('',*,*,#569,.F.);
#739=ORIENTED_EDGE('',*,*,#568,.T.);
#740=ORIENTED_EDGE('',*,*,#570,.F.);
#741=ORIENTED_EDGE('',*,*,#563,.F.);
#742=ORIENTED_EDGE('',*,*,#570,.T.);
#743=ORIENTED_EDGE('',*,*,#567,.T.);
#744=ORIENTED_EDGE('',*,*,#564,.T.);
#745=ORIENTED_EDGE('',*,*,#571,.T.);
#746=ORIENTED_EDGE('',*,*,#572,.T.);
#747=ORIENTED_EDGE('',*,*,#573,.T.);
#748=ORIENTED_EDGE('',*,*,#574,.T.);
#749=ORIENTED_EDGE('',*,*,#575,.T.);
#750=ORIENTED_EDGE('',*,*,#576,.T.);
#751=ORIENTED_EDGE('',*,*,#577,.T.);
#752=ORIENTED_EDGE('',*,*,#578,.T.);
#753=ORIENTED_EDGE('',*,*,#579,.T.);
#754=ORIENTED_EDGE('',*,*,#575,.F.);
#755=ORIENTED_EDGE('',*,*,#580,.F.);
#756=ORIENTED_EDGE('',*,*,#581,.F.);
#757=ORIENTED_EDGE('',*,*,#582,.T.);
#758=ORIENTED_EDGE('',*,*,#574,.F.);
#759=ORIENTED_EDGE('',*,*,#583,.F.);
#760=ORIENTED_EDGE('',*,*,#584,.F.);
#761=ORIENTED_EDGE('',*,*,#580,.T.);
#762=ORIENTED_EDGE('',*,*,#573,.F.);
#763=ORIENTED_EDGE('',*,*,#585,.F.);
#764=ORIENTED_EDGE('',*,*,#586,.F.);
#765=ORIENTED_EDGE('',*,*,#583,.T.);
#766=ORIENTED_EDGE('',*,*,#572,.F.);
#767=ORIENTED_EDGE('',*,*,#587,.F.);
#768=ORIENTED_EDGE('',*,*,#588,.F.);
#769=ORIENTED_EDGE('',*,*,#585,.T.);
#770=ORIENTED_EDGE('',*,*,#571,.F.);
#771=ORIENTED_EDGE('',*,*,#589,.F.);
#772=ORIENTED_EDGE('',*,*,#590,.F.);
#773=ORIENTED_EDGE('',*,*,#587,.T.);
#774=ORIENTED_EDGE('',*,*,#579,.F.);
#775=ORIENTED_EDGE('',*,*,#591,.F.);
#776=ORIENTED_EDGE('',*,*,#592,.F.);
#777=ORIENTED_EDGE('',*,*,#589,.T.);
#778=ORIENTED_EDGE('',*,*,#578,.F.);
#779=ORIENTED_EDGE('',*,*,#593,.F.);
#780=ORIENTED_EDGE('',*,*,#594,.F.);
#781=ORIENTED_EDGE('',*,*,#591,.T.);
#782=ORIENTED_EDGE('',*,*,#577,.F.);
#783=ORIENTED_EDGE('',*,*,#595,.F.);
#784=ORIENTED_EDGE('',*,*,#596,.F.);
#785=ORIENTED_EDGE('',*,*,#593,.T.);
#786=ORIENTED_EDGE('',*,*,#576,.F.);
#787=ORIENTED_EDGE('',*,*,#582,.F.);
#788=ORIENTED_EDGE('',*,*,#597,.F.);
#789=ORIENTED_EDGE('',*,*,#595,.T.);
#790=ORIENTED_EDGE('',*,*,#598,.F.);
#791=ORIENTED_EDGE('',*,*,#599,.T.);
#792=ORIENTED_EDGE('',*,*,#600,.F.);
#793=ORIENTED_EDGE('',*,*,#601,.F.);
#794=ORIENTED_EDGE('',*,*,#602,.F.);
#795=ORIENTED_EDGE('',*,*,#601,.T.);
#796=ORIENTED_EDGE('',*,*,#603,.F.);
#797=ORIENTED_EDGE('',*,*,#604,.F.);
#798=ORIENTED_EDGE('',*,*,#605,.F.);
#799=ORIENTED_EDGE('',*,*,#604,.T.);
#800=ORIENTED_EDGE('',*,*,#606,.F.);
#801=ORIENTED_EDGE('',*,*,#599,.F.);
#802=ORIENTED_EDGE('',*,*,#606,.T.);
#803=ORIENTED_EDGE('',*,*,#603,.T.);
#804=ORIENTED_EDGE('',*,*,#600,.T.);
#805=ORIENTED_EDGE('',*,*,#607,.T.);
#806=ORIENTED_EDGE('',*,*,#608,.T.);
#807=ORIENTED_EDGE('',*,*,#609,.T.);
#808=ORIENTED_EDGE('',*,*,#610,.T.);
#809=ORIENTED_EDGE('',*,*,#611,.T.);
#810=ORIENTED_EDGE('',*,*,#612,.T.);
#811=ORIENTED_EDGE('',*,*,#613,.T.);
#812=ORIENTED_EDGE('',*,*,#614,.T.);
#813=ORIENTED_EDGE('',*,*,#615,.T.);
#814=ORIENTED_EDGE('',*,*,#616,.T.);
#815=ORIENTED_EDGE('',*,*,#611,.F.);
#816=ORIENTED_EDGE('',*,*,#617,.F.);
#817=ORIENTED_EDGE('',*,*,#618,.F.);
#818=ORIENTED_EDGE('',*,*,#619,.T.);
#819=ORIENTED_EDGE('',*,*,#610,.F.);
#820=ORIENTED_EDGE('',*,*,#620,.F.);
#821=ORIENTED_EDGE('',*,*,#621,.F.);
#822=ORIENTED_EDGE('',*,*,#617,.T.);
#823=ORIENTED_EDGE('',*,*,#609,.F.);
#824=ORIENTED_EDGE('',*,*,#622,.F.);
#825=ORIENTED_EDGE('',*,*,#623,.F.);
#826=ORIENTED_EDGE('',*,*,#620,.T.);
#827=ORIENTED_EDGE('',*,*,#608,.F.);
#828=ORIENTED_EDGE('',*,*,#624,.F.);
#829=ORIENTED_EDGE('',*,*,#625,.F.);
#830=ORIENTED_EDGE('',*,*,#622,.T.);
#831=ORIENTED_EDGE('',*,*,#607,.F.);
#832=ORIENTED_EDGE('',*,*,#626,.F.);
#833=ORIENTED_EDGE('',*,*,#627,.F.);
#834=ORIENTED_EDGE('',*,*,#624,.T.);
#835=ORIENTED_EDGE('',*,*,#616,.F.);
#836=ORIENTED_EDGE('',*,*,#628,.F.);
#837=ORIENTED_EDGE('',*,*,#629,.F.);
#838=ORIENTED_EDGE('',*,*,#626,.T.);
#839=ORIENTED_EDGE('',*,*,#615,.F.);
#840=ORIENTED_EDGE('',*,*,#630,.F.);
#841=ORIENTED_EDGE('',*,*,#631,.F.);
#842=ORIENTED_EDGE('',*,*,#628,.T.);
#843=ORIENTED_EDGE('',*,*,#614,.F.);
#844=ORIENTED_EDGE('',*,*,#632,.F.);
#845=ORIENTED_EDGE('',*,*,#633,.F.);
#846=ORIENTED_EDGE('',*,*,#630,.T.);
#847=ORIENTED_EDGE('',*,*,#613,.F.);
#848=ORIENTED_EDGE('',*,*,#634,.F.);
#849=ORIENTED_EDGE('',*,*,#635,.F.);
#850=ORIENTED_EDGE('',*,*,#632,.T.);
#851=ORIENTED_EDGE('',*,*,#612,.F.);
#852=ORIENTED_EDGE('',*,*,#619,.F.);
#853=ORIENTED_EDGE('',*,*,#636,.F.);
#854=ORIENTED_EDGE('',*,*,#634,.T.);
#855=ORIENTED_EDGE('',*,*,#637,.F.);
#856=ORIENTED_EDGE('',*,*,#638,.T.);
#857=ORIENTED_EDGE('',*,*,#639,.F.);
#858=ORIENTED_EDGE('',*,*,#640,.F.);
#859=ORIENTED_EDGE('',*,*,#641,.F.);
#860=ORIENTED_EDGE('',*,*,#640,.T.);
#861=ORIENTED_EDGE('',*,*,#642,.F.);
#862=ORIENTED_EDGE('',*,*,#643,.F.);
#863=ORIENTED_EDGE('',*,*,#644,.F.);
#864=ORIENTED_EDGE('',*,*,#643,.T.);
#865=ORIENTED_EDGE('',*,*,#645,.F.);
#866=ORIENTED_EDGE('',*,*,#638,.F.);
#867=ORIENTED_EDGE('',*,*,#645,.T.);
#868=ORIENTED_EDGE('',*,*,#642,.T.);
#869=ORIENTED_EDGE('',*,*,#639,.T.);
#870=ORIENTED_EDGE('',*,*,#646,.F.);
#871=ORIENTED_EDGE('',*,*,#647,.T.);
#872=ORIENTED_EDGE('',*,*,#648,.T.);
#873=ORIENTED_EDGE('',*,*,#649,.F.);
#874=ORIENTED_EDGE('',*,*,#650,.F.);
#875=ORIENTED_EDGE('',*,*,#651,.T.);
#876=ORIENTED_EDGE('',*,*,#652,.T.);
#877=ORIENTED_EDGE('',*,*,#647,.F.);
#878=ORIENTED_EDGE('',*,*,#653,.F.);
#879=ORIENTED_EDGE('',*,*,#654,.T.);
#880=ORIENTED_EDGE('',*,*,#655,.T.);
#881=ORIENTED_EDGE('',*,*,#651,.F.);
#882=ORIENTED_EDGE('',*,*,#656,.F.);
#883=ORIENTED_EDGE('',*,*,#649,.T.);
#884=ORIENTED_EDGE('',*,*,#657,.T.);
#885=ORIENTED_EDGE('',*,*,#654,.F.);
#886=ORIENTED_EDGE('',*,*,#657,.F.);
#887=ORIENTED_EDGE('',*,*,#648,.F.);
#888=ORIENTED_EDGE('',*,*,#652,.F.);
#889=ORIENTED_EDGE('',*,*,#655,.F.);
#890=ORIENTED_EDGE('',*,*,#658,.T.);
#891=ORIENTED_EDGE('',*,*,#659,.T.);
#892=ORIENTED_EDGE('',*,*,#660,.F.);
#893=ORIENTED_EDGE('',*,*,#661,.F.);
#894=ORIENTED_EDGE('',*,*,#662,.T.);
#895=ORIENTED_EDGE('',*,*,#661,.T.);
#896=ORIENTED_EDGE('',*,*,#663,.F.);
#897=ORIENTED_EDGE('',*,*,#664,.F.);
#898=ORIENTED_EDGE('',*,*,#618,.T.);
#899=ORIENTED_EDGE('',*,*,#621,.T.);
#900=ORIENTED_EDGE('',*,*,#623,.T.);
#901=ORIENTED_EDGE('',*,*,#625,.T.);
#902=ORIENTED_EDGE('',*,*,#627,.T.);
#903=ORIENTED_EDGE('',*,*,#629,.T.);
#904=ORIENTED_EDGE('',*,*,#631,.T.);
#905=ORIENTED_EDGE('',*,*,#633,.T.);
#906=ORIENTED_EDGE('',*,*,#635,.T.);
#907=ORIENTED_EDGE('',*,*,#636,.T.);
#908=ORIENTED_EDGE('',*,*,#637,.T.);
#909=ORIENTED_EDGE('',*,*,#641,.T.);
#910=ORIENTED_EDGE('',*,*,#644,.T.);
#911=ORIENTED_EDGE('',*,*,#665,.T.);
#912=ORIENTED_EDGE('',*,*,#664,.T.);
#913=ORIENTED_EDGE('',*,*,#666,.F.);
#914=ORIENTED_EDGE('',*,*,#667,.F.);
#915=ORIENTED_EDGE('',*,*,#581,.T.);
#916=ORIENTED_EDGE('',*,*,#584,.T.);
#917=ORIENTED_EDGE('',*,*,#586,.T.);
#918=ORIENTED_EDGE('',*,*,#588,.T.);
#919=ORIENTED_EDGE('',*,*,#590,.T.);
#920=ORIENTED_EDGE('',*,*,#592,.T.);
#921=ORIENTED_EDGE('',*,*,#594,.T.);
#922=ORIENTED_EDGE('',*,*,#596,.T.);
#923=ORIENTED_EDGE('',*,*,#597,.T.);
#924=ORIENTED_EDGE('',*,*,#598,.T.);
#925=ORIENTED_EDGE('',*,*,#602,.T.);
#926=ORIENTED_EDGE('',*,*,#605,.T.);
#927=ORIENTED_EDGE('',*,*,#668,.T.);
#928=ORIENTED_EDGE('',*,*,#667,.T.);
#929=ORIENTED_EDGE('',*,*,#669,.F.);
#930=ORIENTED_EDGE('',*,*,#659,.F.);
#931=ORIENTED_EDGE('',*,*,#646,.T.);
#932=ORIENTED_EDGE('',*,*,#656,.T.);
#933=ORIENTED_EDGE('',*,*,#653,.T.);
#934=ORIENTED_EDGE('',*,*,#650,.T.);
#935=ORIENTED_EDGE('',*,*,#669,.T.);
#936=ORIENTED_EDGE('',*,*,#666,.T.);
#937=ORIENTED_EDGE('',*,*,#663,.T.);
#938=ORIENTED_EDGE('',*,*,#660,.T.);
#939=ORIENTED_EDGE('',*,*,#668,.F.);
#940=ORIENTED_EDGE('',*,*,#658,.F.);
#941=ORIENTED_EDGE('',*,*,#662,.F.);
#942=ORIENTED_EDGE('',*,*,#665,.F.);
#943=ORIENTED_EDGE('',*,*,#539,.T.);
#944=ORIENTED_EDGE('',*,*,#542,.T.);
#945=ORIENTED_EDGE('',*,*,#544,.T.);
#946=ORIENTED_EDGE('',*,*,#546,.T.);
#947=ORIENTED_EDGE('',*,*,#548,.T.);
#948=ORIENTED_EDGE('',*,*,#550,.T.);
#949=ORIENTED_EDGE('',*,*,#552,.T.);
#950=ORIENTED_EDGE('',*,*,#554,.T.);
#951=ORIENTED_EDGE('',*,*,#556,.T.);
#952=ORIENTED_EDGE('',*,*,#558,.T.);
#953=ORIENTED_EDGE('',*,*,#560,.T.);
#954=ORIENTED_EDGE('',*,*,#561,.T.);
#955=ORIENTED_EDGE('',*,*,#562,.T.);
#956=ORIENTED_EDGE('',*,*,#566,.T.);
#957=ORIENTED_EDGE('',*,*,#569,.T.);
#958=PLANE('',#1133);
#959=PLANE('',#1134);
#960=PLANE('',#1135);
#961=PLANE('',#1136);
#962=PLANE('',#1137);
#963=PLANE('',#1138);
#964=PLANE('',#1139);
#965=PLANE('',#1140);
#966=PLANE('',#1141);
#967=PLANE('',#1142);
#968=PLANE('',#1143);
#969=PLANE('',#1144);
#970=PLANE('',#1145);
#971=PLANE('',#1146);
#972=PLANE('',#1147);
#973=PLANE('',#1148);
#974=PLANE('',#1149);
#975=PLANE('',#1150);
#976=PLANE('',#1151);
#977=PLANE('',#1152);
#978=PLANE('',#1153);
#979=PLANE('',#1154);
#980=PLANE('',#1155);
#981=PLANE('',#1156);
#982=PLANE('',#1157);
#983=PLANE('',#1158);
#984=PLANE('',#1159);
#985=PLANE('',#1160);
#986=PLANE('',#1161);
#987=PLANE('',#1162);
#988=PLANE('',#1163);
#989=PLANE('',#1164);
#990=PLANE('',#1165);
#991=PLANE('',#1166);
#992=PLANE('',#1167);
#993=PLANE('',#1168);
#994=PLANE('',#1169);
#995=PLANE('',#1170);
#996=PLANE('',#1171);
#997=PLANE('',#1172);
#998=PLANE('',#1173);
#999=PLANE('',#1174);
#1000=PLANE('',#1175);
#1001=PLANE('',#1176);
#1002=PLANE('',#1177);
#1003=PLANE('',#1178);
#1004=PLANE('',#1179);
#1005=PLANE('',#1180);
#1006=PLANE('',#1181);
#1007=PLANE('',#1182);
#1008=PLANE('',#1183);
#1009=PLANE('',#1184);
#1010=PLANE('',#1185);
#1011=PLANE('',#1186);
#1012=PLANE('',#1187);
#1013=PLANE('',#1188);
#1014=PLANE('',#1189);
#1015=STYLED_ITEM('',(#1768),#1062);
#1016=STYLED_ITEM('',(#1768),#1063);
#1017=STYLED_ITEM('',(#1768),#1064);
#1018=STYLED_ITEM('',(#1768),#1065);
#1019=STYLED_ITEM('',(#1768),#1066);
#1020=STYLED_ITEM('',(#1768),#1067);
#1021=STYLED_ITEM('',(#1768),#1068);
#1022=STYLED_ITEM('',(#1768),#1069);
#1023=STYLED_ITEM('',(#1768),#1070);
#1024=STYLED_ITEM('',(#1768),#1071);
#1025=STYLED_ITEM('',(#1768),#1072);
#1026=STYLED_ITEM('',(#1768),#1073);
#1027=STYLED_ITEM('',(#1768),#1074);
#1028=STYLED_ITEM('',(#1768),#1075);
#1029=STYLED_ITEM('',(#1768),#1076);
#1030=STYLED_ITEM('',(#1768),#1077);
#1031=STYLED_ITEM('',(#1768),#1078);
#1032=STYLED_ITEM('',(#1768),#1079);
#1033=STYLED_ITEM('',(#1768),#1080);
#1034=STYLED_ITEM('',(#1768),#1081);
#1035=STYLED_ITEM('',(#1768),#1082);
#1036=STYLED_ITEM('',(#1768),#1083);
#1037=STYLED_ITEM('',(#1768),#1084);
#1038=STYLED_ITEM('',(#1768),#1085);
#1039=STYLED_ITEM('',(#1768),#1086);
#1040=STYLED_ITEM('',(#1768),#1087);
#1041=STYLED_ITEM('',(#1768),#1088);
#1042=STYLED_ITEM('',(#1768),#1089);
#1043=STYLED_ITEM('',(#1768),#1090);
#1044=STYLED_ITEM('',(#1768),#1091);
#1045=STYLED_ITEM('',(#1768),#1092);
#1046=STYLED_ITEM('',(#1768),#1093);
#1047=STYLED_ITEM('',(#1768),#1094);
#1048=STYLED_ITEM('',(#1768),#1095);
#1049=STYLED_ITEM('',(#1768),#1096);
#1050=STYLED_ITEM('',(#1768),#1097);
#1051=STYLED_ITEM('',(#1768),#1098);
#1052=STYLED_ITEM('',(#1768),#1099);
#1053=STYLED_ITEM('',(#1768),#1100);
#1054=STYLED_ITEM('',(#1768),#1101);
#1055=STYLED_ITEM('',(#1768),#1102);
#1056=STYLED_ITEM('',(#1768),#1103);
#1057=STYLED_ITEM('',(#1768),#1104);
#1058=STYLED_ITEM('',(#1768),#1105);
#1059=STYLED_ITEM('',(#1768),#1106);
#1060=STYLED_ITEM('',(#1768),#1107);
#1061=STYLED_ITEM('',(#1767),#13);
#1062=ADVANCED_FACE('',(#21),#958,.F.);
#1063=ADVANCED_FACE('',(#22),#959,.T.);
#1064=ADVANCED_FACE('',(#23),#960,.T.);
#1065=ADVANCED_FACE('',(#24),#961,.T.);
#1066=ADVANCED_FACE('',(#25),#962,.T.);
#1067=ADVANCED_FACE('',(#26),#963,.T.);
#1068=ADVANCED_FACE('',(#27),#964,.T.);
#1069=ADVANCED_FACE('',(#28),#965,.T.);
#1070=ADVANCED_FACE('',(#29),#966,.T.);
#1071=ADVANCED_FACE('',(#30),#967,.T.);
#1072=ADVANCED_FACE('',(#31),#968,.T.);
#1073=ADVANCED_FACE('',(#32),#969,.T.);
#1074=ADVANCED_FACE('',(#33),#970,.T.);
#1075=ADVANCED_FACE('',(#34),#971,.T.);
#1076=ADVANCED_FACE('',(#35),#972,.T.);
#1077=ADVANCED_FACE('',(#36),#973,.T.);
#1078=ADVANCED_FACE('',(#37),#974,.T.);
#1079=ADVANCED_FACE('',(#38),#975,.T.);
#1080=ADVANCED_FACE('',(#39),#976,.T.);
#1081=ADVANCED_FACE('',(#40),#977,.T.);
#1082=ADVANCED_FACE('',(#41),#978,.T.);
#1083=ADVANCED_FACE('',(#42),#979,.T.);
#1084=ADVANCED_FACE('',(#43),#980,.T.);
#1085=ADVANCED_FACE('',(#44),#981,.T.);
#1086=ADVANCED_FACE('',(#45),#982,.T.);
#1087=ADVANCED_FACE('',(#46),#983,.T.);
#1088=ADVANCED_FACE('',(#47),#984,.T.);
#1089=ADVANCED_FACE('',(#48),#985,.T.);
#1090=ADVANCED_FACE('',(#49),#986,.T.);
#1091=ADVANCED_FACE('',(#50),#987,.T.);
#1092=ADVANCED_FACE('',(#51),#988,.T.);
#1093=ADVANCED_FACE('',(#52),#989,.T.);
#1094=ADVANCED_FACE('',(#53),#990,.T.);
#1095=ADVANCED_FACE('',(#54),#991,.T.);
#1096=ADVANCED_FACE('',(#55),#992,.T.);
#1097=ADVANCED_FACE('',(#56),#993,.T.);
#1098=ADVANCED_FACE('',(#57),#994,.T.);
#1099=ADVANCED_FACE('',(#58),#995,.T.);
#1100=ADVANCED_FACE('',(#59),#996,.T.);
#1101=ADVANCED_FACE('',(#60),#997,.T.);
#1102=ADVANCED_FACE('',(#61),#998,.T.);
#1103=ADVANCED_FACE('',(#62),#999,.T.);
#1104=ADVANCED_FACE('',(#63),#1000,.T.);
#1105=ADVANCED_FACE('',(#64),#1001,.T.);
#1106=ADVANCED_FACE('',(#65),#1002,.T.);
#1107=ADVANCED_FACE('',(#66),#1003,.T.);
#1108=ADVANCED_FACE('',(#67),#1004,.F.);
#1109=ADVANCED_FACE('',(#68),#1005,.F.);
#1110=ADVANCED_FACE('',(#69),#1006,.F.);
#1111=ADVANCED_FACE('',(#70),#1007,.F.);
#1112=ADVANCED_FACE('',(#71),#1008,.F.);
#1113=ADVANCED_FACE('',(#72),#1009,.T.);
#1114=ADVANCED_FACE('',(#73,#14,#15),#1010,.T.);
#1115=ADVANCED_FACE('',(#74,#16,#17),#1011,.T.);
#1116=ADVANCED_FACE('',(#75,#18),#1012,.T.);
#1117=ADVANCED_FACE('',(#76),#1013,.T.);
#1118=ADVANCED_FACE('',(#77,#19,#20),#1014,.F.);
#1119=CLOSED_SHELL('',(#1062,#1063,#1064,#1065,#1066,#1067,#1068,#1069,
#1070,#1071,#1072,#1073,#1074,#1075,#1076,#1077,#1078,#1079,#1080,#1081,
#1082,#1083,#1084,#1085,#1086,#1087,#1088,#1089,#1090,#1091,#1092,#1093,
#1094,#1095,#1096,#1097,#1098,#1099,#1100,#1101,#1102,#1103,#1104,#1105,
#1106,#1107,#1108,#1109,#1110,#1111,#1112,#1113,#1114,#1115,#1116,#1117,
#1118));
#1120=DERIVED_UNIT_ELEMENT(#1122,1.);
#1121=DERIVED_UNIT_ELEMENT(#1753,-3.);
#1122=(
MASS_UNIT()
NAMED_UNIT(*)
SI_UNIT(.KILO.,.GRAM.)
);
#1123=DERIVED_UNIT((#1120,#1121));
#1124=MEASURE_REPRESENTATION_ITEM('density measure',
POSITIVE_RATIO_MEASURE(1000.),#1123);
#1125=PROPERTY_DEFINITION_REPRESENTATION(#1130,#1127);
#1126=PROPERTY_DEFINITION_REPRESENTATION(#1131,#1128);
#1127=REPRESENTATION('material name',(#1129),#1750);
#1128=REPRESENTATION('density',(#1124),#1750);
#1129=DESCRIPTIVE_REPRESENTATION_ITEM('Generic','Generic');
#1130=PROPERTY_DEFINITION('material property','material name',#1760);
#1131=PROPERTY_DEFINITION('material property','density of part',#1760);
#1132=AXIS2_PLACEMENT_3D('',#1450,#1190,#1191);
#1133=AXIS2_PLACEMENT_3D('',#1451,#1192,#1193);
#1134=AXIS2_PLACEMENT_3D('',#1476,#1206,#1207);
#1135=AXIS2_PLACEMENT_3D('',#1482,#1211,#1212);
#1136=AXIS2_PLACEMENT_3D('',#1486,#1215,#1216);
#1137=AXIS2_PLACEMENT_3D('',#1490,#1219,#1220);
#1138=AXIS2_PLACEMENT_3D('',#1494,#1223,#1224);
#1139=AXIS2_PLACEMENT_3D('',#1498,#1227,#1228);
#1140=AXIS2_PLACEMENT_3D('',#1502,#1231,#1232);
#1141=AXIS2_PLACEMENT_3D('',#1506,#1235,#1236);
#1142=AXIS2_PLACEMENT_3D('',#1510,#1239,#1240);
#1143=AXIS2_PLACEMENT_3D('',#1514,#1243,#1244);
#1144=AXIS2_PLACEMENT_3D('',#1518,#1247,#1248);
#1145=AXIS2_PLACEMENT_3D('',#1522,#1251,#1252);
#1146=AXIS2_PLACEMENT_3D('',#1524,#1254,#1255);
#1147=AXIS2_PLACEMENT_3D('',#1533,#1260,#1261);
#1148=AXIS2_PLACEMENT_3D('',#1539,#1265,#1266);
#1149=AXIS2_PLACEMENT_3D('',#1542,#1269,#1270);
#1150=AXIS2_PLACEMENT_3D('',#1543,#1271,#1272);
#1151=AXIS2_PLACEMENT_3D('',#1562,#1282,#1283);
#1152=AXIS2_PLACEMENT_3D('',#1568,#1287,#1288);
#1153=AXIS2_PLACEMENT_3D('',#1572,#1291,#1292);
#1154=AXIS2_PLACEMENT_3D('',#1576,#1295,#1296);
#1155=AXIS2_PLACEMENT_3D('',#1580,#1299,#1300);
#1156=AXIS2_PLACEMENT_3D('',#1584,#1303,#1304);
#1157=AXIS2_PLACEMENT_3D('',#1588,#1307,#1308);
#1158=AXIS2_PLACEMENT_3D('',#1592,#1311,#1312);
#1159=AXIS2_PLACEMENT_3D('',#1596,#1315,#1316);
#1160=AXIS2_PLACEMENT_3D('',#1598,#1318,#1319);
#1161=AXIS2_PLACEMENT_3D('',#1607,#1324,#1325);
#1162=AXIS2_PLACEMENT_3D('',#1613,#1329,#1330);
#1163=AXIS2_PLACEMENT_3D('',#1616,#1333,#1334);
#1164=AXIS2_PLACEMENT_3D('',#1617,#1335,#1336);
#1165=AXIS2_PLACEMENT_3D('',#1638,#1347,#1348);
#1166=AXIS2_PLACEMENT_3D('',#1644,#1352,#1353);
#1167=AXIS2_PLACEMENT_3D('',#1648,#1356,#1357);
#1168=AXIS2_PLACEMENT_3D('',#1652,#1360,#1361);
#1169=AXIS2_PLACEMENT_3D('',#1656,#1364,#1365);
#1170=AXIS2_PLACEMENT_3D('',#1660,#1368,#1369);
#1171=AXIS2_PLACEMENT_3D('',#1664,#1372,#1373);
#1172=AXIS2_PLACEMENT_3D('',#1668,#1376,#1377);
#1173=AXIS2_PLACEMENT_3D('',#1672,#1380,#1381);
#1174=AXIS2_PLACEMENT_3D('',#1676,#1384,#1385);
#1175=AXIS2_PLACEMENT_3D('',#1678,#1387,#1388);
#1176=AXIS2_PLACEMENT_3D('',#1687,#1393,#1394);
#1177=AXIS2_PLACEMENT_3D('',#1693,#1398,#1399);
#1178=AXIS2_PLACEMENT_3D('',#1696,#1402,#1403);
#1179=AXIS2_PLACEMENT_3D('',#1697,#1404,#1405);
#1180=AXIS2_PLACEMENT_3D('',#1706,#1410,#1411);
#1181=AXIS2_PLACEMENT_3D('',#1712,#1415,#1416);
#1182=AXIS2_PLACEMENT_3D('',#1718,#1420,#1421);
#1183=AXIS2_PLACEMENT_3D('',#1721,#1424,#1425);
#1184=AXIS2_PLACEMENT_3D('',#1722,#1426,#1427);
#1185=AXIS2_PLACEMENT_3D('',#1731,#1432,#1433);
#1186=AXIS2_PLACEMENT_3D('',#1737,#1437,#1438);
#1187=AXIS2_PLACEMENT_3D('',#1743,#1442,#1443);
#1188=AXIS2_PLACEMENT_3D('',#1746,#1446,#1447);
#1189=AXIS2_PLACEMENT_3D('',#1747,#1448,#1449);
#1190=DIRECTION('axis',(0.,0.,1.));
#1191=DIRECTION('refdir',(1.,0.,0.));
#1192=DIRECTION('center_axis',(1.22464679914735E-16,2.22044604925031E-16,
1.));
#1193=DIRECTION('ref_axis',(-1.22464679914735E-16,-1.,2.22044604925031E-16));
#1194=DIRECTION('',(0.520607424264656,0.853796175794036,-2.53336856114495E-16));
#1195=DIRECTION('',(1.,-1.22464679914735E-16,-1.22464679914735E-16));
#1196=DIRECTION('',(-0.524855865490428,-0.851191118645099,2.53278701223903E-16));
#1197=DIRECTION('',(0.53597672021737,-0.844232761378656,1.21819112481922E-16));
#1198=DIRECTION('',(-1.,1.22464679914735E-16,1.22464679914735E-16));
#1199=DIRECTION('',(-0.527625517089336,0.849477082513831,-1.24006313114459E-16));
#1200=DIRECTION('',(-0.519946946895745,-0.854198555614438,2.53345317233172E-16));
#1201=DIRECTION('',(-1.,1.22464679914735E-16,1.22464679914735E-16));
#1202=DIRECTION('',(0.526021863962622,0.850471045146917,-2.5326160641816E-16));
#1203=DIRECTION('',(-0.536610413405564,0.843830115736995,-1.21652102156038E-16));
#1204=DIRECTION('',(1.,-1.22464679914735E-16,-1.22464679914735E-16));
#1205=DIRECTION('',(0.528135980540068,-0.849159811848736,1.23873351131872E-16));
#1206=DIRECTION('center_axis',(-0.849477082513831,-0.527625517089336,2.21187338495427E-16));
#1207=DIRECTION('ref_axis',(0.527625517089336,-0.849477082513831,1.24006313114459E-16));
#1208=DIRECTION('',(-1.22464679914735E-16,-2.22044604925031E-16,-1.));
#1209=DIRECTION('',(0.527625517089336,-0.849477082513831,1.24006313114459E-16));
#1210=DIRECTION('',(-1.22464679914735E-16,-2.22044604925031E-16,-1.));
#1211=DIRECTION('center_axis',(-1.22464679914735E-16,-1.,2.22044604925031E-16));
#1212=DIRECTION('ref_axis',(1.,-1.22464679914735E-16,-1.22464679914735E-16));
#1213=DIRECTION('',(-1.22464679914735E-16,-2.22044604925031E-16,-1.));
#1214=DIRECTION('',(1.,-1.22464679914735E-16,-1.22464679914735E-16));
#1215=DIRECTION('center_axis',(0.844232761378656,0.53597672021737,-2.2239943398545E-16));
#1216=DIRECTION('ref_axis',(-0.53597672021737,0.844232761378656,-1.21819112481922E-16));
#1217=DIRECTION('',(-1.22464679914735E-16,-2.22044604925031E-16,-1.));
#1218=DIRECTION('',(-0.53597672021737,0.844232761378656,-1.21819112481922E-16));
#1219=DIRECTION('center_axis',(0.851191118645099,-0.524855865490428,1.23005654042698E-17));
#1220=DIRECTION('ref_axis',(0.524855865490428,0.851191118645099,-2.53278701223903E-16));
#1221=DIRECTION('',(-1.22464679914735E-16,-2.22044604925031E-16,-1.));
#1222=DIRECTION('',(0.524855865490428,0.851191118645099,-2.53278701223903E-16));
#1223=DIRECTION('center_axis',(1.22464679914735E-16,1.,-2.22044604925031E-16));
#1224=DIRECTION('ref_axis',(-1.,1.22464679914735E-16,1.22464679914735E-16));
#1225=DIRECTION('',(-1.22464679914735E-16,-2.22044604925031E-16,-1.));
#1226=DIRECTION('',(-1.,1.22464679914735E-16,1.22464679914735E-16));
#1227=DIRECTION('center_axis',(-0.853796175794036,0.520607424264656,-1.10381944608419E-17));
#1228=DIRECTION('ref_axis',(-0.520607424264656,-0.853796175794036,2.53336856114495E-16));
#1229=DIRECTION('',(-1.22464679914735E-16,-2.22044604925031E-16,-1.));
#1230=DIRECTION('',(-0.520607424264656,-0.853796175794036,2.53336856114495E-16));
#1231=DIRECTION('center_axis',(0.849159811848736,0.528135980540068,-2.21261829700226E-16));
#1232=DIRECTION('ref_axis',(-0.528135980540068,0.849159811848736,-1.23873351131872E-16));
#1233=DIRECTION('',(-1.22464679914735E-16,-2.22044604925031E-16,-1.));
#1234=DIRECTION('',(-0.528135980540068,0.849159811848736,-1.23873351131872E-16));
#1235=DIRECTION('center_axis',(1.22464679914735E-16,1.,-2.22044604925031E-16));
#1236=DIRECTION('ref_axis',(-1.,1.22464679914735E-16,1.22464679914735E-16));
#1237=DIRECTION('',(-1.22464679914735E-16,-2.22044604925031E-16,-1.));
#1238=DIRECTION('',(-1.,1.22464679914735E-16,1.22464679914735E-16));
#1239=DIRECTION('center_axis',(-0.843830115736995,-0.536610413405564,2.22490832269441E-16));
#1240=DIRECTION('ref_axis',(0.536610413405564,-0.843830115736995,1.21652102156038E-16));
#1241=DIRECTION('',(-1.22464679914735E-16,-2.22044604925031E-16,-1.));
#1242=DIRECTION('',(0.536610413405564,-0.843830115736995,1.21652102156038E-16));
#1243=DIRECTION('center_axis',(-0.850471045146917,0.526021863962622,-1.26476526448414E-17));
#1244=DIRECTION('ref_axis',(-0.526021863962622,-0.850471045146917,2.5326160641816E-16));
#1245=DIRECTION('',(-1.22464679914735E-16,-2.22044604925031E-16,-1.));
#1246=DIRECTION('',(-0.526021863962622,-0.850471045146917,2.5326160641816E-16));
#1247=DIRECTION('center_axis',(-1.22464679914735E-16,-1.,2.22044604925031E-16));
#1248=DIRECTION('ref_axis',(1.,-1.22464679914735E-16,-1.22464679914735E-16));
#1249=DIRECTION('',(-1.22464679914735E-16,-2.22044604925031E-16,-1.));
#1250=DIRECTION('',(1.,-1.22464679914735E-16,-1.22464679914735E-16));
#1251=DIRECTION('center_axis',(0.854198555614438,-0.519946946895745,1.08422617084905E-17));
#1252=DIRECTION('ref_axis',(0.519946946895745,0.854198555614438,-2.53345317233172E-16));
#1253=DIRECTION('',(0.519946946895745,0.854198555614438,-2.53345317233172E-16));
#1254=DIRECTION('center_axis',(0.5,-0.866025403784439,1.31063928680989E-16));
#1255=DIRECTION('ref_axis',(-0.866025403784439,-0.5,2.17079826335006E-16));
#1256=DIRECTION('',(0.866025403784439,0.5,-2.17079826335006E-16));
#1257=DIRECTION('',(-1.22464679914735E-16,-2.22044604925031E-16,-1.));
#1258=DIRECTION('',(-0.866025403784439,-0.5,2.17079826335006E-16));
#1259=DIRECTION('',(-1.22464679914735E-16,-2.22044604925031E-16,-1.));
#1260=DIRECTION('center_axis',(0.5,0.866025403784439,-2.53528608595724E-16));
#1261=DIRECTION('ref_axis',(0.866025403784439,-0.5,4.96477859002495E-18));
#1262=DIRECTION('',(-0.866025403784439,0.5,-4.96477859002495E-18));
#1263=DIRECTION('',(0.866025403784439,-0.5,4.96477859002495E-18));
#1264=DIRECTION('',(-1.22464679914735E-16,-2.22044604925031E-16,-1.));
#1265=DIRECTION('center_axis',(-1.,3.14760948553092E-16,1.22464679914735E-16));
#1266=DIRECTION('ref_axis',(3.14760948553092E-16,1.,-2.22044604925031E-16));
#1267=DIRECTION('',(-3.14760948553092E-16,-1.,2.22044604925031E-16));
#1268=DIRECTION('',(3.14760948553092E-16,1.,-2.22044604925031E-16));
#1269=DIRECTION('center_axis',(-1.22464679914735E-16,-2.22044604925031E-16,
-1.));
#1270=DIRECTION('ref_axis',(1.22464679914735E-16,1.,-2.22044604925031E-16));
#1271=DIRECTION('center_axis',(1.,-1.22464679914735E-16,-1.22464679914735E-16));
#1272=DIRECTION('ref_axis',(1.22464679914735E-16,1.,-2.22044604925031E-16));
#1273=DIRECTION('',(1.22464679914734E-16,1.,-1.01007270445393E-14));
#1274=DIRECTION('',(4.12524566398431E-17,0.855181135397273,-0.518329263750978));
#1275=DIRECTION('',(1.22464679914737E-16,1.05549193406135E-14,1.));
#1276=DIRECTION('',(-4.2643243826569E-17,-0.859441915451179,0.511233404586994));
#1277=DIRECTION('',(1.67624033763648E-16,0.862219815366037,0.50653429300508));
#1278=DIRECTION('',(1.22464679914737E-16,1.01007270445394E-14,1.));
#1279=DIRECTION('',(-1.67752994532372E-16,-0.86070770306419,-0.509099449897528));
#1280=DIRECTION('',(-1.22464679914734E-16,-1.,1.21175468998859E-14));
#1281=DIRECTION('',(-1.22464679914737E-16,-1.11849726781555E-14,-1.));
#1282=DIRECTION('center_axis',(-4.355891364624E-17,0.50653429300508,-0.862219815366037));
#1283=DIRECTION('ref_axis',(-1.,1.22464679914735E-16,1.22464679914735E-16));
#1284=DIRECTION('',(1.,-1.22464679914735E-16,-1.22464679914735E-16));
#1285=DIRECTION('',(-1.67624033763648E-16,-0.862219815366037,-0.50653429300508));
#1286=DIRECTION('',(1.,-1.22464679914735E-16,-1.22464679914735E-16));
#1287=DIRECTION('center_axis',(1.67859314335502E-16,0.511233404586994,0.859441915451179));
#1288=DIRECTION('ref_axis',(-1.,1.22464679914735E-16,1.22464679914735E-16));
#1289=DIRECTION('',(1.,-1.22464679914735E-16,-1.22464679914735E-16));
#1290=DIRECTION('',(4.2643243826569E-17,0.859441915451179,-0.511233404586994));
#1291=DIRECTION('center_axis',(1.22464679914734E-16,1.,-1.05549193406135E-14));
#1292=DIRECTION('ref_axis',(-1.,1.22464679914735E-16,1.22464679914735E-16));
#1293=DIRECTION('',(1.,-1.22464679914735E-16,-1.22464679914735E-16));
#1294=DIRECTION('',(-1.22464679914737E-16,-1.05549193406135E-14,-1.));
#1295=DIRECTION('center_axis',(-1.68206511391251E-16,-0.518329263750978,
-0.855181135397273));
#1296=DIRECTION('ref_axis',(1.,-1.22464679914735E-16,-1.22464679914735E-16));
#1297=DIRECTION('',(1.,-1.22464679914735E-16,-1.22464679914735E-16));
#1298=DIRECTION('',(-4.12524566398431E-17,-0.855181135397273,0.518329263750978));
#1299=DIRECTION('center_axis',(-1.22464679914737E-16,-1.01007270445393E-14,
-1.));
#1300=DIRECTION('ref_axis',(1.22464679914734E-16,1.,-1.01007270445393E-14));
#1301=DIRECTION('',(1.,-1.22464679914735E-16,-1.22464679914735E-16));
#1302=DIRECTION('',(-1.22464679914734E-16,-1.,1.01007270445393E-14));
#1303=DIRECTION('center_axis',(-1.22464679914734E-16,-1.,1.11849726781555E-14));
#1304=DIRECTION('ref_axis',(1.,-1.22464679914735E-16,-1.22464679914735E-16));
#1305=DIRECTION('',(1.,-1.22464679914735E-16,-1.22464679914735E-16));
#1306=DIRECTION('',(1.22464679914737E-16,1.11849726781555E-14,1.));
#1307=DIRECTION('center_axis',(1.22464679914737E-16,1.21175468998859E-14,
1.));
#1308=DIRECTION('ref_axis',(-1.22464679914734E-16,-1.,1.21175468998859E-14));
#1309=DIRECTION('',(1.,-1.22464679914735E-16,-1.22464679914735E-16));
#1310=DIRECTION('',(1.22464679914734E-16,1.,-1.21175468998859E-14));
#1311=DIRECTION('center_axis',(4.30595921794345E-17,-0.509099449897528,
0.86070770306419));
#1312=DIRECTION('ref_axis',(1.,-1.22464679914735E-16,-1.22464679914735E-16));
#1313=DIRECTION('',(1.,-1.22464679914735E-16,-1.22464679914735E-16));
#1314=DIRECTION('',(1.67752994532372E-16,0.86070770306419,0.509099449897528));
#1315=DIRECTION('center_axis',(1.22464679914734E-16,1.,-1.01007270445394E-14));
#1316=DIRECTION('ref_axis',(-1.,1.22464679914735E-16,1.22464679914735E-16));
#1317=DIRECTION('',(-1.22464679914737E-16,-1.01007270445394E-14,-1.));
#1318=DIRECTION('center_axis',(1.67289863829858E-16,0.500000000000001,0.866025403784438));
#1319=DIRECTION('ref_axis',(-4.4825183915123E-17,-0.866025403784438,0.500000000000001));
#1320=DIRECTION('',(4.4825183915123E-17,0.866025403784438,-0.500000000000001));
#1321=DIRECTION('',(1.,-1.22464679914735E-16,-1.22464679914735E-16));
#1322=DIRECTION('',(-4.4825183915123E-17,-0.866025403784438,0.500000000000001));
#1323=DIRECTION('',(1.,-1.22464679914735E-16,-1.22464679914735E-16));
#1324=DIRECTION('center_axis',(-4.4825183915123E-17,0.5,-0.866025403784439));
#1325=DIRECTION('ref_axis',(1.67289863829858E-16,0.866025403784439,0.5));
#1326=DIRECTION('',(-1.67289863829858E-16,-0.866025403784439,-0.5));
#1327=DIRECTION('',(1.67289863829858E-16,0.866025403784439,0.5));
#1328=DIRECTION('',(1.,-1.22464679914735E-16,-1.22464679914735E-16));
#1329=DIRECTION('center_axis',(-1.22464679914735E-16,-1.,2.22044604925031E-16));
#1330=DIRECTION('ref_axis',(-1.22464679914735E-16,-2.22044604925031E-16,
-1.));
#1331=DIRECTION('',(1.22464679914735E-16,2.22044604925031E-16,1.));
#1332=DIRECTION('',(-1.22464679914735E-16,-2.22044604925031E-16,-1.));
#1333=DIRECTION('center_axis',(1.,-1.22464679914735E-16,-1.22464679914735E-16));
#1334=DIRECTION('ref_axis',(1.22464679914735E-16,1.,-2.22044604925031E-16));
#1335=DIRECTION('center_axis',(1.22464679914735E-16,1.,-2.22044604925031E-16));
#1336=DIRECTION('ref_axis',(-1.,1.22464679914735E-16,1.22464679914735E-16));
#1337=DIRECTION('',(-1.22464679914735E-16,-2.22044604925031E-16,-1.));
#1338=DIRECTION('',(-1.,1.22464679914735E-16,1.22464679914735E-16));
#1339=DIRECTION('',(1.22464679914735E-16,2.22044604925031E-16,1.));
#1340=DIRECTION('',(1.,-1.22464679914735E-16,-1.22464679914735E-16));
#1341=DIRECTION('',(-0.57869116577885,2.51956988809729E-16,0.815546770362997));
#1342=DIRECTION('',(1.22464679914735E-16,2.22044604925031E-16,1.));
#1343=DIRECTION('',(1.,-1.22464679914735E-16,-1.22464679914735E-16));
#1344=DIRECTION('',(-1.22464679914735E-16,-2.22044604925031E-16,-1.));
#1345=DIRECTION('',(-1.,1.22464679914735E-16,1.22464679914735E-16));
#1346=DIRECTION('',(0.576683197598656,-2.52026629641196E-16,-0.816967863264761));
#1347=DIRECTION('center_axis',(-0.815546770362997,-2.86195770909699E-17,
-0.57869116577885));
#1348=DIRECTION('ref_axis',(-1.22464679914735E-16,-1.,2.22044604925031E-16));
#1349=DIRECTION('',(1.22464679914735E-16,1.,-2.22044604925031E-16));
#1350=DIRECTION('',(0.57869116577885,-2.51956988809729E-16,-0.815546770362997));
#1351=DIRECTION('',(1.22464679914735E-16,1.,-2.22044604925031E-16));
#1352=DIRECTION('center_axis',(1.22464679914735E-16,2.22044604925031E-16,
1.));
#1353=DIRECTION('ref_axis',(-1.22464679914735E-16,-1.,2.22044604925031E-16));
#1354=DIRECTION('',(1.22464679914735E-16,1.,-2.22044604925031E-16));
#1355=DIRECTION('',(-1.,1.22464679914735E-16,1.22464679914735E-16));
#1356=DIRECTION('center_axis',(-1.,1.22464679914735E-16,1.22464679914735E-16));
#1357=DIRECTION('ref_axis',(-1.22464679914735E-16,-1.,2.22044604925031E-16));
#1358=DIRECTION('',(1.22464679914735E-16,1.,-2.22044604925031E-16));
#1359=DIRECTION('',(-1.22464679914735E-16,-2.22044604925031E-16,-1.));
#1360=DIRECTION('center_axis',(-1.22464679914735E-16,-2.22044604925031E-16,
-1.));
#1361=DIRECTION('ref_axis',(1.22464679914735E-16,1.,-2.22044604925031E-16));
#1362=DIRECTION('',(1.22464679914735E-16,1.,-2.22044604925031E-16));
#1363=DIRECTION('',(1.,-1.22464679914735E-16,-1.22464679914735E-16));
#1364=DIRECTION('center_axis',(1.,-1.22464679914735E-16,-1.22464679914735E-16));
#1365=DIRECTION('ref_axis',(1.22464679914735E-16,1.,-2.22044604925031E-16));
#1366=DIRECTION('',(1.22464679914735E-16,1.,-2.22044604925031E-16));
#1367=DIRECTION('',(1.22464679914735E-16,2.22044604925031E-16,1.));
#1368=DIRECTION('center_axis',(0.816967863264761,2.7999684902353E-17,0.576683197598656));
#1369=DIRECTION('ref_axis',(1.22464679914735E-16,1.,-2.22044604925031E-16));
#1370=DIRECTION('',(1.22464679914735E-16,1.,-2.22044604925031E-16));
#1371=DIRECTION('',(-0.576683197598656,2.52026629641196E-16,0.816967863264761));
#1372=DIRECTION('center_axis',(-1.22464679914735E-16,-2.22044604925031E-16,
-1.));
#1373=DIRECTION('ref_axis',(1.22464679914735E-16,1.,-2.22044604925031E-16));
#1374=DIRECTION('',(1.22464679914735E-16,1.,-2.22044604925031E-16));
#1375=DIRECTION('',(1.,-1.22464679914735E-16,-1.22464679914735E-16));
#1376=DIRECTION('center_axis',(1.,-1.22464679914735E-16,-1.22464679914735E-16));
#1377=DIRECTION('ref_axis',(1.22464679914735E-16,1.,-2.22044604925031E-16));
#1378=DIRECTION('',(1.22464679914735E-16,1.,-2.22044604925031E-16));
#1379=DIRECTION('',(1.22464679914735E-16,2.22044604925031E-16,1.));
#1380=DIRECTION('center_axis',(1.22464679914735E-16,2.22044604925031E-16,
1.));
#1381=DIRECTION('ref_axis',(-1.22464679914735E-16,-1.,2.22044604925031E-16));
#1382=DIRECTION('',(1.22464679914735E-16,1.,-2.22044604925031E-16));
#1383=DIRECTION('',(-1.,1.22464679914735E-16,1.22464679914735E-16));
#1384=DIRECTION('center_axis',(-1.,1.22464679914735E-16,1.22464679914735E-16));
#1385=DIRECTION('ref_axis',(-1.22464679914735E-16,-1.,2.22044604925031E-16));
#1386=DIRECTION('',(-1.22464679914735E-16,-2.22044604925031E-16,-1.));
#1387=DIRECTION('center_axis',(0.866025403784439,4.96477859002493E-18,0.5));
#1388=DIRECTION('ref_axis',(0.5,-2.53528608595724E-16,-0.866025403784439));
#1389=DIRECTION('',(-0.5,2.53528608595724E-16,0.866025403784439));
#1390=DIRECTION('',(1.22464679914735E-16,1.,-2.22044604925031E-16));
#1391=DIRECTION('',(0.5,-2.53528608595724E-16,-0.866025403784439));
#1392=DIRECTION('',(1.22464679914735E-16,1.,-2.22044604925031E-16));
#1393=DIRECTION('center_axis',(-0.866025403784439,2.17079826335006E-16,
0.499999999999999));
#1394=DIRECTION('ref_axis',(0.499999999999999,1.31063928680989E-16,0.866025403784439));
#1395=DIRECTION('',(-0.499999999999999,-1.31063928680989E-16,-0.866025403784439));
#1396=DIRECTION('',(0.499999999999999,1.31063928680989E-16,0.866025403784439));
#1397=DIRECTION('',(1.22464679914735E-16,1.,-2.22044604925031E-16));
#1398=DIRECTION('center_axis',(2.62127857361978E-16,-2.22044604925031E-16,
-1.));
#1399=DIRECTION('ref_axis',(-1.,1.22464679914735E-16,-2.62127857361978E-16));
#1400=DIRECTION('',(1.,-1.22464679914735E-16,2.62127857361978E-16));
#1401=DIRECTION('',(-1.,1.22464679914735E-16,-2.62127857361978E-16));
#1402=DIRECTION('center_axis',(1.22464679914735E-16,1.,-2.22044604925031E-16));
#1403=DIRECTION('ref_axis',(-1.,1.22464679914735E-16,1.22464679914735E-16));
#1404=DIRECTION('center_axis',(-1.,1.22464679914735E-16,1.22464679914735E-16));
#1405=DIRECTION('ref_axis',(1.22464679914735E-16,2.22044604925031E-16,1.));
#1406=DIRECTION('',(1.22464679914735E-16,2.22044604925031E-16,1.));
#1407=DIRECTION('',(1.22464679914735E-16,1.,-2.22044604925031E-16));
#1408=DIRECTION('',(1.22464679914735E-16,2.22044604925031E-16,1.));
#1409=DIRECTION('',(1.22464679914735E-16,1.,-2.22044604925031E-16));
#1410=DIRECTION('center_axis',(-1.22464679914735E-16,-2.22044604925031E-16,
-1.));
#1411=DIRECTION('ref_axis',(-1.,1.22464679914735E-16,1.22464679914735E-16));
#1412=DIRECTION('',(-1.,1.22464679914735E-16,1.22464679914735E-16));
#1413=DIRECTION('',(1.22464679914735E-16,1.,-2.22044604925031E-16));
#1414=DIRECTION('',(-1.,1.22464679914735E-16,1.22464679914735E-16));
#1415=DIRECTION('center_axis',(1.,-1.22464679914735E-16,-1.22464679914735E-16));
#1416=DIRECTION('ref_axis',(-1.22464679914735E-16,-2.22044604925031E-16,
-1.));
#1417=DIRECTION('',(-1.22464679914735E-16,-2.22044604925031E-16,-1.));
#1418=DIRECTION('',(1.22464679914735E-16,1.,-2.22044604925031E-16));
#1419=DIRECTION('',(-1.22464679914735E-16,-2.22044604925031E-16,-1.));
#1420=DIRECTION('center_axis',(1.22464679914735E-16,2.22044604925031E-16,
1.));
#1421=DIRECTION('ref_axis',(1.,-1.22464679914735E-16,-1.22464679914735E-16));
#1422=DIRECTION('',(1.,-1.22464679914735E-16,-1.22464679914735E-16));
#1423=DIRECTION('',(1.,-1.22464679914735E-16,-1.22464679914735E-16));
#1424=DIRECTION('center_axis',(1.22464679914735E-16,1.,-2.22044604925031E-16));
#1425=DIRECTION('ref_axis',(-1.,1.22464679914735E-16,1.22464679914735E-16));
#1426=DIRECTION('center_axis',(-1.,1.22464679914735E-16,1.22464679914735E-16));
#1427=DIRECTION('ref_axis',(-1.22464679914735E-16,-1.,2.22044604925031E-16));
#1428=DIRECTION('',(-1.22464679914735E-16,-1.,2.22044604925031E-16));
#1429=DIRECTION('',(1.22464679914735E-16,2.22044604925031E-16,1.));
#1430=DIRECTION('',(-1.22464679914735E-16,-1.,2.22044604925031E-16));
#1431=DIRECTION('',(1.22464679914735E-16,2.22044604925031E-16,1.));
#1432=DIRECTION('center_axis',(1.22464679914735E-16,1.,-2.22044604925031E-16));
#1433=DIRECTION('ref_axis',(-1.,1.22464679914735E-16,1.22464679914735E-16));
#1434=DIRECTION('',(-1.,1.22464679914735E-16,1.22464679914735E-16));
#1435=DIRECTION('',(-1.,1.22464679914735E-16,1.22464679914735E-16));
#1436=DIRECTION('',(1.22464679914735E-16,2.22044604925031E-16,1.));
#1437=DIRECTION('center_axis',(1.,-1.22464679914735E-16,-1.22464679914735E-16));
#1438=DIRECTION('ref_axis',(1.22464679914735E-16,1.,-2.22044604925031E-16));
#1439=DIRECTION('',(1.22464679914735E-16,1.,-2.22044604925031E-16));
#1440=DIRECTION('',(1.22464679914735E-16,1.,-2.22044604925031E-16));
#1441=DIRECTION('',(1.22464679914735E-16,2.22044604925031E-16,1.));
#1442=DIRECTION('center_axis',(-1.22464679914735E-16,-1.,2.22044604925031E-16));
#1443=DIRECTION('ref_axis',(1.,-1.22464679914735E-16,-1.22464679914735E-16));
#1444=DIRECTION('',(1.,-1.22464679914735E-16,-1.22464679914735E-16));
#1445=DIRECTION('',(1.,-1.22464679914735E-16,-1.22464679914735E-16));
#1446=DIRECTION('center_axis',(1.22464679914735E-16,2.22044604925031E-16,
1.));
#1447=DIRECTION('ref_axis',(-1.22464679914735E-16,-1.,2.22044604925031E-16));
#1448=DIRECTION('center_axis',(1.22464679914735E-16,2.22044604925031E-16,
1.));
#1449=DIRECTION('ref_axis',(-1.22464679914735E-16,-1.,2.22044604925031E-16));
#1450=CARTESIAN_POINT('',(0.,0.,0.));
#1451=CARTESIAN_POINT('Origin',(12.51,15.925,-1.00000000000001));
#1452=CARTESIAN_POINT('',(4.0494876034006,22.4571224078474,-1.00000000000001));
#1453=CARTESIAN_POINT('',(4.79049247479528,23.6723703969347,-1.00000000000001));
#1454=CARTESIAN_POINT('',(4.11478509109946,22.5642102876735,-1.00000000000001));
#1455=CARTESIAN_POINT('',(5.25485552753596,23.6723703969347,-1.00000000000001));
#1456=CARTESIAN_POINT('',(8.88242776376797,23.6723703969347,-1.00000000000001));
#1457=CARTESIAN_POINT('',(4.30142925967479,22.1261402319578,-1.00000000000001));
#1458=CARTESIAN_POINT('',(4.04686393269923,21.7132959452046,-1.00000000000001));
#1459=CARTESIAN_POINT('',(5.25485552753596,20.6243703592645,-1.00000000000001));
#1460=CARTESIAN_POINT('',(7.36015894084556,17.3082447756059,-1.00000000000001));
#1461=CARTESIAN_POINT('',(4.81766265341308,20.6243703592645,-1.00000000000001));
#1462=CARTESIAN_POINT('',(8.66383132670654,20.6243703592645,-1.00000000000001));
#1463=CARTESIAN_POINT('',(4.0766577820184,21.81738820221,-1.00000000000001));
#1464=CARTESIAN_POINT('',(6.57103255214446,17.801444822307,-1.00000000000001));
#1465=CARTESIAN_POINT('',(3.35047300805162,20.6243703592645,-1.00000000000001));
#1466=CARTESIAN_POINT('',(3.5450040664921,20.943957098131,-1.00000000000001));
#1467=CARTESIAN_POINT('',(2.88610995531094,20.6243703592645,-1.00000000000001));
#1468=CARTESIAN_POINT('',(7.69805497765547,20.6243703592645,-1.00000000000001));
#1469=CARTESIAN_POINT('',(3.8271861419822,22.1459003618616,-1.00000000000001));
#1470=CARTESIAN_POINT('',(3.63693831463028,21.8383080740696,-1.00000000000001));
#1471=CARTESIAN_POINT('',(2.85646976045514,23.6723703969347,-1.00000000000001));
#1472=CARTESIAN_POINT('',(6.00037608101246,18.7285177096461,-1.00000000000001));
#1473=CARTESIAN_POINT('',(3.29366263457802,23.6723703969347,-1.00000000000001));
#1474=CARTESIAN_POINT('',(7.90183131728901,23.6723703969347,-1.00000000000001));
#1475=CARTESIAN_POINT('',(6.69415938105061,18.2049050398611,-1.00000000000001));
#1476=CARTESIAN_POINT('Origin',(4.07665778201841,21.81738820221,50.7414524821669));
#1477=CARTESIAN_POINT('',(4.81766265341308,20.6243703592645,-9.43689570931383E-15));
#1478=CARTESIAN_POINT('',(4.81766265341309,20.6243703592645,50.7414524821669));
#1479=CARTESIAN_POINT('',(4.0766577820184,21.81738820221,-9.71445146547012E-15));
#1480=CARTESIAN_POINT('',(6.57103255214446,17.801444822307,-9.15933995315754E-15));
#1481=CARTESIAN_POINT('',(4.07665778201841,21.81738820221,50.7414524821669));
#1482=CARTESIAN_POINT('Origin',(4.81766265341309,20.6243703592645,50.7414524821669));
#1483=CARTESIAN_POINT('',(5.25485552753596,20.6243703592645,-9.71445146547012E-15));
#1484=CARTESIAN_POINT('',(5.25485552753596,20.6243703592645,50.7414524821669));
#1485=CARTESIAN_POINT('',(8.66383132670654,20.6243703592645,-9.99200722162641E-15));
#1486=CARTESIAN_POINT('Origin',(5.25485552753596,20.6243703592645,50.7414524821669));
#1487=CARTESIAN_POINT('',(4.30142925967479,22.1261402319578,-9.71445146547012E-15));
#1488=CARTESIAN_POINT('',(4.3014292596748,22.1261402319578,50.7414524821669));
#1489=CARTESIAN_POINT('',(7.36015894084556,17.3082447756059,-1.80411241501588E-14));
#1490=CARTESIAN_POINT('Origin',(4.3014292596748,22.1261402319578,50.7414524821669));
#1491=CARTESIAN_POINT('',(5.25485552753596,23.6723703969347,-1.47104550762833E-14));
#1492=CARTESIAN_POINT('',(5.25485552753596,23.6723703969347,50.7414524821669));
#1493=CARTESIAN_POINT('',(4.04686393269923,21.7132959452046,-9.71445146547012E-15));
#1494=CARTESIAN_POINT('Origin',(5.25485552753596,23.6723703969347,50.7414524821669));
#1495=CARTESIAN_POINT('',(4.79049247479528,23.6723703969347,-1.47104550762833E-14));
#1496=CARTESIAN_POINT('',(4.79049247479529,23.6723703969347,50.7414524821669));
#1497=CARTESIAN_POINT('',(8.88242776376797,23.6723703969347,-1.52655665885959E-14));
#1498=CARTESIAN_POINT('Origin',(4.79049247479529,23.6723703969347,50.7414524821669));
#1499=CARTESIAN_POINT('',(4.0494876034006,22.4571224078474,-9.71445146547012E-15));
#1500=CARTESIAN_POINT('',(4.04948760340061,22.4571224078474,50.7414524821669));
#1501=CARTESIAN_POINT('',(4.11478509109946,22.5642102876735,-9.99200722162641E-15));
#1502=CARTESIAN_POINT('Origin',(4.04948760340061,22.4571224078474,50.7414524821669));
#1503=CARTESIAN_POINT('',(3.29366263457802,23.6723703969347,-1.4432899320127E-14));
#1504=CARTESIAN_POINT('',(3.29366263457803,23.6723703969347,50.7414524821669));
#1505=CARTESIAN_POINT('',(6.69415938105061,18.2049050398611,-1.80411241501588E-14));
#1506=CARTESIAN_POINT('Origin',(3.29366263457803,23.6723703969347,50.7414524821669));
#1507=CARTESIAN_POINT('',(2.85646976045514,23.6723703969347,-1.4432899320127E-14));
#1508=CARTESIAN_POINT('',(2.85646976045515,23.6723703969347,50.7414524821669));
#1509=CARTESIAN_POINT('',(7.90183131728901,23.6723703969347,-1.49880108324396E-14));
#1510=CARTESIAN_POINT('Origin',(2.85646976045515,23.6723703969347,50.7414524821669));
#1511=CARTESIAN_POINT('',(3.8271861419822,22.1459003618616,-9.71445146547012E-15));
#1512=CARTESIAN_POINT('',(3.82718614198221,22.1459003618616,50.7414524821669));
#1513=CARTESIAN_POINT('',(6.00037608101246,18.7285177096461,-9.15933995315754E-15));
#1514=CARTESIAN_POINT('Origin',(3.82718614198221,22.1459003618616,50.7414524821669));
#1515=CARTESIAN_POINT('',(2.88610995531094,20.6243703592645,-9.43689570931383E-15));
#1516=CARTESIAN_POINT('',(2.88610995531095,20.6243703592645,50.7414524821669));
#1517=CARTESIAN_POINT('',(3.63693831463028,21.8383080740696,-9.71445146547012E-15));
#1518=CARTESIAN_POINT('Origin',(2.88610995531095,20.6243703592645,50.7414524821669));
#1519=CARTESIAN_POINT('',(3.35047300805162,20.6243703592645,-9.43689570931383E-15));
#1520=CARTESIAN_POINT('',(3.35047300805162,20.6243703592645,50.7414524821669));
#1521=CARTESIAN_POINT('',(7.69805497765547,20.6243703592645,-9.99200722162641E-15));
#1522=CARTESIAN_POINT('Origin',(3.35047300805162,20.6243703592645,50.7414524821669));
#1523=CARTESIAN_POINT('',(3.5450040664921,20.943957098131,-5.55111512312578E-16));
#1524=CARTESIAN_POINT('Origin',(12.23,22.2,-1.08246744900953E-14));
#1525=CARTESIAN_POINT('',(7.22999999999999,19.3132486540519,-9.43689570931383E-15));
#1526=CARTESIAN_POINT('',(12.23,22.2,-1.08246744900953E-14));
#1527=CARTESIAN_POINT('',(10.9764226478132,21.4762467782649,-1.0547118733939E-14));
#1528=CARTESIAN_POINT('',(7.22999999999999,19.3132486540519,-1.00000000000001));
#1529=CARTESIAN_POINT('',(7.22999999999999,19.3132486540519,-9.43689570931383E-15));
#1530=CARTESIAN_POINT('',(12.23,22.2,-1.00000000000001));
#1531=CARTESIAN_POINT('',(12.23,22.2,-1.00000000000001));
#1532=CARTESIAN_POINT('',(12.23,22.2,-1.08246744900953E-14));
#1533=CARTESIAN_POINT('Origin',(7.22999999999999,25.0867513459481,-1.52655665885959E-14));
#1534=CARTESIAN_POINT('',(7.22999999999999,25.0867513459481,-1.52655665885959E-14));
#1535=CARTESIAN_POINT('',(11.1935773521868,22.7983788947092,-1.08246744900953E-14));
#1536=CARTESIAN_POINT('',(7.22999999999999,25.0867513459481,-1.00000000000001));
#1537=CARTESIAN_POINT('',(7.22999999999999,25.0867513459481,-1.00000000000001));
#1538=CARTESIAN_POINT('',(7.22999999999999,25.0867513459481,-1.52655665885959E-14));
#1539=CARTESIAN_POINT('Origin',(7.22999999999999,19.3132486540519,-9.43689570931383E-15));
#1540=CARTESIAN_POINT('',(7.22999999999999,17.6191243270259,-1.80411241501588E-14));
#1541=CARTESIAN_POINT('',(7.22999999999999,19.3132486540519,-1.00000000000001));
#1542=CARTESIAN_POINT('Origin',(9.72999999999999,22.2,-1.00000000000001));
#1543=CARTESIAN_POINT('Origin',(26.02,-2.22044604925031E-15,-3.05311331771918E-15));
#1544=CARTESIAN_POINT('',(26.02,5.22957409445672,16.7838122648566));
#1545=CARTESIAN_POINT('',(26.02,6.57820296039505,16.7838122648566));
#1546=CARTESIAN_POINT('',(26.02,3.28910148019761,16.7838122648566));
#1547=CARTESIAN_POINT('',(26.02,8.27757413212685,15.753815493618));
#1548=CARTESIAN_POINT('',(26.02,8.74229595553487,15.4721454349535));
#1549=CARTESIAN_POINT('',(26.02,8.27757413212685,16.1835983190269));
#1550=CARTESIAN_POINT('',(26.02,8.27757413212677,8.09179915951339));
#1551=CARTESIAN_POINT('',(26.02,6.93635531490248,16.9814135638952));
#1552=CARTESIAN_POINT('',(26.02,8.10522699033849,16.2861178895566));
#1553=CARTESIAN_POINT('',(26.02,8.27757413212687,17.7693487438115));
#1554=CARTESIAN_POINT('',(26.02,1.32037721747486,13.6821557129203));
#1555=CARTESIAN_POINT('',(26.02,8.27757413212687,18.2188916991243));
#1556=CARTESIAN_POINT('',(26.02,8.27757413212678,9.10944584956209));
#1557=CARTESIAN_POINT('',(26.02,6.53621268434935,17.1888949278857));
#1558=CARTESIAN_POINT('',(26.02,0.349176503249247,13.5293288462989));
#1559=CARTESIAN_POINT('',(26.02,5.22957409445673,17.1888949278857));
#1560=CARTESIAN_POINT('',(26.02,2.61478704722847,17.1888949278857));
#1561=CARTESIAN_POINT('',(26.02,5.22957409445663,8.39190613242827));
#1562=CARTESIAN_POINT('Origin',(-25.164409929778,8.27757413212688,17.7693487438115));
#1563=CARTESIAN_POINT('',(25.02,6.93635531490248,16.9814135638952));
#1564=CARTESIAN_POINT('',(-25.164409929778,6.93635531490249,16.9814135638952));
#1565=CARTESIAN_POINT('',(25.02,8.27757413212687,17.7693487438115));
#1566=CARTESIAN_POINT('',(25.02,1.32037721747486,13.6821557129203));
#1567=CARTESIAN_POINT('',(-25.164409929778,8.27757413212688,17.7693487438115));
#1568=CARTESIAN_POINT('Origin',(-25.164409929778,6.93635531490249,16.9814135638952));
#1569=CARTESIAN_POINT('',(25.02,8.27757413212685,16.1835983190269));
#1570=CARTESIAN_POINT('',(-25.164409929778,8.27757413212686,16.1835983190269));
#1571=CARTESIAN_POINT('',(25.02,8.10522699033849,16.2861178895566));
#1572=CARTESIAN_POINT('Origin',(-25.164409929778,8.27757413212686,16.1835983190269));
#1573=CARTESIAN_POINT('',(25.02,8.27757413212685,15.753815493618));
#1574=CARTESIAN_POINT('',(-25.164409929778,8.27757413212685,15.753815493618));
#1575=CARTESIAN_POINT('',(25.02,8.27757413212677,8.09179915951339));
#1576=CARTESIAN_POINT('Origin',(-25.164409929778,8.27757413212685,15.753815493618));
#1577=CARTESIAN_POINT('',(25.02,6.57820296039505,16.7838122648566));
#1578=CARTESIAN_POINT('',(-25.164409929778,6.57820296039505,16.7838122648566));
#1579=CARTESIAN_POINT('',(25.02,8.74229595553487,15.4721454349535));
#1580=CARTESIAN_POINT('Origin',(-25.164409929778,6.57820296039505,16.7838122648566));
#1581=CARTESIAN_POINT('',(25.02,5.22957409445672,16.7838122648566));
#1582=CARTESIAN_POINT('',(-25.164409929778,5.22957409445673,16.7838122648566));
#1583=CARTESIAN_POINT('',(25.02,3.2891014801976,16.7838122648566));
#1584=CARTESIAN_POINT('Origin',(-25.164409929778,5.22957409445673,16.7838122648566));
#1585=CARTESIAN_POINT('',(25.02,5.22957409445673,17.1888949278857));
#1586=CARTESIAN_POINT('',(-25.164409929778,5.22957409445673,17.1888949278857));
#1587=CARTESIAN_POINT('',(25.02,5.22957409445663,8.39190613242827));
#1588=CARTESIAN_POINT('Origin',(-25.164409929778,5.22957409445673,17.1888949278857));
#1589=CARTESIAN_POINT('',(25.02,6.53621268434935,17.1888949278857));
#1590=CARTESIAN_POINT('',(-25.164409929778,6.53621268434936,17.1888949278857));
#1591=CARTESIAN_POINT('',(25.02,2.61478704722847,17.1888949278857));
#1592=CARTESIAN_POINT('Origin',(-25.164409929778,6.53621268434936,17.1888949278857));
#1593=CARTESIAN_POINT('',(25.02,8.27757413212687,18.2188916991243));
#1594=CARTESIAN_POINT('',(-25.164409929778,8.27757413212688,18.2188916991243));
#1595=CARTESIAN_POINT('',(25.02,0.349176503249247,13.5293288462989));
#1596=CARTESIAN_POINT('Origin',(-25.164409929778,8.27757413212688,18.2188916991243));
#1597=CARTESIAN_POINT('',(25.02,8.27757413212679,9.10944584956209));
#1598=CARTESIAN_POINT('Origin',(25.02,13.62,16.83));
#1599=CARTESIAN_POINT('',(25.02,8.62,19.7167513459481));
#1600=CARTESIAN_POINT('',(25.02,13.62,16.83));
#1601=CARTESIAN_POINT('',(25.02,12.156301886423,17.675066499886));
#1602=CARTESIAN_POINT('',(26.02,8.62,19.7167513459481));
#1603=CARTESIAN_POINT('',(25.02,8.62,19.7167513459481));
#1604=CARTESIAN_POINT('',(26.02,13.62,16.83));
#1605=CARTESIAN_POINT('',(26.02,13.62,16.83));
#1606=CARTESIAN_POINT('',(25.02,13.62,16.83));
#1607=CARTESIAN_POINT('Origin',(25.02,8.62,13.9432486540519));
#1608=CARTESIAN_POINT('',(25.02,8.62,13.9432486540519));
#1609=CARTESIAN_POINT('',(25.02,2.36869811357697,10.3340578271399));
#1610=CARTESIAN_POINT('',(26.02,8.62,13.9432486540519));
#1611=CARTESIAN_POINT('',(26.02,8.62,13.9432486540519));
#1612=CARTESIAN_POINT('',(25.02,8.62,13.9432486540519));
#1613=CARTESIAN_POINT('Origin',(25.02,8.62,19.7167513459481));
#1614=CARTESIAN_POINT('',(25.02,8.62,9.85837567297405));
#1615=CARTESIAN_POINT('',(26.02,8.62,19.7167513459481));
#1616=CARTESIAN_POINT('Origin',(26.02,11.12,16.83));
#1617=CARTESIAN_POINT('Origin',(25.02,32.85,-1.9151347174784E-14));
#1618=CARTESIAN_POINT('',(12.2946846081378,32.85,11.0329867294521));
#1619=CARTESIAN_POINT('',(12.2946846081378,32.85,10.6550742450408));
#1620=CARTESIAN_POINT('',(12.2946846081378,32.85,5.3275371225204));
#1621=CARTESIAN_POINT('',(10.165530610997,32.85,10.6550742450408));
#1622=CARTESIAN_POINT('',(17.5927653054985,32.85,10.6550742450408));
#1623=CARTESIAN_POINT('',(10.165530610997,32.85,11.0156966157862));
#1624=CARTESIAN_POINT('',(10.165530610997,32.85,5.50784830789311));
#1625=CARTESIAN_POINT('',(11.8550217177769,32.85,11.0156966157862));
#1626=CARTESIAN_POINT('',(18.4375108588885,32.85,11.0156966157862));
#1627=CARTESIAN_POINT('',(10.2075208870427,32.85,13.3375118794896));
#1628=CARTESIAN_POINT('',(15.8350654953484,32.85,5.4066394180093));
#1629=CARTESIAN_POINT('',(10.2075208870427,32.85,13.703074282711));
#1630=CARTESIAN_POINT('',(10.2075208870427,32.85,6.85153714135547));
#1631=CARTESIAN_POINT('',(12.2205841209983,32.85,13.703074282711));
#1632=CARTESIAN_POINT('',(18.6202920604991,32.85,13.703074282711));
#1633=CARTESIAN_POINT('',(12.2205841209983,32.85,13.3424519119655));
#1634=CARTESIAN_POINT('',(12.2205841209983,32.85,6.67122595598276));
#1635=CARTESIAN_POINT('',(10.6644738910695,32.85,13.3424519119655));
#1636=CARTESIAN_POINT('',(17.8422369455347,32.85,13.3424519119655));
#1637=CARTESIAN_POINT('',(17.0096669513669,32.85,4.35342840987756));
#1638=CARTESIAN_POINT('Origin',(10.2075208870427,-17.8232825571252,13.3375118794896));
#1639=CARTESIAN_POINT('',(11.8550217177769,31.85,11.0156966157862));
#1640=CARTESIAN_POINT('',(11.8550217177769,-17.8232825571252,11.0156966157862));
#1641=CARTESIAN_POINT('',(10.2075208870427,31.85,13.3375118794896));
#1642=CARTESIAN_POINT('',(15.8350654953484,31.85,5.4066394180093));
#1643=CARTESIAN_POINT('',(10.2075208870427,-17.8232825571252,13.3375118794896));
#1644=CARTESIAN_POINT('Origin',(11.8550217177769,-17.8232825571252,11.0156966157862));
#1645=CARTESIAN_POINT('',(10.165530610997,31.85,11.0156966157862));
#1646=CARTESIAN_POINT('',(10.165530610997,-17.8232825571252,11.0156966157862));
#1647=CARTESIAN_POINT('',(18.4375108588885,31.85,11.0156966157862));
#1648=CARTESIAN_POINT('Origin',(10.165530610997,-17.8232825571252,11.0156966157862));
#1649=CARTESIAN_POINT('',(10.165530610997,31.85,10.6550742450408));
#1650=CARTESIAN_POINT('',(10.165530610997,-17.8232825571252,10.6550742450408));
#1651=CARTESIAN_POINT('',(10.165530610997,31.85,5.50784830789311));
#1652=CARTESIAN_POINT('Origin',(10.165530610997,-17.8232825571252,10.6550742450408));
#1653=CARTESIAN_POINT('',(12.2946846081378,31.85,10.6550742450408));
#1654=CARTESIAN_POINT('',(12.2946846081378,-17.8232825571252,10.6550742450408));
#1655=CARTESIAN_POINT('',(17.5927653054985,31.85,10.6550742450408));
#1656=CARTESIAN_POINT('Origin',(12.2946846081378,-17.8232825571252,10.6550742450408));
#1657=CARTESIAN_POINT('',(12.2946846081378,31.85,11.0329867294521));
#1658=CARTESIAN_POINT('',(12.2946846081378,-17.8232825571252,11.0329867294521));
#1659=CARTESIAN_POINT('',(12.2946846081378,31.85,5.3275371225204));
#1660=CARTESIAN_POINT('Origin',(12.2946846081378,-17.8232825571252,11.0329867294521));
#1661=CARTESIAN_POINT('',(10.6644738910695,31.85,13.3424519119655));
#1662=CARTESIAN_POINT('',(10.6644738910695,-17.8232825571252,13.3424519119656));
#1663=CARTESIAN_POINT('',(17.0096669513669,31.85,4.35342840987756));
#1664=CARTESIAN_POINT('Origin',(10.6644738910695,-17.8232825571252,13.3424519119656));
#1665=CARTESIAN_POINT('',(12.2205841209983,31.85,13.3424519119655));
#1666=CARTESIAN_POINT('',(12.2205841209983,-17.8232825571252,13.3424519119656));
#1667=CARTESIAN_POINT('',(17.8422369455347,31.85,13.3424519119655));
#1668=CARTESIAN_POINT('Origin',(12.2205841209983,-17.8232825571252,13.3424519119656));
#1669=CARTESIAN_POINT('',(12.2205841209983,31.85,13.703074282711));
#1670=CARTESIAN_POINT('',(12.2205841209983,-17.8232825571252,13.703074282711));
#1671=CARTESIAN_POINT('',(12.2205841209983,31.85,6.67122595598276));
#1672=CARTESIAN_POINT('Origin',(12.2205841209983,-17.8232825571252,13.703074282711));
#1673=CARTESIAN_POINT('',(10.2075208870427,31.85,13.703074282711));
#1674=CARTESIAN_POINT('',(10.2075208870427,-17.8232825571252,13.703074282711));
#1675=CARTESIAN_POINT('',(18.6202920604991,31.85,13.703074282711));
#1676=CARTESIAN_POINT('Origin',(10.2075208870427,-17.8232825571252,13.703074282711));
#1677=CARTESIAN_POINT('',(10.2075208870427,31.85,6.85153714135547));
#1678=CARTESIAN_POINT('Origin',(11.31,31.85,19.21));
#1679=CARTESIAN_POINT('',(14.1967513459481,31.85,14.21));
#1680=CARTESIAN_POINT('',(11.31,31.85,19.21));
#1681=CARTESIAN_POINT('',(17.1828370016748,31.85,9.03794792852882));
#1682=CARTESIAN_POINT('',(14.1967513459481,32.85,14.21));
#1683=CARTESIAN_POINT('',(14.1967513459481,31.85,14.21));
#1684=CARTESIAN_POINT('',(11.31,32.85,19.21));
#1685=CARTESIAN_POINT('',(11.31,32.85,19.21));
#1686=CARTESIAN_POINT('',(11.31,31.85,19.21));
#1687=CARTESIAN_POINT('Origin',(8.42324865405187,31.85,14.21));
#1688=CARTESIAN_POINT('',(8.42324865405187,31.85,14.21));
#1689=CARTESIAN_POINT('',(7.42128732535116,31.85,12.4745520714711));
#1690=CARTESIAN_POINT('',(8.42324865405187,32.85,14.21));
#1691=CARTESIAN_POINT('',(8.42324865405187,32.85,14.21));
#1692=CARTESIAN_POINT('',(8.42324865405187,31.85,14.21));
#1693=CARTESIAN_POINT('Origin',(14.1967513459481,31.85,14.21));
#1694=CARTESIAN_POINT('',(19.6083756729741,31.85,14.21));
#1695=CARTESIAN_POINT('',(14.1967513459481,32.85,14.21));
#1696=CARTESIAN_POINT('Origin',(11.31,32.85,16.71));
#1697=CARTESIAN_POINT('Origin',(8.50999999999999,-2.22044604925031E-15,
2.761));
#1698=CARTESIAN_POINT('',(8.50999999999999,-2.22044604925031E-15,2.761));
#1699=CARTESIAN_POINT('',(8.50999999999999,0.,4.76099999999999));
#1700=CARTESIAN_POINT('',(8.50999999999999,-2.22044604925031E-15,1.3805));
#1701=CARTESIAN_POINT('',(8.50999999999999,3.,2.76099999999999));
#1702=CARTESIAN_POINT('',(8.50999999999999,-2.22044604925031E-15,2.761));
#1703=CARTESIAN_POINT('',(8.50999999999999,3.,4.76099999999999));
#1704=CARTESIAN_POINT('',(8.50999999999999,3.,4.76099999999999));
#1705=CARTESIAN_POINT('',(8.50999999999999,0.,4.76099999999999));
#1706=CARTESIAN_POINT('Origin',(16.51,-2.22044604925031E-15,2.76099999999999));
#1707=CARTESIAN_POINT('',(16.51,-2.22044604925031E-15,2.76099999999999));
#1708=CARTESIAN_POINT('',(8.255,0.,2.761));
#1709=CARTESIAN_POINT('',(16.51,3.,2.76099999999999));
#1710=CARTESIAN_POINT('',(16.51,-2.22044604925031E-15,2.76099999999999));
#1711=CARTESIAN_POINT('',(8.50999999999999,3.,2.76099999999999));
#1712=CARTESIAN_POINT('Origin',(16.51,-2.22044604925031E-15,4.76099999999999));
#1713=CARTESIAN_POINT('',(16.51,-2.22044604925031E-15,4.76099999999999));
#1714=CARTESIAN_POINT('',(16.51,-2.22044604925031E-15,2.38049999999999));
#1715=CARTESIAN_POINT('',(16.51,3.,4.76099999999999));
#1716=CARTESIAN_POINT('',(16.51,-2.22044604925031E-15,4.76099999999999));
#1717=CARTESIAN_POINT('',(16.51,3.,2.76099999999999));
#1718=CARTESIAN_POINT('Origin',(8.50999999999999,0.,4.76099999999999));
#1719=CARTESIAN_POINT('',(4.255,0.,4.76099999999999));
#1720=CARTESIAN_POINT('',(16.51,3.,4.76099999999999));
#1721=CARTESIAN_POINT('Origin',(12.51,3.,3.76099999999999));
#1722=CARTESIAN_POINT('Origin',(0.,31.85,-1.58206781009085E-14));
#1723=CARTESIAN_POINT('',(0.,31.85,-1.58206781009085E-14));
#1724=CARTESIAN_POINT('',(0.,0.,0.));
#1725=CARTESIAN_POINT('',(0.,31.85,-1.58206781009085E-14));
#1726=CARTESIAN_POINT('',(0.,4.44089209850063E-15,27.61));
#1727=CARTESIAN_POINT('',(0.,0.,0.));
#1728=CARTESIAN_POINT('',(8.88178419700125E-15,31.85,27.61));
#1729=CARTESIAN_POINT('',(8.88178419700125E-15,31.85,27.61));
#1730=CARTESIAN_POINT('',(0.,31.85,-1.58206781009085E-14));
#1731=CARTESIAN_POINT('Origin',(25.02,31.85,-1.88737914186277E-14));
#1732=CARTESIAN_POINT('',(25.02,31.85,-1.88737914186277E-14));
#1733=CARTESIAN_POINT('',(25.02,31.85,-1.88737914186277E-14));
#1734=CARTESIAN_POINT('',(25.02,31.85,27.61));
#1735=CARTESIAN_POINT('',(25.02,31.85,27.61));
#1736=CARTESIAN_POINT('',(25.02,31.85,-1.88737914186277E-14));
#1737=CARTESIAN_POINT('Origin',(25.02,-4.44089209850063E-15,-3.05311331771918E-15));
#1738=CARTESIAN_POINT('',(25.02,-4.44089209850063E-15,-3.05311331771918E-15));
#1739=CARTESIAN_POINT('',(25.02,-4.44089209850063E-15,-3.05311331771918E-15));
#1740=CARTESIAN_POINT('',(25.02,2.22044604925031E-15,27.61));
#1741=CARTESIAN_POINT('',(25.02,2.22044604925031E-15,27.61));
#1742=CARTESIAN_POINT('',(25.02,-4.44089209850063E-15,-3.05311331771918E-15));
#1743=CARTESIAN_POINT('Origin',(0.,0.,0.));
#1744=CARTESIAN_POINT('',(0.,0.,0.));
#1745=CARTESIAN_POINT('',(0.,4.44089209850063E-15,27.61));
#1746=CARTESIAN_POINT('Origin',(12.51,15.925,27.61));
#1747=CARTESIAN_POINT('Origin',(12.51,15.925,-1.83186799063151E-14));
#1748=UNCERTAINTY_MEASURE_WITH_UNIT(LENGTH_MEASURE(0.01),#1752,
'DISTANCE_ACCURACY_VALUE',
'Maximum model space distance between geometric entities at asserted c
onnectivities');
#1749=UNCERTAINTY_MEASURE_WITH_UNIT(LENGTH_MEASURE(0.01),#1752,
'DISTANCE_ACCURACY_VALUE',
'Maximum model space distance between geometric entities at asserted c
onnectivities');
#1750=(
GEOMETRIC_REPRESENTATION_CONTEXT(3)
GLOBAL_UNCERTAINTY_ASSIGNED_CONTEXT((#1748))
GLOBAL_UNIT_ASSIGNED_CONTEXT((#1752,#1754,#1755))
REPRESENTATION_CONTEXT('','3D')
);
#1751=(
GEOMETRIC_REPRESENTATION_CONTEXT(3)
GLOBAL_UNCERTAINTY_ASSIGNED_CONTEXT((#1749))
GLOBAL_UNIT_ASSIGNED_CONTEXT((#1752,#1754,#1755))
REPRESENTATION_CONTEXT('','3D')
);
#1752=(
LENGTH_UNIT()
NAMED_UNIT(*)
SI_UNIT(.MILLI.,.METRE.)
);
#1753=(
LENGTH_UNIT()
NAMED_UNIT(*)
SI_UNIT($,.METRE.)
);
#1754=(
NAMED_UNIT(*)
PLANE_ANGLE_UNIT()
SI_UNIT($,.RADIAN.)
);
#1755=(
NAMED_UNIT(*)
SI_UNIT($,.STERADIAN.)
SOLID_ANGLE_UNIT()
);
#1756=SHAPE_DEFINITION_REPRESENTATION(#1757,#1758);
#1757=PRODUCT_DEFINITION_SHAPE('',$,#1760);
#1758=SHAPE_REPRESENTATION('',(#1132),#1750);
#1759=PRODUCT_DEFINITION_CONTEXT('part definition',#1764,'design');
#1760=PRODUCT_DEFINITION('2026-07-07-08-36-49-162','MR3_Recreation',#1761,
#1759);
#1761=PRODUCT_DEFINITION_FORMATION('',$,#1766);
#1762=PRODUCT_RELATED_PRODUCT_CATEGORY('MR3_Recreation',
'MR3_Recreation',(#1766));
#1763=APPLICATION_PROTOCOL_DEFINITION('international standard',
'automotive_design',2009,#1764);
#1764=APPLICATION_CONTEXT(
'Core Data for Automotive Mechanical Design Process');
#1765=PRODUCT_CONTEXT('part definition',#1764,'mechanical');
#1766=PRODUCT('2026-07-07-08-36-49-162','MR3_Recreation',$,(#1765));
#1767=PRESENTATION_STYLE_ASSIGNMENT((#1769));
#1768=PRESENTATION_STYLE_ASSIGNMENT((#1770));
#1769=SURFACE_STYLE_USAGE(.BOTH.,#1771);
#1770=SURFACE_STYLE_USAGE(.BOTH.,#1772);
#1771=SURFACE_SIDE_STYLE('',(#1773));
#1772=SURFACE_SIDE_STYLE('',(#1774));
#1773=SURFACE_STYLE_FILL_AREA(#1775);
#1774=SURFACE_STYLE_FILL_AREA(#1776);
#1775=FILL_AREA_STYLE('Default',(#1777));
#1776=FILL_AREA_STYLE('Anodized - Black',(#1778));
#1777=FILL_AREA_STYLE_COLOUR('Default',#1779);
#1778=FILL_AREA_STYLE_COLOUR('Anodized - Black',#1780);
#1779=COLOUR_RGB('Default',0.749019607843137,0.749019607843137,0.749019607843137);
#1780=COLOUR_RGB('Anodized - Black',0.0392156862745098,0.0392156862745098,
0.0392156862745098);
ENDSEC;
END-ISO-10303-21;
