ISO-10303-21;
HEADER;
/* Generated by software containing ST-Developer
 * from STEP Tools, Inc. (www.steptools.com) 
 */

FILE_DESCRIPTION(
/* description */ (''),
/* implementation_level */ '2;1');

FILE_NAME(
/* name */ 'MR3 Holder.step',
/* time_stamp */ '2026-08-26T09:50:43+02:00',
/* author */ (''),
/* organization */ (''),
/* preprocessor_version */ 'ST-DEVELOPER v20.1',
/* originating_system */ 'Autodesk Translation Framework v15.8.0.0',
/* authorisation */ '');

FILE_SCHEMA (('AUTOMOTIVE_DESIGN { 1 0 10303 214 3 1 1 }'));
ENDSEC;

DATA;
#10=MECHANICAL_DESIGN_GEOMETRIC_PRESENTATION_REPRESENTATION('',(#13),#1152);
#11=SHAPE_REPRESENTATION_RELATIONSHIP('SRR','None',#1159,#12);
#12=ADVANCED_BREP_SHAPE_REPRESENTATION('',(#14),#1151);
#13=STYLED_ITEM('',(#1169),#14);
#14=MANIFOLD_SOLID_BREP('Body1',#720);
#15=CYLINDRICAL_SURFACE('',#769,1.7);
#16=CYLINDRICAL_SURFACE('',#770,1.7);
#17=FACE_BOUND('',#65,.T.);
#18=FACE_BOUND('',#66,.T.);
#19=FACE_BOUND('',#85,.T.);
#20=FACE_BOUND('',#86,.T.);
#21=CIRCLE('',#739,1.7);
#22=CIRCLE('',#740,1.7);
#23=CIRCLE('',#759,1.7);
#24=CIRCLE('',#760,1.7);
#25=FACE_OUTER_BOUND('',#60,.T.);
#26=FACE_OUTER_BOUND('',#61,.T.);
#27=FACE_OUTER_BOUND('',#62,.T.);
#28=FACE_OUTER_BOUND('',#63,.T.);
#29=FACE_OUTER_BOUND('',#64,.T.);
#30=FACE_OUTER_BOUND('',#67,.T.);
#31=FACE_OUTER_BOUND('',#68,.T.);
#32=FACE_OUTER_BOUND('',#69,.T.);
#33=FACE_OUTER_BOUND('',#70,.T.);
#34=FACE_OUTER_BOUND('',#71,.T.);
#35=FACE_OUTER_BOUND('',#72,.T.);
#36=FACE_OUTER_BOUND('',#73,.T.);
#37=FACE_OUTER_BOUND('',#74,.T.);
#38=FACE_OUTER_BOUND('',#75,.T.);
#39=FACE_OUTER_BOUND('',#76,.T.);
#40=FACE_OUTER_BOUND('',#77,.T.);
#41=FACE_OUTER_BOUND('',#78,.T.);
#42=FACE_OUTER_BOUND('',#79,.T.);
#43=FACE_OUTER_BOUND('',#80,.T.);
#44=FACE_OUTER_BOUND('',#81,.T.);
#45=FACE_OUTER_BOUND('',#82,.T.);
#46=FACE_OUTER_BOUND('',#83,.T.);
#47=FACE_OUTER_BOUND('',#84,.T.);
#48=FACE_OUTER_BOUND('',#87,.T.);
#49=FACE_OUTER_BOUND('',#88,.T.);
#50=FACE_OUTER_BOUND('',#89,.T.);
#51=FACE_OUTER_BOUND('',#90,.T.);
#52=FACE_OUTER_BOUND('',#91,.T.);
#53=FACE_OUTER_BOUND('',#92,.T.);
#54=FACE_OUTER_BOUND('',#93,.T.);
#55=FACE_OUTER_BOUND('',#94,.T.);
#56=FACE_OUTER_BOUND('',#95,.T.);
#57=FACE_OUTER_BOUND('',#96,.T.);
#58=FACE_OUTER_BOUND('',#97,.T.);
#59=FACE_OUTER_BOUND('',#98,.T.);
#60=EDGE_LOOP('',(#454,#455,#456,#457));
#61=EDGE_LOOP('',(#458,#459,#460,#461));
#62=EDGE_LOOP('',(#462,#463,#464,#465));
#63=EDGE_LOOP('',(#466,#467,#468,#469));
#64=EDGE_LOOP('',(#470,#471,#472,#473,#474,#475,#476,#477));
#65=EDGE_LOOP('',(#478));
#66=EDGE_LOOP('',(#479));
#67=EDGE_LOOP('',(#480,#481,#482,#483));
#68=EDGE_LOOP('',(#484,#485,#486,#487));
#69=EDGE_LOOP('',(#488,#489,#490,#491));
#70=EDGE_LOOP('',(#492,#493,#494,#495));
#71=EDGE_LOOP('',(#496,#497,#498,#499));
#72=EDGE_LOOP('',(#500,#501,#502,#503,#504,#505,#506));
#73=EDGE_LOOP('',(#507,#508,#509,#510,#511,#512,#513,#514,#515,#516,#517,
#518,#519,#520,#521,#522,#523,#524));
#74=EDGE_LOOP('',(#525,#526,#527,#528));
#75=EDGE_LOOP('',(#529,#530,#531,#532,#533,#534,#535));
#76=EDGE_LOOP('',(#536,#537,#538,#539));
#77=EDGE_LOOP('',(#540,#541,#542,#543,#544,#545,#546));
#78=EDGE_LOOP('',(#547,#548,#549,#550));
#79=EDGE_LOOP('',(#551,#552,#553,#554));
#80=EDGE_LOOP('',(#555,#556,#557,#558));
#81=EDGE_LOOP('',(#559,#560,#561,#562));
#82=EDGE_LOOP('',(#563,#564,#565,#566));
#83=EDGE_LOOP('',(#567,#568,#569,#570));
#84=EDGE_LOOP('',(#571,#572,#573,#574,#575,#576));
#85=EDGE_LOOP('',(#577));
#86=EDGE_LOOP('',(#578));
#87=EDGE_LOOP('',(#579,#580,#581,#582,#583,#584));
#88=EDGE_LOOP('',(#585,#586,#587,#588,#589));
#89=EDGE_LOOP('',(#590,#591,#592,#593,#594,#595));
#90=EDGE_LOOP('',(#596,#597,#598,#599,#600,#601,#602));
#91=EDGE_LOOP('',(#603,#604,#605,#606));
#92=EDGE_LOOP('',(#607,#608,#609,#610,#611,#612,#613));
#93=EDGE_LOOP('',(#614,#615,#616,#617));
#94=EDGE_LOOP('',(#618,#619,#620,#621,#622,#623,#624,#625));
#95=EDGE_LOOP('',(#626,#627,#628,#629));
#96=EDGE_LOOP('',(#630,#631,#632,#633));
#97=EDGE_LOOP('',(#634,#635,#636,#637));
#98=EDGE_LOOP('',(#638,#639,#640,#641,#642,#643,#644,#645,#646,#647,#648,
#649,#650,#651));
#99=LINE('',#952,#194);
#100=LINE('',#954,#195);
#101=LINE('',#956,#196);
#102=LINE('',#957,#197);
#103=LINE('',#961,#198);
#104=LINE('',#963,#199);
#105=LINE('',#965,#200);
#106=LINE('',#966,#201);
#107=LINE('',#970,#202);
#108=LINE('',#972,#203);
#109=LINE('',#974,#204);
#110=LINE('',#975,#205);
#111=LINE('',#979,#206);
#112=LINE('',#981,#207);
#113=LINE('',#983,#208);
#114=LINE('',#984,#209);
#115=LINE('',#988,#210);
#116=LINE('',#990,#211);
#117=LINE('',#992,#212);
#118=LINE('',#994,#213);
#119=LINE('',#996,#214);
#120=LINE('',#998,#215);
#121=LINE('',#1000,#216);
#122=LINE('',#1001,#217);
#123=LINE('',#1008,#218);
#124=LINE('',#1010,#219);
#125=LINE('',#1011,#220);
#126=LINE('',#1015,#221);
#127=LINE('',#1017,#222);
#128=LINE('',#1019,#223);
#129=LINE('',#1020,#224);
#130=LINE('',#1022,#225);
#131=LINE('',#1023,#226);
#132=LINE('',#1025,#227);
#133=LINE('',#1029,#228);
#134=LINE('',#1031,#229);
#135=LINE('',#1033,#230);
#136=LINE('',#1034,#231);
#137=LINE('',#1037,#232);
#138=LINE('',#1039,#233);
#139=LINE('',#1041,#234);
#140=LINE('',#1042,#235);
#141=LINE('',#1043,#236);
#142=LINE('',#1046,#237);
#143=LINE('',#1048,#238);
#144=LINE('',#1049,#239);
#145=LINE('',#1050,#240);
#146=LINE('',#1052,#241);
#147=LINE('',#1054,#242);
#148=LINE('',#1056,#243);
#149=LINE('',#1058,#244);
#150=LINE('',#1060,#245);
#151=LINE('',#1062,#246);
#152=LINE('',#1063,#247);
#153=LINE('',#1066,#248);
#154=LINE('',#1068,#249);
#155=LINE('',#1069,#250);
#156=LINE('',#1072,#251);
#157=LINE('',#1074,#252);
#158=LINE('',#1075,#253);
#159=LINE('',#1076,#254);
#160=LINE('',#1079,#255);
#161=LINE('',#1081,#256);
#162=LINE('',#1082,#257);
#163=LINE('',#1085,#258);
#164=LINE('',#1087,#259);
#165=LINE('',#1088,#260);
#166=LINE('',#1089,#261);
#167=LINE('',#1093,#262);
#168=LINE('',#1094,#263);
#169=LINE('',#1097,#264);
#170=LINE('',#1098,#265);
#171=LINE('',#1102,#266);
#172=LINE('',#1103,#267);
#173=LINE('',#1104,#268);
#174=LINE('',#1108,#269);
#175=LINE('',#1109,#270);
#176=LINE('',#1110,#271);
#177=LINE('',#1112,#272);
#178=LINE('',#1115,#273);
#179=LINE('',#1116,#274);
#180=LINE('',#1117,#275);
#181=LINE('',#1124,#276);
#182=LINE('',#1125,#277);
#183=LINE('',#1128,#278);
#184=LINE('',#1129,#279);
#185=LINE('',#1131,#280);
#186=LINE('',#1133,#281);
#187=LINE('',#1134,#282);
#188=LINE('',#1137,#283);
#189=LINE('',#1138,#284);
#190=LINE('',#1141,#285);
#191=LINE('',#1142,#286);
#192=LINE('',#1144,#287);
#193=LINE('',#1146,#288);
#194=VECTOR('',#777,10.);
#195=VECTOR('',#778,10.);
#196=VECTOR('',#779,10.);
#197=VECTOR('',#780,10.);
#198=VECTOR('',#783,10.);
#199=VECTOR('',#784,10.);
#200=VECTOR('',#785,10.);
#201=VECTOR('',#786,10.);
#202=VECTOR('',#789,10.);
#203=VECTOR('',#790,10.);
#204=VECTOR('',#791,10.);
#205=VECTOR('',#792,10.);
#206=VECTOR('',#795,10.);
#207=VECTOR('',#796,10.);
#208=VECTOR('',#797,10.);
#209=VECTOR('',#798,10.);
#210=VECTOR('',#801,10.);
#211=VECTOR('',#802,10.);
#212=VECTOR('',#803,10.);
#213=VECTOR('',#804,10.);
#214=VECTOR('',#805,10.);
#215=VECTOR('',#806,10.);
#216=VECTOR('',#807,10.);
#217=VECTOR('',#808,10.);
#218=VECTOR('',#815,10.);
#219=VECTOR('',#816,10.);
#220=VECTOR('',#817,10.);
#221=VECTOR('',#820,10.);
#222=VECTOR('',#821,10.);
#223=VECTOR('',#822,10.);
#224=VECTOR('',#823,10.);
#225=VECTOR('',#826,10.);
#226=VECTOR('',#827,10.);
#227=VECTOR('',#830,10.);
#228=VECTOR('',#833,10.);
#229=VECTOR('',#834,10.);
#230=VECTOR('',#835,10.);
#231=VECTOR('',#836,10.);
#232=VECTOR('',#839,10.);
#233=VECTOR('',#840,10.);
#234=VECTOR('',#841,10.);
#235=VECTOR('',#842,10.);
#236=VECTOR('',#843,10.);
#237=VECTOR('',#846,10.);
#238=VECTOR('',#847,10.);
#239=VECTOR('',#848,10.);
#240=VECTOR('',#849,10.);
#241=VECTOR('',#850,10.);
#242=VECTOR('',#851,10.);
#243=VECTOR('',#852,10.);
#244=VECTOR('',#853,10.);
#245=VECTOR('',#854,10.);
#246=VECTOR('',#855,10.);
#247=VECTOR('',#856,10.);
#248=VECTOR('',#859,10.);
#249=VECTOR('',#860,10.);
#250=VECTOR('',#861,10.);
#251=VECTOR('',#864,10.);
#252=VECTOR('',#865,10.);
#253=VECTOR('',#866,10.);
#254=VECTOR('',#867,10.);
#255=VECTOR('',#870,10.);
#256=VECTOR('',#871,10.);
#257=VECTOR('',#872,10.);
#258=VECTOR('',#875,10.);
#259=VECTOR('',#876,10.);
#260=VECTOR('',#877,10.);
#261=VECTOR('',#878,10.);
#262=VECTOR('',#883,10.);
#263=VECTOR('',#884,10.);
#264=VECTOR('',#887,10.);
#265=VECTOR('',#888,10.);
#266=VECTOR('',#891,10.);
#267=VECTOR('',#892,10.);
#268=VECTOR('',#893,10.);
#269=VECTOR('',#896,10.);
#270=VECTOR('',#897,10.);
#271=VECTOR('',#898,10.);
#272=VECTOR('',#901,10.);
#273=VECTOR('',#904,10.);
#274=VECTOR('',#905,10.);
#275=VECTOR('',#906,10.);
#276=VECTOR('',#913,10.);
#277=VECTOR('',#914,10.);
#278=VECTOR('',#917,10.);
#279=VECTOR('',#918,10.);
#280=VECTOR('',#921,10.);
#281=VECTOR('',#924,10.);
#282=VECTOR('',#925,10.);
#283=VECTOR('',#930,10.);
#284=VECTOR('',#931,10.);
#285=VECTOR('',#936,10.);
#286=VECTOR('',#937,10.);
#287=VECTOR('',#940,1.7);
#288=VECTOR('',#943,1.7);
#289=VERTEX_POINT('',#950);
#290=VERTEX_POINT('',#951);
#291=VERTEX_POINT('',#953);
#292=VERTEX_POINT('',#955);
#293=VERTEX_POINT('',#959);
#294=VERTEX_POINT('',#960);
#295=VERTEX_POINT('',#962);
#296=VERTEX_POINT('',#964);
#297=VERTEX_POINT('',#968);
#298=VERTEX_POINT('',#969);
#299=VERTEX_POINT('',#971);
#300=VERTEX_POINT('',#973);
#301=VERTEX_POINT('',#977);
#302=VERTEX_POINT('',#978);
#303=VERTEX_POINT('',#980);
#304=VERTEX_POINT('',#982);
#305=VERTEX_POINT('',#986);
#306=VERTEX_POINT('',#987);
#307=VERTEX_POINT('',#989);
#308=VERTEX_POINT('',#991);
#309=VERTEX_POINT('',#993);
#310=VERTEX_POINT('',#995);
#311=VERTEX_POINT('',#997);
#312=VERTEX_POINT('',#999);
#313=VERTEX_POINT('',#1002);
#314=VERTEX_POINT('',#1004);
#315=VERTEX_POINT('',#1007);
#316=VERTEX_POINT('',#1009);
#317=VERTEX_POINT('',#1013);
#318=VERTEX_POINT('',#1014);
#319=VERTEX_POINT('',#1016);
#320=VERTEX_POINT('',#1018);
#321=VERTEX_POINT('',#1027);
#322=VERTEX_POINT('',#1028);
#323=VERTEX_POINT('',#1030);
#324=VERTEX_POINT('',#1032);
#325=VERTEX_POINT('',#1036);
#326=VERTEX_POINT('',#1038);
#327=VERTEX_POINT('',#1040);
#328=VERTEX_POINT('',#1045);
#329=VERTEX_POINT('',#1047);
#330=VERTEX_POINT('',#1051);
#331=VERTEX_POINT('',#1053);
#332=VERTEX_POINT('',#1055);
#333=VERTEX_POINT('',#1057);
#334=VERTEX_POINT('',#1059);
#335=VERTEX_POINT('',#1061);
#336=VERTEX_POINT('',#1065);
#337=VERTEX_POINT('',#1067);
#338=VERTEX_POINT('',#1071);
#339=VERTEX_POINT('',#1073);
#340=VERTEX_POINT('',#1078);
#341=VERTEX_POINT('',#1080);
#342=VERTEX_POINT('',#1084);
#343=VERTEX_POINT('',#1086);
#344=VERTEX_POINT('',#1092);
#345=VERTEX_POINT('',#1096);
#346=VERTEX_POINT('',#1100);
#347=VERTEX_POINT('',#1101);
#348=VERTEX_POINT('',#1106);
#349=VERTEX_POINT('',#1107);
#350=VERTEX_POINT('',#1114);
#351=VERTEX_POINT('',#1118);
#352=VERTEX_POINT('',#1120);
#353=VERTEX_POINT('',#1123);
#354=VERTEX_POINT('',#1127);
#355=EDGE_CURVE('',#289,#290,#99,.T.);
#356=EDGE_CURVE('',#290,#291,#100,.T.);
#357=EDGE_CURVE('',#291,#292,#101,.T.);
#358=EDGE_CURVE('',#292,#289,#102,.T.);
#359=EDGE_CURVE('',#293,#294,#103,.T.);
#360=EDGE_CURVE('',#294,#295,#104,.T.);
#361=EDGE_CURVE('',#295,#296,#105,.T.);
#362=EDGE_CURVE('',#296,#293,#106,.T.);
#363=EDGE_CURVE('',#297,#298,#107,.T.);
#364=EDGE_CURVE('',#298,#299,#108,.T.);
#365=EDGE_CURVE('',#299,#300,#109,.T.);
#366=EDGE_CURVE('',#300,#297,#110,.T.);
#367=EDGE_CURVE('',#301,#302,#111,.T.);
#368=EDGE_CURVE('',#302,#303,#112,.T.);
#369=EDGE_CURVE('',#303,#304,#113,.T.);
#370=EDGE_CURVE('',#304,#301,#114,.T.);
#371=EDGE_CURVE('',#305,#306,#115,.T.);
#372=EDGE_CURVE('',#307,#305,#116,.T.);
#373=EDGE_CURVE('',#308,#307,#117,.T.);
#374=EDGE_CURVE('',#309,#308,#118,.T.);
#375=EDGE_CURVE('',#310,#309,#119,.T.);
#376=EDGE_CURVE('',#311,#310,#120,.T.);
#377=EDGE_CURVE('',#312,#311,#121,.T.);
#378=EDGE_CURVE('',#306,#312,#122,.T.);
#379=EDGE_CURVE('',#313,#313,#21,.T.);
#380=EDGE_CURVE('',#314,#314,#22,.T.);
#381=EDGE_CURVE('',#309,#315,#123,.T.);
#382=EDGE_CURVE('',#315,#316,#124,.T.);
#383=EDGE_CURVE('',#310,#316,#125,.T.);
#384=EDGE_CURVE('',#317,#318,#126,.T.);
#385=EDGE_CURVE('',#319,#318,#127,.T.);
#386=EDGE_CURVE('',#319,#320,#128,.T.);
#387=EDGE_CURVE('',#320,#317,#129,.T.);
#388=EDGE_CURVE('',#305,#317,#130,.T.);
#389=EDGE_CURVE('',#318,#306,#131,.T.);
#390=EDGE_CURVE('',#320,#307,#132,.T.);
#391=EDGE_CURVE('',#321,#322,#133,.T.);
#392=EDGE_CURVE('',#322,#323,#134,.T.);
#393=EDGE_CURVE('',#323,#324,#135,.T.);
#394=EDGE_CURVE('',#324,#321,#136,.T.);
#395=EDGE_CURVE('',#325,#323,#137,.T.);
#396=EDGE_CURVE('',#326,#325,#138,.T.);
#397=EDGE_CURVE('',#327,#326,#139,.T.);
#398=EDGE_CURVE('',#327,#291,#140,.T.);
#399=EDGE_CURVE('',#324,#290,#141,.T.);
#400=EDGE_CURVE('',#322,#328,#142,.T.);
#401=EDGE_CURVE('',#328,#329,#143,.T.);
#402=EDGE_CURVE('',#329,#315,#144,.T.);
#403=EDGE_CURVE('',#308,#319,#145,.T.);
#404=EDGE_CURVE('',#330,#312,#146,.T.);
#405=EDGE_CURVE('',#330,#331,#147,.T.);
#406=EDGE_CURVE('',#332,#331,#148,.T.);
#407=EDGE_CURVE('',#332,#333,#149,.T.);
#408=EDGE_CURVE('',#333,#334,#150,.T.);
#409=EDGE_CURVE('',#335,#334,#151,.T.);
#410=EDGE_CURVE('',#335,#325,#152,.T.);
#411=EDGE_CURVE('',#336,#335,#153,.T.);
#412=EDGE_CURVE('',#334,#337,#154,.T.);
#413=EDGE_CURVE('',#337,#336,#155,.T.);
#414=EDGE_CURVE('',#338,#333,#156,.T.);
#415=EDGE_CURVE('',#339,#338,#157,.T.);
#416=EDGE_CURVE('',#339,#303,#158,.T.);
#417=EDGE_CURVE('',#337,#302,#159,.T.);
#418=EDGE_CURVE('',#340,#332,#160,.T.);
#419=EDGE_CURVE('',#331,#341,#161,.T.);
#420=EDGE_CURVE('',#341,#340,#162,.T.);
#421=EDGE_CURVE('',#342,#330,#163,.T.);
#422=EDGE_CURVE('',#343,#342,#164,.T.);
#423=EDGE_CURVE('',#343,#295,#165,.T.);
#424=EDGE_CURVE('',#341,#294,#166,.T.);
#425=EDGE_CURVE('',#344,#343,#167,.T.);
#426=EDGE_CURVE('',#344,#296,#168,.T.);
#427=EDGE_CURVE('',#345,#339,#169,.T.);
#428=EDGE_CURVE('',#345,#304,#170,.T.);
#429=EDGE_CURVE('',#346,#347,#171,.T.);
#430=EDGE_CURVE('',#346,#299,#172,.T.);
#431=EDGE_CURVE('',#347,#298,#173,.T.);
#432=EDGE_CURVE('',#348,#349,#174,.T.);
#433=EDGE_CURVE('',#348,#289,#175,.T.);
#434=EDGE_CURVE('',#349,#292,#176,.T.);
#435=EDGE_CURVE('',#349,#327,#177,.T.);
#436=EDGE_CURVE('',#350,#300,#178,.T.);
#437=EDGE_CURVE('',#316,#350,#179,.T.);
#438=EDGE_CURVE('',#329,#297,#180,.T.);
#439=EDGE_CURVE('',#351,#351,#23,.T.);
#440=EDGE_CURVE('',#352,#352,#24,.T.);
#441=EDGE_CURVE('',#353,#328,#181,.T.);
#442=EDGE_CURVE('',#347,#353,#182,.T.);
#443=EDGE_CURVE('',#354,#321,#183,.T.);
#444=EDGE_CURVE('',#353,#354,#184,.T.);
#445=EDGE_CURVE('',#354,#348,#185,.T.);
#446=EDGE_CURVE('',#336,#301,#186,.T.);
#447=EDGE_CURVE('',#326,#345,#187,.T.);
#448=EDGE_CURVE('',#340,#293,#188,.T.);
#449=EDGE_CURVE('',#338,#344,#189,.T.);
#450=EDGE_CURVE('',#311,#350,#190,.T.);
#451=EDGE_CURVE('',#342,#346,#191,.T.);
#452=EDGE_CURVE('',#352,#314,#192,.T.);
#453=EDGE_CURVE('',#351,#313,#193,.T.);
#454=ORIENTED_EDGE('',*,*,#355,.T.);
#455=ORIENTED_EDGE('',*,*,#356,.T.);
#456=ORIENTED_EDGE('',*,*,#357,.T.);
#457=ORIENTED_EDGE('',*,*,#358,.T.);
#458=ORIENTED_EDGE('',*,*,#359,.T.);
#459=ORIENTED_EDGE('',*,*,#360,.T.);
#460=ORIENTED_EDGE('',*,*,#361,.T.);
#461=ORIENTED_EDGE('',*,*,#362,.T.);
#462=ORIENTED_EDGE('',*,*,#363,.T.);
#463=ORIENTED_EDGE('',*,*,#364,.T.);
#464=ORIENTED_EDGE('',*,*,#365,.T.);
#465=ORIENTED_EDGE('',*,*,#366,.T.);
#466=ORIENTED_EDGE('',*,*,#367,.T.);
#467=ORIENTED_EDGE('',*,*,#368,.T.);
#468=ORIENTED_EDGE('',*,*,#369,.T.);
#469=ORIENTED_EDGE('',*,*,#370,.T.);
#470=ORIENTED_EDGE('',*,*,#371,.F.);
#471=ORIENTED_EDGE('',*,*,#372,.F.);
#472=ORIENTED_EDGE('',*,*,#373,.F.);
#473=ORIENTED_EDGE('',*,*,#374,.F.);
#474=ORIENTED_EDGE('',*,*,#375,.F.);
#475=ORIENTED_EDGE('',*,*,#376,.F.);
#476=ORIENTED_EDGE('',*,*,#377,.F.);
#477=ORIENTED_EDGE('',*,*,#378,.F.);
#478=ORIENTED_EDGE('',*,*,#379,.F.);
#479=ORIENTED_EDGE('',*,*,#380,.F.);
#480=ORIENTED_EDGE('',*,*,#375,.T.);
#481=ORIENTED_EDGE('',*,*,#381,.T.);
#482=ORIENTED_EDGE('',*,*,#382,.T.);
#483=ORIENTED_EDGE('',*,*,#383,.F.);
#484=ORIENTED_EDGE('',*,*,#384,.T.);
#485=ORIENTED_EDGE('',*,*,#385,.F.);
#486=ORIENTED_EDGE('',*,*,#386,.T.);
#487=ORIENTED_EDGE('',*,*,#387,.T.);
#488=ORIENTED_EDGE('',*,*,#384,.F.);
#489=ORIENTED_EDGE('',*,*,#388,.F.);
#490=ORIENTED_EDGE('',*,*,#371,.T.);
#491=ORIENTED_EDGE('',*,*,#389,.F.);
#492=ORIENTED_EDGE('',*,*,#387,.F.);
#493=ORIENTED_EDGE('',*,*,#390,.T.);
#494=ORIENTED_EDGE('',*,*,#372,.T.);
#495=ORIENTED_EDGE('',*,*,#388,.T.);
#496=ORIENTED_EDGE('',*,*,#391,.T.);
#497=ORIENTED_EDGE('',*,*,#392,.T.);
#498=ORIENTED_EDGE('',*,*,#393,.T.);
#499=ORIENTED_EDGE('',*,*,#394,.T.);
#500=ORIENTED_EDGE('',*,*,#393,.F.);
#501=ORIENTED_EDGE('',*,*,#395,.F.);
#502=ORIENTED_EDGE('',*,*,#396,.F.);
#503=ORIENTED_EDGE('',*,*,#397,.F.);
#504=ORIENTED_EDGE('',*,*,#398,.T.);
#505=ORIENTED_EDGE('',*,*,#356,.F.);
#506=ORIENTED_EDGE('',*,*,#399,.F.);
#507=ORIENTED_EDGE('',*,*,#392,.F.);
#508=ORIENTED_EDGE('',*,*,#400,.T.);
#509=ORIENTED_EDGE('',*,*,#401,.T.);
#510=ORIENTED_EDGE('',*,*,#402,.T.);
#511=ORIENTED_EDGE('',*,*,#381,.F.);
#512=ORIENTED_EDGE('',*,*,#374,.T.);
#513=ORIENTED_EDGE('',*,*,#403,.T.);
#514=ORIENTED_EDGE('',*,*,#385,.T.);
#515=ORIENTED_EDGE('',*,*,#389,.T.);
#516=ORIENTED_EDGE('',*,*,#378,.T.);
#517=ORIENTED_EDGE('',*,*,#404,.F.);
#518=ORIENTED_EDGE('',*,*,#405,.T.);
#519=ORIENTED_EDGE('',*,*,#406,.F.);
#520=ORIENTED_EDGE('',*,*,#407,.T.);
#521=ORIENTED_EDGE('',*,*,#408,.T.);
#522=ORIENTED_EDGE('',*,*,#409,.F.);
#523=ORIENTED_EDGE('',*,*,#410,.T.);
#524=ORIENTED_EDGE('',*,*,#395,.T.);
#525=ORIENTED_EDGE('',*,*,#411,.T.);
#526=ORIENTED_EDGE('',*,*,#409,.T.);
#527=ORIENTED_EDGE('',*,*,#412,.T.);
#528=ORIENTED_EDGE('',*,*,#413,.T.);
#529=ORIENTED_EDGE('',*,*,#412,.F.);
#530=ORIENTED_EDGE('',*,*,#408,.F.);
#531=ORIENTED_EDGE('',*,*,#414,.F.);
#532=ORIENTED_EDGE('',*,*,#415,.F.);
#533=ORIENTED_EDGE('',*,*,#416,.T.);
#534=ORIENTED_EDGE('',*,*,#368,.F.);
#535=ORIENTED_EDGE('',*,*,#417,.F.);
#536=ORIENTED_EDGE('',*,*,#418,.T.);
#537=ORIENTED_EDGE('',*,*,#406,.T.);
#538=ORIENTED_EDGE('',*,*,#419,.T.);
#539=ORIENTED_EDGE('',*,*,#420,.T.);
#540=ORIENTED_EDGE('',*,*,#419,.F.);
#541=ORIENTED_EDGE('',*,*,#405,.F.);
#542=ORIENTED_EDGE('',*,*,#421,.F.);
#543=ORIENTED_EDGE('',*,*,#422,.F.);
#544=ORIENTED_EDGE('',*,*,#423,.T.);
#545=ORIENTED_EDGE('',*,*,#360,.F.);
#546=ORIENTED_EDGE('',*,*,#424,.F.);
#547=ORIENTED_EDGE('',*,*,#386,.F.);
#548=ORIENTED_EDGE('',*,*,#403,.F.);
#549=ORIENTED_EDGE('',*,*,#373,.T.);
#550=ORIENTED_EDGE('',*,*,#390,.F.);
#551=ORIENTED_EDGE('',*,*,#425,.F.);
#552=ORIENTED_EDGE('',*,*,#426,.T.);
#553=ORIENTED_EDGE('',*,*,#361,.F.);
#554=ORIENTED_EDGE('',*,*,#423,.F.);
#555=ORIENTED_EDGE('',*,*,#427,.F.);
#556=ORIENTED_EDGE('',*,*,#428,.T.);
#557=ORIENTED_EDGE('',*,*,#369,.F.);
#558=ORIENTED_EDGE('',*,*,#416,.F.);
#559=ORIENTED_EDGE('',*,*,#429,.F.);
#560=ORIENTED_EDGE('',*,*,#430,.T.);
#561=ORIENTED_EDGE('',*,*,#364,.F.);
#562=ORIENTED_EDGE('',*,*,#431,.F.);
#563=ORIENTED_EDGE('',*,*,#432,.F.);
#564=ORIENTED_EDGE('',*,*,#433,.T.);
#565=ORIENTED_EDGE('',*,*,#358,.F.);
#566=ORIENTED_EDGE('',*,*,#434,.F.);
#567=ORIENTED_EDGE('',*,*,#435,.F.);
#568=ORIENTED_EDGE('',*,*,#434,.T.);
#569=ORIENTED_EDGE('',*,*,#357,.F.);
#570=ORIENTED_EDGE('',*,*,#398,.F.);
#571=ORIENTED_EDGE('',*,*,#436,.F.);
#572=ORIENTED_EDGE('',*,*,#437,.F.);
#573=ORIENTED_EDGE('',*,*,#382,.F.);
#574=ORIENTED_EDGE('',*,*,#402,.F.);
#575=ORIENTED_EDGE('',*,*,#438,.T.);
#576=ORIENTED_EDGE('',*,*,#366,.F.);
#577=ORIENTED_EDGE('',*,*,#439,.F.);
#578=ORIENTED_EDGE('',*,*,#440,.F.);
#579=ORIENTED_EDGE('',*,*,#438,.F.);
#580=ORIENTED_EDGE('',*,*,#401,.F.);
#581=ORIENTED_EDGE('',*,*,#441,.F.);
#582=ORIENTED_EDGE('',*,*,#442,.F.);
#583=ORIENTED_EDGE('',*,*,#431,.T.);
#584=ORIENTED_EDGE('',*,*,#363,.F.);
#585=ORIENTED_EDGE('',*,*,#391,.F.);
#586=ORIENTED_EDGE('',*,*,#443,.F.);
#587=ORIENTED_EDGE('',*,*,#444,.F.);
#588=ORIENTED_EDGE('',*,*,#441,.T.);
#589=ORIENTED_EDGE('',*,*,#400,.F.);
#590=ORIENTED_EDGE('',*,*,#394,.F.);
#591=ORIENTED_EDGE('',*,*,#399,.T.);
#592=ORIENTED_EDGE('',*,*,#355,.F.);
#593=ORIENTED_EDGE('',*,*,#433,.F.);
#594=ORIENTED_EDGE('',*,*,#445,.F.);
#595=ORIENTED_EDGE('',*,*,#443,.T.);
#596=ORIENTED_EDGE('',*,*,#411,.F.);
#597=ORIENTED_EDGE('',*,*,#446,.T.);
#598=ORIENTED_EDGE('',*,*,#370,.F.);
#599=ORIENTED_EDGE('',*,*,#428,.F.);
#600=ORIENTED_EDGE('',*,*,#447,.F.);
#601=ORIENTED_EDGE('',*,*,#396,.T.);
#602=ORIENTED_EDGE('',*,*,#410,.F.);
#603=ORIENTED_EDGE('',*,*,#413,.F.);
#604=ORIENTED_EDGE('',*,*,#417,.T.);
#605=ORIENTED_EDGE('',*,*,#367,.F.);
#606=ORIENTED_EDGE('',*,*,#446,.F.);
#607=ORIENTED_EDGE('',*,*,#418,.F.);
#608=ORIENTED_EDGE('',*,*,#448,.T.);
#609=ORIENTED_EDGE('',*,*,#362,.F.);
#610=ORIENTED_EDGE('',*,*,#426,.F.);
#611=ORIENTED_EDGE('',*,*,#449,.F.);
#612=ORIENTED_EDGE('',*,*,#414,.T.);
#613=ORIENTED_EDGE('',*,*,#407,.F.);
#614=ORIENTED_EDGE('',*,*,#420,.F.);
#615=ORIENTED_EDGE('',*,*,#424,.T.);
#616=ORIENTED_EDGE('',*,*,#359,.F.);
#617=ORIENTED_EDGE('',*,*,#448,.F.);
#618=ORIENTED_EDGE('',*,*,#377,.T.);
#619=ORIENTED_EDGE('',*,*,#450,.T.);
#620=ORIENTED_EDGE('',*,*,#436,.T.);
#621=ORIENTED_EDGE('',*,*,#365,.F.);
#622=ORIENTED_EDGE('',*,*,#430,.F.);
#623=ORIENTED_EDGE('',*,*,#451,.F.);
#624=ORIENTED_EDGE('',*,*,#421,.T.);
#625=ORIENTED_EDGE('',*,*,#404,.T.);
#626=ORIENTED_EDGE('',*,*,#440,.T.);
#627=ORIENTED_EDGE('',*,*,#452,.T.);
#628=ORIENTED_EDGE('',*,*,#380,.T.);
#629=ORIENTED_EDGE('',*,*,#452,.F.);
#630=ORIENTED_EDGE('',*,*,#439,.T.);
#631=ORIENTED_EDGE('',*,*,#453,.T.);
#632=ORIENTED_EDGE('',*,*,#379,.T.);
#633=ORIENTED_EDGE('',*,*,#453,.F.);
#634=ORIENTED_EDGE('',*,*,#376,.T.);
#635=ORIENTED_EDGE('',*,*,#383,.T.);
#636=ORIENTED_EDGE('',*,*,#437,.T.);
#637=ORIENTED_EDGE('',*,*,#450,.F.);
#638=ORIENTED_EDGE('',*,*,#425,.T.);
#639=ORIENTED_EDGE('',*,*,#422,.T.);
#640=ORIENTED_EDGE('',*,*,#451,.T.);
#641=ORIENTED_EDGE('',*,*,#429,.T.);
#642=ORIENTED_EDGE('',*,*,#442,.T.);
#643=ORIENTED_EDGE('',*,*,#444,.T.);
#644=ORIENTED_EDGE('',*,*,#445,.T.);
#645=ORIENTED_EDGE('',*,*,#432,.T.);
#646=ORIENTED_EDGE('',*,*,#435,.T.);
#647=ORIENTED_EDGE('',*,*,#397,.T.);
#648=ORIENTED_EDGE('',*,*,#447,.T.);
#649=ORIENTED_EDGE('',*,*,#427,.T.);
#650=ORIENTED_EDGE('',*,*,#415,.T.);
#651=ORIENTED_EDGE('',*,*,#449,.T.);
#652=PLANE('',#734);
#653=PLANE('',#735);
#654=PLANE('',#736);
#655=PLANE('',#737);
#656=PLANE('',#738);
#657=PLANE('',#741);
#658=PLANE('',#742);
#659=PLANE('',#743);
#660=PLANE('',#744);
#661=PLANE('',#745);
#662=PLANE('',#746);
#663=PLANE('',#747);
#664=PLANE('',#748);
#665=PLANE('',#749);
#666=PLANE('',#750);
#667=PLANE('',#751);
#668=PLANE('',#752);
#669=PLANE('',#753);
#670=PLANE('',#754);
#671=PLANE('',#755);
#672=PLANE('',#756);
#673=PLANE('',#757);
#674=PLANE('',#758);
#675=PLANE('',#761);
#676=PLANE('',#762);
#677=PLANE('',#763);
#678=PLANE('',#764);
#679=PLANE('',#765);
#680=PLANE('',#766);
#681=PLANE('',#767);
#682=PLANE('',#768);
#683=PLANE('',#771);
#684=PLANE('',#772);
#685=ADVANCED_FACE('',(#25),#652,.T.);
#686=ADVANCED_FACE('',(#26),#653,.T.);
#687=ADVANCED_FACE('',(#27),#654,.T.);
#688=ADVANCED_FACE('',(#28),#655,.T.);
#689=ADVANCED_FACE('',(#29,#17,#18),#656,.F.);
#690=ADVANCED_FACE('',(#30),#657,.T.);
#691=ADVANCED_FACE('',(#31),#658,.T.);
#692=ADVANCED_FACE('',(#32),#659,.T.);
#693=ADVANCED_FACE('',(#33),#660,.T.);
#694=ADVANCED_FACE('',(#34),#661,.T.);
#695=ADVANCED_FACE('',(#35),#662,.T.);
#696=ADVANCED_FACE('',(#36),#663,.T.);
#697=ADVANCED_FACE('',(#37),#664,.T.);
#698=ADVANCED_FACE('',(#38),#665,.T.);
#699=ADVANCED_FACE('',(#39),#666,.T.);
#700=ADVANCED_FACE('',(#40),#667,.T.);
#701=ADVANCED_FACE('',(#41),#668,.T.);
#702=ADVANCED_FACE('',(#42),#669,.T.);
#703=ADVANCED_FACE('',(#43),#670,.T.);
#704=ADVANCED_FACE('',(#44),#671,.T.);
#705=ADVANCED_FACE('',(#45),#672,.T.);
#706=ADVANCED_FACE('',(#46),#673,.T.);
#707=ADVANCED_FACE('',(#47,#19,#20),#674,.T.);
#708=ADVANCED_FACE('',(#48),#675,.T.);
#709=ADVANCED_FACE('',(#49),#676,.T.);
#710=ADVANCED_FACE('',(#50),#677,.T.);
#711=ADVANCED_FACE('',(#51),#678,.T.);
#712=ADVANCED_FACE('',(#52),#679,.T.);
#713=ADVANCED_FACE('',(#53),#680,.T.);
#714=ADVANCED_FACE('',(#54),#681,.T.);
#715=ADVANCED_FACE('',(#55),#682,.T.);
#716=ADVANCED_FACE('',(#56),#15,.F.);
#717=ADVANCED_FACE('',(#57),#16,.F.);
#718=ADVANCED_FACE('',(#58),#683,.T.);
#719=ADVANCED_FACE('',(#59),#684,.T.);
#720=CLOSED_SHELL('',(#685,#686,#687,#688,#689,#690,#691,#692,#693,#694,
#695,#696,#697,#698,#699,#700,#701,#702,#703,#704,#705,#706,#707,#708,#709,
#710,#711,#712,#713,#714,#715,#716,#717,#718,#719));
#721=DERIVED_UNIT_ELEMENT(#723,1.);
#722=DERIVED_UNIT_ELEMENT(#1154,-3.);
#723=(
MASS_UNIT()
NAMED_UNIT(*)
SI_UNIT(.KILO.,.GRAM.)
);
#724=DERIVED_UNIT((#721,#722));
#725=MEASURE_REPRESENTATION_ITEM('density measure',
POSITIVE_RATIO_MEASURE(1000.),#724);
#726=PROPERTY_DEFINITION_REPRESENTATION(#731,#728);
#727=PROPERTY_DEFINITION_REPRESENTATION(#732,#729);
#728=REPRESENTATION('material name',(#730),#1151);
#729=REPRESENTATION('density',(#725),#1151);
#730=DESCRIPTIVE_REPRESENTATION_ITEM('Generic','Generic');
#731=PROPERTY_DEFINITION('material property','material name',#1161);
#732=PROPERTY_DEFINITION('material property','density of part',#1161);
#733=AXIS2_PLACEMENT_3D('',#948,#773,#774);
#734=AXIS2_PLACEMENT_3D('',#949,#775,#776);
#735=AXIS2_PLACEMENT_3D('',#958,#781,#782);
#736=AXIS2_PLACEMENT_3D('',#967,#787,#788);
#737=AXIS2_PLACEMENT_3D('',#976,#793,#794);
#738=AXIS2_PLACEMENT_3D('',#985,#799,#800);
#739=AXIS2_PLACEMENT_3D('',#1003,#809,#810);
#740=AXIS2_PLACEMENT_3D('',#1005,#811,#812);
#741=AXIS2_PLACEMENT_3D('',#1006,#813,#814);
#742=AXIS2_PLACEMENT_3D('',#1012,#818,#819);
#743=AXIS2_PLACEMENT_3D('',#1021,#824,#825);
#744=AXIS2_PLACEMENT_3D('',#1024,#828,#829);
#745=AXIS2_PLACEMENT_3D('',#1026,#831,#832);
#746=AXIS2_PLACEMENT_3D('',#1035,#837,#838);
#747=AXIS2_PLACEMENT_3D('',#1044,#844,#845);
#748=AXIS2_PLACEMENT_3D('',#1064,#857,#858);
#749=AXIS2_PLACEMENT_3D('',#1070,#862,#863);
#750=AXIS2_PLACEMENT_3D('',#1077,#868,#869);
#751=AXIS2_PLACEMENT_3D('',#1083,#873,#874);
#752=AXIS2_PLACEMENT_3D('',#1090,#879,#880);
#753=AXIS2_PLACEMENT_3D('',#1091,#881,#882);
#754=AXIS2_PLACEMENT_3D('',#1095,#885,#886);
#755=AXIS2_PLACEMENT_3D('',#1099,#889,#890);
#756=AXIS2_PLACEMENT_3D('',#1105,#894,#895);
#757=AXIS2_PLACEMENT_3D('',#1111,#899,#900);
#758=AXIS2_PLACEMENT_3D('',#1113,#902,#903);
#759=AXIS2_PLACEMENT_3D('',#1119,#907,#908);
#760=AXIS2_PLACEMENT_3D('',#1121,#909,#910);
#761=AXIS2_PLACEMENT_3D('',#1122,#911,#912);
#762=AXIS2_PLACEMENT_3D('',#1126,#915,#916);
#763=AXIS2_PLACEMENT_3D('',#1130,#919,#920);
#764=AXIS2_PLACEMENT_3D('',#1132,#922,#923);
#765=AXIS2_PLACEMENT_3D('',#1135,#926,#927);
#766=AXIS2_PLACEMENT_3D('',#1136,#928,#929);
#767=AXIS2_PLACEMENT_3D('',#1139,#932,#933);
#768=AXIS2_PLACEMENT_3D('',#1140,#934,#935);
#769=AXIS2_PLACEMENT_3D('',#1143,#938,#939);
#770=AXIS2_PLACEMENT_3D('',#1145,#941,#942);
#771=AXIS2_PLACEMENT_3D('',#1147,#944,#945);
#772=AXIS2_PLACEMENT_3D('',#1148,#946,#947);
#773=DIRECTION('axis',(0.,0.,1.));
#774=DIRECTION('refdir',(1.,0.,0.));
#775=DIRECTION('center_axis',(-1.77635683940025E-16,4.44089209850063E-16,
1.));
#776=DIRECTION('ref_axis',(1.,0.,1.77635683940025E-16));
#777=DIRECTION('',(1.,2.53527787301991E-16,2.22044604925031E-16));
#778=DIRECTION('',(-9.13392883661668E-16,1.,-2.56614931226326E-16));
#779=DIRECTION('',(-1.,-2.53527787301991E-16,-2.22044604925031E-16));
#780=DIRECTION('',(2.53527787301991E-16,-1.,2.56614931226326E-16));
#781=DIRECTION('center_axis',(-3.5527136788005E-16,3.5527136788005E-16,
1.));
#782=DIRECTION('ref_axis',(1.,0.,3.5527136788005E-16));
#783=DIRECTION('',(-1.,1.16546554239728E-16,-2.22044604925031E-16));
#784=DIRECTION('',(2.53527787301991E-16,-1.,2.56614931226326E-16));
#785=DIRECTION('',(1.,3.92305665380136E-16,2.22044604925031E-16));
#786=DIRECTION('',(-2.53527787301991E-16,1.,-2.56614931226326E-16));
#787=DIRECTION('center_axis',(-2.22044604925031E-16,4.38538094726937E-16,
1.));
#788=DIRECTION('ref_axis',(1.,0.,2.22044604925031E-16));
#789=DIRECTION('',(1.,8.17331219828178E-17,2.22044604925031E-16));
#790=DIRECTION('',(-5.22232107043273E-16,1.,-2.56614931226326E-16));
#791=DIRECTION('',(-1.,-2.53527787301991E-16,-2.22044604925031E-16));
#792=DIRECTION('',(1.90303241480513E-16,-1.,2.56614931226326E-16));
#793=DIRECTION('center_axis',(-3.5527136788005E-16,4.38538094726937E-16,
1.));
#794=DIRECTION('ref_axis',(1.,0.,3.5527136788005E-16));
#795=DIRECTION('',(-5.06425970587903E-16,1.,-2.56614931226326E-16));
#796=DIRECTION('',(-1.,-8.17331219828178E-17,-2.22044604925031E-16));
#797=DIRECTION('',(5.06425970587903E-16,-1.,2.56614931226326E-16));
#798=DIRECTION('',(1.,2.53527787301991E-16,2.22044604925031E-16));
#799=DIRECTION('center_axis',(-1.,-1.27078695659035E-16,-2.22044604925031E-16));
#800=DIRECTION('ref_axis',(2.22044604925031E-16,4.61401574429939E-18,-1.));
#801=DIRECTION('',(-2.22044604925031E-16,-1.11483704036946E-15,1.));
#802=DIRECTION('',(-1.27078695659035E-16,1.,4.61401574429934E-18));
#803=DIRECTION('',(2.22044604925032E-16,-6.61519799030795E-16,-1.));
#804=DIRECTION('',(-1.27078695659035E-16,1.,4.61401574429934E-18));
#805=DIRECTION('',(-2.22044604925031E-16,1.22464679914735E-16,1.));
#806=DIRECTION('',(1.27078695659035E-16,-1.,4.19883023082966E-16));
#807=DIRECTION('',(2.22044604925031E-16,-3.76622071232805E-16,-1.));
#808=DIRECTION('',(-1.27078695659035E-16,1.,4.61401574429934E-18));
#809=DIRECTION('center_axis',(1.,1.27078695659035E-16,2.22044604925031E-16));
#810=DIRECTION('ref_axis',(-2.22044604925031E-16,-4.61401574429939E-18,
1.));
#811=DIRECTION('center_axis',(1.,1.27078695659035E-16,2.22044604925031E-16));
#812=DIRECTION('ref_axis',(-2.22044604925031E-16,-4.61401574429939E-18,
1.));
#813=DIRECTION('center_axis',(1.27078695659035E-16,-1.,1.22464679914735E-16));
#814=DIRECTION('ref_axis',(-2.22044604925031E-16,1.22464679914735E-16,1.));
#815=DIRECTION('',(-1.,-1.27078695659035E-16,-2.22044604925031E-16));
#816=DIRECTION('',(2.22044604925031E-16,-1.17850664170436E-16,-1.));
#817=DIRECTION('',(-1.,-1.27078695659035E-16,-2.22044604925031E-16));
#818=DIRECTION('center_axis',(0.707106781186548,9.31208092661405E-17,-0.707106781186547));
#819=DIRECTION('ref_axis',(0.707106781186547,8.65956056235493E-17,0.707106781186548));
#820=DIRECTION('',(0.707106781186547,-6.98450623718338E-16,0.707106781186548));
#821=DIRECTION('',(-1.27078695659035E-16,1.,4.61401574429934E-18));
#822=DIRECTION('',(-0.707106781186547,-5.57623343228682E-16,-0.707106781186548));
#823=DIRECTION('',(-1.27078695659035E-16,1.,4.61401574429934E-18));
#824=DIRECTION('center_axis',(-1.27078695659035E-16,1.,1.11483704036946E-15));
#825=DIRECTION('ref_axis',(-2.22044604925031E-16,-1.11483704036946E-15,
1.));
#826=DIRECTION('',(1.,1.27078695659035E-16,2.22044604925031E-16));
#827=DIRECTION('',(-1.,-1.27078695659035E-16,-2.22044604925031E-16));
#828=DIRECTION('center_axis',(2.22044604925031E-16,4.61401574429939E-18,
-1.));
#829=DIRECTION('ref_axis',(-1.27078695659035E-16,1.,4.61401574429934E-18));
#830=DIRECTION('',(-1.,0.,0.));
#831=DIRECTION('center_axis',(2.46867453313222E-16,-0.707106781186551,-0.707106781186544));
#832=DIRECTION('ref_axis',(1.,1.27078695659035E-16,2.22044604925031E-16));
#833=DIRECTION('',(-3.04029211856317E-16,0.707106781186544,-0.707106781186551));
#834=DIRECTION('',(1.,1.27078695659035E-16,2.22044604925031E-16));
#835=DIRECTION('',(-6.71510384235337E-17,-0.707106781186544,0.707106781186551));
#836=DIRECTION('',(-1.,-1.27078695659035E-16,-2.22044604925031E-16));
#837=DIRECTION('center_axis',(1.,1.27078695659035E-16,2.22044604925031E-16));
#838=DIRECTION('ref_axis',(1.27078695659035E-16,-1.,2.56614931226326E-16));
#839=DIRECTION('',(1.27078695659035E-16,-1.,2.56614931226326E-16));
#840=DIRECTION('',(2.22044604925031E-16,4.61401574429939E-18,-1.));
#841=DIRECTION('',(-1.27078695659035E-16,1.,-2.56614931226326E-16));
#842=DIRECTION('',(-2.22044604925031E-16,4.39475194105763E-16,1.));
#843=DIRECTION('',(-2.22044604925031E-16,4.39475194105763E-16,1.));
#844=DIRECTION('center_axis',(2.22044604925031E-16,4.61401574429939E-18,
-1.));
#845=DIRECTION('ref_axis',(1.,1.27078695659035E-16,2.22044604925031E-16));
#846=DIRECTION('',(-6.52006839689841E-16,1.,-2.56614931226326E-16));
#847=DIRECTION('',(-1.,7.61099724041091E-16,-2.22044604925032E-16));
#848=DIRECTION('',(-2.53527787301991E-16,1.,-2.56614931226326E-16));
#849=DIRECTION('',(1.,1.27078695659035E-16,2.22044604925031E-16));
#850=DIRECTION('',(-1.,-1.27078695659035E-16,-5.8634310253581E-34));
#851=DIRECTION('',(-1.27078695659035E-16,1.,-2.56614931226326E-16));
#852=DIRECTION('',(-1.,-1.27078695659035E-16,-2.22044604925031E-16));
#853=DIRECTION('',(1.27078695659035E-16,-1.,2.56614931226326E-16));
#854=DIRECTION('',(1.,4.04634451815324E-16,2.22044604925031E-16));
#855=DIRECTION('',(-3.79976878944947E-16,1.,4.61401574429929E-18));
#856=DIRECTION('',(-1.,-1.27078695659035E-16,-2.22044604925031E-16));
#857=DIRECTION('center_axis',(0.707106781186549,2.71946829617368E-16,-0.707106781186547));
#858=DIRECTION('ref_axis',(0.707106781186546,8.65956056235492E-17,0.707106781186548));
#859=DIRECTION('',(-0.707106781186546,-8.65956056235492E-17,-0.707106781186548));
#860=DIRECTION('',(0.707106781186546,2.82857162959021E-16,0.707106781186548));
#861=DIRECTION('',(3.79976878944947E-16,-1.,-4.61401574429929E-18));
#862=DIRECTION('center_axis',(-4.04634451815324E-16,1.,4.61401574429927E-18));
#863=DIRECTION('ref_axis',(1.,4.04634451815324E-16,2.22044604925031E-16));
#864=DIRECTION('',(2.22044604925031E-16,4.61401574429939E-18,-1.));
#865=DIRECTION('',(-1.,-4.04634451815324E-16,-2.22044604925031E-16));
#866=DIRECTION('',(-2.22044604925031E-16,2.45186164796361E-16,1.));
#867=DIRECTION('',(-2.22044604925031E-16,2.45186164796361E-16,1.));
#868=DIRECTION('center_axis',(6.71510384235326E-17,0.707106781186548,-0.707106781186548));
#869=DIRECTION('ref_axis',(1.,1.27078695659035E-16,2.22044604925031E-16));
#870=DIRECTION('',(2.46867453313222E-16,-0.707106781186548,-0.707106781186548));
#871=DIRECTION('',(-2.46867453313222E-16,0.707106781186548,0.707106781186548));
#872=DIRECTION('',(1.,1.27078695659035E-16,2.22044604925031E-16));
#873=DIRECTION('center_axis',(-1.,-1.27078695659035E-16,-2.22044604925031E-16));
#874=DIRECTION('ref_axis',(-1.27078695659035E-16,1.,-2.56614931226326E-16));
#875=DIRECTION('',(2.22044604925031E-16,4.61401574429939E-18,-1.));
#876=DIRECTION('',(1.27078695659035E-16,-1.,2.56614931226326E-16));
#877=DIRECTION('',(-2.22044604925031E-16,-4.61401574429939E-18,1.));
#878=DIRECTION('',(-2.22044604925031E-16,-4.61401574429939E-18,1.));
#879=DIRECTION('center_axis',(1.27078695659035E-16,-1.,6.61519799030795E-16));
#880=DIRECTION('ref_axis',(2.22044604925032E-16,-6.61519799030795E-16,-1.));
#881=DIRECTION('center_axis',(3.92305665380136E-16,-1.,-4.61401574429929E-18));
#882=DIRECTION('ref_axis',(1.,3.92305665380136E-16,2.22044604925031E-16));
#883=DIRECTION('',(-1.,-3.92305665380136E-16,-2.22044604925031E-16));
#884=DIRECTION('',(-2.22044604925031E-16,-4.61401574429939E-18,1.));
#885=DIRECTION('center_axis',(-1.,-5.06425970587904E-16,-2.22044604925031E-16));
#886=DIRECTION('ref_axis',(5.06425970587903E-16,-1.,2.56614931226326E-16));
#887=DIRECTION('',(-5.06425970587903E-16,1.,-2.56614931226326E-16));
#888=DIRECTION('',(-2.22044604925031E-16,2.45186164796361E-16,1.));
#889=DIRECTION('center_axis',(1.,5.22232107043273E-16,2.22044604925031E-16));
#890=DIRECTION('ref_axis',(-5.22232107043273E-16,1.,-2.56614931226326E-16));
#891=DIRECTION('',(5.22232107043273E-16,-1.,2.56614931226326E-16));
#892=DIRECTION('',(-2.22044604925031E-16,2.45186164796361E-16,1.));
#893=DIRECTION('',(-2.22044604925031E-16,2.45186164796361E-16,1.));
#894=DIRECTION('center_axis',(-1.,-2.53527787301991E-16,-2.22044604925031E-16));
#895=DIRECTION('ref_axis',(2.53527787301991E-16,-1.,2.56614931226326E-16));
#896=DIRECTION('',(-2.53527787301991E-16,1.,-2.56614931226326E-16));
#897=DIRECTION('',(-2.22044604925031E-16,4.39475194105763E-16,1.));
#898=DIRECTION('',(-2.22044604925031E-16,4.39475194105763E-16,1.));
#899=DIRECTION('center_axis',(-2.53527787301991E-16,1.,-4.39475194105763E-16));
#900=DIRECTION('ref_axis',(-1.,-2.53527787301991E-16,-2.22044604925031E-16));
#901=DIRECTION('',(1.,2.53527787301991E-16,2.22044604925031E-16));
#902=DIRECTION('center_axis',(-1.,-2.53527787301991E-16,-2.22044604925031E-16));
#903=DIRECTION('ref_axis',(-2.53527787301991E-16,1.,-2.56614931226326E-16));
#904=DIRECTION('',(-2.22044604925031E-16,2.45186164796361E-16,1.));
#905=DIRECTION('',(-2.53527787301991E-16,1.,-1.79083004127804E-16));
#906=DIRECTION('',(-2.22044604925031E-16,2.45186164796361E-16,1.));
#907=DIRECTION('center_axis',(-1.,-2.53527787301991E-16,-2.22044604925031E-16));
#908=DIRECTION('ref_axis',(-2.22044604925031E-16,-4.61401574429939E-18,
1.));
#909=DIRECTION('center_axis',(-1.,-2.53527787301991E-16,-2.22044604925031E-16));
#910=DIRECTION('ref_axis',(-2.22044604925031E-16,-4.61401574429939E-18,
1.));
#911=DIRECTION('center_axis',(-7.6109972404109E-16,-1.,-4.61401574429954E-18));
#912=DIRECTION('ref_axis',(-1.,7.61099724041091E-16,-2.22044604925032E-16));
#913=DIRECTION('',(2.22044604925031E-16,4.61401574429939E-18,-1.));
#914=DIRECTION('',(1.,-7.61099724041091E-16,2.22044604925032E-16));
#915=DIRECTION('center_axis',(-1.,-6.52006839689842E-16,-2.22044604925031E-16));
#916=DIRECTION('ref_axis',(-6.52006839689841E-16,1.,-2.56614931226326E-16));
#917=DIRECTION('',(2.22044604925031E-16,4.61401574429939E-18,-1.));
#918=DIRECTION('',(6.52006839689841E-16,-1.,2.56614931226326E-16));
#919=DIRECTION('center_axis',(1.27078695659035E-16,-1.,-4.61401574429934E-18));
#920=DIRECTION('ref_axis',(-1.,-1.27078695659035E-16,-2.22044604925031E-16));
#921=DIRECTION('',(1.,1.27078695659035E-16,2.22044604925031E-16));
#922=DIRECTION('center_axis',(1.27078695659035E-16,-1.,-4.61401574429934E-18));
#923=DIRECTION('ref_axis',(-1.,-1.27078695659035E-16,-2.22044604925031E-16));
#924=DIRECTION('',(-2.22044604925031E-16,2.45186164796361E-16,1.));
#925=DIRECTION('',(1.,1.27078695659035E-16,2.22044604925031E-16));
#926=DIRECTION('center_axis',(1.,3.79976878944947E-16,2.22044604925031E-16));
#927=DIRECTION('ref_axis',(3.79976878944947E-16,-1.,2.56614931226326E-16));
#928=DIRECTION('center_axis',(1.,1.27078695659035E-16,2.22044604925031E-16));
#929=DIRECTION('ref_axis',(1.27078695659035E-16,-1.,2.56614931226326E-16));
#930=DIRECTION('',(-2.22044604925031E-16,-4.61401574429939E-18,1.));
#931=DIRECTION('',(-1.27078695659035E-16,1.,-2.56614931226326E-16));
#932=DIRECTION('center_axis',(-1.27078695659035E-16,1.,4.61401574429934E-18));
#933=DIRECTION('ref_axis',(1.,1.27078695659035E-16,2.22044604925031E-16));
#934=DIRECTION('center_axis',(-1.27078695659035E-16,1.,-3.76622071232805E-16));
#935=DIRECTION('ref_axis',(2.22044604925031E-16,-3.76622071232805E-16,-1.));
#936=DIRECTION('',(-1.,-1.27078695659035E-16,-2.22044604925031E-16));
#937=DIRECTION('',(-1.,-1.27078695659035E-16,-2.22044604925031E-16));
#938=DIRECTION('center_axis',(-1.,-1.27078695659035E-16,-2.22044604925031E-16));
#939=DIRECTION('ref_axis',(-2.22044604925031E-16,-4.61401574429939E-18,
1.));
#940=DIRECTION('',(1.,1.27078695659035E-16,2.22044604925031E-16));
#941=DIRECTION('center_axis',(-1.,-1.27078695659035E-16,-2.22044604925031E-16));
#942=DIRECTION('ref_axis',(-2.22044604925031E-16,-4.61401574429939E-18,
1.));
#943=DIRECTION('',(1.,1.27078695659035E-16,2.22044604925031E-16));
#944=DIRECTION('center_axis',(2.22044604925031E-16,-4.19883023082966E-16,
-1.));
#945=DIRECTION('ref_axis',(1.27078695659035E-16,-1.,4.19883023082966E-16));
#946=DIRECTION('center_axis',(-2.22044604925031E-16,2.56614931226326E-16,
1.));
#947=DIRECTION('ref_axis',(-1.27078695659035E-16,1.,-2.56614931226326E-16));
#948=CARTESIAN_POINT('',(0.,0.,0.));
#949=CARTESIAN_POINT('Origin',(18.9325693237965,-6.03999999999998,32.473));
#950=CARTESIAN_POINT('',(12.9401386475931,-7.28999999999999,32.473));
#951=CARTESIAN_POINT('',(24.925,-7.28999999999998,32.473));
#952=CARTESIAN_POINT('',(12.9401386475931,-7.28999999999998,32.473));
#953=CARTESIAN_POINT('',(24.925,-4.78999999999998,32.473));
#954=CARTESIAN_POINT('',(24.925,-7.28999999999998,32.473));
#955=CARTESIAN_POINT('',(12.9401386475931,-4.78999999999999,32.473));
#956=CARTESIAN_POINT('',(24.925,-4.78999999999998,32.473));
#957=CARTESIAN_POINT('',(12.9401386475931,-4.78999999999999,32.473));
#958=CARTESIAN_POINT('Origin',(18.925,22.48,32.473));
#959=CARTESIAN_POINT('',(24.925,23.73,32.473));
#960=CARTESIAN_POINT('',(12.925,23.73,32.473));
#961=CARTESIAN_POINT('',(24.925,23.73,32.473));
#962=CARTESIAN_POINT('',(12.925,21.23,32.473));
#963=CARTESIAN_POINT('',(12.925,23.73,32.473));
#964=CARTESIAN_POINT('',(24.925,21.23,32.473));
#965=CARTESIAN_POINT('',(12.925,21.23,32.473));
#966=CARTESIAN_POINT('',(24.925,21.23,32.473));
#967=CARTESIAN_POINT('Origin',(1.24999999999999,8.22000000000001,32.473));
#968=CARTESIAN_POINT('',(-6.10622663543836E-15,-0.559999999999988,32.473));
#969=CARTESIAN_POINT('',(2.49999999999999,-0.559999999999988,32.473));
#970=CARTESIAN_POINT('',(-6.10622663543836E-15,-0.559999999999988,32.473));
#971=CARTESIAN_POINT('',(2.49999999999998,17.,32.473));
#972=CARTESIAN_POINT('',(2.49999999999999,-0.559999999999988,32.473));
#973=CARTESIAN_POINT('',(-1.0547118733939E-14,17.,32.473));
#974=CARTESIAN_POINT('',(12.925,17.,32.473));
#975=CARTESIAN_POINT('',(-1.0547118733939E-14,17.,32.473));
#976=CARTESIAN_POINT('Origin',(36.6,8.22000000000002,32.473));
#977=CARTESIAN_POINT('',(37.85,-0.559999999999985,32.473));
#978=CARTESIAN_POINT('',(37.85,17.,32.473));
#979=CARTESIAN_POINT('',(37.85,-0.559999999999985,32.473));
#980=CARTESIAN_POINT('',(35.35,17.,32.473));
#981=CARTESIAN_POINT('',(37.85,17.,32.473));
#982=CARTESIAN_POINT('',(35.35,-0.559999999999986,32.473));
#983=CARTESIAN_POINT('',(35.35,17.,32.473));
#984=CARTESIAN_POINT('',(35.35,-0.559999999999986,32.473));
#985=CARTESIAN_POINT('Origin',(3.15,8.50000000000001,8.7365));
#986=CARTESIAN_POINT('',(3.15,9.75,10.473));
#987=CARTESIAN_POINT('',(3.15,9.75,15.473));
#988=CARTESIAN_POINT('',(3.15,9.75,9.60475));
#989=CARTESIAN_POINT('',(3.15,7.25,10.473));
#990=CARTESIAN_POINT('',(3.15,7.875,10.473));
#991=CARTESIAN_POINT('',(3.15,7.25,15.473));
#992=CARTESIAN_POINT('',(3.15,7.25,12.10475));
#993=CARTESIAN_POINT('',(3.15,2.22044604925031E-15,15.473));
#994=CARTESIAN_POINT('',(3.15,8.36,15.473));
#995=CARTESIAN_POINT('',(3.15,0.,4.44089209850063E-15));
#996=CARTESIAN_POINT('',(3.15,1.11022302462516E-15,4.36825));
#997=CARTESIAN_POINT('',(3.15,17.,-4.44089209850063E-15));
#998=CARTESIAN_POINT('',(3.15,12.75,-3.33066907387547E-15));
#999=CARTESIAN_POINT('',(3.15,17.,15.473));
#1000=CARTESIAN_POINT('',(3.15,17.,13.10475));
#1001=CARTESIAN_POINT('',(3.15,8.36,15.473));
#1002=CARTESIAN_POINT('',(3.15,12.,3.3));
#1003=CARTESIAN_POINT('Origin',(3.15,12.,5.));
#1004=CARTESIAN_POINT('',(3.15,5.,3.3));
#1005=CARTESIAN_POINT('Origin',(3.15,5.,5.));
#1006=CARTESIAN_POINT('Origin',(5.15,2.77555756156289E-16,4.44089209850063E-15));
#1007=CARTESIAN_POINT('',(-2.22044604925031E-15,1.38777878078145E-15,15.473));
#1008=CARTESIAN_POINT('',(12.0375,3.33066907387547E-15,15.473));
#1009=CARTESIAN_POINT('',(0.,0.,0.));
#1010=CARTESIAN_POINT('',(0.,5.55111512312578E-16,3.86825));
#1011=CARTESIAN_POINT('',(5.15,2.77555756156289E-16,4.44089209850063E-15));
#1012=CARTESIAN_POINT('Origin',(27.65,7.87500000000001,12.973));
#1013=CARTESIAN_POINT('',(25.15,9.75,10.473));
#1014=CARTESIAN_POINT('',(30.15,9.75,15.473));
#1015=CARTESIAN_POINT('',(21.4,9.75000000000001,6.72300000000001));
#1016=CARTESIAN_POINT('',(30.15,7.25000000000001,15.473));
#1017=CARTESIAN_POINT('',(30.15,8.36000000000001,15.473));
#1018=CARTESIAN_POINT('',(25.15,7.25,10.473));
#1019=CARTESIAN_POINT('',(22.65,7.25,7.97300000000001));
#1020=CARTESIAN_POINT('',(25.15,7.875,10.473));
#1021=CARTESIAN_POINT('Origin',(5.15,9.75,10.473));
#1022=CARTESIAN_POINT('',(5.15,9.75,10.473));
#1023=CARTESIAN_POINT('',(12.0375,9.75,15.473));
#1024=CARTESIAN_POINT('Origin',(5.15,7.25,10.473));
#1025=CARTESIAN_POINT('',(5.15,7.25,10.473));
#1026=CARTESIAN_POINT('Origin',(21.925,-6.78999999999999,15.973));
#1027=CARTESIAN_POINT('',(12.925,-7.29,16.473));
#1028=CARTESIAN_POINT('',(12.925,-6.28999999999999,15.473));
#1029=CARTESIAN_POINT('',(12.925,-7.29,16.473));
#1030=CARTESIAN_POINT('',(24.925,-6.28999999999999,15.473));
#1031=CARTESIAN_POINT('',(21.925,-6.28999999999999,15.473));
#1032=CARTESIAN_POINT('',(24.925,-7.28999999999999,16.473));
#1033=CARTESIAN_POINT('',(24.925,-5.60750000000001,14.7905));
#1034=CARTESIAN_POINT('',(21.925,-7.28999999999999,16.473));
#1035=CARTESIAN_POINT('Origin',(24.925,-0.559999999999993,17.473));
#1036=CARTESIAN_POINT('',(24.925,-0.559999999999993,15.473));
#1037=CARTESIAN_POINT('',(24.925,-7.28999999999999,15.473));
#1038=CARTESIAN_POINT('',(24.925,-0.559999999999993,17.473));
#1039=CARTESIAN_POINT('',(24.925,-0.559999999999993,17.473));
#1040=CARTESIAN_POINT('',(24.925,-4.78999999999999,17.473));
#1041=CARTESIAN_POINT('',(24.925,-7.28999999999999,17.473));
#1042=CARTESIAN_POINT('',(24.925,-4.78999999999999,17.473));
#1043=CARTESIAN_POINT('',(24.925,-7.28999999999999,17.473));
#1044=CARTESIAN_POINT('Origin',(18.925,8.22000000000001,15.473));
#1045=CARTESIAN_POINT('',(12.925,-0.559999999999995,15.473));
#1046=CARTESIAN_POINT('',(12.925,-0.559999999999995,15.473));
#1047=CARTESIAN_POINT('',(-2.22044604925031E-15,-0.559999999999994,15.473));
#1048=CARTESIAN_POINT('',(-2.22044604925031E-15,-0.559999999999994,15.473));
#1049=CARTESIAN_POINT('',(-6.66133814775094E-15,17.,15.473));
#1050=CARTESIAN_POINT('',(12.0375,7.25000000000001,15.473));
#1051=CARTESIAN_POINT('',(12.925,17.,15.473));
#1052=CARTESIAN_POINT('',(5.15,17.,15.473));
#1053=CARTESIAN_POINT('',(12.925,22.73,15.473));
#1054=CARTESIAN_POINT('',(12.925,23.73,15.473));
#1055=CARTESIAN_POINT('',(24.925,22.73,15.473));
#1056=CARTESIAN_POINT('',(15.925,22.73,15.473));
#1057=CARTESIAN_POINT('',(24.925,17.,15.473));
#1058=CARTESIAN_POINT('',(24.925,17.,15.473));
#1059=CARTESIAN_POINT('',(36.85,17.,15.473));
#1060=CARTESIAN_POINT('',(37.85,17.,15.473));
#1061=CARTESIAN_POINT('',(36.85,-0.559999999999992,15.473));
#1062=CARTESIAN_POINT('',(36.85,12.61,15.473));
#1063=CARTESIAN_POINT('',(24.925,-0.559999999999993,15.473));
#1064=CARTESIAN_POINT('Origin',(37.35,12.61,15.973));
#1065=CARTESIAN_POINT('',(37.85,-0.559999999999992,16.473));
#1066=CARTESIAN_POINT('',(37.85,-0.559999999999991,16.473));
#1067=CARTESIAN_POINT('',(37.85,17.,16.473));
#1068=CARTESIAN_POINT('',(34.61875,17.,13.24175));
#1069=CARTESIAN_POINT('',(37.85,12.61,16.473));
#1070=CARTESIAN_POINT('Origin',(24.925,17.,17.473));
#1071=CARTESIAN_POINT('',(24.925,17.,17.473));
#1072=CARTESIAN_POINT('',(24.925,17.,17.473));
#1073=CARTESIAN_POINT('',(35.35,17.,17.473));
#1074=CARTESIAN_POINT('',(37.85,17.,17.473));
#1075=CARTESIAN_POINT('',(35.35,17.,17.473));
#1076=CARTESIAN_POINT('',(37.85,17.,17.473));
#1077=CARTESIAN_POINT('Origin',(15.925,23.23,15.973));
#1078=CARTESIAN_POINT('',(24.925,23.73,16.473));
#1079=CARTESIAN_POINT('',(24.925,23.73,16.473));
#1080=CARTESIAN_POINT('',(12.925,23.73,16.473));
#1081=CARTESIAN_POINT('',(12.925,22.0475,14.7905));
#1082=CARTESIAN_POINT('',(15.925,23.73,16.473));
#1083=CARTESIAN_POINT('Origin',(12.925,17.,17.473));
#1084=CARTESIAN_POINT('',(12.925,17.,17.473));
#1085=CARTESIAN_POINT('',(12.925,17.,17.473));
#1086=CARTESIAN_POINT('',(12.925,21.23,17.473));
#1087=CARTESIAN_POINT('',(12.925,23.73,17.473));
#1088=CARTESIAN_POINT('',(12.925,21.23,17.473));
#1089=CARTESIAN_POINT('',(12.925,23.73,17.473));
#1090=CARTESIAN_POINT('Origin',(5.15,7.25,15.473));
#1091=CARTESIAN_POINT('Origin',(12.925,21.23,17.473));
#1092=CARTESIAN_POINT('',(24.925,21.23,17.473));
#1093=CARTESIAN_POINT('',(9.03749999999999,21.23,17.473));
#1094=CARTESIAN_POINT('',(24.925,21.23,17.473));
#1095=CARTESIAN_POINT('Origin',(35.35,17.,17.473));
#1096=CARTESIAN_POINT('',(35.35,-0.559999999999992,17.473));
#1097=CARTESIAN_POINT('',(35.35,8.50000000000002,17.473));
#1098=CARTESIAN_POINT('',(35.35,-0.559999999999992,17.473));
#1099=CARTESIAN_POINT('Origin',(2.49999999999999,-0.559999999999994,17.473));
#1100=CARTESIAN_POINT('',(2.49999999999999,17.,17.473));
#1101=CARTESIAN_POINT('',(2.49999999999999,-0.559999999999994,17.473));
#1102=CARTESIAN_POINT('',(2.49999999999999,-0.279999999999996,17.473));
#1103=CARTESIAN_POINT('',(2.49999999999999,17.,17.473));
#1104=CARTESIAN_POINT('',(2.49999999999999,-0.559999999999994,17.473));
#1105=CARTESIAN_POINT('Origin',(12.9401386475931,-4.79,17.473));
#1106=CARTESIAN_POINT('',(12.9401386475931,-7.29,17.473));
#1107=CARTESIAN_POINT('',(12.9401386475931,-4.79,17.473));
#1108=CARTESIAN_POINT('',(12.9401386475931,-2.395,17.473));
#1109=CARTESIAN_POINT('',(12.9401386475931,-7.29,17.473));
#1110=CARTESIAN_POINT('',(12.9401386475931,-4.79,17.473));
#1111=CARTESIAN_POINT('Origin',(24.925,-4.78999999999999,17.473));
#1112=CARTESIAN_POINT('',(15.0375,-4.79,17.473));
#1113=CARTESIAN_POINT('Origin',(-2.22044604925031E-15,-0.559999999999994,
17.473));
#1114=CARTESIAN_POINT('',(-4.44089209850063E-15,17.,0.));
#1115=CARTESIAN_POINT('',(-6.66133814775094E-15,17.,17.473));
#1116=CARTESIAN_POINT('',(-2.22044604925031E-15,12.75,0.));
#1117=CARTESIAN_POINT('',(-2.22044604925031E-15,-0.559999999999994,17.473));
#1118=CARTESIAN_POINT('',(-1.11022302462516E-15,12.,3.3));
#1119=CARTESIAN_POINT('Origin',(-2.22044604925031E-15,12.,5.));
#1120=CARTESIAN_POINT('',(-1.11022302462516E-15,5.,3.3));
#1121=CARTESIAN_POINT('Origin',(-1.11022302462516E-15,5.,5.));
#1122=CARTESIAN_POINT('Origin',(12.925,-0.560000000000004,17.473));
#1123=CARTESIAN_POINT('',(12.925,-0.559999999999995,17.473));
#1124=CARTESIAN_POINT('',(12.925,-0.559999999999995,17.473));
#1125=CARTESIAN_POINT('',(-2.22044604925031E-15,-0.559999999999994,17.473));
#1126=CARTESIAN_POINT('Origin',(12.925,-7.29,17.473));
#1127=CARTESIAN_POINT('',(12.925,-7.29,17.473));
#1128=CARTESIAN_POINT('',(12.925,-7.29,17.473));
#1129=CARTESIAN_POINT('',(12.925,-0.559999999999995,17.473));
#1130=CARTESIAN_POINT('Origin',(24.925,-7.28999999999999,17.473));
#1131=CARTESIAN_POINT('',(12.925,-7.29,17.473));
#1132=CARTESIAN_POINT('Origin',(37.85,-0.559999999999991,17.473));
#1133=CARTESIAN_POINT('',(37.85,-0.559999999999991,17.473));
#1134=CARTESIAN_POINT('',(24.925,-0.559999999999993,17.473));
#1135=CARTESIAN_POINT('Origin',(37.85,17.,17.473));
#1136=CARTESIAN_POINT('Origin',(24.925,23.73,17.473));
#1137=CARTESIAN_POINT('',(24.925,23.73,17.473));
#1138=CARTESIAN_POINT('',(24.925,17.,17.473));
#1139=CARTESIAN_POINT('Origin',(12.925,23.73,17.473));
#1140=CARTESIAN_POINT('Origin',(5.15,17.,17.473));
#1141=CARTESIAN_POINT('',(5.15,17.,-4.44089209850063E-15));
#1142=CARTESIAN_POINT('',(5.15,17.,17.473));
#1143=CARTESIAN_POINT('Origin',(5.15,5.,5.));
#1144=CARTESIAN_POINT('',(5.15,5.,3.3));
#1145=CARTESIAN_POINT('Origin',(5.15,12.,5.));
#1146=CARTESIAN_POINT('',(5.15,12.,3.3));
#1147=CARTESIAN_POINT('Origin',(5.15,17.,-4.44089209850063E-15));
#1148=CARTESIAN_POINT('Origin',(5.15,2.4980018054066E-15,17.473));
#1149=UNCERTAINTY_MEASURE_WITH_UNIT(LENGTH_MEASURE(0.01),#1153,
'DISTANCE_ACCURACY_VALUE',
'Maximum model space distance between geometric entities at asserted c
onnectivities');
#1150=UNCERTAINTY_MEASURE_WITH_UNIT(LENGTH_MEASURE(0.01),#1153,
'DISTANCE_ACCURACY_VALUE',
'Maximum model space distance between geometric entities at asserted c
onnectivities');
#1151=(
GEOMETRIC_REPRESENTATION_CONTEXT(3)
GLOBAL_UNCERTAINTY_ASSIGNED_CONTEXT((#1149))
GLOBAL_UNIT_ASSIGNED_CONTEXT((#1153,#1155,#1156))
REPRESENTATION_CONTEXT('','3D')
);
#1152=(
GEOMETRIC_REPRESENTATION_CONTEXT(3)
GLOBAL_UNCERTAINTY_ASSIGNED_CONTEXT((#1150))
GLOBAL_UNIT_ASSIGNED_CONTEXT((#1153,#1155,#1156))
REPRESENTATION_CONTEXT('','3D')
);
#1153=(
LENGTH_UNIT()
NAMED_UNIT(*)
SI_UNIT(.MILLI.,.METRE.)
);
#1154=(
LENGTH_UNIT()
NAMED_UNIT(*)
SI_UNIT($,.METRE.)
);
#1155=(
NAMED_UNIT(*)
PLANE_ANGLE_UNIT()
SI_UNIT($,.RADIAN.)
);
#1156=(
NAMED_UNIT(*)
SI_UNIT($,.STERADIAN.)
SOLID_ANGLE_UNIT()
);
#1157=SHAPE_DEFINITION_REPRESENTATION(#1158,#1159);
#1158=PRODUCT_DEFINITION_SHAPE('',$,#1161);
#1159=SHAPE_REPRESENTATION('',(#733),#1151);
#1160=PRODUCT_DEFINITION_CONTEXT('part definition',#1165,'design');
#1161=PRODUCT_DEFINITION('2026-07-07-08-19-25-138','MR3 Holder',#1162,#1160);
#1162=PRODUCT_DEFINITION_FORMATION('',$,#1167);
#1163=PRODUCT_RELATED_PRODUCT_CATEGORY('MR3 Holder','MR3 Holder',(#1167));
#1164=APPLICATION_PROTOCOL_DEFINITION('international standard',
'automotive_design',2009,#1165);
#1165=APPLICATION_CONTEXT(
'Core Data for Automotive Mechanical Design Process');
#1166=PRODUCT_CONTEXT('part definition',#1165,'mechanical');
#1167=PRODUCT('2026-07-07-08-19-25-138','MR3 Holder',$,(#1166));
#1168=PRESENTATION_STYLE_ASSIGNMENT((#1170));
#1169=PRESENTATION_STYLE_ASSIGNMENT((#1171));
#1170=SURFACE_STYLE_USAGE(.BOTH.,#1172);
#1171=SURFACE_STYLE_USAGE(.BOTH.,#1173);
#1172=SURFACE_SIDE_STYLE('',(#1174));
#1173=SURFACE_SIDE_STYLE('',(#1175));
#1174=SURFACE_STYLE_FILL_AREA(#1176);
#1175=SURFACE_STYLE_FILL_AREA(#1177);
#1176=FILL_AREA_STYLE('Default',(#1178));
#1177=FILL_AREA_STYLE('Plastic - Matte (Black)',(#1179));
#1178=FILL_AREA_STYLE_COLOUR('Default',#1180);
#1179=FILL_AREA_STYLE_COLOUR('Plastic - Matte (Black)',#1181);
#1180=COLOUR_RGB('Default',0.749019607843137,0.749019607843137,0.749019607843137);
#1181=COLOUR_RGB('Plastic - Matte (Black)',0.0980392156862745,0.0980392156862745,
0.0980392156862745);
ENDSEC;
END-ISO-10303-21;
