ISO-10303-21;
HEADER;
/* Generated by software containing ST-Developer
 * from STEP Tools, Inc. (www.steptools.com) 
 */

FILE_DESCRIPTION(
/* description */ (''),
/* implementation_level */ '2;1');

FILE_NAME(
/* name */ 'SensorUnit_Adapter.step',
/* time_stamp */ '2026-08-26T09:50:25+02:00',
/* author */ (''),
/* organization */ (''),
/* preprocessor_version */ 'ST-DEVELOPER v20.1',
/* originating_system */ 'Autodesk Translation Framework v15.8.0.0',
/* authorisation */ '');

FILE_SCHEMA (('AUTOMOTIVE_DESIGN { 1 0 10303 214 3 1 1 }'));
ENDSEC;

DATA;
#10=MECHANICAL_DESIGN_GEOMETRIC_PRESENTATION_REPRESENTATION('',(#13),#465);
#11=SHAPE_REPRESENTATION_RELATIONSHIP('SRR','None',#472,#12);
#12=ADVANCED_BREP_SHAPE_REPRESENTATION('',(#14),#464);
#13=STYLED_ITEM('',(#482),#14);
#14=MANIFOLD_SOLID_BREP('Body1',#281);
#15=FACE_BOUND('',#49,.T.);
#16=FACE_BOUND('',#54,.T.);
#17=FACE_BOUND('',#61,.T.);
#18=FACE_BOUND('',#62,.T.);
#19=FACE_BOUND('',#64,.T.);
#20=FACE_BOUND('',#65,.T.);
#21=PLANE('',#298);
#22=PLANE('',#299);
#23=PLANE('',#300);
#24=PLANE('',#307);
#25=PLANE('',#308);
#26=PLANE('',#309);
#27=PLANE('',#310);
#28=PLANE('',#311);
#29=PLANE('',#312);
#30=PLANE('',#313);
#31=PLANE('',#314);
#32=FACE_OUTER_BOUND('',#46,.T.);
#33=FACE_OUTER_BOUND('',#47,.T.);
#34=FACE_OUTER_BOUND('',#48,.T.);
#35=FACE_OUTER_BOUND('',#50,.T.);
#36=FACE_OUTER_BOUND('',#51,.T.);
#37=FACE_OUTER_BOUND('',#52,.T.);
#38=FACE_OUTER_BOUND('',#53,.T.);
#39=FACE_OUTER_BOUND('',#55,.T.);
#40=FACE_OUTER_BOUND('',#56,.T.);
#41=FACE_OUTER_BOUND('',#57,.T.);
#42=FACE_OUTER_BOUND('',#58,.T.);
#43=FACE_OUTER_BOUND('',#59,.T.);
#44=FACE_OUTER_BOUND('',#60,.T.);
#45=FACE_OUTER_BOUND('',#63,.T.);
#46=EDGE_LOOP('',(#192,#193,#194,#195));
#47=EDGE_LOOP('',(#196,#197,#198,#199));
#48=EDGE_LOOP('',(#200,#201,#202,#203));
#49=EDGE_LOOP('',(#204));
#50=EDGE_LOOP('',(#205,#206,#207,#208));
#51=EDGE_LOOP('',(#209,#210,#211,#212));
#52=EDGE_LOOP('',(#213,#214,#215,#216));
#53=EDGE_LOOP('',(#217,#218,#219,#220,#221,#222));
#54=EDGE_LOOP('',(#223));
#55=EDGE_LOOP('',(#224,#225,#226,#227,#228,#229));
#56=EDGE_LOOP('',(#230,#231,#232,#233));
#57=EDGE_LOOP('',(#234,#235,#236,#237));
#58=EDGE_LOOP('',(#238,#239,#240,#241));
#59=EDGE_LOOP('',(#242,#243,#244,#245));
#60=EDGE_LOOP('',(#246,#247,#248,#249,#250,#251,#252,#253));
#61=EDGE_LOOP('',(#254));
#62=EDGE_LOOP('',(#255));
#63=EDGE_LOOP('',(#256,#257,#258,#259,#260,#261));
#64=EDGE_LOOP('',(#262));
#65=EDGE_LOOP('',(#263));
#66=LINE('',#392,#96);
#67=LINE('',#397,#97);
#68=LINE('',#399,#98);
#69=LINE('',#401,#99);
#70=LINE('',#402,#100);
#71=LINE('',#405,#101);
#72=LINE('',#407,#102);
#73=LINE('',#408,#103);
#74=LINE('',#411,#104);
#75=LINE('',#412,#105);
#76=LINE('',#417,#106);
#77=LINE('',#423,#107);
#78=LINE('',#427,#108);
#79=LINE('',#429,#109);
#80=LINE('',#431,#110);
#81=LINE('',#432,#111);
#82=LINE('',#435,#112);
#83=LINE('',#437,#113);
#84=LINE('',#438,#114);
#85=LINE('',#441,#115);
#86=LINE('',#443,#116);
#87=LINE('',#444,#117);
#88=LINE('',#447,#118);
#89=LINE('',#449,#119);
#90=LINE('',#450,#120);
#91=LINE('',#453,#121);
#92=LINE('',#455,#122);
#93=LINE('',#456,#123);
#94=LINE('',#458,#124);
#95=LINE('',#459,#125);
#96=VECTOR('',#321,1.7);
#97=VECTOR('',#326,10.);
#98=VECTOR('',#327,10.);
#99=VECTOR('',#328,10.);
#100=VECTOR('',#329,10.);
#101=VECTOR('',#332,10.);
#102=VECTOR('',#333,10.);
#103=VECTOR('',#334,10.);
#104=VECTOR('',#337,10.);
#105=VECTOR('',#338,10.);
#106=VECTOR('',#343,1.7);
#107=VECTOR('',#350,1.7);
#108=VECTOR('',#355,10.);
#109=VECTOR('',#356,10.);
#110=VECTOR('',#357,10.);
#111=VECTOR('',#358,10.);
#112=VECTOR('',#361,10.);
#113=VECTOR('',#362,10.);
#114=VECTOR('',#363,10.);
#115=VECTOR('',#366,10.);
#116=VECTOR('',#367,10.);
#117=VECTOR('',#368,10.);
#118=VECTOR('',#371,10.);
#119=VECTOR('',#372,10.);
#120=VECTOR('',#373,10.);
#121=VECTOR('',#376,10.);
#122=VECTOR('',#377,10.);
#123=VECTOR('',#378,10.);
#124=VECTOR('',#381,10.);
#125=VECTOR('',#382,10.);
#126=CIRCLE('',#296,1.2645);
#127=CIRCLE('',#297,1.2645);
#128=CIRCLE('',#302,1.7);
#129=CIRCLE('',#303,1.7);
#130=CIRCLE('',#305,1.7);
#131=CIRCLE('',#306,1.7);
#132=VERTEX_POINT('',#389);
#133=VERTEX_POINT('',#391);
#134=VERTEX_POINT('',#395);
#135=VERTEX_POINT('',#396);
#136=VERTEX_POINT('',#398);
#137=VERTEX_POINT('',#400);
#138=VERTEX_POINT('',#404);
#139=VERTEX_POINT('',#406);
#140=VERTEX_POINT('',#410);
#141=VERTEX_POINT('',#414);
#142=VERTEX_POINT('',#416);
#143=VERTEX_POINT('',#420);
#144=VERTEX_POINT('',#422);
#145=VERTEX_POINT('',#426);
#146=VERTEX_POINT('',#428);
#147=VERTEX_POINT('',#430);
#148=VERTEX_POINT('',#434);
#149=VERTEX_POINT('',#436);
#150=VERTEX_POINT('',#440);
#151=VERTEX_POINT('',#442);
#152=VERTEX_POINT('',#446);
#153=VERTEX_POINT('',#448);
#154=VERTEX_POINT('',#452);
#155=VERTEX_POINT('',#454);
#156=EDGE_CURVE('',#132,#132,#126,.T.);
#157=EDGE_CURVE('',#132,#133,#66,.T.);
#158=EDGE_CURVE('',#133,#133,#127,.T.);
#159=EDGE_CURVE('',#134,#135,#67,.T.);
#160=EDGE_CURVE('',#134,#136,#68,.T.);
#161=EDGE_CURVE('',#137,#136,#69,.T.);
#162=EDGE_CURVE('',#135,#137,#70,.T.);
#163=EDGE_CURVE('',#135,#138,#71,.T.);
#164=EDGE_CURVE('',#139,#137,#72,.T.);
#165=EDGE_CURVE('',#138,#139,#73,.T.);
#166=EDGE_CURVE('',#136,#140,#74,.T.);
#167=EDGE_CURVE('',#140,#139,#75,.T.);
#168=EDGE_CURVE('',#141,#141,#128,.T.);
#169=EDGE_CURVE('',#141,#142,#76,.T.);
#170=EDGE_CURVE('',#142,#142,#129,.T.);
#171=EDGE_CURVE('',#143,#143,#130,.T.);
#172=EDGE_CURVE('',#143,#144,#77,.T.);
#173=EDGE_CURVE('',#144,#144,#131,.T.);
#174=EDGE_CURVE('',#145,#134,#78,.T.);
#175=EDGE_CURVE('',#145,#146,#79,.T.);
#176=EDGE_CURVE('',#147,#146,#80,.T.);
#177=EDGE_CURVE('',#147,#140,#81,.T.);
#178=EDGE_CURVE('',#148,#138,#82,.T.);
#179=EDGE_CURVE('',#149,#147,#83,.T.);
#180=EDGE_CURVE('',#148,#149,#84,.T.);
#181=EDGE_CURVE('',#150,#148,#85,.T.);
#182=EDGE_CURVE('',#151,#149,#86,.T.);
#183=EDGE_CURVE('',#150,#151,#87,.T.);
#184=EDGE_CURVE('',#152,#150,#88,.T.);
#185=EDGE_CURVE('',#153,#151,#89,.T.);
#186=EDGE_CURVE('',#152,#153,#90,.T.);
#187=EDGE_CURVE('',#154,#152,#91,.T.);
#188=EDGE_CURVE('',#155,#153,#92,.T.);
#189=EDGE_CURVE('',#154,#155,#93,.T.);
#190=EDGE_CURVE('',#154,#145,#94,.T.);
#191=EDGE_CURVE('',#146,#155,#95,.T.);
#192=ORIENTED_EDGE('',*,*,#156,.F.);
#193=ORIENTED_EDGE('',*,*,#157,.T.);
#194=ORIENTED_EDGE('',*,*,#158,.F.);
#195=ORIENTED_EDGE('',*,*,#157,.F.);
#196=ORIENTED_EDGE('',*,*,#159,.F.);
#197=ORIENTED_EDGE('',*,*,#160,.T.);
#198=ORIENTED_EDGE('',*,*,#161,.F.);
#199=ORIENTED_EDGE('',*,*,#162,.F.);
#200=ORIENTED_EDGE('',*,*,#163,.F.);
#201=ORIENTED_EDGE('',*,*,#162,.T.);
#202=ORIENTED_EDGE('',*,*,#164,.F.);
#203=ORIENTED_EDGE('',*,*,#165,.F.);
#204=ORIENTED_EDGE('',*,*,#158,.T.);
#205=ORIENTED_EDGE('',*,*,#166,.T.);
#206=ORIENTED_EDGE('',*,*,#167,.T.);
#207=ORIENTED_EDGE('',*,*,#164,.T.);
#208=ORIENTED_EDGE('',*,*,#161,.T.);
#209=ORIENTED_EDGE('',*,*,#168,.F.);
#210=ORIENTED_EDGE('',*,*,#169,.T.);
#211=ORIENTED_EDGE('',*,*,#170,.F.);
#212=ORIENTED_EDGE('',*,*,#169,.F.);
#213=ORIENTED_EDGE('',*,*,#171,.F.);
#214=ORIENTED_EDGE('',*,*,#172,.T.);
#215=ORIENTED_EDGE('',*,*,#173,.F.);
#216=ORIENTED_EDGE('',*,*,#172,.F.);
#217=ORIENTED_EDGE('',*,*,#174,.F.);
#218=ORIENTED_EDGE('',*,*,#175,.T.);
#219=ORIENTED_EDGE('',*,*,#176,.F.);
#220=ORIENTED_EDGE('',*,*,#177,.T.);
#221=ORIENTED_EDGE('',*,*,#166,.F.);
#222=ORIENTED_EDGE('',*,*,#160,.F.);
#223=ORIENTED_EDGE('',*,*,#156,.T.);
#224=ORIENTED_EDGE('',*,*,#178,.T.);
#225=ORIENTED_EDGE('',*,*,#165,.T.);
#226=ORIENTED_EDGE('',*,*,#167,.F.);
#227=ORIENTED_EDGE('',*,*,#177,.F.);
#228=ORIENTED_EDGE('',*,*,#179,.F.);
#229=ORIENTED_EDGE('',*,*,#180,.F.);
#230=ORIENTED_EDGE('',*,*,#181,.T.);
#231=ORIENTED_EDGE('',*,*,#180,.T.);
#232=ORIENTED_EDGE('',*,*,#182,.F.);
#233=ORIENTED_EDGE('',*,*,#183,.F.);
#234=ORIENTED_EDGE('',*,*,#184,.T.);
#235=ORIENTED_EDGE('',*,*,#183,.T.);
#236=ORIENTED_EDGE('',*,*,#185,.F.);
#237=ORIENTED_EDGE('',*,*,#186,.F.);
#238=ORIENTED_EDGE('',*,*,#187,.T.);
#239=ORIENTED_EDGE('',*,*,#186,.T.);
#240=ORIENTED_EDGE('',*,*,#188,.F.);
#241=ORIENTED_EDGE('',*,*,#189,.F.);
#242=ORIENTED_EDGE('',*,*,#190,.F.);
#243=ORIENTED_EDGE('',*,*,#189,.T.);
#244=ORIENTED_EDGE('',*,*,#191,.F.);
#245=ORIENTED_EDGE('',*,*,#175,.F.);
#246=ORIENTED_EDGE('',*,*,#163,.T.);
#247=ORIENTED_EDGE('',*,*,#178,.F.);
#248=ORIENTED_EDGE('',*,*,#181,.F.);
#249=ORIENTED_EDGE('',*,*,#184,.F.);
#250=ORIENTED_EDGE('',*,*,#187,.F.);
#251=ORIENTED_EDGE('',*,*,#190,.T.);
#252=ORIENTED_EDGE('',*,*,#174,.T.);
#253=ORIENTED_EDGE('',*,*,#159,.T.);
#254=ORIENTED_EDGE('',*,*,#173,.T.);
#255=ORIENTED_EDGE('',*,*,#170,.T.);
#256=ORIENTED_EDGE('',*,*,#191,.T.);
#257=ORIENTED_EDGE('',*,*,#188,.T.);
#258=ORIENTED_EDGE('',*,*,#185,.T.);
#259=ORIENTED_EDGE('',*,*,#182,.T.);
#260=ORIENTED_EDGE('',*,*,#179,.T.);
#261=ORIENTED_EDGE('',*,*,#176,.T.);
#262=ORIENTED_EDGE('',*,*,#171,.T.);
#263=ORIENTED_EDGE('',*,*,#168,.T.);
#264=CYLINDRICAL_SURFACE('',#295,1.2645);
#265=CYLINDRICAL_SURFACE('',#301,1.7);
#266=CYLINDRICAL_SURFACE('',#304,1.7);
#267=ADVANCED_FACE('',(#32),#264,.F.);
#268=ADVANCED_FACE('',(#33),#21,.T.);
#269=ADVANCED_FACE('',(#34,#15),#22,.T.);
#270=ADVANCED_FACE('',(#35),#23,.T.);
#271=ADVANCED_FACE('',(#36),#265,.F.);
#272=ADVANCED_FACE('',(#37),#266,.F.);
#273=ADVANCED_FACE('',(#38,#16),#24,.T.);
#274=ADVANCED_FACE('',(#39),#25,.T.);
#275=ADVANCED_FACE('',(#40),#26,.T.);
#276=ADVANCED_FACE('',(#41),#27,.T.);
#277=ADVANCED_FACE('',(#42),#28,.T.);
#278=ADVANCED_FACE('',(#43),#29,.T.);
#279=ADVANCED_FACE('',(#44,#17,#18),#30,.T.);
#280=ADVANCED_FACE('',(#45,#19,#20),#31,.F.);
#281=CLOSED_SHELL('',(#267,#268,#269,#270,#271,#272,#273,#274,#275,#276,
#277,#278,#279,#280));
#282=DERIVED_UNIT_ELEMENT(#284,1.);
#283=DERIVED_UNIT_ELEMENT(#467,-3.);
#284=(
MASS_UNIT()
NAMED_UNIT(*)
SI_UNIT(.KILO.,.GRAM.)
);
#285=DERIVED_UNIT((#282,#283));
#286=MEASURE_REPRESENTATION_ITEM('density measure',
POSITIVE_RATIO_MEASURE(7850.),#285);
#287=PROPERTY_DEFINITION_REPRESENTATION(#292,#289);
#288=PROPERTY_DEFINITION_REPRESENTATION(#293,#290);
#289=REPRESENTATION('material name',(#291),#464);
#290=REPRESENTATION('density',(#286),#464);
#291=DESCRIPTIVE_REPRESENTATION_ITEM('Steel','Steel');
#292=PROPERTY_DEFINITION('material property','material name',#474);
#293=PROPERTY_DEFINITION('material property','density of part',#474);
#294=AXIS2_PLACEMENT_3D('',#387,#315,#316);
#295=AXIS2_PLACEMENT_3D('',#388,#317,#318);
#296=AXIS2_PLACEMENT_3D('',#390,#319,#320);
#297=AXIS2_PLACEMENT_3D('',#393,#322,#323);
#298=AXIS2_PLACEMENT_3D('',#394,#324,#325);
#299=AXIS2_PLACEMENT_3D('',#403,#330,#331);
#300=AXIS2_PLACEMENT_3D('',#409,#335,#336);
#301=AXIS2_PLACEMENT_3D('',#413,#339,#340);
#302=AXIS2_PLACEMENT_3D('',#415,#341,#342);
#303=AXIS2_PLACEMENT_3D('',#418,#344,#345);
#304=AXIS2_PLACEMENT_3D('',#419,#346,#347);
#305=AXIS2_PLACEMENT_3D('',#421,#348,#349);
#306=AXIS2_PLACEMENT_3D('',#424,#351,#352);
#307=AXIS2_PLACEMENT_3D('',#425,#353,#354);
#308=AXIS2_PLACEMENT_3D('',#433,#359,#360);
#309=AXIS2_PLACEMENT_3D('',#439,#364,#365);
#310=AXIS2_PLACEMENT_3D('',#445,#369,#370);
#311=AXIS2_PLACEMENT_3D('',#451,#374,#375);
#312=AXIS2_PLACEMENT_3D('',#457,#379,#380);
#313=AXIS2_PLACEMENT_3D('',#460,#383,#384);
#314=AXIS2_PLACEMENT_3D('',#461,#385,#386);
#315=DIRECTION('axis',(0.,0.,1.));
#316=DIRECTION('refdir',(1.,0.,0.));
#317=DIRECTION('center_axis',(0.,1.,0.));
#318=DIRECTION('ref_axis',(1.,0.,0.));
#319=DIRECTION('center_axis',(0.,1.,1.59232637274727E-16));
#320=DIRECTION('ref_axis',(1.,0.,0.));
#321=DIRECTION('',(0.,1.,0.));
#322=DIRECTION('center_axis',(0.,-1.,0.));
#323=DIRECTION('ref_axis',(1.,0.,0.));
#324=DIRECTION('center_axis',(0.,0.,1.));
#325=DIRECTION('ref_axis',(0.,-1.,0.));
#326=DIRECTION('',(0.,1.,0.));
#327=DIRECTION('',(1.,0.,0.));
#328=DIRECTION('',(0.,-1.,0.));
#329=DIRECTION('',(1.,0.,0.));
#330=DIRECTION('center_axis',(0.,1.,0.));
#331=DIRECTION('ref_axis',(0.,0.,1.));
#332=DIRECTION('',(0.,0.,-1.));
#333=DIRECTION('',(0.,0.,1.));
#334=DIRECTION('',(1.,0.,0.));
#335=DIRECTION('center_axis',(1.,0.,0.));
#336=DIRECTION('ref_axis',(0.,0.,-1.));
#337=DIRECTION('',(0.,-1.48029736616688E-16,-1.));
#338=DIRECTION('',(0.,1.,0.));
#339=DIRECTION('center_axis',(-1.,0.,0.));
#340=DIRECTION('ref_axis',(0.,1.,0.));
#341=DIRECTION('center_axis',(1.,0.,0.));
#342=DIRECTION('ref_axis',(0.,1.,0.));
#343=DIRECTION('',(1.,0.,0.));
#344=DIRECTION('center_axis',(-1.,0.,0.));
#345=DIRECTION('ref_axis',(0.,1.,0.));
#346=DIRECTION('center_axis',(-1.,0.,0.));
#347=DIRECTION('ref_axis',(0.,1.,0.));
#348=DIRECTION('center_axis',(1.,0.,0.));
#349=DIRECTION('ref_axis',(0.,1.,0.));
#350=DIRECTION('',(1.,0.,0.));
#351=DIRECTION('center_axis',(-1.,0.,0.));
#352=DIRECTION('ref_axis',(0.,1.,0.));
#353=DIRECTION('center_axis',(0.,-1.,-1.59232637274727E-16));
#354=DIRECTION('ref_axis',(0.,-1.59232637274727E-16,1.));
#355=DIRECTION('',(0.,1.59232637274727E-16,-1.));
#356=DIRECTION('',(-1.,0.,0.));
#357=DIRECTION('',(0.,-1.59232637274727E-16,1.));
#358=DIRECTION('',(1.,0.,0.));
#359=DIRECTION('center_axis',(0.,-5.76364970603584E-16,-1.));
#360=DIRECTION('ref_axis',(0.,-1.,5.76364970603584E-16));
#361=DIRECTION('',(0.,-1.,5.76364970603584E-16));
#362=DIRECTION('',(0.,-1.,5.76364970603584E-16));
#363=DIRECTION('',(-1.,0.,0.));
#364=DIRECTION('center_axis',(0.,1.,8.90867218942752E-16));
#365=DIRECTION('ref_axis',(0.,8.90867218942752E-16,-1.));
#366=DIRECTION('',(0.,8.90867218942752E-16,-1.));
#367=DIRECTION('',(0.,8.90867218942752E-16,-1.));
#368=DIRECTION('',(-1.,0.,0.));
#369=DIRECTION('center_axis',(0.,0.,1.));
#370=DIRECTION('ref_axis',(0.,1.,0.));
#371=DIRECTION('',(0.,1.,0.));
#372=DIRECTION('',(0.,1.,0.));
#373=DIRECTION('',(-1.,0.,0.));
#374=DIRECTION('center_axis',(0.,-1.,0.));
#375=DIRECTION('ref_axis',(0.,0.,1.));
#376=DIRECTION('',(0.,0.,1.));
#377=DIRECTION('',(0.,0.,1.));
#378=DIRECTION('',(-1.,0.,0.));
#379=DIRECTION('center_axis',(0.,1.30710584208996E-15,-1.));
#380=DIRECTION('ref_axis',(0.,-1.,-1.30710584208996E-15));
#381=DIRECTION('',(0.,1.,1.30710584208996E-15));
#382=DIRECTION('',(0.,-1.,-1.30710584208996E-15));
#383=DIRECTION('center_axis',(1.,0.,0.));
#384=DIRECTION('ref_axis',(0.,1.,0.));
#385=DIRECTION('center_axis',(1.,0.,0.));
#386=DIRECTION('ref_axis',(0.,1.,0.));
#387=CARTESIAN_POINT('',(0.,0.,0.));
#388=CARTESIAN_POINT('Origin',(9.415,6.79500000000001,-23.667));
#389=CARTESIAN_POINT('',(8.1505,6.79500000000001,-23.667));
#390=CARTESIAN_POINT('Origin',(9.415,6.79500000000001,-23.667));
#391=CARTESIAN_POINT('',(8.1505,8.795,-23.667));
#392=CARTESIAN_POINT('',(8.1505,6.79500000000001,-23.667));
#393=CARTESIAN_POINT('Origin',(9.415,8.795,-23.667));
#394=CARTESIAN_POINT('Origin',(0.,8.795,-19.917));
#395=CARTESIAN_POINT('',(0.,6.79500000000001,-19.917));
#396=CARTESIAN_POINT('',(0.,8.795,-19.917));
#397=CARTESIAN_POINT('',(0.,8.02250000000001,-19.917));
#398=CARTESIAN_POINT('',(13.165,6.79500000000001,-19.917));
#399=CARTESIAN_POINT('',(0.,6.79500000000001,-19.917));
#400=CARTESIAN_POINT('',(13.165,8.795,-19.917));
#401=CARTESIAN_POINT('',(13.165,8.795,-19.917));
#402=CARTESIAN_POINT('',(0.,8.795,-19.917));
#403=CARTESIAN_POINT('Origin',(0.,8.795,-27.417));
#404=CARTESIAN_POINT('',(0.,8.795,-27.417));
#405=CARTESIAN_POINT('',(0.,8.795,-20.56275));
#406=CARTESIAN_POINT('',(13.165,8.795,-27.417));
#407=CARTESIAN_POINT('',(13.165,8.795,-27.417));
#408=CARTESIAN_POINT('',(0.,8.795,-27.417));
#409=CARTESIAN_POINT('Origin',(13.165,7.79500000000001,-23.667));
#410=CARTESIAN_POINT('',(13.165,6.79500000000001,-27.417));
#411=CARTESIAN_POINT('',(13.165,6.79500000000001,-19.917));
#412=CARTESIAN_POINT('',(13.165,6.79500000000001,-27.417));
#413=CARTESIAN_POINT('Origin',(0.,3.75,-3.25));
#414=CARTESIAN_POINT('',(-2.,2.05,-3.25));
#415=CARTESIAN_POINT('Origin',(-2.,3.75,-3.25));
#416=CARTESIAN_POINT('',(0.,2.05,-3.25));
#417=CARTESIAN_POINT('',(0.,2.05,-3.25));
#418=CARTESIAN_POINT('Origin',(0.,3.75,-3.25));
#419=CARTESIAN_POINT('Origin',(0.,10.75,-3.25000000000001));
#420=CARTESIAN_POINT('',(-2.,9.05,-3.25000000000001));
#421=CARTESIAN_POINT('Origin',(-2.,10.75,-3.25000000000001));
#422=CARTESIAN_POINT('',(0.,9.05,-3.25000000000001));
#423=CARTESIAN_POINT('',(0.,9.05,-3.25000000000001));
#424=CARTESIAN_POINT('Origin',(0.,10.75,-3.25000000000001));
#425=CARTESIAN_POINT('Origin',(0.,6.79500000000001,-27.417));
#426=CARTESIAN_POINT('',(0.,6.795,-6.49999999999998));
#427=CARTESIAN_POINT('',(0.,6.795,-6.49999999999998));
#428=CARTESIAN_POINT('',(-2.,6.795,-6.49999999999998));
#429=CARTESIAN_POINT('',(0.,6.795,-6.49999999999998));
#430=CARTESIAN_POINT('',(-2.,6.79500000000001,-27.417));
#431=CARTESIAN_POINT('',(-2.,6.795,-6.49999999999998));
#432=CARTESIAN_POINT('',(0.,6.79500000000001,-27.417));
#433=CARTESIAN_POINT('Origin',(0.,14.5,-27.417));
#434=CARTESIAN_POINT('',(0.,14.5,-27.417));
#435=CARTESIAN_POINT('',(0.,14.5,-27.417));
#436=CARTESIAN_POINT('',(-2.,14.5,-27.417));
#437=CARTESIAN_POINT('',(-2.,14.5,-27.417));
#438=CARTESIAN_POINT('',(0.,14.5,-27.417));
#439=CARTESIAN_POINT('Origin',(0.,14.5,0.));
#440=CARTESIAN_POINT('',(0.,14.5,0.));
#441=CARTESIAN_POINT('',(0.,14.5,0.));
#442=CARTESIAN_POINT('',(-2.,14.5,0.));
#443=CARTESIAN_POINT('',(-2.,14.5,0.));
#444=CARTESIAN_POINT('',(0.,14.5,0.));
#445=CARTESIAN_POINT('Origin',(0.,0.,0.));
#446=CARTESIAN_POINT('',(0.,0.,0.));
#447=CARTESIAN_POINT('',(0.,0.,0.));
#448=CARTESIAN_POINT('',(-2.,0.,0.));
#449=CARTESIAN_POINT('',(-2.,0.,0.));
#450=CARTESIAN_POINT('',(0.,0.,0.));
#451=CARTESIAN_POINT('Origin',(0.,0.,-6.49999999999999));
#452=CARTESIAN_POINT('',(0.,0.,-6.49999999999999));
#453=CARTESIAN_POINT('',(0.,0.,-6.49999999999999));
#454=CARTESIAN_POINT('',(-2.,0.,-6.49999999999999));
#455=CARTESIAN_POINT('',(-2.,0.,-6.49999999999999));
#456=CARTESIAN_POINT('',(0.,0.,-6.49999999999999));
#457=CARTESIAN_POINT('Origin',(0.,6.795,-6.49999999999998));
#458=CARTESIAN_POINT('',(0.,0.,-6.49999999999999));
#459=CARTESIAN_POINT('',(-2.,0.,-6.49999999999999));
#460=CARTESIAN_POINT('Origin',(0.,7.25000000000001,-13.7085));
#461=CARTESIAN_POINT('Origin',(-2.,7.25000000000001,-13.7085));
#462=UNCERTAINTY_MEASURE_WITH_UNIT(LENGTH_MEASURE(0.01),#466,
'DISTANCE_ACCURACY_VALUE',
'Maximum model space distance between geometric entities at asserted c
onnectivities');
#463=UNCERTAINTY_MEASURE_WITH_UNIT(LENGTH_MEASURE(0.01),#466,
'DISTANCE_ACCURACY_VALUE',
'Maximum model space distance between geometric entities at asserted c
onnectivities');
#464=(
GEOMETRIC_REPRESENTATION_CONTEXT(3)
GLOBAL_UNCERTAINTY_ASSIGNED_CONTEXT((#462))
GLOBAL_UNIT_ASSIGNED_CONTEXT((#466,#468,#469))
REPRESENTATION_CONTEXT('','3D')
);
#465=(
GEOMETRIC_REPRESENTATION_CONTEXT(3)
GLOBAL_UNCERTAINTY_ASSIGNED_CONTEXT((#463))
GLOBAL_UNIT_ASSIGNED_CONTEXT((#466,#468,#469))
REPRESENTATION_CONTEXT('','3D')
);
#466=(
LENGTH_UNIT()
NAMED_UNIT(*)
SI_UNIT(.MILLI.,.METRE.)
);
#467=(
LENGTH_UNIT()
NAMED_UNIT(*)
SI_UNIT($,.METRE.)
);
#468=(
NAMED_UNIT(*)
PLANE_ANGLE_UNIT()
SI_UNIT($,.RADIAN.)
);
#469=(
NAMED_UNIT(*)
SI_UNIT($,.STERADIAN.)
SOLID_ANGLE_UNIT()
);
#470=SHAPE_DEFINITION_REPRESENTATION(#471,#472);
#471=PRODUCT_DEFINITION_SHAPE('',$,#474);
#472=SHAPE_REPRESENTATION('',(#294),#464);
#473=PRODUCT_DEFINITION_CONTEXT('part definition',#478,'design');
#474=PRODUCT_DEFINITION('2026-07-06-13-32-16-262','SensorUnit_Adapter',
#475,#473);
#475=PRODUCT_DEFINITION_FORMATION('',$,#480);
#476=PRODUCT_RELATED_PRODUCT_CATEGORY('SensorUnit_Adapter',
'SensorUnit_Adapter',(#480));
#477=APPLICATION_PROTOCOL_DEFINITION('international standard',
'automotive_design',2009,#478);
#478=APPLICATION_CONTEXT(
'Core Data for Automotive Mechanical Design Process');
#479=PRODUCT_CONTEXT('part definition',#478,'mechanical');
#480=PRODUCT('2026-07-06-13-32-16-262','SensorUnit_Adapter',$,(#479));
#481=PRESENTATION_STYLE_ASSIGNMENT((#483));
#482=PRESENTATION_STYLE_ASSIGNMENT((#484));
#483=SURFACE_STYLE_USAGE(.BOTH.,#485);
#484=SURFACE_STYLE_USAGE(.BOTH.,#486);
#485=SURFACE_SIDE_STYLE('',(#487));
#486=SURFACE_SIDE_STYLE('',(#488));
#487=SURFACE_STYLE_FILL_AREA(#489);
#488=SURFACE_STYLE_FILL_AREA(#490);
#489=FILL_AREA_STYLE('Steel - Satin',(#491));
#490=FILL_AREA_STYLE('Brass - Polished',(#492));
#491=FILL_AREA_STYLE_COLOUR('Steel - Satin',#493);
#492=FILL_AREA_STYLE_COLOUR('Brass - Polished',#494);
#493=COLOUR_RGB('Steel - Satin',0.627450980392157,0.627450980392157,0.627450980392157);
#494=COLOUR_RGB('Brass - Polished',0.952941176470588,0.796078431372549,
0.486274509803922);
ENDSEC;
END-ISO-10303-21;
