ISO-10303-21;
HEADER;
/* Generated by software containing ST-Developer
 * from STEP Tools, Inc. (www.steptools.com) 
 */

FILE_DESCRIPTION(
/* description */ (''),
/* implementation_level */ '2;1');

FILE_NAME(
/* name */ 'SensorUnit_Spine.step',
/* time_stamp */ '2026-08-26T09:51:08+02:00',
/* author */ (''),
/* organization */ (''),
/* preprocessor_version */ 'ST-DEVELOPER v20.1',
/* originating_system */ 'Autodesk Translation Framework v15.8.0.0',
/* authorisation */ '');

FILE_SCHEMA (('AUTOMOTIVE_DESIGN { 1 0 10303 214 3 1 1 }'));
ENDSEC;

DATA;
#10=MECHANICAL_DESIGN_GEOMETRIC_PRESENTATION_REPRESENTATION('',(#13),#424);
#11=SHAPE_REPRESENTATION_RELATIONSHIP('SRR','None',#431,#12);
#12=ADVANCED_BREP_SHAPE_REPRESENTATION('',(#14),#423);
#13=STYLED_ITEM('',(#441),#14);
#14=MANIFOLD_SOLID_BREP('Body1',#252);
#15=FACE_BOUND('',#52,.T.);
#16=FACE_BOUND('',#54,.T.);
#17=PLANE('',#269);
#18=PLANE('',#273);
#19=PLANE('',#277);
#20=PLANE('',#278);
#21=PLANE('',#279);
#22=PLANE('',#280);
#23=PLANE('',#281);
#24=PLANE('',#282);
#25=PLANE('',#283);
#26=PLANE('',#284);
#27=FACE_OUTER_BOUND('',#40,.T.);
#28=FACE_OUTER_BOUND('',#41,.T.);
#29=FACE_OUTER_BOUND('',#42,.T.);
#30=FACE_OUTER_BOUND('',#43,.T.);
#31=FACE_OUTER_BOUND('',#44,.T.);
#32=FACE_OUTER_BOUND('',#45,.T.);
#33=FACE_OUTER_BOUND('',#46,.T.);
#34=FACE_OUTER_BOUND('',#47,.T.);
#35=FACE_OUTER_BOUND('',#48,.T.);
#36=FACE_OUTER_BOUND('',#49,.T.);
#37=FACE_OUTER_BOUND('',#50,.T.);
#38=FACE_OUTER_BOUND('',#51,.T.);
#39=FACE_OUTER_BOUND('',#53,.T.);
#40=EDGE_LOOP('',(#170,#171,#172,#173));
#41=EDGE_LOOP('',(#174,#175,#176,#177));
#42=EDGE_LOOP('',(#178,#179,#180,#181));
#43=EDGE_LOOP('',(#182,#183,#184,#185));
#44=EDGE_LOOP('',(#186,#187,#188,#189));
#45=EDGE_LOOP('',(#190,#191,#192,#193));
#46=EDGE_LOOP('',(#194,#195,#196,#197));
#47=EDGE_LOOP('',(#198,#199,#200,#201));
#48=EDGE_LOOP('',(#202,#203,#204,#205));
#49=EDGE_LOOP('',(#206,#207,#208,#209));
#50=EDGE_LOOP('',(#210,#211,#212,#213));
#51=EDGE_LOOP('',(#214,#215,#216,#217,#218,#219,#220,#221,#222,#223));
#52=EDGE_LOOP('',(#224));
#53=EDGE_LOOP('',(#225,#226,#227,#228,#229,#230,#231,#232,#233,#234));
#54=EDGE_LOOP('',(#235));
#55=LINE('',#358,#82);
#56=LINE('',#361,#83);
#57=LINE('',#364,#84);
#58=LINE('',#366,#85);
#59=LINE('',#367,#86);
#60=LINE('',#373,#87);
#61=LINE('',#376,#88);
#62=LINE('',#379,#89);
#63=LINE('',#381,#90);
#64=LINE('',#382,#91);
#65=LINE('',#387,#92);
#66=LINE('',#391,#93);
#67=LINE('',#393,#94);
#68=LINE('',#394,#95);
#69=LINE('',#397,#96);
#70=LINE('',#399,#97);
#71=LINE('',#400,#98);
#72=LINE('',#403,#99);
#73=LINE('',#405,#100);
#74=LINE('',#406,#101);
#75=LINE('',#408,#102);
#76=LINE('',#409,#103);
#77=LINE('',#412,#104);
#78=LINE('',#414,#105);
#79=LINE('',#415,#106);
#80=LINE('',#417,#107);
#81=LINE('',#418,#108);
#82=VECTOR('',#291,10.);
#83=VECTOR('',#294,10.);
#84=VECTOR('',#297,10.);
#85=VECTOR('',#298,10.);
#86=VECTOR('',#299,10.);
#87=VECTOR('',#304,10.);
#88=VECTOR('',#307,10.);
#89=VECTOR('',#310,10.);
#90=VECTOR('',#311,10.);
#91=VECTOR('',#312,10.);
#92=VECTOR('',#317,1.7);
#93=VECTOR('',#322,10.);
#94=VECTOR('',#323,10.);
#95=VECTOR('',#324,10.);
#96=VECTOR('',#327,10.);
#97=VECTOR('',#328,10.);
#98=VECTOR('',#329,10.);
#99=VECTOR('',#332,10.);
#100=VECTOR('',#333,10.);
#101=VECTOR('',#334,10.);
#102=VECTOR('',#337,10.);
#103=VECTOR('',#338,10.);
#104=VECTOR('',#341,10.);
#105=VECTOR('',#342,10.);
#106=VECTOR('',#343,10.);
#107=VECTOR('',#346,10.);
#108=VECTOR('',#347,10.);
#109=CIRCLE('',#267,2.);
#110=CIRCLE('',#268,2.);
#111=CIRCLE('',#271,2.);
#112=CIRCLE('',#272,2.);
#113=CIRCLE('',#275,1.7);
#114=CIRCLE('',#276,1.7);
#115=VERTEX_POINT('',#354);
#116=VERTEX_POINT('',#355);
#117=VERTEX_POINT('',#357);
#118=VERTEX_POINT('',#359);
#119=VERTEX_POINT('',#363);
#120=VERTEX_POINT('',#365);
#121=VERTEX_POINT('',#369);
#122=VERTEX_POINT('',#370);
#123=VERTEX_POINT('',#372);
#124=VERTEX_POINT('',#374);
#125=VERTEX_POINT('',#378);
#126=VERTEX_POINT('',#380);
#127=VERTEX_POINT('',#384);
#128=VERTEX_POINT('',#386);
#129=VERTEX_POINT('',#390);
#130=VERTEX_POINT('',#392);
#131=VERTEX_POINT('',#396);
#132=VERTEX_POINT('',#398);
#133=VERTEX_POINT('',#402);
#134=VERTEX_POINT('',#404);
#135=VERTEX_POINT('',#411);
#136=VERTEX_POINT('',#413);
#137=EDGE_CURVE('',#115,#116,#109,.T.);
#138=EDGE_CURVE('',#116,#117,#55,.T.);
#139=EDGE_CURVE('',#117,#118,#110,.T.);
#140=EDGE_CURVE('',#118,#115,#56,.T.);
#141=EDGE_CURVE('',#119,#116,#57,.T.);
#142=EDGE_CURVE('',#119,#120,#58,.T.);
#143=EDGE_CURVE('',#117,#120,#59,.T.);
#144=EDGE_CURVE('',#121,#122,#111,.T.);
#145=EDGE_CURVE('',#122,#123,#60,.T.);
#146=EDGE_CURVE('',#123,#124,#112,.T.);
#147=EDGE_CURVE('',#124,#121,#61,.T.);
#148=EDGE_CURVE('',#122,#125,#62,.T.);
#149=EDGE_CURVE('',#125,#126,#63,.T.);
#150=EDGE_CURVE('',#123,#126,#64,.T.);
#151=EDGE_CURVE('',#127,#127,#113,.T.);
#152=EDGE_CURVE('',#127,#128,#65,.T.);
#153=EDGE_CURVE('',#128,#128,#114,.T.);
#154=EDGE_CURVE('',#129,#118,#66,.T.);
#155=EDGE_CURVE('',#130,#129,#67,.T.);
#156=EDGE_CURVE('',#115,#130,#68,.T.);
#157=EDGE_CURVE('',#130,#131,#69,.T.);
#158=EDGE_CURVE('',#132,#129,#70,.T.);
#159=EDGE_CURVE('',#131,#132,#71,.T.);
#160=EDGE_CURVE('',#133,#131,#72,.T.);
#161=EDGE_CURVE('',#134,#132,#73,.T.);
#162=EDGE_CURVE('',#133,#134,#74,.T.);
#163=EDGE_CURVE('',#125,#133,#75,.T.);
#164=EDGE_CURVE('',#126,#134,#76,.T.);
#165=EDGE_CURVE('',#135,#124,#77,.T.);
#166=EDGE_CURVE('',#136,#135,#78,.T.);
#167=EDGE_CURVE('',#136,#121,#79,.T.);
#168=EDGE_CURVE('',#119,#136,#80,.T.);
#169=EDGE_CURVE('',#120,#135,#81,.T.);
#170=ORIENTED_EDGE('',*,*,#137,.T.);
#171=ORIENTED_EDGE('',*,*,#138,.T.);
#172=ORIENTED_EDGE('',*,*,#139,.T.);
#173=ORIENTED_EDGE('',*,*,#140,.T.);
#174=ORIENTED_EDGE('',*,*,#138,.F.);
#175=ORIENTED_EDGE('',*,*,#141,.F.);
#176=ORIENTED_EDGE('',*,*,#142,.T.);
#177=ORIENTED_EDGE('',*,*,#143,.F.);
#178=ORIENTED_EDGE('',*,*,#144,.T.);
#179=ORIENTED_EDGE('',*,*,#145,.T.);
#180=ORIENTED_EDGE('',*,*,#146,.T.);
#181=ORIENTED_EDGE('',*,*,#147,.T.);
#182=ORIENTED_EDGE('',*,*,#145,.F.);
#183=ORIENTED_EDGE('',*,*,#148,.T.);
#184=ORIENTED_EDGE('',*,*,#149,.T.);
#185=ORIENTED_EDGE('',*,*,#150,.F.);
#186=ORIENTED_EDGE('',*,*,#151,.F.);
#187=ORIENTED_EDGE('',*,*,#152,.T.);
#188=ORIENTED_EDGE('',*,*,#153,.T.);
#189=ORIENTED_EDGE('',*,*,#152,.F.);
#190=ORIENTED_EDGE('',*,*,#140,.F.);
#191=ORIENTED_EDGE('',*,*,#154,.F.);
#192=ORIENTED_EDGE('',*,*,#155,.F.);
#193=ORIENTED_EDGE('',*,*,#156,.F.);
#194=ORIENTED_EDGE('',*,*,#157,.F.);
#195=ORIENTED_EDGE('',*,*,#155,.T.);
#196=ORIENTED_EDGE('',*,*,#158,.F.);
#197=ORIENTED_EDGE('',*,*,#159,.F.);
#198=ORIENTED_EDGE('',*,*,#160,.T.);
#199=ORIENTED_EDGE('',*,*,#159,.T.);
#200=ORIENTED_EDGE('',*,*,#161,.F.);
#201=ORIENTED_EDGE('',*,*,#162,.F.);
#202=ORIENTED_EDGE('',*,*,#163,.T.);
#203=ORIENTED_EDGE('',*,*,#162,.T.);
#204=ORIENTED_EDGE('',*,*,#164,.F.);
#205=ORIENTED_EDGE('',*,*,#149,.F.);
#206=ORIENTED_EDGE('',*,*,#147,.F.);
#207=ORIENTED_EDGE('',*,*,#165,.F.);
#208=ORIENTED_EDGE('',*,*,#166,.F.);
#209=ORIENTED_EDGE('',*,*,#167,.T.);
#210=ORIENTED_EDGE('',*,*,#168,.T.);
#211=ORIENTED_EDGE('',*,*,#166,.T.);
#212=ORIENTED_EDGE('',*,*,#169,.F.);
#213=ORIENTED_EDGE('',*,*,#142,.F.);
#214=ORIENTED_EDGE('',*,*,#169,.T.);
#215=ORIENTED_EDGE('',*,*,#165,.T.);
#216=ORIENTED_EDGE('',*,*,#146,.F.);
#217=ORIENTED_EDGE('',*,*,#150,.T.);
#218=ORIENTED_EDGE('',*,*,#164,.T.);
#219=ORIENTED_EDGE('',*,*,#161,.T.);
#220=ORIENTED_EDGE('',*,*,#158,.T.);
#221=ORIENTED_EDGE('',*,*,#154,.T.);
#222=ORIENTED_EDGE('',*,*,#139,.F.);
#223=ORIENTED_EDGE('',*,*,#143,.T.);
#224=ORIENTED_EDGE('',*,*,#151,.T.);
#225=ORIENTED_EDGE('',*,*,#168,.F.);
#226=ORIENTED_EDGE('',*,*,#141,.T.);
#227=ORIENTED_EDGE('',*,*,#137,.F.);
#228=ORIENTED_EDGE('',*,*,#156,.T.);
#229=ORIENTED_EDGE('',*,*,#157,.T.);
#230=ORIENTED_EDGE('',*,*,#160,.F.);
#231=ORIENTED_EDGE('',*,*,#163,.F.);
#232=ORIENTED_EDGE('',*,*,#148,.F.);
#233=ORIENTED_EDGE('',*,*,#144,.F.);
#234=ORIENTED_EDGE('',*,*,#167,.F.);
#235=ORIENTED_EDGE('',*,*,#153,.F.);
#236=CYLINDRICAL_SURFACE('',#266,2.);
#237=CYLINDRICAL_SURFACE('',#270,2.);
#238=CYLINDRICAL_SURFACE('',#274,1.7);
#239=ADVANCED_FACE('',(#27),#236,.F.);
#240=ADVANCED_FACE('',(#28),#17,.T.);
#241=ADVANCED_FACE('',(#29),#237,.F.);
#242=ADVANCED_FACE('',(#30),#18,.T.);
#243=ADVANCED_FACE('',(#31),#238,.F.);
#244=ADVANCED_FACE('',(#32),#19,.T.);
#245=ADVANCED_FACE('',(#33),#20,.T.);
#246=ADVANCED_FACE('',(#34),#21,.T.);
#247=ADVANCED_FACE('',(#35),#22,.T.);
#248=ADVANCED_FACE('',(#36),#23,.T.);
#249=ADVANCED_FACE('',(#37),#24,.T.);
#250=ADVANCED_FACE('',(#38,#15),#25,.T.);
#251=ADVANCED_FACE('',(#39,#16),#26,.F.);
#252=CLOSED_SHELL('',(#239,#240,#241,#242,#243,#244,#245,#246,#247,#248,
#249,#250,#251));
#253=DERIVED_UNIT_ELEMENT(#255,1.);
#254=DERIVED_UNIT_ELEMENT(#426,-3.);
#255=(
MASS_UNIT()
NAMED_UNIT(*)
SI_UNIT(.KILO.,.GRAM.)
);
#256=DERIVED_UNIT((#253,#254));
#257=MEASURE_REPRESENTATION_ITEM('density measure',
POSITIVE_RATIO_MEASURE(7850.),#256);
#258=PROPERTY_DEFINITION_REPRESENTATION(#263,#260);
#259=PROPERTY_DEFINITION_REPRESENTATION(#264,#261);
#260=REPRESENTATION('material name',(#262),#423);
#261=REPRESENTATION('density',(#257),#423);
#262=DESCRIPTIVE_REPRESENTATION_ITEM('Steel','Steel');
#263=PROPERTY_DEFINITION('material property','material name',#433);
#264=PROPERTY_DEFINITION('material property','density of part',#433);
#265=AXIS2_PLACEMENT_3D('',#352,#285,#286);
#266=AXIS2_PLACEMENT_3D('',#353,#287,#288);
#267=AXIS2_PLACEMENT_3D('',#356,#289,#290);
#268=AXIS2_PLACEMENT_3D('',#360,#292,#293);
#269=AXIS2_PLACEMENT_3D('',#362,#295,#296);
#270=AXIS2_PLACEMENT_3D('',#368,#300,#301);
#271=AXIS2_PLACEMENT_3D('',#371,#302,#303);
#272=AXIS2_PLACEMENT_3D('',#375,#305,#306);
#273=AXIS2_PLACEMENT_3D('',#377,#308,#309);
#274=AXIS2_PLACEMENT_3D('',#383,#313,#314);
#275=AXIS2_PLACEMENT_3D('',#385,#315,#316);
#276=AXIS2_PLACEMENT_3D('',#388,#318,#319);
#277=AXIS2_PLACEMENT_3D('',#389,#320,#321);
#278=AXIS2_PLACEMENT_3D('',#395,#325,#326);
#279=AXIS2_PLACEMENT_3D('',#401,#330,#331);
#280=AXIS2_PLACEMENT_3D('',#407,#335,#336);
#281=AXIS2_PLACEMENT_3D('',#410,#339,#340);
#282=AXIS2_PLACEMENT_3D('',#416,#344,#345);
#283=AXIS2_PLACEMENT_3D('',#419,#348,#349);
#284=AXIS2_PLACEMENT_3D('',#420,#350,#351);
#285=DIRECTION('axis',(0.,0.,1.));
#286=DIRECTION('refdir',(1.,0.,0.));
#287=DIRECTION('center_axis',(0.,0.,1.));
#288=DIRECTION('ref_axis',(0.707106781186548,-0.707106781186547,0.));
#289=DIRECTION('center_axis',(0.,0.,-1.));
#290=DIRECTION('ref_axis',(0.707106781186548,-0.707106781186547,0.));
#291=DIRECTION('',(0.,0.,1.));
#292=DIRECTION('center_axis',(0.,0.,1.));
#293=DIRECTION('ref_axis',(0.707106781186548,-0.707106781186547,0.));
#294=DIRECTION('',(0.,0.,-1.));
#295=DIRECTION('center_axis',(-1.48029736616688E-16,1.,0.));
#296=DIRECTION('ref_axis',(-1.,-1.48029736616688E-16,0.));
#297=DIRECTION('',(1.,1.48029736616688E-16,0.));
#298=DIRECTION('',(0.,0.,1.));
#299=DIRECTION('',(-1.,-1.48029736616688E-16,0.));
#300=DIRECTION('center_axis',(0.,0.,1.));
#301=DIRECTION('ref_axis',(0.707106781186548,0.707106781186547,0.));
#302=DIRECTION('center_axis',(0.,0.,-1.));
#303=DIRECTION('ref_axis',(0.707106781186548,0.707106781186547,0.));
#304=DIRECTION('',(0.,0.,1.));
#305=DIRECTION('center_axis',(0.,0.,1.));
#306=DIRECTION('ref_axis',(0.707106781186548,0.707106781186547,0.));
#307=DIRECTION('',(0.,0.,-1.));
#308=DIRECTION('center_axis',(-1.,0.,0.));
#309=DIRECTION('ref_axis',(0.,-1.,0.));
#310=DIRECTION('',(0.,-1.,0.));
#311=DIRECTION('',(0.,0.,1.));
#312=DIRECTION('',(0.,-1.,0.));
#313=DIRECTION('center_axis',(0.,0.,1.));
#314=DIRECTION('ref_axis',(1.,0.,0.));
#315=DIRECTION('center_axis',(0.,0.,-1.));
#316=DIRECTION('ref_axis',(1.,0.,0.));
#317=DIRECTION('',(0.,0.,-1.));
#318=DIRECTION('center_axis',(0.,0.,-1.));
#319=DIRECTION('ref_axis',(1.,0.,0.));
#320=DIRECTION('center_axis',(-1.,0.,0.));
#321=DIRECTION('ref_axis',(0.,-1.,0.));
#322=DIRECTION('',(0.,-1.,0.));
#323=DIRECTION('',(0.,0.,1.));
#324=DIRECTION('',(0.,1.,0.));
#325=DIRECTION('center_axis',(7.065055611251E-16,1.,0.));
#326=DIRECTION('ref_axis',(-1.,7.065055611251E-16,0.));
#327=DIRECTION('',(1.,-7.065055611251E-16,0.));
#328=DIRECTION('',(-1.,7.065055611251E-16,0.));
#329=DIRECTION('',(0.,0.,1.));
#330=DIRECTION('center_axis',(1.,0.,0.));
#331=DIRECTION('ref_axis',(0.,1.,0.));
#332=DIRECTION('',(0.,1.,0.));
#333=DIRECTION('',(0.,1.,0.));
#334=DIRECTION('',(0.,0.,1.));
#335=DIRECTION('center_axis',(2.52323414687536E-17,-1.,0.));
#336=DIRECTION('ref_axis',(1.,2.52323414687536E-17,0.));
#337=DIRECTION('',(1.,2.52323414687536E-17,0.));
#338=DIRECTION('',(1.,2.52323414687536E-17,0.));
#339=DIRECTION('center_axis',(-1.48029736616688E-16,-1.,0.));
#340=DIRECTION('ref_axis',(1.,-1.48029736616688E-16,0.));
#341=DIRECTION('',(1.,-1.48029736616688E-16,0.));
#342=DIRECTION('',(0.,0.,1.));
#343=DIRECTION('',(1.,-1.48029736616688E-16,0.));
#344=DIRECTION('center_axis',(-1.,0.,0.));
#345=DIRECTION('ref_axis',(0.,-1.,0.));
#346=DIRECTION('',(0.,-1.,0.));
#347=DIRECTION('',(0.,-1.,0.));
#348=DIRECTION('center_axis',(0.,0.,1.));
#349=DIRECTION('ref_axis',(1.,0.,0.));
#350=DIRECTION('center_axis',(0.,0.,1.));
#351=DIRECTION('ref_axis',(1.,0.,0.));
#352=CARTESIAN_POINT('',(0.,0.,0.));
#353=CARTESIAN_POINT('Origin',(28.,3.9,0.));
#354=CARTESIAN_POINT('',(30.,3.9,0.));
#355=CARTESIAN_POINT('',(28.,1.9,0.));
#356=CARTESIAN_POINT('Origin',(28.,3.9,0.));
#357=CARTESIAN_POINT('',(28.,1.9,0.5));
#358=CARTESIAN_POINT('',(28.,1.9,0.));
#359=CARTESIAN_POINT('',(30.,3.9,0.5));
#360=CARTESIAN_POINT('Origin',(28.,3.9,0.5));
#361=CARTESIAN_POINT('',(30.,3.9,0.));
#362=CARTESIAN_POINT('Origin',(30.,1.9,0.));
#363=CARTESIAN_POINT('',(0.,1.9,0.));
#364=CARTESIAN_POINT('',(0.,1.9,0.));
#365=CARTESIAN_POINT('',(0.,1.9,0.5));
#366=CARTESIAN_POINT('',(0.,1.9,0.));
#367=CARTESIAN_POINT('',(0.,1.9,0.5));
#368=CARTESIAN_POINT('Origin',(28.,-3.9,0.));
#369=CARTESIAN_POINT('',(28.,-1.9,0.));
#370=CARTESIAN_POINT('',(30.,-3.9,0.));
#371=CARTESIAN_POINT('Origin',(28.,-3.9,0.));
#372=CARTESIAN_POINT('',(30.,-3.9,0.5));
#373=CARTESIAN_POINT('',(30.,-3.9,0.));
#374=CARTESIAN_POINT('',(28.,-1.9,0.5));
#375=CARTESIAN_POINT('Origin',(28.,-3.9,0.5));
#376=CARTESIAN_POINT('',(28.,-1.9,0.));
#377=CARTESIAN_POINT('Origin',(30.,-1.9,0.));
#378=CARTESIAN_POINT('',(30.,-4.5,0.));
#379=CARTESIAN_POINT('',(30.,-1.9,0.));
#380=CARTESIAN_POINT('',(30.,-4.5,0.5));
#381=CARTESIAN_POINT('',(30.,-4.5,0.));
#382=CARTESIAN_POINT('',(30.,-1.9,0.5));
#383=CARTESIAN_POINT('Origin',(57.5,0.,0.));
#384=CARTESIAN_POINT('',(55.8,-2.0818995585505E-16,0.5));
#385=CARTESIAN_POINT('Origin',(57.5,0.,0.5));
#386=CARTESIAN_POINT('',(55.8,-2.0818995585505E-16,0.));
#387=CARTESIAN_POINT('',(55.8,-2.0818995585505E-16,0.));
#388=CARTESIAN_POINT('Origin',(57.5,0.,0.));
#389=CARTESIAN_POINT('Origin',(30.,4.5,0.));
#390=CARTESIAN_POINT('',(30.,4.5,0.5));
#391=CARTESIAN_POINT('',(30.,1.9,0.5));
#392=CARTESIAN_POINT('',(30.,4.5,0.));
#393=CARTESIAN_POINT('',(30.,4.5,0.));
#394=CARTESIAN_POINT('',(30.,1.9,0.));
#395=CARTESIAN_POINT('Origin',(63.,4.49999999999999,0.));
#396=CARTESIAN_POINT('',(63.,4.49999999999999,0.));
#397=CARTESIAN_POINT('',(52.,4.5,0.));
#398=CARTESIAN_POINT('',(63.,4.49999999999999,0.5));
#399=CARTESIAN_POINT('',(52.,4.5,0.5));
#400=CARTESIAN_POINT('',(63.,4.49999999999999,0.));
#401=CARTESIAN_POINT('Origin',(63.,-4.49999999999999,0.));
#402=CARTESIAN_POINT('',(63.,-4.49999999999999,0.));
#403=CARTESIAN_POINT('',(63.,-4.49999999999999,0.));
#404=CARTESIAN_POINT('',(63.,-4.49999999999999,0.5));
#405=CARTESIAN_POINT('',(63.,-4.49999999999999,0.5));
#406=CARTESIAN_POINT('',(63.,-4.49999999999999,0.));
#407=CARTESIAN_POINT('Origin',(30.,-4.5,0.));
#408=CARTESIAN_POINT('',(30.,-4.5,0.));
#409=CARTESIAN_POINT('',(30.,-4.5,0.5));
#410=CARTESIAN_POINT('Origin',(0.,-1.9,0.));
#411=CARTESIAN_POINT('',(0.,-1.9,0.5));
#412=CARTESIAN_POINT('',(0.,-1.9,0.5));
#413=CARTESIAN_POINT('',(0.,-1.9,0.));
#414=CARTESIAN_POINT('',(0.,-1.9,0.));
#415=CARTESIAN_POINT('',(0.,-1.9,0.));
#416=CARTESIAN_POINT('Origin',(0.,1.9,0.));
#417=CARTESIAN_POINT('',(0.,0.,0.));
#418=CARTESIAN_POINT('',(0.,0.,0.5));
#419=CARTESIAN_POINT('Origin',(31.5,0.,0.5));
#420=CARTESIAN_POINT('Origin',(31.5,0.,0.));
#421=UNCERTAINTY_MEASURE_WITH_UNIT(LENGTH_MEASURE(0.01),#425,
'DISTANCE_ACCURACY_VALUE',
'Maximum model space distance between geometric entities at asserted c
onnectivities');
#422=UNCERTAINTY_MEASURE_WITH_UNIT(LENGTH_MEASURE(0.01),#425,
'DISTANCE_ACCURACY_VALUE',
'Maximum model space distance between geometric entities at asserted c
onnectivities');
#423=(
GEOMETRIC_REPRESENTATION_CONTEXT(3)
GLOBAL_UNCERTAINTY_ASSIGNED_CONTEXT((#421))
GLOBAL_UNIT_ASSIGNED_CONTEXT((#425,#427,#428))
REPRESENTATION_CONTEXT('','3D')
);
#424=(
GEOMETRIC_REPRESENTATION_CONTEXT(3)
GLOBAL_UNCERTAINTY_ASSIGNED_CONTEXT((#422))
GLOBAL_UNIT_ASSIGNED_CONTEXT((#425,#427,#428))
REPRESENTATION_CONTEXT('','3D')
);
#425=(
LENGTH_UNIT()
NAMED_UNIT(*)
SI_UNIT(.MILLI.,.METRE.)
);
#426=(
LENGTH_UNIT()
NAMED_UNIT(*)
SI_UNIT($,.METRE.)
);
#427=(
NAMED_UNIT(*)
PLANE_ANGLE_UNIT()
SI_UNIT($,.RADIAN.)
);
#428=(
NAMED_UNIT(*)
SI_UNIT($,.STERADIAN.)
SOLID_ANGLE_UNIT()
);
#429=SHAPE_DEFINITION_REPRESENTATION(#430,#431);
#430=PRODUCT_DEFINITION_SHAPE('',$,#433);
#431=SHAPE_REPRESENTATION('',(#265),#423);
#432=PRODUCT_DEFINITION_CONTEXT('part definition',#437,'design');
#433=PRODUCT_DEFINITION('2026-07-06-10-32-02-405','SensorUnit_Spine',#434,
#432);
#434=PRODUCT_DEFINITION_FORMATION('',$,#439);
#435=PRODUCT_RELATED_PRODUCT_CATEGORY('SensorUnit_Spine',
'SensorUnit_Spine',(#439));
#436=APPLICATION_PROTOCOL_DEFINITION('international standard',
'automotive_design',2009,#437);
#437=APPLICATION_CONTEXT(
'Core Data for Automotive Mechanical Design Process');
#438=PRODUCT_CONTEXT('part definition',#437,'mechanical');
#439=PRODUCT('2026-07-06-10-32-02-405','SensorUnit_Spine',$,(#438));
#440=PRESENTATION_STYLE_ASSIGNMENT((#442));
#441=PRESENTATION_STYLE_ASSIGNMENT((#443));
#442=SURFACE_STYLE_USAGE(.BOTH.,#444);
#443=SURFACE_STYLE_USAGE(.BOTH.,#445);
#444=SURFACE_SIDE_STYLE('',(#446));
#445=SURFACE_SIDE_STYLE('',(#447));
#446=SURFACE_STYLE_FILL_AREA(#448);
#447=SURFACE_STYLE_FILL_AREA(#449);
#448=FILL_AREA_STYLE('Steel - Satin',(#450));
#449=FILL_AREA_STYLE('Copper - Polished',(#451));
#450=FILL_AREA_STYLE_COLOUR('Steel - Satin',#452);
#451=FILL_AREA_STYLE_COLOUR('Copper - Polished',#453);
#452=COLOUR_RGB('Steel - Satin',0.627450980392157,0.627450980392157,0.627450980392157);
#453=COLOUR_RGB('Copper - Polished',0.929411764705882,0.807843137254902,
0.764705882352941);
ENDSEC;
END-ISO-10303-21;
