ISO-10303-21;
HEADER;
/* Generated by software containing ST-Developer
 * from STEP Tools, Inc. (www.steptools.com) 
 */

FILE_DESCRIPTION(
/* description */ (''),
/* implementation_level */ '2;1');

FILE_NAME(
/* name */ 'spu_io_shield.step',
/* time_stamp */ '2026-08-26T10:06:10+02:00',
/* author */ (''),
/* organization */ (''),
/* preprocessor_version */ 'ST-DEVELOPER v20.1',
/* originating_system */ 'Autodesk Translation Framework v15.8.0.0',
/* authorisation */ '');

FILE_SCHEMA (('AUTOMOTIVE_DESIGN { 1 0 10303 214 3 1 1 }'));
ENDSEC;

DATA;
#10=MECHANICAL_DESIGN_GEOMETRIC_PRESENTATION_REPRESENTATION('',(#13),#1351);
#11=SHAPE_REPRESENTATION_RELATIONSHIP('SRR','None',#1358,#12);
#12=ADVANCED_BREP_SHAPE_REPRESENTATION('',(#14),#1350);
#13=STYLED_ITEM('',(#1367),#14);
#14=MANIFOLD_SOLID_BREP('Body1',#841);
#15=FACE_BOUND('',#142,.T.);
#16=FACE_BOUND('',#143,.T.);
#17=FACE_BOUND('',#144,.T.);
#18=FACE_BOUND('',#145,.T.);
#19=FACE_BOUND('',#146,.T.);
#20=FACE_BOUND('',#147,.T.);
#21=FACE_BOUND('',#148,.T.);
#22=FACE_BOUND('',#149,.T.);
#23=FACE_BOUND('',#150,.T.);
#24=FACE_BOUND('',#151,.T.);
#25=FACE_BOUND('',#152,.T.);
#26=FACE_BOUND('',#153,.T.);
#27=FACE_BOUND('',#155,.T.);
#28=FACE_BOUND('',#156,.T.);
#29=FACE_BOUND('',#157,.T.);
#30=FACE_BOUND('',#158,.T.);
#31=FACE_BOUND('',#159,.T.);
#32=FACE_BOUND('',#160,.T.);
#33=FACE_BOUND('',#161,.T.);
#34=FACE_BOUND('',#162,.T.);
#35=FACE_BOUND('',#163,.T.);
#36=FACE_BOUND('',#164,.T.);
#37=FACE_BOUND('',#165,.T.);
#38=FACE_BOUND('',#166,.T.);
#39=CIRCLE('',#862,1.70000000000002);
#40=CIRCLE('',#863,1.70000000000002);
#41=CIRCLE('',#869,1.7);
#42=CIRCLE('',#870,1.7);
#43=CIRCLE('',#872,1.7);
#44=CIRCLE('',#873,1.7);
#45=CIRCLE('',#883,1.7);
#46=CIRCLE('',#884,1.7);
#47=CIRCLE('',#886,1.7);
#48=CIRCLE('',#887,1.7);
#49=CIRCLE('',#889,1.7);
#50=CIRCLE('',#890,1.7);
#51=CIRCLE('',#896,1.7);
#52=CIRCLE('',#897,1.7);
#53=CIRCLE('',#899,1.7);
#54=CIRCLE('',#900,1.7);
#55=CYLINDRICAL_SURFACE('',#861,1.70000000000002);
#56=CYLINDRICAL_SURFACE('',#868,1.7);
#57=CYLINDRICAL_SURFACE('',#871,1.7);
#58=CYLINDRICAL_SURFACE('',#882,1.7);
#59=CYLINDRICAL_SURFACE('',#885,1.7);
#60=CYLINDRICAL_SURFACE('',#888,1.7);
#61=CYLINDRICAL_SURFACE('',#895,1.7);
#62=CYLINDRICAL_SURFACE('',#898,1.7);
#63=FACE_OUTER_BOUND('',#103,.T.);
#64=FACE_OUTER_BOUND('',#104,.T.);
#65=FACE_OUTER_BOUND('',#105,.T.);
#66=FACE_OUTER_BOUND('',#106,.T.);
#67=FACE_OUTER_BOUND('',#107,.T.);
#68=FACE_OUTER_BOUND('',#108,.T.);
#69=FACE_OUTER_BOUND('',#109,.T.);
#70=FACE_OUTER_BOUND('',#110,.T.);
#71=FACE_OUTER_BOUND('',#111,.T.);
#72=FACE_OUTER_BOUND('',#112,.T.);
#73=FACE_OUTER_BOUND('',#113,.T.);
#74=FACE_OUTER_BOUND('',#114,.T.);
#75=FACE_OUTER_BOUND('',#115,.T.);
#76=FACE_OUTER_BOUND('',#116,.T.);
#77=FACE_OUTER_BOUND('',#117,.T.);
#78=FACE_OUTER_BOUND('',#118,.T.);
#79=FACE_OUTER_BOUND('',#119,.T.);
#80=FACE_OUTER_BOUND('',#120,.T.);
#81=FACE_OUTER_BOUND('',#121,.T.);
#82=FACE_OUTER_BOUND('',#122,.T.);
#83=FACE_OUTER_BOUND('',#123,.T.);
#84=FACE_OUTER_BOUND('',#124,.T.);
#85=FACE_OUTER_BOUND('',#125,.T.);
#86=FACE_OUTER_BOUND('',#126,.T.);
#87=FACE_OUTER_BOUND('',#127,.T.);
#88=FACE_OUTER_BOUND('',#128,.T.);
#89=FACE_OUTER_BOUND('',#129,.T.);
#90=FACE_OUTER_BOUND('',#130,.T.);
#91=FACE_OUTER_BOUND('',#131,.T.);
#92=FACE_OUTER_BOUND('',#132,.T.);
#93=FACE_OUTER_BOUND('',#133,.T.);
#94=FACE_OUTER_BOUND('',#134,.T.);
#95=FACE_OUTER_BOUND('',#135,.T.);
#96=FACE_OUTER_BOUND('',#136,.T.);
#97=FACE_OUTER_BOUND('',#137,.T.);
#98=FACE_OUTER_BOUND('',#138,.T.);
#99=FACE_OUTER_BOUND('',#139,.T.);
#100=FACE_OUTER_BOUND('',#140,.T.);
#101=FACE_OUTER_BOUND('',#141,.T.);
#102=FACE_OUTER_BOUND('',#154,.T.);
#103=EDGE_LOOP('',(#545,#546,#547,#548));
#104=EDGE_LOOP('',(#549,#550,#551,#552));
#105=EDGE_LOOP('',(#553,#554,#555,#556,#557,#558));
#106=EDGE_LOOP('',(#559,#560,#561,#562,#563,#564));
#107=EDGE_LOOP('',(#565,#566,#567,#568));
#108=EDGE_LOOP('',(#569,#570,#571,#572));
#109=EDGE_LOOP('',(#573,#574,#575,#576));
#110=EDGE_LOOP('',(#577,#578,#579,#580));
#111=EDGE_LOOP('',(#581,#582,#583,#584));
#112=EDGE_LOOP('',(#585,#586,#587,#588));
#113=EDGE_LOOP('',(#589,#590,#591,#592));
#114=EDGE_LOOP('',(#593,#594,#595,#596));
#115=EDGE_LOOP('',(#597,#598,#599,#600));
#116=EDGE_LOOP('',(#601,#602,#603,#604));
#117=EDGE_LOOP('',(#605,#606,#607,#608));
#118=EDGE_LOOP('',(#609,#610,#611,#612));
#119=EDGE_LOOP('',(#613,#614,#615,#616));
#120=EDGE_LOOP('',(#617,#618,#619,#620));
#121=EDGE_LOOP('',(#621,#622,#623,#624));
#122=EDGE_LOOP('',(#625,#626,#627,#628));
#123=EDGE_LOOP('',(#629,#630,#631,#632));
#124=EDGE_LOOP('',(#633,#634,#635,#636));
#125=EDGE_LOOP('',(#637,#638,#639,#640));
#126=EDGE_LOOP('',(#641,#642,#643,#644));
#127=EDGE_LOOP('',(#645,#646,#647,#648));
#128=EDGE_LOOP('',(#649,#650,#651,#652));
#129=EDGE_LOOP('',(#653,#654,#655,#656));
#130=EDGE_LOOP('',(#657,#658,#659,#660,#661,#662));
#131=EDGE_LOOP('',(#663,#664,#665,#666));
#132=EDGE_LOOP('',(#667,#668,#669,#670));
#133=EDGE_LOOP('',(#671,#672,#673,#674));
#134=EDGE_LOOP('',(#675,#676,#677,#678));
#135=EDGE_LOOP('',(#679,#680,#681,#682));
#136=EDGE_LOOP('',(#683,#684,#685,#686));
#137=EDGE_LOOP('',(#687,#688,#689,#690));
#138=EDGE_LOOP('',(#691,#692,#693,#694));
#139=EDGE_LOOP('',(#695,#696,#697,#698));
#140=EDGE_LOOP('',(#699,#700,#701,#702));
#141=EDGE_LOOP('',(#703,#704,#705,#706,#707,#708,#709,#710));
#142=EDGE_LOOP('',(#711));
#143=EDGE_LOOP('',(#712));
#144=EDGE_LOOP('',(#713,#714,#715,#716));
#145=EDGE_LOOP('',(#717));
#146=EDGE_LOOP('',(#718));
#147=EDGE_LOOP('',(#719));
#148=EDGE_LOOP('',(#720,#721,#722,#723));
#149=EDGE_LOOP('',(#724,#725,#726,#727));
#150=EDGE_LOOP('',(#728));
#151=EDGE_LOOP('',(#729));
#152=EDGE_LOOP('',(#730,#731,#732,#733));
#153=EDGE_LOOP('',(#734));
#154=EDGE_LOOP('',(#735,#736,#737,#738,#739,#740,#741,#742));
#155=EDGE_LOOP('',(#743));
#156=EDGE_LOOP('',(#744,#745,#746,#747));
#157=EDGE_LOOP('',(#748));
#158=EDGE_LOOP('',(#749));
#159=EDGE_LOOP('',(#750,#751,#752,#753));
#160=EDGE_LOOP('',(#754,#755,#756,#757));
#161=EDGE_LOOP('',(#758));
#162=EDGE_LOOP('',(#759));
#163=EDGE_LOOP('',(#760));
#164=EDGE_LOOP('',(#761,#762,#763,#764,#765,#766));
#165=EDGE_LOOP('',(#767));
#166=EDGE_LOOP('',(#768));
#167=LINE('',#1125,#263);
#168=LINE('',#1127,#264);
#169=LINE('',#1129,#265);
#170=LINE('',#1130,#266);
#171=LINE('',#1133,#267);
#172=LINE('',#1135,#268);
#173=LINE('',#1136,#269);
#174=LINE('',#1140,#270);
#175=LINE('',#1142,#271);
#176=LINE('',#1143,#272);
#177=LINE('',#1144,#273);
#178=LINE('',#1148,#274);
#179=LINE('',#1149,#275);
#180=LINE('',#1151,#276);
#181=LINE('',#1152,#277);
#182=LINE('',#1154,#278);
#183=LINE('',#1155,#279);
#184=LINE('',#1161,#280);
#185=LINE('',#1166,#281);
#186=LINE('',#1168,#282);
#187=LINE('',#1170,#283);
#188=LINE('',#1171,#284);
#189=LINE('',#1174,#285);
#190=LINE('',#1176,#286);
#191=LINE('',#1177,#287);
#192=LINE('',#1180,#288);
#193=LINE('',#1182,#289);
#194=LINE('',#1183,#290);
#195=LINE('',#1185,#291);
#196=LINE('',#1186,#292);
#197=LINE('',#1191,#293);
#198=LINE('',#1197,#294);
#199=LINE('',#1202,#295);
#200=LINE('',#1204,#296);
#201=LINE('',#1206,#297);
#202=LINE('',#1207,#298);
#203=LINE('',#1210,#299);
#204=LINE('',#1212,#300);
#205=LINE('',#1213,#301);
#206=LINE('',#1216,#302);
#207=LINE('',#1218,#303);
#208=LINE('',#1219,#304);
#209=LINE('',#1221,#305);
#210=LINE('',#1222,#306);
#211=LINE('',#1226,#307);
#212=LINE('',#1228,#308);
#213=LINE('',#1230,#309);
#214=LINE('',#1231,#310);
#215=LINE('',#1234,#311);
#216=LINE('',#1236,#312);
#217=LINE('',#1237,#313);
#218=LINE('',#1240,#314);
#219=LINE('',#1242,#315);
#220=LINE('',#1243,#316);
#221=LINE('',#1245,#317);
#222=LINE('',#1246,#318);
#223=LINE('',#1251,#319);
#224=LINE('',#1257,#320);
#225=LINE('',#1263,#321);
#226=LINE('',#1267,#322);
#227=LINE('',#1269,#323);
#228=LINE('',#1271,#324);
#229=LINE('',#1272,#325);
#230=LINE('',#1275,#326);
#231=LINE('',#1277,#327);
#232=LINE('',#1278,#328);
#233=LINE('',#1280,#329);
#234=LINE('',#1282,#330);
#235=LINE('',#1283,#331);
#236=LINE('',#1285,#332);
#237=LINE('',#1290,#333);
#238=LINE('',#1296,#334);
#239=LINE('',#1301,#335);
#240=LINE('',#1303,#336);
#241=LINE('',#1305,#337);
#242=LINE('',#1306,#338);
#243=LINE('',#1309,#339);
#244=LINE('',#1311,#340);
#245=LINE('',#1312,#341);
#246=LINE('',#1315,#342);
#247=LINE('',#1317,#343);
#248=LINE('',#1318,#344);
#249=LINE('',#1321,#345);
#250=LINE('',#1323,#346);
#251=LINE('',#1324,#347);
#252=LINE('',#1327,#348);
#253=LINE('',#1329,#349);
#254=LINE('',#1330,#350);
#255=LINE('',#1333,#351);
#256=LINE('',#1335,#352);
#257=LINE('',#1336,#353);
#258=LINE('',#1339,#354);
#259=LINE('',#1341,#355);
#260=LINE('',#1342,#356);
#261=LINE('',#1344,#357);
#262=LINE('',#1345,#358);
#263=VECTOR('',#915,10.);
#264=VECTOR('',#916,10.);
#265=VECTOR('',#917,10.);
#266=VECTOR('',#918,10.);
#267=VECTOR('',#921,10.);
#268=VECTOR('',#922,10.);
#269=VECTOR('',#923,10.);
#270=VECTOR('',#926,10.);
#271=VECTOR('',#927,10.);
#272=VECTOR('',#928,10.);
#273=VECTOR('',#929,10.);
#274=VECTOR('',#932,10.);
#275=VECTOR('',#933,10.);
#276=VECTOR('',#934,10.);
#277=VECTOR('',#935,10.);
#278=VECTOR('',#938,10.);
#279=VECTOR('',#939,10.);
#280=VECTOR('',#946,1.70000000000002);
#281=VECTOR('',#951,10.);
#282=VECTOR('',#952,10.);
#283=VECTOR('',#953,10.);
#284=VECTOR('',#954,10.);
#285=VECTOR('',#957,10.);
#286=VECTOR('',#958,10.);
#287=VECTOR('',#959,10.);
#288=VECTOR('',#962,10.);
#289=VECTOR('',#963,10.);
#290=VECTOR('',#964,10.);
#291=VECTOR('',#967,10.);
#292=VECTOR('',#968,10.);
#293=VECTOR('',#973,1.7);
#294=VECTOR('',#980,1.7);
#295=VECTOR('',#985,10.);
#296=VECTOR('',#986,10.);
#297=VECTOR('',#987,10.);
#298=VECTOR('',#988,10.);
#299=VECTOR('',#991,10.);
#300=VECTOR('',#992,10.);
#301=VECTOR('',#993,10.);
#302=VECTOR('',#996,10.);
#303=VECTOR('',#997,10.);
#304=VECTOR('',#998,10.);
#305=VECTOR('',#1001,10.);
#306=VECTOR('',#1002,10.);
#307=VECTOR('',#1005,10.);
#308=VECTOR('',#1006,10.);
#309=VECTOR('',#1007,10.);
#310=VECTOR('',#1008,10.);
#311=VECTOR('',#1011,10.);
#312=VECTOR('',#1012,10.);
#313=VECTOR('',#1013,10.);
#314=VECTOR('',#1016,10.);
#315=VECTOR('',#1017,10.);
#316=VECTOR('',#1018,10.);
#317=VECTOR('',#1021,10.);
#318=VECTOR('',#1022,10.);
#319=VECTOR('',#1027,1.7);
#320=VECTOR('',#1034,1.7);
#321=VECTOR('',#1041,1.7);
#322=VECTOR('',#1046,10.);
#323=VECTOR('',#1047,10.);
#324=VECTOR('',#1048,10.);
#325=VECTOR('',#1049,10.);
#326=VECTOR('',#1052,10.);
#327=VECTOR('',#1053,10.);
#328=VECTOR('',#1054,10.);
#329=VECTOR('',#1057,10.);
#330=VECTOR('',#1058,10.);
#331=VECTOR('',#1059,10.);
#332=VECTOR('',#1062,10.);
#333=VECTOR('',#1067,1.7);
#334=VECTOR('',#1074,1.7);
#335=VECTOR('',#1079,10.);
#336=VECTOR('',#1080,10.);
#337=VECTOR('',#1081,10.);
#338=VECTOR('',#1082,10.);
#339=VECTOR('',#1085,10.);
#340=VECTOR('',#1086,10.);
#341=VECTOR('',#1087,10.);
#342=VECTOR('',#1090,10.);
#343=VECTOR('',#1091,10.);
#344=VECTOR('',#1092,10.);
#345=VECTOR('',#1095,10.);
#346=VECTOR('',#1096,10.);
#347=VECTOR('',#1097,10.);
#348=VECTOR('',#1100,10.);
#349=VECTOR('',#1101,10.);
#350=VECTOR('',#1102,10.);
#351=VECTOR('',#1105,10.);
#352=VECTOR('',#1106,10.);
#353=VECTOR('',#1107,10.);
#354=VECTOR('',#1110,10.);
#355=VECTOR('',#1111,10.);
#356=VECTOR('',#1112,10.);
#357=VECTOR('',#1115,10.);
#358=VECTOR('',#1116,10.);
#359=VERTEX_POINT('',#1123);
#360=VERTEX_POINT('',#1124);
#361=VERTEX_POINT('',#1126);
#362=VERTEX_POINT('',#1128);
#363=VERTEX_POINT('',#1132);
#364=VERTEX_POINT('',#1134);
#365=VERTEX_POINT('',#1138);
#366=VERTEX_POINT('',#1139);
#367=VERTEX_POINT('',#1141);
#368=VERTEX_POINT('',#1146);
#369=VERTEX_POINT('',#1147);
#370=VERTEX_POINT('',#1150);
#371=VERTEX_POINT('',#1158);
#372=VERTEX_POINT('',#1160);
#373=VERTEX_POINT('',#1164);
#374=VERTEX_POINT('',#1165);
#375=VERTEX_POINT('',#1167);
#376=VERTEX_POINT('',#1169);
#377=VERTEX_POINT('',#1173);
#378=VERTEX_POINT('',#1175);
#379=VERTEX_POINT('',#1179);
#380=VERTEX_POINT('',#1181);
#381=VERTEX_POINT('',#1188);
#382=VERTEX_POINT('',#1190);
#383=VERTEX_POINT('',#1194);
#384=VERTEX_POINT('',#1196);
#385=VERTEX_POINT('',#1200);
#386=VERTEX_POINT('',#1201);
#387=VERTEX_POINT('',#1203);
#388=VERTEX_POINT('',#1205);
#389=VERTEX_POINT('',#1209);
#390=VERTEX_POINT('',#1211);
#391=VERTEX_POINT('',#1215);
#392=VERTEX_POINT('',#1217);
#393=VERTEX_POINT('',#1224);
#394=VERTEX_POINT('',#1225);
#395=VERTEX_POINT('',#1227);
#396=VERTEX_POINT('',#1229);
#397=VERTEX_POINT('',#1233);
#398=VERTEX_POINT('',#1235);
#399=VERTEX_POINT('',#1239);
#400=VERTEX_POINT('',#1241);
#401=VERTEX_POINT('',#1248);
#402=VERTEX_POINT('',#1250);
#403=VERTEX_POINT('',#1254);
#404=VERTEX_POINT('',#1256);
#405=VERTEX_POINT('',#1260);
#406=VERTEX_POINT('',#1262);
#407=VERTEX_POINT('',#1266);
#408=VERTEX_POINT('',#1268);
#409=VERTEX_POINT('',#1270);
#410=VERTEX_POINT('',#1274);
#411=VERTEX_POINT('',#1276);
#412=VERTEX_POINT('',#1281);
#413=VERTEX_POINT('',#1287);
#414=VERTEX_POINT('',#1289);
#415=VERTEX_POINT('',#1293);
#416=VERTEX_POINT('',#1295);
#417=VERTEX_POINT('',#1299);
#418=VERTEX_POINT('',#1300);
#419=VERTEX_POINT('',#1302);
#420=VERTEX_POINT('',#1304);
#421=VERTEX_POINT('',#1308);
#422=VERTEX_POINT('',#1310);
#423=VERTEX_POINT('',#1314);
#424=VERTEX_POINT('',#1316);
#425=VERTEX_POINT('',#1320);
#426=VERTEX_POINT('',#1322);
#427=VERTEX_POINT('',#1326);
#428=VERTEX_POINT('',#1328);
#429=VERTEX_POINT('',#1332);
#430=VERTEX_POINT('',#1334);
#431=VERTEX_POINT('',#1338);
#432=VERTEX_POINT('',#1340);
#433=EDGE_CURVE('',#359,#360,#167,.T.);
#434=EDGE_CURVE('',#359,#361,#168,.T.);
#435=EDGE_CURVE('',#362,#361,#169,.T.);
#436=EDGE_CURVE('',#360,#362,#170,.T.);
#437=EDGE_CURVE('',#361,#363,#171,.T.);
#438=EDGE_CURVE('',#363,#364,#172,.T.);
#439=EDGE_CURVE('',#364,#362,#173,.T.);
#440=EDGE_CURVE('',#365,#366,#174,.T.);
#441=EDGE_CURVE('',#365,#367,#175,.T.);
#442=EDGE_CURVE('',#367,#363,#176,.T.);
#443=EDGE_CURVE('',#366,#359,#177,.T.);
#444=EDGE_CURVE('',#368,#369,#178,.T.);
#445=EDGE_CURVE('',#368,#360,#179,.T.);
#446=EDGE_CURVE('',#370,#364,#180,.T.);
#447=EDGE_CURVE('',#369,#370,#181,.T.);
#448=EDGE_CURVE('',#369,#365,#182,.T.);
#449=EDGE_CURVE('',#367,#370,#183,.T.);
#450=EDGE_CURVE('',#371,#371,#39,.T.);
#451=EDGE_CURVE('',#371,#372,#184,.T.);
#452=EDGE_CURVE('',#372,#372,#40,.T.);
#453=EDGE_CURVE('',#373,#374,#185,.T.);
#454=EDGE_CURVE('',#374,#375,#186,.T.);
#455=EDGE_CURVE('',#376,#375,#187,.T.);
#456=EDGE_CURVE('',#373,#376,#188,.T.);
#457=EDGE_CURVE('',#377,#373,#189,.T.);
#458=EDGE_CURVE('',#378,#376,#190,.T.);
#459=EDGE_CURVE('',#377,#378,#191,.T.);
#460=EDGE_CURVE('',#379,#377,#192,.T.);
#461=EDGE_CURVE('',#380,#378,#193,.T.);
#462=EDGE_CURVE('',#379,#380,#194,.T.);
#463=EDGE_CURVE('',#374,#379,#195,.T.);
#464=EDGE_CURVE('',#375,#380,#196,.T.);
#465=EDGE_CURVE('',#381,#381,#41,.T.);
#466=EDGE_CURVE('',#381,#382,#197,.T.);
#467=EDGE_CURVE('',#382,#382,#42,.T.);
#468=EDGE_CURVE('',#383,#383,#43,.T.);
#469=EDGE_CURVE('',#383,#384,#198,.T.);
#470=EDGE_CURVE('',#384,#384,#44,.T.);
#471=EDGE_CURVE('',#385,#386,#199,.T.);
#472=EDGE_CURVE('',#386,#387,#200,.T.);
#473=EDGE_CURVE('',#388,#387,#201,.T.);
#474=EDGE_CURVE('',#385,#388,#202,.T.);
#475=EDGE_CURVE('',#389,#385,#203,.T.);
#476=EDGE_CURVE('',#390,#388,#204,.T.);
#477=EDGE_CURVE('',#389,#390,#205,.T.);
#478=EDGE_CURVE('',#391,#389,#206,.T.);
#479=EDGE_CURVE('',#392,#390,#207,.T.);
#480=EDGE_CURVE('',#391,#392,#208,.T.);
#481=EDGE_CURVE('',#386,#391,#209,.T.);
#482=EDGE_CURVE('',#387,#392,#210,.T.);
#483=EDGE_CURVE('',#393,#394,#211,.T.);
#484=EDGE_CURVE('',#394,#395,#212,.T.);
#485=EDGE_CURVE('',#396,#395,#213,.T.);
#486=EDGE_CURVE('',#393,#396,#214,.T.);
#487=EDGE_CURVE('',#397,#393,#215,.T.);
#488=EDGE_CURVE('',#398,#396,#216,.T.);
#489=EDGE_CURVE('',#397,#398,#217,.T.);
#490=EDGE_CURVE('',#399,#397,#218,.T.);
#491=EDGE_CURVE('',#400,#398,#219,.T.);
#492=EDGE_CURVE('',#399,#400,#220,.T.);
#493=EDGE_CURVE('',#394,#399,#221,.T.);
#494=EDGE_CURVE('',#395,#400,#222,.T.);
#495=EDGE_CURVE('',#401,#401,#45,.T.);
#496=EDGE_CURVE('',#401,#402,#223,.T.);
#497=EDGE_CURVE('',#402,#402,#46,.T.);
#498=EDGE_CURVE('',#403,#403,#47,.T.);
#499=EDGE_CURVE('',#403,#404,#224,.T.);
#500=EDGE_CURVE('',#404,#404,#48,.T.);
#501=EDGE_CURVE('',#405,#405,#49,.T.);
#502=EDGE_CURVE('',#405,#406,#225,.T.);
#503=EDGE_CURVE('',#406,#406,#50,.T.);
#504=EDGE_CURVE('',#407,#366,#226,.T.);
#505=EDGE_CURVE('',#366,#408,#227,.T.);
#506=EDGE_CURVE('',#409,#408,#228,.T.);
#507=EDGE_CURVE('',#407,#409,#229,.T.);
#508=EDGE_CURVE('',#410,#407,#230,.T.);
#509=EDGE_CURVE('',#411,#409,#231,.T.);
#510=EDGE_CURVE('',#410,#411,#232,.T.);
#511=EDGE_CURVE('',#368,#410,#233,.T.);
#512=EDGE_CURVE('',#412,#411,#234,.T.);
#513=EDGE_CURVE('',#368,#412,#235,.T.);
#514=EDGE_CURVE('',#408,#412,#236,.T.);
#515=EDGE_CURVE('',#413,#413,#51,.T.);
#516=EDGE_CURVE('',#413,#414,#237,.T.);
#517=EDGE_CURVE('',#414,#414,#52,.T.);
#518=EDGE_CURVE('',#415,#415,#53,.T.);
#519=EDGE_CURVE('',#415,#416,#238,.T.);
#520=EDGE_CURVE('',#416,#416,#54,.T.);
#521=EDGE_CURVE('',#417,#418,#239,.T.);
#522=EDGE_CURVE('',#417,#419,#240,.T.);
#523=EDGE_CURVE('',#420,#419,#241,.T.);
#524=EDGE_CURVE('',#418,#420,#242,.T.);
#525=EDGE_CURVE('',#418,#421,#243,.T.);
#526=EDGE_CURVE('',#422,#420,#244,.T.);
#527=EDGE_CURVE('',#421,#422,#245,.T.);
#528=EDGE_CURVE('',#421,#423,#246,.T.);
#529=EDGE_CURVE('',#424,#422,#247,.T.);
#530=EDGE_CURVE('',#423,#424,#248,.T.);
#531=EDGE_CURVE('',#423,#425,#249,.T.);
#532=EDGE_CURVE('',#426,#424,#250,.T.);
#533=EDGE_CURVE('',#425,#426,#251,.T.);
#534=EDGE_CURVE('',#425,#427,#252,.T.);
#535=EDGE_CURVE('',#428,#426,#253,.T.);
#536=EDGE_CURVE('',#427,#428,#254,.T.);
#537=EDGE_CURVE('',#427,#429,#255,.T.);
#538=EDGE_CURVE('',#430,#428,#256,.T.);
#539=EDGE_CURVE('',#429,#430,#257,.T.);
#540=EDGE_CURVE('',#429,#431,#258,.T.);
#541=EDGE_CURVE('',#432,#430,#259,.T.);
#542=EDGE_CURVE('',#431,#432,#260,.T.);
#543=EDGE_CURVE('',#431,#417,#261,.T.);
#544=EDGE_CURVE('',#419,#432,#262,.T.);
#545=ORIENTED_EDGE('',*,*,#433,.F.);
#546=ORIENTED_EDGE('',*,*,#434,.T.);
#547=ORIENTED_EDGE('',*,*,#435,.F.);
#548=ORIENTED_EDGE('',*,*,#436,.F.);
#549=ORIENTED_EDGE('',*,*,#437,.T.);
#550=ORIENTED_EDGE('',*,*,#438,.T.);
#551=ORIENTED_EDGE('',*,*,#439,.T.);
#552=ORIENTED_EDGE('',*,*,#435,.T.);
#553=ORIENTED_EDGE('',*,*,#440,.F.);
#554=ORIENTED_EDGE('',*,*,#441,.T.);
#555=ORIENTED_EDGE('',*,*,#442,.T.);
#556=ORIENTED_EDGE('',*,*,#437,.F.);
#557=ORIENTED_EDGE('',*,*,#434,.F.);
#558=ORIENTED_EDGE('',*,*,#443,.F.);
#559=ORIENTED_EDGE('',*,*,#444,.F.);
#560=ORIENTED_EDGE('',*,*,#445,.T.);
#561=ORIENTED_EDGE('',*,*,#436,.T.);
#562=ORIENTED_EDGE('',*,*,#439,.F.);
#563=ORIENTED_EDGE('',*,*,#446,.F.);
#564=ORIENTED_EDGE('',*,*,#447,.F.);
#565=ORIENTED_EDGE('',*,*,#448,.F.);
#566=ORIENTED_EDGE('',*,*,#447,.T.);
#567=ORIENTED_EDGE('',*,*,#449,.F.);
#568=ORIENTED_EDGE('',*,*,#441,.F.);
#569=ORIENTED_EDGE('',*,*,#449,.T.);
#570=ORIENTED_EDGE('',*,*,#446,.T.);
#571=ORIENTED_EDGE('',*,*,#438,.F.);
#572=ORIENTED_EDGE('',*,*,#442,.F.);
#573=ORIENTED_EDGE('',*,*,#450,.F.);
#574=ORIENTED_EDGE('',*,*,#451,.T.);
#575=ORIENTED_EDGE('',*,*,#452,.T.);
#576=ORIENTED_EDGE('',*,*,#451,.F.);
#577=ORIENTED_EDGE('',*,*,#453,.T.);
#578=ORIENTED_EDGE('',*,*,#454,.T.);
#579=ORIENTED_EDGE('',*,*,#455,.F.);
#580=ORIENTED_EDGE('',*,*,#456,.F.);
#581=ORIENTED_EDGE('',*,*,#457,.T.);
#582=ORIENTED_EDGE('',*,*,#456,.T.);
#583=ORIENTED_EDGE('',*,*,#458,.F.);
#584=ORIENTED_EDGE('',*,*,#459,.F.);
#585=ORIENTED_EDGE('',*,*,#460,.T.);
#586=ORIENTED_EDGE('',*,*,#459,.T.);
#587=ORIENTED_EDGE('',*,*,#461,.F.);
#588=ORIENTED_EDGE('',*,*,#462,.F.);
#589=ORIENTED_EDGE('',*,*,#463,.T.);
#590=ORIENTED_EDGE('',*,*,#462,.T.);
#591=ORIENTED_EDGE('',*,*,#464,.F.);
#592=ORIENTED_EDGE('',*,*,#454,.F.);
#593=ORIENTED_EDGE('',*,*,#465,.F.);
#594=ORIENTED_EDGE('',*,*,#466,.T.);
#595=ORIENTED_EDGE('',*,*,#467,.T.);
#596=ORIENTED_EDGE('',*,*,#466,.F.);
#597=ORIENTED_EDGE('',*,*,#468,.F.);
#598=ORIENTED_EDGE('',*,*,#469,.T.);
#599=ORIENTED_EDGE('',*,*,#470,.T.);
#600=ORIENTED_EDGE('',*,*,#469,.F.);
#601=ORIENTED_EDGE('',*,*,#471,.T.);
#602=ORIENTED_EDGE('',*,*,#472,.T.);
#603=ORIENTED_EDGE('',*,*,#473,.F.);
#604=ORIENTED_EDGE('',*,*,#474,.F.);
#605=ORIENTED_EDGE('',*,*,#475,.T.);
#606=ORIENTED_EDGE('',*,*,#474,.T.);
#607=ORIENTED_EDGE('',*,*,#476,.F.);
#608=ORIENTED_EDGE('',*,*,#477,.F.);
#609=ORIENTED_EDGE('',*,*,#478,.T.);
#610=ORIENTED_EDGE('',*,*,#477,.T.);
#611=ORIENTED_EDGE('',*,*,#479,.F.);
#612=ORIENTED_EDGE('',*,*,#480,.F.);
#613=ORIENTED_EDGE('',*,*,#481,.T.);
#614=ORIENTED_EDGE('',*,*,#480,.T.);
#615=ORIENTED_EDGE('',*,*,#482,.F.);
#616=ORIENTED_EDGE('',*,*,#472,.F.);
#617=ORIENTED_EDGE('',*,*,#483,.T.);
#618=ORIENTED_EDGE('',*,*,#484,.T.);
#619=ORIENTED_EDGE('',*,*,#485,.F.);
#620=ORIENTED_EDGE('',*,*,#486,.F.);
#621=ORIENTED_EDGE('',*,*,#487,.T.);
#622=ORIENTED_EDGE('',*,*,#486,.T.);
#623=ORIENTED_EDGE('',*,*,#488,.F.);
#624=ORIENTED_EDGE('',*,*,#489,.F.);
#625=ORIENTED_EDGE('',*,*,#490,.T.);
#626=ORIENTED_EDGE('',*,*,#489,.T.);
#627=ORIENTED_EDGE('',*,*,#491,.F.);
#628=ORIENTED_EDGE('',*,*,#492,.F.);
#629=ORIENTED_EDGE('',*,*,#493,.T.);
#630=ORIENTED_EDGE('',*,*,#492,.T.);
#631=ORIENTED_EDGE('',*,*,#494,.F.);
#632=ORIENTED_EDGE('',*,*,#484,.F.);
#633=ORIENTED_EDGE('',*,*,#495,.F.);
#634=ORIENTED_EDGE('',*,*,#496,.T.);
#635=ORIENTED_EDGE('',*,*,#497,.T.);
#636=ORIENTED_EDGE('',*,*,#496,.F.);
#637=ORIENTED_EDGE('',*,*,#498,.F.);
#638=ORIENTED_EDGE('',*,*,#499,.T.);
#639=ORIENTED_EDGE('',*,*,#500,.T.);
#640=ORIENTED_EDGE('',*,*,#499,.F.);
#641=ORIENTED_EDGE('',*,*,#501,.F.);
#642=ORIENTED_EDGE('',*,*,#502,.T.);
#643=ORIENTED_EDGE('',*,*,#503,.T.);
#644=ORIENTED_EDGE('',*,*,#502,.F.);
#645=ORIENTED_EDGE('',*,*,#504,.T.);
#646=ORIENTED_EDGE('',*,*,#505,.T.);
#647=ORIENTED_EDGE('',*,*,#506,.F.);
#648=ORIENTED_EDGE('',*,*,#507,.F.);
#649=ORIENTED_EDGE('',*,*,#508,.T.);
#650=ORIENTED_EDGE('',*,*,#507,.T.);
#651=ORIENTED_EDGE('',*,*,#509,.F.);
#652=ORIENTED_EDGE('',*,*,#510,.F.);
#653=ORIENTED_EDGE('',*,*,#511,.T.);
#654=ORIENTED_EDGE('',*,*,#510,.T.);
#655=ORIENTED_EDGE('',*,*,#512,.F.);
#656=ORIENTED_EDGE('',*,*,#513,.F.);
#657=ORIENTED_EDGE('',*,*,#433,.T.);
#658=ORIENTED_EDGE('',*,*,#445,.F.);
#659=ORIENTED_EDGE('',*,*,#513,.T.);
#660=ORIENTED_EDGE('',*,*,#514,.F.);
#661=ORIENTED_EDGE('',*,*,#505,.F.);
#662=ORIENTED_EDGE('',*,*,#443,.T.);
#663=ORIENTED_EDGE('',*,*,#515,.F.);
#664=ORIENTED_EDGE('',*,*,#516,.T.);
#665=ORIENTED_EDGE('',*,*,#517,.T.);
#666=ORIENTED_EDGE('',*,*,#516,.F.);
#667=ORIENTED_EDGE('',*,*,#518,.F.);
#668=ORIENTED_EDGE('',*,*,#519,.T.);
#669=ORIENTED_EDGE('',*,*,#520,.T.);
#670=ORIENTED_EDGE('',*,*,#519,.F.);
#671=ORIENTED_EDGE('',*,*,#521,.F.);
#672=ORIENTED_EDGE('',*,*,#522,.T.);
#673=ORIENTED_EDGE('',*,*,#523,.F.);
#674=ORIENTED_EDGE('',*,*,#524,.F.);
#675=ORIENTED_EDGE('',*,*,#525,.F.);
#676=ORIENTED_EDGE('',*,*,#524,.T.);
#677=ORIENTED_EDGE('',*,*,#526,.F.);
#678=ORIENTED_EDGE('',*,*,#527,.F.);
#679=ORIENTED_EDGE('',*,*,#528,.F.);
#680=ORIENTED_EDGE('',*,*,#527,.T.);
#681=ORIENTED_EDGE('',*,*,#529,.F.);
#682=ORIENTED_EDGE('',*,*,#530,.F.);
#683=ORIENTED_EDGE('',*,*,#531,.F.);
#684=ORIENTED_EDGE('',*,*,#530,.T.);
#685=ORIENTED_EDGE('',*,*,#532,.F.);
#686=ORIENTED_EDGE('',*,*,#533,.F.);
#687=ORIENTED_EDGE('',*,*,#534,.F.);
#688=ORIENTED_EDGE('',*,*,#533,.T.);
#689=ORIENTED_EDGE('',*,*,#535,.F.);
#690=ORIENTED_EDGE('',*,*,#536,.F.);
#691=ORIENTED_EDGE('',*,*,#537,.F.);
#692=ORIENTED_EDGE('',*,*,#536,.T.);
#693=ORIENTED_EDGE('',*,*,#538,.F.);
#694=ORIENTED_EDGE('',*,*,#539,.F.);
#695=ORIENTED_EDGE('',*,*,#540,.F.);
#696=ORIENTED_EDGE('',*,*,#539,.T.);
#697=ORIENTED_EDGE('',*,*,#541,.F.);
#698=ORIENTED_EDGE('',*,*,#542,.F.);
#699=ORIENTED_EDGE('',*,*,#543,.F.);
#700=ORIENTED_EDGE('',*,*,#542,.T.);
#701=ORIENTED_EDGE('',*,*,#544,.F.);
#702=ORIENTED_EDGE('',*,*,#522,.F.);
#703=ORIENTED_EDGE('',*,*,#544,.T.);
#704=ORIENTED_EDGE('',*,*,#541,.T.);
#705=ORIENTED_EDGE('',*,*,#538,.T.);
#706=ORIENTED_EDGE('',*,*,#535,.T.);
#707=ORIENTED_EDGE('',*,*,#532,.T.);
#708=ORIENTED_EDGE('',*,*,#529,.T.);
#709=ORIENTED_EDGE('',*,*,#526,.T.);
#710=ORIENTED_EDGE('',*,*,#523,.T.);
#711=ORIENTED_EDGE('',*,*,#518,.T.);
#712=ORIENTED_EDGE('',*,*,#515,.T.);
#713=ORIENTED_EDGE('',*,*,#514,.T.);
#714=ORIENTED_EDGE('',*,*,#512,.T.);
#715=ORIENTED_EDGE('',*,*,#509,.T.);
#716=ORIENTED_EDGE('',*,*,#506,.T.);
#717=ORIENTED_EDGE('',*,*,#501,.T.);
#718=ORIENTED_EDGE('',*,*,#498,.T.);
#719=ORIENTED_EDGE('',*,*,#495,.T.);
#720=ORIENTED_EDGE('',*,*,#494,.T.);
#721=ORIENTED_EDGE('',*,*,#491,.T.);
#722=ORIENTED_EDGE('',*,*,#488,.T.);
#723=ORIENTED_EDGE('',*,*,#485,.T.);
#724=ORIENTED_EDGE('',*,*,#482,.T.);
#725=ORIENTED_EDGE('',*,*,#479,.T.);
#726=ORIENTED_EDGE('',*,*,#476,.T.);
#727=ORIENTED_EDGE('',*,*,#473,.T.);
#728=ORIENTED_EDGE('',*,*,#468,.T.);
#729=ORIENTED_EDGE('',*,*,#465,.T.);
#730=ORIENTED_EDGE('',*,*,#464,.T.);
#731=ORIENTED_EDGE('',*,*,#461,.T.);
#732=ORIENTED_EDGE('',*,*,#458,.T.);
#733=ORIENTED_EDGE('',*,*,#455,.T.);
#734=ORIENTED_EDGE('',*,*,#450,.T.);
#735=ORIENTED_EDGE('',*,*,#543,.T.);
#736=ORIENTED_EDGE('',*,*,#521,.T.);
#737=ORIENTED_EDGE('',*,*,#525,.T.);
#738=ORIENTED_EDGE('',*,*,#528,.T.);
#739=ORIENTED_EDGE('',*,*,#531,.T.);
#740=ORIENTED_EDGE('',*,*,#534,.T.);
#741=ORIENTED_EDGE('',*,*,#537,.T.);
#742=ORIENTED_EDGE('',*,*,#540,.T.);
#743=ORIENTED_EDGE('',*,*,#452,.F.);
#744=ORIENTED_EDGE('',*,*,#463,.F.);
#745=ORIENTED_EDGE('',*,*,#453,.F.);
#746=ORIENTED_EDGE('',*,*,#457,.F.);
#747=ORIENTED_EDGE('',*,*,#460,.F.);
#748=ORIENTED_EDGE('',*,*,#467,.F.);
#749=ORIENTED_EDGE('',*,*,#470,.F.);
#750=ORIENTED_EDGE('',*,*,#481,.F.);
#751=ORIENTED_EDGE('',*,*,#471,.F.);
#752=ORIENTED_EDGE('',*,*,#475,.F.);
#753=ORIENTED_EDGE('',*,*,#478,.F.);
#754=ORIENTED_EDGE('',*,*,#493,.F.);
#755=ORIENTED_EDGE('',*,*,#483,.F.);
#756=ORIENTED_EDGE('',*,*,#487,.F.);
#757=ORIENTED_EDGE('',*,*,#490,.F.);
#758=ORIENTED_EDGE('',*,*,#497,.F.);
#759=ORIENTED_EDGE('',*,*,#500,.F.);
#760=ORIENTED_EDGE('',*,*,#503,.F.);
#761=ORIENTED_EDGE('',*,*,#444,.T.);
#762=ORIENTED_EDGE('',*,*,#448,.T.);
#763=ORIENTED_EDGE('',*,*,#440,.T.);
#764=ORIENTED_EDGE('',*,*,#504,.F.);
#765=ORIENTED_EDGE('',*,*,#508,.F.);
#766=ORIENTED_EDGE('',*,*,#511,.F.);
#767=ORIENTED_EDGE('',*,*,#517,.F.);
#768=ORIENTED_EDGE('',*,*,#520,.F.);
#769=PLANE('',#855);
#770=PLANE('',#856);
#771=PLANE('',#857);
#772=PLANE('',#858);
#773=PLANE('',#859);
#774=PLANE('',#860);
#775=PLANE('',#864);
#776=PLANE('',#865);
#777=PLANE('',#866);
#778=PLANE('',#867);
#779=PLANE('',#874);
#780=PLANE('',#875);
#781=PLANE('',#876);
#782=PLANE('',#877);
#783=PLANE('',#878);
#784=PLANE('',#879);
#785=PLANE('',#880);
#786=PLANE('',#881);
#787=PLANE('',#891);
#788=PLANE('',#892);
#789=PLANE('',#893);
#790=PLANE('',#894);
#791=PLANE('',#901);
#792=PLANE('',#902);
#793=PLANE('',#903);
#794=PLANE('',#904);
#795=PLANE('',#905);
#796=PLANE('',#906);
#797=PLANE('',#907);
#798=PLANE('',#908);
#799=PLANE('',#909);
#800=PLANE('',#910);
#801=ADVANCED_FACE('',(#63),#769,.T.);
#802=ADVANCED_FACE('',(#64),#770,.T.);
#803=ADVANCED_FACE('',(#65),#771,.T.);
#804=ADVANCED_FACE('',(#66),#772,.T.);
#805=ADVANCED_FACE('',(#67),#773,.T.);
#806=ADVANCED_FACE('',(#68),#774,.T.);
#807=ADVANCED_FACE('',(#69),#55,.F.);
#808=ADVANCED_FACE('',(#70),#775,.T.);
#809=ADVANCED_FACE('',(#71),#776,.T.);
#810=ADVANCED_FACE('',(#72),#777,.T.);
#811=ADVANCED_FACE('',(#73),#778,.T.);
#812=ADVANCED_FACE('',(#74),#56,.F.);
#813=ADVANCED_FACE('',(#75),#57,.F.);
#814=ADVANCED_FACE('',(#76),#779,.T.);
#815=ADVANCED_FACE('',(#77),#780,.T.);
#816=ADVANCED_FACE('',(#78),#781,.T.);
#817=ADVANCED_FACE('',(#79),#782,.T.);
#818=ADVANCED_FACE('',(#80),#783,.T.);
#819=ADVANCED_FACE('',(#81),#784,.T.);
#820=ADVANCED_FACE('',(#82),#785,.T.);
#821=ADVANCED_FACE('',(#83),#786,.T.);
#822=ADVANCED_FACE('',(#84),#58,.F.);
#823=ADVANCED_FACE('',(#85),#59,.F.);
#824=ADVANCED_FACE('',(#86),#60,.F.);
#825=ADVANCED_FACE('',(#87),#787,.T.);
#826=ADVANCED_FACE('',(#88),#788,.T.);
#827=ADVANCED_FACE('',(#89),#789,.T.);
#828=ADVANCED_FACE('',(#90),#790,.T.);
#829=ADVANCED_FACE('',(#91),#61,.F.);
#830=ADVANCED_FACE('',(#92),#62,.F.);
#831=ADVANCED_FACE('',(#93),#791,.T.);
#832=ADVANCED_FACE('',(#94),#792,.T.);
#833=ADVANCED_FACE('',(#95),#793,.T.);
#834=ADVANCED_FACE('',(#96),#794,.T.);
#835=ADVANCED_FACE('',(#97),#795,.T.);
#836=ADVANCED_FACE('',(#98),#796,.T.);
#837=ADVANCED_FACE('',(#99),#797,.T.);
#838=ADVANCED_FACE('',(#100),#798,.T.);
#839=ADVANCED_FACE('',(#101,#15,#16,#17,#18,#19,#20,#21,#22,#23,#24,#25,
#26),#799,.T.);
#840=ADVANCED_FACE('',(#102,#27,#28,#29,#30,#31,#32,#33,#34,#35,#36,#37,
#38),#800,.F.);
#841=CLOSED_SHELL('',(#801,#802,#803,#804,#805,#806,#807,#808,#809,#810,
#811,#812,#813,#814,#815,#816,#817,#818,#819,#820,#821,#822,#823,#824,#825,
#826,#827,#828,#829,#830,#831,#832,#833,#834,#835,#836,#837,#838,#839,#840));
#842=DERIVED_UNIT_ELEMENT(#844,1.);
#843=DERIVED_UNIT_ELEMENT(#1353,-3.);
#844=(
MASS_UNIT()
NAMED_UNIT(*)
SI_UNIT(.KILO.,.GRAM.)
);
#845=DERIVED_UNIT((#842,#843));
#846=MEASURE_REPRESENTATION_ITEM('density measure',
POSITIVE_RATIO_MEASURE(7850.),#845);
#847=PROPERTY_DEFINITION_REPRESENTATION(#852,#849);
#848=PROPERTY_DEFINITION_REPRESENTATION(#853,#850);
#849=REPRESENTATION('material name',(#851),#1350);
#850=REPRESENTATION('density',(#846),#1350);
#851=DESCRIPTIVE_REPRESENTATION_ITEM('Steel','Steel');
#852=PROPERTY_DEFINITION('material property','material name',#1360);
#853=PROPERTY_DEFINITION('material property','density of part',#1360);
#854=AXIS2_PLACEMENT_3D('',#1121,#911,#912);
#855=AXIS2_PLACEMENT_3D('',#1122,#913,#914);
#856=AXIS2_PLACEMENT_3D('',#1131,#919,#920);
#857=AXIS2_PLACEMENT_3D('',#1137,#924,#925);
#858=AXIS2_PLACEMENT_3D('',#1145,#930,#931);
#859=AXIS2_PLACEMENT_3D('',#1153,#936,#937);
#860=AXIS2_PLACEMENT_3D('',#1156,#940,#941);
#861=AXIS2_PLACEMENT_3D('',#1157,#942,#943);
#862=AXIS2_PLACEMENT_3D('',#1159,#944,#945);
#863=AXIS2_PLACEMENT_3D('',#1162,#947,#948);
#864=AXIS2_PLACEMENT_3D('',#1163,#949,#950);
#865=AXIS2_PLACEMENT_3D('',#1172,#955,#956);
#866=AXIS2_PLACEMENT_3D('',#1178,#960,#961);
#867=AXIS2_PLACEMENT_3D('',#1184,#965,#966);
#868=AXIS2_PLACEMENT_3D('',#1187,#969,#970);
#869=AXIS2_PLACEMENT_3D('',#1189,#971,#972);
#870=AXIS2_PLACEMENT_3D('',#1192,#974,#975);
#871=AXIS2_PLACEMENT_3D('',#1193,#976,#977);
#872=AXIS2_PLACEMENT_3D('',#1195,#978,#979);
#873=AXIS2_PLACEMENT_3D('',#1198,#981,#982);
#874=AXIS2_PLACEMENT_3D('',#1199,#983,#984);
#875=AXIS2_PLACEMENT_3D('',#1208,#989,#990);
#876=AXIS2_PLACEMENT_3D('',#1214,#994,#995);
#877=AXIS2_PLACEMENT_3D('',#1220,#999,#1000);
#878=AXIS2_PLACEMENT_3D('',#1223,#1003,#1004);
#879=AXIS2_PLACEMENT_3D('',#1232,#1009,#1010);
#880=AXIS2_PLACEMENT_3D('',#1238,#1014,#1015);
#881=AXIS2_PLACEMENT_3D('',#1244,#1019,#1020);
#882=AXIS2_PLACEMENT_3D('',#1247,#1023,#1024);
#883=AXIS2_PLACEMENT_3D('',#1249,#1025,#1026);
#884=AXIS2_PLACEMENT_3D('',#1252,#1028,#1029);
#885=AXIS2_PLACEMENT_3D('',#1253,#1030,#1031);
#886=AXIS2_PLACEMENT_3D('',#1255,#1032,#1033);
#887=AXIS2_PLACEMENT_3D('',#1258,#1035,#1036);
#888=AXIS2_PLACEMENT_3D('',#1259,#1037,#1038);
#889=AXIS2_PLACEMENT_3D('',#1261,#1039,#1040);
#890=AXIS2_PLACEMENT_3D('',#1264,#1042,#1043);
#891=AXIS2_PLACEMENT_3D('',#1265,#1044,#1045);
#892=AXIS2_PLACEMENT_3D('',#1273,#1050,#1051);
#893=AXIS2_PLACEMENT_3D('',#1279,#1055,#1056);
#894=AXIS2_PLACEMENT_3D('',#1284,#1060,#1061);
#895=AXIS2_PLACEMENT_3D('',#1286,#1063,#1064);
#896=AXIS2_PLACEMENT_3D('',#1288,#1065,#1066);
#897=AXIS2_PLACEMENT_3D('',#1291,#1068,#1069);
#898=AXIS2_PLACEMENT_3D('',#1292,#1070,#1071);
#899=AXIS2_PLACEMENT_3D('',#1294,#1072,#1073);
#900=AXIS2_PLACEMENT_3D('',#1297,#1075,#1076);
#901=AXIS2_PLACEMENT_3D('',#1298,#1077,#1078);
#902=AXIS2_PLACEMENT_3D('',#1307,#1083,#1084);
#903=AXIS2_PLACEMENT_3D('',#1313,#1088,#1089);
#904=AXIS2_PLACEMENT_3D('',#1319,#1093,#1094);
#905=AXIS2_PLACEMENT_3D('',#1325,#1098,#1099);
#906=AXIS2_PLACEMENT_3D('',#1331,#1103,#1104);
#907=AXIS2_PLACEMENT_3D('',#1337,#1108,#1109);
#908=AXIS2_PLACEMENT_3D('',#1343,#1113,#1114);
#909=AXIS2_PLACEMENT_3D('',#1346,#1117,#1118);
#910=AXIS2_PLACEMENT_3D('',#1347,#1119,#1120);
#911=DIRECTION('axis',(0.,0.,1.));
#912=DIRECTION('refdir',(1.,0.,0.));
#913=DIRECTION('center_axis',(0.,0.,1.));
#914=DIRECTION('ref_axis',(1.,0.,0.));
#915=DIRECTION('',(-1.,0.,0.));
#916=DIRECTION('',(0.,1.,0.));
#917=DIRECTION('',(1.,0.,0.));
#918=DIRECTION('',(0.,1.,0.));
#919=DIRECTION('center_axis',(0.,1.,0.));
#920=DIRECTION('ref_axis',(0.,0.,1.));
#921=DIRECTION('',(0.,0.,-1.));
#922=DIRECTION('',(-1.,0.,0.));
#923=DIRECTION('',(0.,0.,1.));
#924=DIRECTION('center_axis',(1.,0.,0.));
#925=DIRECTION('ref_axis',(0.,-1.,0.));
#926=DIRECTION('',(0.,1.,0.));
#927=DIRECTION('',(0.,0.,-1.));
#928=DIRECTION('',(0.,1.,0.));
#929=DIRECTION('',(0.,0.,-1.));
#930=DIRECTION('center_axis',(-1.,0.,0.));
#931=DIRECTION('ref_axis',(0.,1.,0.));
#932=DIRECTION('',(0.,-1.,0.));
#933=DIRECTION('',(0.,0.,-1.));
#934=DIRECTION('',(0.,1.,0.));
#935=DIRECTION('',(0.,0.,-1.));
#936=DIRECTION('center_axis',(0.,-1.,0.));
#937=DIRECTION('ref_axis',(-1.,0.,0.));
#938=DIRECTION('',(1.,0.,0.));
#939=DIRECTION('',(-1.,0.,0.));
#940=DIRECTION('center_axis',(0.,0.,-1.));
#941=DIRECTION('ref_axis',(-1.,0.,0.));
#942=DIRECTION('center_axis',(0.,0.,1.));
#943=DIRECTION('ref_axis',(1.,0.,0.));
#944=DIRECTION('center_axis',(0.,0.,-1.));
#945=DIRECTION('ref_axis',(1.,0.,0.));
#946=DIRECTION('',(0.,0.,-1.));
#947=DIRECTION('center_axis',(0.,0.,-1.));
#948=DIRECTION('ref_axis',(1.,0.,0.));
#949=DIRECTION('center_axis',(0.,1.,0.));
#950=DIRECTION('ref_axis',(-1.,0.,0.));
#951=DIRECTION('',(-1.,0.,0.));
#952=DIRECTION('',(0.,0.,1.));
#953=DIRECTION('',(-1.,0.,0.));
#954=DIRECTION('',(0.,0.,1.));
#955=DIRECTION('center_axis',(-1.,0.,0.));
#956=DIRECTION('ref_axis',(0.,-1.,0.));
#957=DIRECTION('',(0.,-1.,0.));
#958=DIRECTION('',(0.,-1.,0.));
#959=DIRECTION('',(0.,0.,1.));
#960=DIRECTION('center_axis',(0.,-1.,0.));
#961=DIRECTION('ref_axis',(1.,0.,0.));
#962=DIRECTION('',(1.,0.,0.));
#963=DIRECTION('',(1.,0.,0.));
#964=DIRECTION('',(0.,0.,1.));
#965=DIRECTION('center_axis',(1.,0.,0.));
#966=DIRECTION('ref_axis',(0.,1.,0.));
#967=DIRECTION('',(0.,1.,0.));
#968=DIRECTION('',(0.,1.,0.));
#969=DIRECTION('center_axis',(0.,0.,1.));
#970=DIRECTION('ref_axis',(1.,0.,0.));
#971=DIRECTION('center_axis',(0.,0.,-1.));
#972=DIRECTION('ref_axis',(1.,0.,0.));
#973=DIRECTION('',(0.,0.,-1.));
#974=DIRECTION('center_axis',(0.,0.,-1.));
#975=DIRECTION('ref_axis',(1.,0.,0.));
#976=DIRECTION('center_axis',(0.,0.,1.));
#977=DIRECTION('ref_axis',(1.,0.,0.));
#978=DIRECTION('center_axis',(0.,0.,-1.));
#979=DIRECTION('ref_axis',(1.,0.,0.));
#980=DIRECTION('',(0.,0.,-1.));
#981=DIRECTION('center_axis',(0.,0.,-1.));
#982=DIRECTION('ref_axis',(1.,0.,0.));
#983=DIRECTION('center_axis',(0.,1.,0.));
#984=DIRECTION('ref_axis',(-1.,0.,0.));
#985=DIRECTION('',(-1.,0.,0.));
#986=DIRECTION('',(0.,0.,1.));
#987=DIRECTION('',(-1.,0.,0.));
#988=DIRECTION('',(0.,0.,1.));
#989=DIRECTION('center_axis',(-1.,0.,0.));
#990=DIRECTION('ref_axis',(0.,-1.,0.));
#991=DIRECTION('',(0.,-1.,0.));
#992=DIRECTION('',(0.,-1.,0.));
#993=DIRECTION('',(0.,0.,1.));
#994=DIRECTION('center_axis',(0.,-1.,0.));
#995=DIRECTION('ref_axis',(1.,0.,0.));
#996=DIRECTION('',(1.,0.,0.));
#997=DIRECTION('',(1.,0.,0.));
#998=DIRECTION('',(0.,0.,1.));
#999=DIRECTION('center_axis',(1.,0.,0.));
#1000=DIRECTION('ref_axis',(0.,1.,0.));
#1001=DIRECTION('',(0.,1.,0.));
#1002=DIRECTION('',(0.,1.,0.));
#1003=DIRECTION('center_axis',(0.,1.,0.));
#1004=DIRECTION('ref_axis',(-1.,0.,0.));
#1005=DIRECTION('',(-1.,0.,0.));
#1006=DIRECTION('',(0.,0.,1.));
#1007=DIRECTION('',(-1.,0.,0.));
#1008=DIRECTION('',(0.,0.,1.));
#1009=DIRECTION('center_axis',(-1.,0.,0.));
#1010=DIRECTION('ref_axis',(0.,-1.,0.));
#1011=DIRECTION('',(0.,-1.,0.));
#1012=DIRECTION('',(0.,-1.,0.));
#1013=DIRECTION('',(0.,0.,1.));
#1014=DIRECTION('center_axis',(0.,-1.,0.));
#1015=DIRECTION('ref_axis',(1.,0.,0.));
#1016=DIRECTION('',(1.,0.,0.));
#1017=DIRECTION('',(1.,0.,0.));
#1018=DIRECTION('',(0.,0.,1.));
#1019=DIRECTION('center_axis',(1.,0.,0.));
#1020=DIRECTION('ref_axis',(0.,1.,0.));
#1021=DIRECTION('',(0.,1.,0.));
#1022=DIRECTION('',(0.,1.,0.));
#1023=DIRECTION('center_axis',(0.,0.,1.));
#1024=DIRECTION('ref_axis',(1.,0.,0.));
#1025=DIRECTION('center_axis',(0.,0.,-1.));
#1026=DIRECTION('ref_axis',(1.,0.,0.));
#1027=DIRECTION('',(0.,0.,-1.));
#1028=DIRECTION('center_axis',(0.,0.,-1.));
#1029=DIRECTION('ref_axis',(1.,0.,0.));
#1030=DIRECTION('center_axis',(0.,0.,1.));
#1031=DIRECTION('ref_axis',(1.,0.,0.));
#1032=DIRECTION('center_axis',(0.,0.,-1.));
#1033=DIRECTION('ref_axis',(1.,0.,0.));
#1034=DIRECTION('',(0.,0.,-1.));
#1035=DIRECTION('center_axis',(0.,0.,-1.));
#1036=DIRECTION('ref_axis',(1.,0.,0.));
#1037=DIRECTION('center_axis',(0.,0.,1.));
#1038=DIRECTION('ref_axis',(1.,0.,0.));
#1039=DIRECTION('center_axis',(0.,0.,-1.));
#1040=DIRECTION('ref_axis',(1.,0.,0.));
#1041=DIRECTION('',(0.,0.,-1.));
#1042=DIRECTION('center_axis',(0.,0.,-1.));
#1043=DIRECTION('ref_axis',(1.,0.,0.));
#1044=DIRECTION('center_axis',(-1.,0.,0.));
#1045=DIRECTION('ref_axis',(0.,-1.,0.));
#1046=DIRECTION('',(0.,-1.,0.));
#1047=DIRECTION('',(0.,0.,1.));
#1048=DIRECTION('',(0.,-1.,0.));
#1049=DIRECTION('',(0.,0.,1.));
#1050=DIRECTION('center_axis',(0.,-1.,0.));
#1051=DIRECTION('ref_axis',(1.,0.,0.));
#1052=DIRECTION('',(1.,0.,0.));
#1053=DIRECTION('',(1.,0.,0.));
#1054=DIRECTION('',(0.,0.,1.));
#1055=DIRECTION('center_axis',(1.,0.,0.));
#1056=DIRECTION('ref_axis',(0.,1.,0.));
#1057=DIRECTION('',(0.,1.,0.));
#1058=DIRECTION('',(0.,1.,0.));
#1059=DIRECTION('',(0.,0.,1.));
#1060=DIRECTION('center_axis',(0.,1.,0.));
#1061=DIRECTION('ref_axis',(-1.,0.,0.));
#1062=DIRECTION('',(-1.,0.,0.));
#1063=DIRECTION('center_axis',(0.,0.,1.));
#1064=DIRECTION('ref_axis',(1.,0.,0.));
#1065=DIRECTION('center_axis',(0.,0.,-1.));
#1066=DIRECTION('ref_axis',(1.,0.,0.));
#1067=DIRECTION('',(0.,0.,-1.));
#1068=DIRECTION('center_axis',(0.,0.,-1.));
#1069=DIRECTION('ref_axis',(1.,0.,0.));
#1070=DIRECTION('center_axis',(0.,0.,1.));
#1071=DIRECTION('ref_axis',(1.,0.,0.));
#1072=DIRECTION('center_axis',(0.,0.,-1.));
#1073=DIRECTION('ref_axis',(1.,0.,0.));
#1074=DIRECTION('',(0.,0.,-1.));
#1075=DIRECTION('center_axis',(0.,0.,-1.));
#1076=DIRECTION('ref_axis',(1.,0.,0.));
#1077=DIRECTION('center_axis',(-1.,0.,0.));
#1078=DIRECTION('ref_axis',(0.,-1.,0.));
#1079=DIRECTION('',(0.,1.,0.));
#1080=DIRECTION('',(0.,0.,1.));
#1081=DIRECTION('',(0.,-1.,0.));
#1082=DIRECTION('',(0.,0.,1.));
#1083=DIRECTION('center_axis',(0.,1.,0.));
#1084=DIRECTION('ref_axis',(-1.,0.,0.));
#1085=DIRECTION('',(1.,0.,0.));
#1086=DIRECTION('',(-1.,0.,0.));
#1087=DIRECTION('',(0.,0.,1.));
#1088=DIRECTION('center_axis',(1.,0.,0.));
#1089=DIRECTION('ref_axis',(0.,1.,0.));
#1090=DIRECTION('',(0.,-1.,0.));
#1091=DIRECTION('',(0.,1.,0.));
#1092=DIRECTION('',(0.,0.,1.));
#1093=DIRECTION('center_axis',(0.,-1.,0.));
#1094=DIRECTION('ref_axis',(1.,0.,0.));
#1095=DIRECTION('',(-1.,0.,0.));
#1096=DIRECTION('',(1.,0.,0.));
#1097=DIRECTION('',(0.,0.,1.));
#1098=DIRECTION('center_axis',(-1.,0.,0.));
#1099=DIRECTION('ref_axis',(0.,-1.,0.));
#1100=DIRECTION('',(0.,1.,0.));
#1101=DIRECTION('',(0.,-1.,0.));
#1102=DIRECTION('',(0.,0.,1.));
#1103=DIRECTION('center_axis',(0.,1.,0.));
#1104=DIRECTION('ref_axis',(-1.,0.,0.));
#1105=DIRECTION('',(1.,0.,0.));
#1106=DIRECTION('',(-1.,0.,0.));
#1107=DIRECTION('',(0.,0.,1.));
#1108=DIRECTION('center_axis',(1.,0.,0.));
#1109=DIRECTION('ref_axis',(0.,1.,0.));
#1110=DIRECTION('',(0.,-1.,0.));
#1111=DIRECTION('',(0.,1.,0.));
#1112=DIRECTION('',(0.,0.,1.));
#1113=DIRECTION('center_axis',(0.,1.,0.));
#1114=DIRECTION('ref_axis',(-1.,0.,0.));
#1115=DIRECTION('',(1.,0.,0.));
#1116=DIRECTION('',(-1.,0.,0.));
#1117=DIRECTION('center_axis',(0.,0.,1.));
#1118=DIRECTION('ref_axis',(1.,0.,0.));
#1119=DIRECTION('center_axis',(0.,0.,1.));
#1120=DIRECTION('ref_axis',(1.,0.,0.));
#1121=CARTESIAN_POINT('',(0.,0.,0.));
#1122=CARTESIAN_POINT('Origin',(137.1,9.05,-12.));
#1123=CARTESIAN_POINT('',(146.5,9.05,-12.));
#1124=CARTESIAN_POINT('',(137.1,9.05,-12.));
#1125=CARTESIAN_POINT('',(141.8,9.05,-12.));
#1126=CARTESIAN_POINT('',(146.5,13.05,-12.));
#1127=CARTESIAN_POINT('',(146.5,9.05,-12.));
#1128=CARTESIAN_POINT('',(137.1,13.05,-12.));
#1129=CARTESIAN_POINT('',(137.1,13.05,-12.));
#1130=CARTESIAN_POINT('',(137.1,9.05,-12.));
#1131=CARTESIAN_POINT('Origin',(141.8,13.05,-13.5));
#1132=CARTESIAN_POINT('',(146.5,13.05,-15.));
#1133=CARTESIAN_POINT('',(146.5,13.05,-12.));
#1134=CARTESIAN_POINT('',(137.1,13.05,-15.));
#1135=CARTESIAN_POINT('',(146.5,13.05,-15.));
#1136=CARTESIAN_POINT('',(137.1,13.05,-15.));
#1137=CARTESIAN_POINT('Origin',(146.5,9.05,0.));
#1138=CARTESIAN_POINT('',(146.5,6.05,0.));
#1139=CARTESIAN_POINT('',(146.5,9.05,0.));
#1140=CARTESIAN_POINT('',(146.5,14.275,0.));
#1141=CARTESIAN_POINT('',(146.5,6.05,-15.));
#1142=CARTESIAN_POINT('',(146.5,6.05,0.));
#1143=CARTESIAN_POINT('',(146.5,9.05,-15.));
#1144=CARTESIAN_POINT('',(146.5,9.05,0.));
#1145=CARTESIAN_POINT('Origin',(137.1,6.05,0.));
#1146=CARTESIAN_POINT('',(137.1,9.05,0.));
#1147=CARTESIAN_POINT('',(137.1,6.05,0.));
#1148=CARTESIAN_POINT('',(137.1,12.775,0.));
#1149=CARTESIAN_POINT('',(137.1,9.05,0.));
#1150=CARTESIAN_POINT('',(137.1,6.05,-15.));
#1151=CARTESIAN_POINT('',(137.1,9.05,-15.));
#1152=CARTESIAN_POINT('',(137.1,6.05,0.));
#1153=CARTESIAN_POINT('Origin',(146.5,6.05,0.));
#1154=CARTESIAN_POINT('',(115.,6.05,0.));
#1155=CARTESIAN_POINT('',(137.1,6.05,-15.));
#1156=CARTESIAN_POINT('Origin',(141.8,7.55,-15.));
#1157=CARTESIAN_POINT('Origin',(158.5,33.,0.));
#1158=CARTESIAN_POINT('',(156.8,33.,3.));
#1159=CARTESIAN_POINT('Origin',(158.5,33.,3.));
#1160=CARTESIAN_POINT('',(156.8,33.,0.));
#1161=CARTESIAN_POINT('',(156.8,33.,0.));
#1162=CARTESIAN_POINT('Origin',(158.5,33.,0.));
#1163=CARTESIAN_POINT('Origin',(119.95,9.375,0.));
#1164=CARTESIAN_POINT('',(119.95,9.375,0.));
#1165=CARTESIAN_POINT('',(91.95,9.375,0.));
#1166=CARTESIAN_POINT('',(91.95,9.375,0.));
#1167=CARTESIAN_POINT('',(91.95,9.375,3.));
#1168=CARTESIAN_POINT('',(91.95,9.375,0.));
#1169=CARTESIAN_POINT('',(119.95,9.375,3.));
#1170=CARTESIAN_POINT('',(91.95,9.375,3.));
#1171=CARTESIAN_POINT('',(119.95,9.375,0.));
#1172=CARTESIAN_POINT('Origin',(119.95,20.125,0.));
#1173=CARTESIAN_POINT('',(119.95,20.125,0.));
#1174=CARTESIAN_POINT('',(119.95,9.375,0.));
#1175=CARTESIAN_POINT('',(119.95,20.125,3.));
#1176=CARTESIAN_POINT('',(119.95,9.375,3.));
#1177=CARTESIAN_POINT('',(119.95,20.125,0.));
#1178=CARTESIAN_POINT('Origin',(91.95,20.125,0.));
#1179=CARTESIAN_POINT('',(91.95,20.125,0.));
#1180=CARTESIAN_POINT('',(119.95,20.125,0.));
#1181=CARTESIAN_POINT('',(91.95,20.125,3.));
#1182=CARTESIAN_POINT('',(119.95,20.125,3.));
#1183=CARTESIAN_POINT('',(91.95,20.125,0.));
#1184=CARTESIAN_POINT('Origin',(91.95,9.375,0.));
#1185=CARTESIAN_POINT('',(91.95,20.125,0.));
#1186=CARTESIAN_POINT('',(91.95,20.125,3.));
#1187=CARTESIAN_POINT('Origin',(5.29999999999999,14.75,0.));
#1188=CARTESIAN_POINT('',(3.59999999999999,14.75,3.));
#1189=CARTESIAN_POINT('Origin',(5.29999999999999,14.75,3.));
#1190=CARTESIAN_POINT('',(3.59999999999999,14.75,0.));
#1191=CARTESIAN_POINT('',(3.59999999999999,14.75,0.));
#1192=CARTESIAN_POINT('Origin',(5.29999999999999,14.75,0.));
#1193=CARTESIAN_POINT('Origin',(122.6,14.75,0.));
#1194=CARTESIAN_POINT('',(120.9,14.75,3.));
#1195=CARTESIAN_POINT('Origin',(122.6,14.75,3.));
#1196=CARTESIAN_POINT('',(120.9,14.75,0.));
#1197=CARTESIAN_POINT('',(120.9,14.75,0.));
#1198=CARTESIAN_POINT('Origin',(122.6,14.75,0.));
#1199=CARTESIAN_POINT('Origin',(35.95,9.375,0.));
#1200=CARTESIAN_POINT('',(35.95,9.375,0.));
#1201=CARTESIAN_POINT('',(7.94999999999999,9.375,0.));
#1202=CARTESIAN_POINT('',(7.94999999999999,9.375,0.));
#1203=CARTESIAN_POINT('',(7.94999999999999,9.375,3.));
#1204=CARTESIAN_POINT('',(7.94999999999999,9.375,0.));
#1205=CARTESIAN_POINT('',(35.95,9.375,3.));
#1206=CARTESIAN_POINT('',(7.94999999999999,9.375,3.));
#1207=CARTESIAN_POINT('',(35.95,9.375,0.));
#1208=CARTESIAN_POINT('Origin',(35.95,20.125,0.));
#1209=CARTESIAN_POINT('',(35.95,20.125,0.));
#1210=CARTESIAN_POINT('',(35.95,9.375,0.));
#1211=CARTESIAN_POINT('',(35.95,20.125,3.));
#1212=CARTESIAN_POINT('',(35.95,9.375,3.));
#1213=CARTESIAN_POINT('',(35.95,20.125,0.));
#1214=CARTESIAN_POINT('Origin',(7.94999999999999,20.125,0.));
#1215=CARTESIAN_POINT('',(7.94999999999999,20.125,0.));
#1216=CARTESIAN_POINT('',(35.95,20.125,0.));
#1217=CARTESIAN_POINT('',(7.94999999999999,20.125,3.));
#1218=CARTESIAN_POINT('',(35.95,20.125,3.));
#1219=CARTESIAN_POINT('',(7.94999999999999,20.125,0.));
#1220=CARTESIAN_POINT('Origin',(7.94999999999999,9.375,0.));
#1221=CARTESIAN_POINT('',(7.94999999999999,20.125,0.));
#1222=CARTESIAN_POINT('',(7.94999999999999,20.125,3.));
#1223=CARTESIAN_POINT('Origin',(77.95,9.375,0.));
#1224=CARTESIAN_POINT('',(77.95,9.375,0.));
#1225=CARTESIAN_POINT('',(49.95,9.375,0.));
#1226=CARTESIAN_POINT('',(49.95,9.375,0.));
#1227=CARTESIAN_POINT('',(49.95,9.375,3.));
#1228=CARTESIAN_POINT('',(49.95,9.375,0.));
#1229=CARTESIAN_POINT('',(77.95,9.375,3.));
#1230=CARTESIAN_POINT('',(49.95,9.375,3.));
#1231=CARTESIAN_POINT('',(77.95,9.375,0.));
#1232=CARTESIAN_POINT('Origin',(77.95,20.125,0.));
#1233=CARTESIAN_POINT('',(77.95,20.125,0.));
#1234=CARTESIAN_POINT('',(77.95,9.375,0.));
#1235=CARTESIAN_POINT('',(77.95,20.125,3.));
#1236=CARTESIAN_POINT('',(77.95,9.375,3.));
#1237=CARTESIAN_POINT('',(77.95,20.125,0.));
#1238=CARTESIAN_POINT('Origin',(49.95,20.125,0.));
#1239=CARTESIAN_POINT('',(49.95,20.125,0.));
#1240=CARTESIAN_POINT('',(77.95,20.125,0.));
#1241=CARTESIAN_POINT('',(49.95,20.125,3.));
#1242=CARTESIAN_POINT('',(77.95,20.125,3.));
#1243=CARTESIAN_POINT('',(49.95,20.125,0.));
#1244=CARTESIAN_POINT('Origin',(49.95,9.375,0.));
#1245=CARTESIAN_POINT('',(49.95,20.125,0.));
#1246=CARTESIAN_POINT('',(49.95,20.125,3.));
#1247=CARTESIAN_POINT('Origin',(81.8,33.,0.));
#1248=CARTESIAN_POINT('',(80.1,33.,3.));
#1249=CARTESIAN_POINT('Origin',(81.8,33.,3.));
#1250=CARTESIAN_POINT('',(80.1,33.,0.));
#1251=CARTESIAN_POINT('',(80.1,33.,0.));
#1252=CARTESIAN_POINT('Origin',(81.8,33.,0.));
#1253=CARTESIAN_POINT('Origin',(47.3,14.75,0.));
#1254=CARTESIAN_POINT('',(45.6,14.75,3.));
#1255=CARTESIAN_POINT('Origin',(47.3,14.75,3.));
#1256=CARTESIAN_POINT('',(45.6,14.75,0.));
#1257=CARTESIAN_POINT('',(45.6,14.75,0.));
#1258=CARTESIAN_POINT('Origin',(47.3,14.75,0.));
#1259=CARTESIAN_POINT('Origin',(38.6,14.75,0.));
#1260=CARTESIAN_POINT('',(36.9,14.75,3.));
#1261=CARTESIAN_POINT('Origin',(38.6,14.75,3.));
#1262=CARTESIAN_POINT('',(36.9,14.75,0.));
#1263=CARTESIAN_POINT('',(36.9,14.75,0.));
#1264=CARTESIAN_POINT('Origin',(38.6,14.75,0.));
#1265=CARTESIAN_POINT('Origin',(146.5,20.45,0.));
#1266=CARTESIAN_POINT('',(146.5,20.45,0.));
#1267=CARTESIAN_POINT('',(146.5,20.45,0.));
#1268=CARTESIAN_POINT('',(146.5,9.05,3.));
#1269=CARTESIAN_POINT('',(146.5,9.05,0.));
#1270=CARTESIAN_POINT('',(146.5,20.45,3.));
#1271=CARTESIAN_POINT('',(146.5,20.45,3.));
#1272=CARTESIAN_POINT('',(146.5,20.45,0.));
#1273=CARTESIAN_POINT('Origin',(137.1,20.45,0.));
#1274=CARTESIAN_POINT('',(137.1,20.45,0.));
#1275=CARTESIAN_POINT('',(137.1,20.45,0.));
#1276=CARTESIAN_POINT('',(137.1,20.45,3.));
#1277=CARTESIAN_POINT('',(137.1,20.45,3.));
#1278=CARTESIAN_POINT('',(137.1,20.45,0.));
#1279=CARTESIAN_POINT('Origin',(137.1,9.05,0.));
#1280=CARTESIAN_POINT('',(137.1,9.05,0.));
#1281=CARTESIAN_POINT('',(137.1,9.05,3.));
#1282=CARTESIAN_POINT('',(137.1,9.05,3.));
#1283=CARTESIAN_POINT('',(137.1,9.05,0.));
#1284=CARTESIAN_POINT('Origin',(146.5,9.05,0.));
#1285=CARTESIAN_POINT('',(146.5,9.05,3.));
#1286=CARTESIAN_POINT('Origin',(89.3,14.75,0.));
#1287=CARTESIAN_POINT('',(87.6,14.75,3.));
#1288=CARTESIAN_POINT('Origin',(89.3,14.75,3.));
#1289=CARTESIAN_POINT('',(87.6,14.75,0.));
#1290=CARTESIAN_POINT('',(87.6,14.75,0.));
#1291=CARTESIAN_POINT('Origin',(89.3,14.75,0.));
#1292=CARTESIAN_POINT('Origin',(80.6,14.75,0.));
#1293=CARTESIAN_POINT('',(78.9,14.75,3.));
#1294=CARTESIAN_POINT('Origin',(80.6,14.75,3.));
#1295=CARTESIAN_POINT('',(78.9,14.75,0.));
#1296=CARTESIAN_POINT('',(78.9,14.75,0.));
#1297=CARTESIAN_POINT('Origin',(80.6,14.75,0.));
#1298=CARTESIAN_POINT('Origin',(123.8,39.,0.));
#1299=CARTESIAN_POINT('',(123.8,28.5,0.));
#1300=CARTESIAN_POINT('',(123.8,39.,0.));
#1301=CARTESIAN_POINT('',(123.8,28.5,0.));
#1302=CARTESIAN_POINT('',(123.8,28.5,3.));
#1303=CARTESIAN_POINT('',(123.8,28.5,0.));
#1304=CARTESIAN_POINT('',(123.8,39.,3.));
#1305=CARTESIAN_POINT('',(123.8,28.5,3.));
#1306=CARTESIAN_POINT('',(123.8,39.,0.));
#1307=CARTESIAN_POINT('Origin',(167.,39.,0.));
#1308=CARTESIAN_POINT('',(167.,39.,0.));
#1309=CARTESIAN_POINT('',(0.,39.,0.));
#1310=CARTESIAN_POINT('',(167.,39.,3.));
#1311=CARTESIAN_POINT('',(0.,39.,3.));
#1312=CARTESIAN_POINT('',(167.,39.,0.));
#1313=CARTESIAN_POINT('Origin',(167.,0.,0.));
#1314=CARTESIAN_POINT('',(167.,0.,0.));
#1315=CARTESIAN_POINT('',(167.,39.,0.));
#1316=CARTESIAN_POINT('',(167.,0.,3.));
#1317=CARTESIAN_POINT('',(167.,39.,3.));
#1318=CARTESIAN_POINT('',(167.,0.,0.));
#1319=CARTESIAN_POINT('Origin',(0.,0.,0.));
#1320=CARTESIAN_POINT('',(0.,0.,0.));
#1321=CARTESIAN_POINT('',(167.,0.,0.));
#1322=CARTESIAN_POINT('',(0.,0.,3.));
#1323=CARTESIAN_POINT('',(167.,0.,3.));
#1324=CARTESIAN_POINT('',(0.,0.,0.));
#1325=CARTESIAN_POINT('Origin',(0.,39.,0.));
#1326=CARTESIAN_POINT('',(0.,39.,0.));
#1327=CARTESIAN_POINT('',(0.,0.,0.));
#1328=CARTESIAN_POINT('',(0.,39.,3.));
#1329=CARTESIAN_POINT('',(0.,0.,3.));
#1330=CARTESIAN_POINT('',(0.,39.,0.));
#1331=CARTESIAN_POINT('Origin',(109.8,39.,0.));
#1332=CARTESIAN_POINT('',(109.8,39.,0.));
#1333=CARTESIAN_POINT('',(0.,39.,0.));
#1334=CARTESIAN_POINT('',(109.8,39.,3.));
#1335=CARTESIAN_POINT('',(0.,39.,3.));
#1336=CARTESIAN_POINT('',(109.8,39.,0.));
#1337=CARTESIAN_POINT('Origin',(109.8,28.5,0.));
#1338=CARTESIAN_POINT('',(109.8,28.5,0.));
#1339=CARTESIAN_POINT('',(109.8,39.,0.));
#1340=CARTESIAN_POINT('',(109.8,28.5,3.));
#1341=CARTESIAN_POINT('',(109.8,39.,3.));
#1342=CARTESIAN_POINT('',(109.8,28.5,0.));
#1343=CARTESIAN_POINT('Origin',(123.8,28.5,0.));
#1344=CARTESIAN_POINT('',(109.8,28.5,0.));
#1345=CARTESIAN_POINT('',(109.8,28.5,3.));
#1346=CARTESIAN_POINT('Origin',(83.5,19.5,3.));
#1347=CARTESIAN_POINT('Origin',(83.5,19.5,0.));
#1348=UNCERTAINTY_MEASURE_WITH_UNIT(LENGTH_MEASURE(0.01),#1352,
'DISTANCE_ACCURACY_VALUE',
'Maximum model space distance between geometric entities at asserted c
onnectivities');
#1349=UNCERTAINTY_MEASURE_WITH_UNIT(LENGTH_MEASURE(0.01),#1352,
'DISTANCE_ACCURACY_VALUE',
'Maximum model space distance between geometric entities at asserted c
onnectivities');
#1350=(
GEOMETRIC_REPRESENTATION_CONTEXT(3)
GLOBAL_UNCERTAINTY_ASSIGNED_CONTEXT((#1348))
GLOBAL_UNIT_ASSIGNED_CONTEXT((#1352,#1354,#1355))
REPRESENTATION_CONTEXT('','3D')
);
#1351=(
GEOMETRIC_REPRESENTATION_CONTEXT(3)
GLOBAL_UNCERTAINTY_ASSIGNED_CONTEXT((#1349))
GLOBAL_UNIT_ASSIGNED_CONTEXT((#1352,#1354,#1355))
REPRESENTATION_CONTEXT('','3D')
);
#1352=(
LENGTH_UNIT()
NAMED_UNIT(*)
SI_UNIT(.MILLI.,.METRE.)
);
#1353=(
LENGTH_UNIT()
NAMED_UNIT(*)
SI_UNIT($,.METRE.)
);
#1354=(
NAMED_UNIT(*)
PLANE_ANGLE_UNIT()
SI_UNIT($,.RADIAN.)
);
#1355=(
NAMED_UNIT(*)
SI_UNIT($,.STERADIAN.)
SOLID_ANGLE_UNIT()
);
#1356=SHAPE_DEFINITION_REPRESENTATION(#1357,#1358);
#1357=PRODUCT_DEFINITION_SHAPE('',$,#1360);
#1358=SHAPE_REPRESENTATION('',(#854),#1350);
#1359=PRODUCT_DEFINITION_CONTEXT('part definition',#1364,'design');
#1360=PRODUCT_DEFINITION('2026-08-18-17-11-21-051','SPU IO Shield',#1361,
#1359);
#1361=PRODUCT_DEFINITION_FORMATION('',$,#1366);
#1362=PRODUCT_RELATED_PRODUCT_CATEGORY('SPU IO Shield','SPU IO Shield',
(#1366));
#1363=APPLICATION_PROTOCOL_DEFINITION('international standard',
'automotive_design',2009,#1364);
#1364=APPLICATION_CONTEXT(
'Core Data for Automotive Mechanical Design Process');
#1365=PRODUCT_CONTEXT('part definition',#1364,'mechanical');
#1366=PRODUCT('2026-08-18-17-11-21-051','SPU IO Shield',$,(#1365));
#1367=PRESENTATION_STYLE_ASSIGNMENT((#1368));
#1368=SURFACE_STYLE_USAGE(.BOTH.,#1369);
#1369=SURFACE_SIDE_STYLE('',(#1370));
#1370=SURFACE_STYLE_FILL_AREA(#1371);
#1371=FILL_AREA_STYLE('Steel - Satin',(#1372));
#1372=FILL_AREA_STYLE_COLOUR('Steel - Satin',#1373);
#1373=COLOUR_RGB('Steel - Satin',0.627450980392157,0.627450980392157,0.627450980392157);
ENDSEC;
END-ISO-10303-21;
