ISO-10303-21;
HEADER;
/* Generated by software containing ST-Developer
 * from STEP Tools, Inc. (www.steptools.com) 
 */

FILE_DESCRIPTION(
/* description */ (''),
/* implementation_level */ '2;1');

FILE_NAME(
/* name */ 'spu_bracket.step',
/* time_stamp */ '2026-08-26T10:05:54+02:00',
/* author */ (''),
/* organization */ (''),
/* preprocessor_version */ 'ST-DEVELOPER v20.1',
/* originating_system */ 'Autodesk Translation Framework v15.8.0.0',
/* authorisation */ '');

FILE_SCHEMA (('AUTOMOTIVE_DESIGN { 1 0 10303 214 3 1 1 }'));
ENDSEC;

DATA;
#10=MECHANICAL_DESIGN_GEOMETRIC_PRESENTATION_REPRESENTATION('',(#17),#1229);
#11=ITEM_DEFINED_TRANSFORMATION($,$,#741,#812);
#12=(
REPRESENTATION_RELATIONSHIP($,$,#1240,#1239)
REPRESENTATION_RELATIONSHIP_WITH_TRANSFORMATION(#11)
SHAPE_REPRESENTATION_RELATIONSHIP()
);
#13=CONTEXT_DEPENDENT_SHAPE_REPRESENTATION(#12,#1238);
#14=NEXT_ASSEMBLY_USAGE_OCCURRENCE('SPU Mounting bracket:1',
'SPU Mounting bracket:1','SPU Mounting bracket:1',#1242,#1243,
'SPU Mounting bracket:1');
#15=SHAPE_REPRESENTATION_RELATIONSHIP('SRR','None',#1240,#16);
#16=ADVANCED_BREP_SHAPE_REPRESENTATION('',(#18),#1228);
#17=STYLED_ITEM('',(#1254),#18);
#18=MANIFOLD_SOLID_BREP('Body1',#727);
#19=FACE_BOUND('',#103,.T.);
#20=FACE_BOUND('',#106,.T.);
#21=FACE_BOUND('',#109,.T.);
#22=FACE_BOUND('',#112,.T.);
#23=FACE_BOUND('',#142,.T.);
#24=FACE_BOUND('',#143,.T.);
#25=FACE_BOUND('',#144,.T.);
#26=FACE_BOUND('',#145,.T.);
#27=FACE_BOUND('',#146,.T.);
#28=FACE_BOUND('',#147,.T.);
#29=FACE_BOUND('',#148,.T.);
#30=FACE_BOUND('',#149,.T.);
#31=FACE_BOUND('',#150,.T.);
#32=FACE_BOUND('',#152,.T.);
#33=FACE_BOUND('',#153,.T.);
#34=FACE_BOUND('',#154,.T.);
#35=FACE_BOUND('',#155,.T.);
#36=FACE_BOUND('',#156,.T.);
#37=FACE_BOUND('',#157,.T.);
#38=FACE_BOUND('',#158,.T.);
#39=FACE_BOUND('',#159,.T.);
#40=FACE_BOUND('',#160,.T.);
#41=PLANE('',#745);
#42=PLANE('',#750);
#43=PLANE('',#755);
#44=PLANE('',#760);
#45=PLANE('',#779);
#46=PLANE('',#780);
#47=PLANE('',#781);
#48=PLANE('',#782);
#49=PLANE('',#789);
#50=PLANE('',#790);
#51=PLANE('',#791);
#52=PLANE('',#795);
#53=PLANE('',#796);
#54=PLANE('',#797);
#55=PLANE('',#801);
#56=PLANE('',#802);
#57=PLANE('',#803);
#58=PLANE('',#807);
#59=PLANE('',#808);
#60=PLANE('',#809);
#61=PLANE('',#810);
#62=PLANE('',#811);
#63=FACE_OUTER_BOUND('',#101,.T.);
#64=FACE_OUTER_BOUND('',#102,.T.);
#65=FACE_OUTER_BOUND('',#104,.T.);
#66=FACE_OUTER_BOUND('',#105,.T.);
#67=FACE_OUTER_BOUND('',#107,.T.);
#68=FACE_OUTER_BOUND('',#108,.T.);
#69=FACE_OUTER_BOUND('',#110,.T.);
#70=FACE_OUTER_BOUND('',#111,.T.);
#71=FACE_OUTER_BOUND('',#113,.T.);
#72=FACE_OUTER_BOUND('',#114,.T.);
#73=FACE_OUTER_BOUND('',#115,.T.);
#74=FACE_OUTER_BOUND('',#116,.T.);
#75=FACE_OUTER_BOUND('',#117,.T.);
#76=FACE_OUTER_BOUND('',#118,.T.);
#77=FACE_OUTER_BOUND('',#119,.T.);
#78=FACE_OUTER_BOUND('',#120,.T.);
#79=FACE_OUTER_BOUND('',#121,.T.);
#80=FACE_OUTER_BOUND('',#122,.T.);
#81=FACE_OUTER_BOUND('',#123,.T.);
#82=FACE_OUTER_BOUND('',#124,.T.);
#83=FACE_OUTER_BOUND('',#125,.T.);
#84=FACE_OUTER_BOUND('',#126,.T.);
#85=FACE_OUTER_BOUND('',#127,.T.);
#86=FACE_OUTER_BOUND('',#128,.T.);
#87=FACE_OUTER_BOUND('',#129,.T.);
#88=FACE_OUTER_BOUND('',#130,.T.);
#89=FACE_OUTER_BOUND('',#131,.T.);
#90=FACE_OUTER_BOUND('',#132,.T.);
#91=FACE_OUTER_BOUND('',#133,.T.);
#92=FACE_OUTER_BOUND('',#134,.T.);
#93=FACE_OUTER_BOUND('',#135,.T.);
#94=FACE_OUTER_BOUND('',#136,.T.);
#95=FACE_OUTER_BOUND('',#137,.T.);
#96=FACE_OUTER_BOUND('',#138,.T.);
#97=FACE_OUTER_BOUND('',#139,.T.);
#98=FACE_OUTER_BOUND('',#140,.T.);
#99=FACE_OUTER_BOUND('',#141,.T.);
#100=FACE_OUTER_BOUND('',#151,.T.);
#101=EDGE_LOOP('',(#481,#482,#483,#484));
#102=EDGE_LOOP('',(#485));
#103=EDGE_LOOP('',(#486));
#104=EDGE_LOOP('',(#487,#488,#489,#490));
#105=EDGE_LOOP('',(#491));
#106=EDGE_LOOP('',(#492));
#107=EDGE_LOOP('',(#493,#494,#495,#496));
#108=EDGE_LOOP('',(#497));
#109=EDGE_LOOP('',(#498));
#110=EDGE_LOOP('',(#499,#500,#501,#502));
#111=EDGE_LOOP('',(#503));
#112=EDGE_LOOP('',(#504));
#113=EDGE_LOOP('',(#505,#506,#507,#508));
#114=EDGE_LOOP('',(#509,#510,#511,#512));
#115=EDGE_LOOP('',(#513,#514,#515,#516));
#116=EDGE_LOOP('',(#517,#518,#519,#520));
#117=EDGE_LOOP('',(#521,#522,#523,#524));
#118=EDGE_LOOP('',(#525,#526,#527,#528));
#119=EDGE_LOOP('',(#529,#530,#531,#532));
#120=EDGE_LOOP('',(#533,#534,#535,#536));
#121=EDGE_LOOP('',(#537,#538,#539,#540));
#122=EDGE_LOOP('',(#541,#542,#543,#544));
#123=EDGE_LOOP('',(#545,#546,#547,#548));
#124=EDGE_LOOP('',(#549,#550,#551,#552));
#125=EDGE_LOOP('',(#553,#554,#555,#556));
#126=EDGE_LOOP('',(#557,#558,#559,#560));
#127=EDGE_LOOP('',(#561,#562,#563,#564));
#128=EDGE_LOOP('',(#565,#566,#567,#568));
#129=EDGE_LOOP('',(#569,#570,#571,#572));
#130=EDGE_LOOP('',(#573,#574,#575,#576));
#131=EDGE_LOOP('',(#577,#578,#579,#580));
#132=EDGE_LOOP('',(#581,#582,#583,#584));
#133=EDGE_LOOP('',(#585,#586,#587,#588));
#134=EDGE_LOOP('',(#589,#590,#591,#592));
#135=EDGE_LOOP('',(#593,#594,#595,#596));
#136=EDGE_LOOP('',(#597,#598,#599,#600));
#137=EDGE_LOOP('',(#601,#602,#603,#604));
#138=EDGE_LOOP('',(#605,#606,#607,#608));
#139=EDGE_LOOP('',(#609,#610,#611,#612));
#140=EDGE_LOOP('',(#613,#614,#615,#616));
#141=EDGE_LOOP('',(#617,#618,#619,#620,#621,#622,#623,#624,#625,#626,#627,
#628,#629,#630,#631,#632));
#142=EDGE_LOOP('',(#633));
#143=EDGE_LOOP('',(#634));
#144=EDGE_LOOP('',(#635));
#145=EDGE_LOOP('',(#636,#637,#638,#639));
#146=EDGE_LOOP('',(#640));
#147=EDGE_LOOP('',(#641));
#148=EDGE_LOOP('',(#642));
#149=EDGE_LOOP('',(#643));
#150=EDGE_LOOP('',(#644));
#151=EDGE_LOOP('',(#645,#646,#647,#648,#649,#650,#651,#652,#653,#654,#655,
#656,#657,#658,#659,#660));
#152=EDGE_LOOP('',(#661));
#153=EDGE_LOOP('',(#662,#663,#664,#665));
#154=EDGE_LOOP('',(#666));
#155=EDGE_LOOP('',(#667));
#156=EDGE_LOOP('',(#668));
#157=EDGE_LOOP('',(#669));
#158=EDGE_LOOP('',(#670));
#159=EDGE_LOOP('',(#671));
#160=EDGE_LOOP('',(#672));
#161=LINE('',#1029,#225);
#162=LINE('',#1038,#226);
#163=LINE('',#1047,#227);
#164=LINE('',#1056,#228);
#165=LINE('',#1063,#229);
#166=LINE('',#1067,#230);
#167=LINE('',#1073,#231);
#168=LINE('',#1077,#232);
#169=LINE('',#1083,#233);
#170=LINE('',#1087,#234);
#171=LINE('',#1093,#235);
#172=LINE('',#1098,#236);
#173=LINE('',#1100,#237);
#174=LINE('',#1102,#238);
#175=LINE('',#1103,#239);
#176=LINE('',#1106,#240);
#177=LINE('',#1108,#241);
#178=LINE('',#1109,#242);
#179=LINE('',#1112,#243);
#180=LINE('',#1114,#244);
#181=LINE('',#1115,#245);
#182=LINE('',#1117,#246);
#183=LINE('',#1118,#247);
#184=LINE('',#1123,#248);
#185=LINE('',#1130,#249);
#186=LINE('',#1133,#250);
#187=LINE('',#1136,#251);
#188=LINE('',#1138,#252);
#189=LINE('',#1139,#253);
#190=LINE('',#1142,#254);
#191=LINE('',#1144,#255);
#192=LINE('',#1145,#256);
#193=LINE('',#1148,#257);
#194=LINE('',#1150,#258);
#195=LINE('',#1151,#259);
#196=LINE('',#1157,#260);
#197=LINE('',#1160,#261);
#198=LINE('',#1162,#262);
#199=LINE('',#1163,#263);
#200=LINE('',#1166,#264);
#201=LINE('',#1168,#265);
#202=LINE('',#1169,#266);
#203=LINE('',#1172,#267);
#204=LINE('',#1174,#268);
#205=LINE('',#1175,#269);
#206=LINE('',#1181,#270);
#207=LINE('',#1184,#271);
#208=LINE('',#1186,#272);
#209=LINE('',#1187,#273);
#210=LINE('',#1190,#274);
#211=LINE('',#1192,#275);
#212=LINE('',#1193,#276);
#213=LINE('',#1196,#277);
#214=LINE('',#1198,#278);
#215=LINE('',#1199,#279);
#216=LINE('',#1205,#280);
#217=LINE('',#1208,#281);
#218=LINE('',#1210,#282);
#219=LINE('',#1211,#283);
#220=LINE('',#1214,#284);
#221=LINE('',#1216,#285);
#222=LINE('',#1217,#286);
#223=LINE('',#1219,#287);
#224=LINE('',#1220,#288);
#225=VECTOR('',#821,3.00000000000001);
#226=VECTOR('',#832,3.00000000000001);
#227=VECTOR('',#843,3.);
#228=VECTOR('',#854,3.);
#229=VECTOR('',#863,1.6);
#230=VECTOR('',#868,1.6);
#231=VECTOR('',#875,1.6);
#232=VECTOR('',#880,1.6);
#233=VECTOR('',#887,1.6);
#234=VECTOR('',#892,1.6);
#235=VECTOR('',#899,1.6);
#236=VECTOR('',#904,10.);
#237=VECTOR('',#905,10.);
#238=VECTOR('',#906,10.);
#239=VECTOR('',#907,10.);
#240=VECTOR('',#910,10.);
#241=VECTOR('',#911,10.);
#242=VECTOR('',#912,10.);
#243=VECTOR('',#915,10.);
#244=VECTOR('',#916,10.);
#245=VECTOR('',#917,10.);
#246=VECTOR('',#920,10.);
#247=VECTOR('',#921,10.);
#248=VECTOR('',#926,1.6);
#249=VECTOR('',#933,10.);
#250=VECTOR('',#936,10.);
#251=VECTOR('',#939,10.);
#252=VECTOR('',#940,10.);
#253=VECTOR('',#941,10.);
#254=VECTOR('',#944,10.);
#255=VECTOR('',#945,10.);
#256=VECTOR('',#946,10.);
#257=VECTOR('',#949,9.99999999999999);
#258=VECTOR('',#950,9.99999999999999);
#259=VECTOR('',#951,10.);
#260=VECTOR('',#958,10.);
#261=VECTOR('',#961,9.99999999999999);
#262=VECTOR('',#962,9.99999999999999);
#263=VECTOR('',#963,10.);
#264=VECTOR('',#966,10.);
#265=VECTOR('',#967,10.);
#266=VECTOR('',#968,10.);
#267=VECTOR('',#971,10.);
#268=VECTOR('',#972,10.);
#269=VECTOR('',#973,10.);
#270=VECTOR('',#980,10.);
#271=VECTOR('',#983,10.);
#272=VECTOR('',#984,10.);
#273=VECTOR('',#985,10.);
#274=VECTOR('',#988,10.);
#275=VECTOR('',#989,10.);
#276=VECTOR('',#990,10.);
#277=VECTOR('',#993,10.);
#278=VECTOR('',#994,10.);
#279=VECTOR('',#995,10.);
#280=VECTOR('',#1002,10.);
#281=VECTOR('',#1005,10.);
#282=VECTOR('',#1006,10.);
#283=VECTOR('',#1007,10.);
#284=VECTOR('',#1010,10.);
#285=VECTOR('',#1011,10.);
#286=VECTOR('',#1012,10.);
#287=VECTOR('',#1015,10.);
#288=VECTOR('',#1016,10.);
#289=CIRCLE('',#743,3.00000000000001);
#290=CIRCLE('',#744,3.00000000000001);
#291=CIRCLE('',#746,1.6);
#292=CIRCLE('',#748,3.00000000000001);
#293=CIRCLE('',#749,3.00000000000001);
#294=CIRCLE('',#751,1.6);
#295=CIRCLE('',#753,3.);
#296=CIRCLE('',#754,3.);
#297=CIRCLE('',#756,1.6);
#298=CIRCLE('',#758,3.);
#299=CIRCLE('',#759,3.);
#300=CIRCLE('',#761,1.6);
#301=CIRCLE('',#763,1.6);
#302=CIRCLE('',#765,1.6);
#303=CIRCLE('',#767,1.6);
#304=CIRCLE('',#768,1.6);
#305=CIRCLE('',#770,1.6);
#306=CIRCLE('',#772,1.6);
#307=CIRCLE('',#773,1.6);
#308=CIRCLE('',#775,1.6);
#309=CIRCLE('',#777,1.6);
#310=CIRCLE('',#778,1.6);
#311=CIRCLE('',#784,1.6);
#312=CIRCLE('',#785,1.6);
#313=CIRCLE('',#787,5.);
#314=CIRCLE('',#788,5.);
#315=CIRCLE('',#793,4.99999999999998);
#316=CIRCLE('',#794,4.99999999999998);
#317=CIRCLE('',#799,4.99999999999998);
#318=CIRCLE('',#800,4.99999999999998);
#319=CIRCLE('',#805,4.99999999999996);
#320=CIRCLE('',#806,4.99999999999996);
#321=VERTEX_POINT('',#1026);
#322=VERTEX_POINT('',#1028);
#323=VERTEX_POINT('',#1032);
#324=VERTEX_POINT('',#1035);
#325=VERTEX_POINT('',#1037);
#326=VERTEX_POINT('',#1041);
#327=VERTEX_POINT('',#1044);
#328=VERTEX_POINT('',#1046);
#329=VERTEX_POINT('',#1050);
#330=VERTEX_POINT('',#1053);
#331=VERTEX_POINT('',#1055);
#332=VERTEX_POINT('',#1059);
#333=VERTEX_POINT('',#1062);
#334=VERTEX_POINT('',#1066);
#335=VERTEX_POINT('',#1070);
#336=VERTEX_POINT('',#1072);
#337=VERTEX_POINT('',#1076);
#338=VERTEX_POINT('',#1080);
#339=VERTEX_POINT('',#1082);
#340=VERTEX_POINT('',#1086);
#341=VERTEX_POINT('',#1090);
#342=VERTEX_POINT('',#1092);
#343=VERTEX_POINT('',#1096);
#344=VERTEX_POINT('',#1097);
#345=VERTEX_POINT('',#1099);
#346=VERTEX_POINT('',#1101);
#347=VERTEX_POINT('',#1105);
#348=VERTEX_POINT('',#1107);
#349=VERTEX_POINT('',#1111);
#350=VERTEX_POINT('',#1113);
#351=VERTEX_POINT('',#1120);
#352=VERTEX_POINT('',#1122);
#353=VERTEX_POINT('',#1126);
#354=VERTEX_POINT('',#1127);
#355=VERTEX_POINT('',#1129);
#356=VERTEX_POINT('',#1131);
#357=VERTEX_POINT('',#1135);
#358=VERTEX_POINT('',#1137);
#359=VERTEX_POINT('',#1141);
#360=VERTEX_POINT('',#1143);
#361=VERTEX_POINT('',#1147);
#362=VERTEX_POINT('',#1149);
#363=VERTEX_POINT('',#1153);
#364=VERTEX_POINT('',#1155);
#365=VERTEX_POINT('',#1159);
#366=VERTEX_POINT('',#1161);
#367=VERTEX_POINT('',#1165);
#368=VERTEX_POINT('',#1167);
#369=VERTEX_POINT('',#1171);
#370=VERTEX_POINT('',#1173);
#371=VERTEX_POINT('',#1177);
#372=VERTEX_POINT('',#1179);
#373=VERTEX_POINT('',#1183);
#374=VERTEX_POINT('',#1185);
#375=VERTEX_POINT('',#1189);
#376=VERTEX_POINT('',#1191);
#377=VERTEX_POINT('',#1195);
#378=VERTEX_POINT('',#1197);
#379=VERTEX_POINT('',#1201);
#380=VERTEX_POINT('',#1203);
#381=VERTEX_POINT('',#1207);
#382=VERTEX_POINT('',#1209);
#383=VERTEX_POINT('',#1213);
#384=VERTEX_POINT('',#1215);
#385=EDGE_CURVE('',#321,#321,#289,.T.);
#386=EDGE_CURVE('',#321,#322,#161,.T.);
#387=EDGE_CURVE('',#322,#322,#290,.T.);
#388=EDGE_CURVE('',#323,#323,#291,.T.);
#389=EDGE_CURVE('',#324,#324,#292,.T.);
#390=EDGE_CURVE('',#324,#325,#162,.T.);
#391=EDGE_CURVE('',#325,#325,#293,.T.);
#392=EDGE_CURVE('',#326,#326,#294,.T.);
#393=EDGE_CURVE('',#327,#327,#295,.T.);
#394=EDGE_CURVE('',#327,#328,#163,.T.);
#395=EDGE_CURVE('',#328,#328,#296,.T.);
#396=EDGE_CURVE('',#329,#329,#297,.T.);
#397=EDGE_CURVE('',#330,#330,#298,.T.);
#398=EDGE_CURVE('',#330,#331,#164,.T.);
#399=EDGE_CURVE('',#331,#331,#299,.T.);
#400=EDGE_CURVE('',#332,#332,#300,.T.);
#401=EDGE_CURVE('',#332,#333,#165,.T.);
#402=EDGE_CURVE('',#333,#333,#301,.T.);
#403=EDGE_CURVE('',#326,#334,#166,.T.);
#404=EDGE_CURVE('',#334,#334,#302,.T.);
#405=EDGE_CURVE('',#335,#335,#303,.T.);
#406=EDGE_CURVE('',#335,#336,#167,.T.);
#407=EDGE_CURVE('',#336,#336,#304,.T.);
#408=EDGE_CURVE('',#323,#337,#168,.T.);
#409=EDGE_CURVE('',#337,#337,#305,.T.);
#410=EDGE_CURVE('',#338,#338,#306,.T.);
#411=EDGE_CURVE('',#338,#339,#169,.T.);
#412=EDGE_CURVE('',#339,#339,#307,.T.);
#413=EDGE_CURVE('',#329,#340,#170,.T.);
#414=EDGE_CURVE('',#340,#340,#308,.T.);
#415=EDGE_CURVE('',#341,#341,#309,.T.);
#416=EDGE_CURVE('',#341,#342,#171,.T.);
#417=EDGE_CURVE('',#342,#342,#310,.T.);
#418=EDGE_CURVE('',#343,#344,#172,.T.);
#419=EDGE_CURVE('',#343,#345,#173,.T.);
#420=EDGE_CURVE('',#346,#345,#174,.T.);
#421=EDGE_CURVE('',#344,#346,#175,.T.);
#422=EDGE_CURVE('',#344,#347,#176,.T.);
#423=EDGE_CURVE('',#348,#346,#177,.T.);
#424=EDGE_CURVE('',#347,#348,#178,.T.);
#425=EDGE_CURVE('',#347,#349,#179,.T.);
#426=EDGE_CURVE('',#350,#348,#180,.T.);
#427=EDGE_CURVE('',#349,#350,#181,.T.);
#428=EDGE_CURVE('',#349,#343,#182,.T.);
#429=EDGE_CURVE('',#345,#350,#183,.T.);
#430=EDGE_CURVE('',#351,#351,#311,.T.);
#431=EDGE_CURVE('',#351,#352,#184,.T.);
#432=EDGE_CURVE('',#352,#352,#312,.T.);
#433=EDGE_CURVE('',#353,#354,#313,.T.);
#434=EDGE_CURVE('',#353,#355,#185,.T.);
#435=EDGE_CURVE('',#356,#355,#314,.T.);
#436=EDGE_CURVE('',#354,#356,#186,.T.);
#437=EDGE_CURVE('',#354,#357,#187,.T.);
#438=EDGE_CURVE('',#358,#356,#188,.T.);
#439=EDGE_CURVE('',#357,#358,#189,.T.);
#440=EDGE_CURVE('',#357,#359,#190,.T.);
#441=EDGE_CURVE('',#360,#358,#191,.T.);
#442=EDGE_CURVE('',#359,#360,#192,.T.);
#443=EDGE_CURVE('',#359,#361,#193,.T.);
#444=EDGE_CURVE('',#362,#360,#194,.T.);
#445=EDGE_CURVE('',#361,#362,#195,.T.);
#446=EDGE_CURVE('',#361,#363,#315,.T.);
#447=EDGE_CURVE('',#364,#362,#316,.T.);
#448=EDGE_CURVE('',#363,#364,#196,.T.);
#449=EDGE_CURVE('',#363,#365,#197,.T.);
#450=EDGE_CURVE('',#366,#364,#198,.T.);
#451=EDGE_CURVE('',#365,#366,#199,.T.);
#452=EDGE_CURVE('',#365,#367,#200,.T.);
#453=EDGE_CURVE('',#368,#366,#201,.T.);
#454=EDGE_CURVE('',#367,#368,#202,.T.);
#455=EDGE_CURVE('',#367,#369,#203,.T.);
#456=EDGE_CURVE('',#370,#368,#204,.T.);
#457=EDGE_CURVE('',#369,#370,#205,.T.);
#458=EDGE_CURVE('',#369,#371,#317,.T.);
#459=EDGE_CURVE('',#372,#370,#318,.T.);
#460=EDGE_CURVE('',#371,#372,#206,.T.);
#461=EDGE_CURVE('',#371,#373,#207,.T.);
#462=EDGE_CURVE('',#374,#372,#208,.T.);
#463=EDGE_CURVE('',#373,#374,#209,.T.);
#464=EDGE_CURVE('',#373,#375,#210,.T.);
#465=EDGE_CURVE('',#376,#374,#211,.T.);
#466=EDGE_CURVE('',#375,#376,#212,.T.);
#467=EDGE_CURVE('',#375,#377,#213,.T.);
#468=EDGE_CURVE('',#378,#376,#214,.T.);
#469=EDGE_CURVE('',#377,#378,#215,.T.);
#470=EDGE_CURVE('',#377,#379,#319,.T.);
#471=EDGE_CURVE('',#380,#378,#320,.T.);
#472=EDGE_CURVE('',#379,#380,#216,.T.);
#473=EDGE_CURVE('',#379,#381,#217,.T.);
#474=EDGE_CURVE('',#382,#380,#218,.T.);
#475=EDGE_CURVE('',#381,#382,#219,.T.);
#476=EDGE_CURVE('',#383,#381,#220,.T.);
#477=EDGE_CURVE('',#384,#382,#221,.T.);
#478=EDGE_CURVE('',#383,#384,#222,.T.);
#479=EDGE_CURVE('',#383,#353,#223,.T.);
#480=EDGE_CURVE('',#355,#384,#224,.T.);
#481=ORIENTED_EDGE('',*,*,#385,.F.);
#482=ORIENTED_EDGE('',*,*,#386,.T.);
#483=ORIENTED_EDGE('',*,*,#387,.F.);
#484=ORIENTED_EDGE('',*,*,#386,.F.);
#485=ORIENTED_EDGE('',*,*,#385,.T.);
#486=ORIENTED_EDGE('',*,*,#388,.T.);
#487=ORIENTED_EDGE('',*,*,#389,.F.);
#488=ORIENTED_EDGE('',*,*,#390,.T.);
#489=ORIENTED_EDGE('',*,*,#391,.F.);
#490=ORIENTED_EDGE('',*,*,#390,.F.);
#491=ORIENTED_EDGE('',*,*,#389,.T.);
#492=ORIENTED_EDGE('',*,*,#392,.T.);
#493=ORIENTED_EDGE('',*,*,#393,.F.);
#494=ORIENTED_EDGE('',*,*,#394,.T.);
#495=ORIENTED_EDGE('',*,*,#395,.F.);
#496=ORIENTED_EDGE('',*,*,#394,.F.);
#497=ORIENTED_EDGE('',*,*,#393,.T.);
#498=ORIENTED_EDGE('',*,*,#396,.T.);
#499=ORIENTED_EDGE('',*,*,#397,.F.);
#500=ORIENTED_EDGE('',*,*,#398,.T.);
#501=ORIENTED_EDGE('',*,*,#399,.F.);
#502=ORIENTED_EDGE('',*,*,#398,.F.);
#503=ORIENTED_EDGE('',*,*,#397,.T.);
#504=ORIENTED_EDGE('',*,*,#400,.T.);
#505=ORIENTED_EDGE('',*,*,#400,.F.);
#506=ORIENTED_EDGE('',*,*,#401,.T.);
#507=ORIENTED_EDGE('',*,*,#402,.F.);
#508=ORIENTED_EDGE('',*,*,#401,.F.);
#509=ORIENTED_EDGE('',*,*,#392,.F.);
#510=ORIENTED_EDGE('',*,*,#403,.T.);
#511=ORIENTED_EDGE('',*,*,#404,.F.);
#512=ORIENTED_EDGE('',*,*,#403,.F.);
#513=ORIENTED_EDGE('',*,*,#405,.F.);
#514=ORIENTED_EDGE('',*,*,#406,.T.);
#515=ORIENTED_EDGE('',*,*,#407,.F.);
#516=ORIENTED_EDGE('',*,*,#406,.F.);
#517=ORIENTED_EDGE('',*,*,#388,.F.);
#518=ORIENTED_EDGE('',*,*,#408,.T.);
#519=ORIENTED_EDGE('',*,*,#409,.F.);
#520=ORIENTED_EDGE('',*,*,#408,.F.);
#521=ORIENTED_EDGE('',*,*,#410,.F.);
#522=ORIENTED_EDGE('',*,*,#411,.T.);
#523=ORIENTED_EDGE('',*,*,#412,.F.);
#524=ORIENTED_EDGE('',*,*,#411,.F.);
#525=ORIENTED_EDGE('',*,*,#396,.F.);
#526=ORIENTED_EDGE('',*,*,#413,.T.);
#527=ORIENTED_EDGE('',*,*,#414,.F.);
#528=ORIENTED_EDGE('',*,*,#413,.F.);
#529=ORIENTED_EDGE('',*,*,#415,.F.);
#530=ORIENTED_EDGE('',*,*,#416,.T.);
#531=ORIENTED_EDGE('',*,*,#417,.F.);
#532=ORIENTED_EDGE('',*,*,#416,.F.);
#533=ORIENTED_EDGE('',*,*,#418,.F.);
#534=ORIENTED_EDGE('',*,*,#419,.T.);
#535=ORIENTED_EDGE('',*,*,#420,.F.);
#536=ORIENTED_EDGE('',*,*,#421,.F.);
#537=ORIENTED_EDGE('',*,*,#422,.F.);
#538=ORIENTED_EDGE('',*,*,#421,.T.);
#539=ORIENTED_EDGE('',*,*,#423,.F.);
#540=ORIENTED_EDGE('',*,*,#424,.F.);
#541=ORIENTED_EDGE('',*,*,#425,.F.);
#542=ORIENTED_EDGE('',*,*,#424,.T.);
#543=ORIENTED_EDGE('',*,*,#426,.F.);
#544=ORIENTED_EDGE('',*,*,#427,.F.);
#545=ORIENTED_EDGE('',*,*,#428,.F.);
#546=ORIENTED_EDGE('',*,*,#427,.T.);
#547=ORIENTED_EDGE('',*,*,#429,.F.);
#548=ORIENTED_EDGE('',*,*,#419,.F.);
#549=ORIENTED_EDGE('',*,*,#430,.F.);
#550=ORIENTED_EDGE('',*,*,#431,.T.);
#551=ORIENTED_EDGE('',*,*,#432,.F.);
#552=ORIENTED_EDGE('',*,*,#431,.F.);
#553=ORIENTED_EDGE('',*,*,#433,.F.);
#554=ORIENTED_EDGE('',*,*,#434,.T.);
#555=ORIENTED_EDGE('',*,*,#435,.F.);
#556=ORIENTED_EDGE('',*,*,#436,.F.);
#557=ORIENTED_EDGE('',*,*,#437,.F.);
#558=ORIENTED_EDGE('',*,*,#436,.T.);
#559=ORIENTED_EDGE('',*,*,#438,.F.);
#560=ORIENTED_EDGE('',*,*,#439,.F.);
#561=ORIENTED_EDGE('',*,*,#440,.F.);
#562=ORIENTED_EDGE('',*,*,#439,.T.);
#563=ORIENTED_EDGE('',*,*,#441,.F.);
#564=ORIENTED_EDGE('',*,*,#442,.F.);
#565=ORIENTED_EDGE('',*,*,#443,.F.);
#566=ORIENTED_EDGE('',*,*,#442,.T.);
#567=ORIENTED_EDGE('',*,*,#444,.F.);
#568=ORIENTED_EDGE('',*,*,#445,.F.);
#569=ORIENTED_EDGE('',*,*,#446,.F.);
#570=ORIENTED_EDGE('',*,*,#445,.T.);
#571=ORIENTED_EDGE('',*,*,#447,.F.);
#572=ORIENTED_EDGE('',*,*,#448,.F.);
#573=ORIENTED_EDGE('',*,*,#449,.F.);
#574=ORIENTED_EDGE('',*,*,#448,.T.);
#575=ORIENTED_EDGE('',*,*,#450,.F.);
#576=ORIENTED_EDGE('',*,*,#451,.F.);
#577=ORIENTED_EDGE('',*,*,#452,.F.);
#578=ORIENTED_EDGE('',*,*,#451,.T.);
#579=ORIENTED_EDGE('',*,*,#453,.F.);
#580=ORIENTED_EDGE('',*,*,#454,.F.);
#581=ORIENTED_EDGE('',*,*,#455,.F.);
#582=ORIENTED_EDGE('',*,*,#454,.T.);
#583=ORIENTED_EDGE('',*,*,#456,.F.);
#584=ORIENTED_EDGE('',*,*,#457,.F.);
#585=ORIENTED_EDGE('',*,*,#458,.F.);
#586=ORIENTED_EDGE('',*,*,#457,.T.);
#587=ORIENTED_EDGE('',*,*,#459,.F.);
#588=ORIENTED_EDGE('',*,*,#460,.F.);
#589=ORIENTED_EDGE('',*,*,#461,.F.);
#590=ORIENTED_EDGE('',*,*,#460,.T.);
#591=ORIENTED_EDGE('',*,*,#462,.F.);
#592=ORIENTED_EDGE('',*,*,#463,.F.);
#593=ORIENTED_EDGE('',*,*,#464,.F.);
#594=ORIENTED_EDGE('',*,*,#463,.T.);
#595=ORIENTED_EDGE('',*,*,#465,.F.);
#596=ORIENTED_EDGE('',*,*,#466,.F.);
#597=ORIENTED_EDGE('',*,*,#467,.F.);
#598=ORIENTED_EDGE('',*,*,#466,.T.);
#599=ORIENTED_EDGE('',*,*,#468,.F.);
#600=ORIENTED_EDGE('',*,*,#469,.F.);
#601=ORIENTED_EDGE('',*,*,#470,.F.);
#602=ORIENTED_EDGE('',*,*,#469,.T.);
#603=ORIENTED_EDGE('',*,*,#471,.F.);
#604=ORIENTED_EDGE('',*,*,#472,.F.);
#605=ORIENTED_EDGE('',*,*,#473,.F.);
#606=ORIENTED_EDGE('',*,*,#472,.T.);
#607=ORIENTED_EDGE('',*,*,#474,.F.);
#608=ORIENTED_EDGE('',*,*,#475,.F.);
#609=ORIENTED_EDGE('',*,*,#476,.T.);
#610=ORIENTED_EDGE('',*,*,#475,.T.);
#611=ORIENTED_EDGE('',*,*,#477,.F.);
#612=ORIENTED_EDGE('',*,*,#478,.F.);
#613=ORIENTED_EDGE('',*,*,#479,.F.);
#614=ORIENTED_EDGE('',*,*,#478,.T.);
#615=ORIENTED_EDGE('',*,*,#480,.F.);
#616=ORIENTED_EDGE('',*,*,#434,.F.);
#617=ORIENTED_EDGE('',*,*,#479,.T.);
#618=ORIENTED_EDGE('',*,*,#433,.T.);
#619=ORIENTED_EDGE('',*,*,#437,.T.);
#620=ORIENTED_EDGE('',*,*,#440,.T.);
#621=ORIENTED_EDGE('',*,*,#443,.T.);
#622=ORIENTED_EDGE('',*,*,#446,.T.);
#623=ORIENTED_EDGE('',*,*,#449,.T.);
#624=ORIENTED_EDGE('',*,*,#452,.T.);
#625=ORIENTED_EDGE('',*,*,#455,.T.);
#626=ORIENTED_EDGE('',*,*,#458,.T.);
#627=ORIENTED_EDGE('',*,*,#461,.T.);
#628=ORIENTED_EDGE('',*,*,#464,.T.);
#629=ORIENTED_EDGE('',*,*,#467,.T.);
#630=ORIENTED_EDGE('',*,*,#470,.T.);
#631=ORIENTED_EDGE('',*,*,#473,.T.);
#632=ORIENTED_EDGE('',*,*,#476,.F.);
#633=ORIENTED_EDGE('',*,*,#391,.T.);
#634=ORIENTED_EDGE('',*,*,#399,.T.);
#635=ORIENTED_EDGE('',*,*,#430,.T.);
#636=ORIENTED_EDGE('',*,*,#428,.T.);
#637=ORIENTED_EDGE('',*,*,#418,.T.);
#638=ORIENTED_EDGE('',*,*,#422,.T.);
#639=ORIENTED_EDGE('',*,*,#425,.T.);
#640=ORIENTED_EDGE('',*,*,#415,.T.);
#641=ORIENTED_EDGE('',*,*,#410,.T.);
#642=ORIENTED_EDGE('',*,*,#405,.T.);
#643=ORIENTED_EDGE('',*,*,#395,.T.);
#644=ORIENTED_EDGE('',*,*,#387,.T.);
#645=ORIENTED_EDGE('',*,*,#480,.T.);
#646=ORIENTED_EDGE('',*,*,#477,.T.);
#647=ORIENTED_EDGE('',*,*,#474,.T.);
#648=ORIENTED_EDGE('',*,*,#471,.T.);
#649=ORIENTED_EDGE('',*,*,#468,.T.);
#650=ORIENTED_EDGE('',*,*,#465,.T.);
#651=ORIENTED_EDGE('',*,*,#462,.T.);
#652=ORIENTED_EDGE('',*,*,#459,.T.);
#653=ORIENTED_EDGE('',*,*,#456,.T.);
#654=ORIENTED_EDGE('',*,*,#453,.T.);
#655=ORIENTED_EDGE('',*,*,#450,.T.);
#656=ORIENTED_EDGE('',*,*,#447,.T.);
#657=ORIENTED_EDGE('',*,*,#444,.T.);
#658=ORIENTED_EDGE('',*,*,#441,.T.);
#659=ORIENTED_EDGE('',*,*,#438,.T.);
#660=ORIENTED_EDGE('',*,*,#435,.T.);
#661=ORIENTED_EDGE('',*,*,#432,.T.);
#662=ORIENTED_EDGE('',*,*,#429,.T.);
#663=ORIENTED_EDGE('',*,*,#426,.T.);
#664=ORIENTED_EDGE('',*,*,#423,.T.);
#665=ORIENTED_EDGE('',*,*,#420,.T.);
#666=ORIENTED_EDGE('',*,*,#417,.T.);
#667=ORIENTED_EDGE('',*,*,#414,.T.);
#668=ORIENTED_EDGE('',*,*,#412,.T.);
#669=ORIENTED_EDGE('',*,*,#409,.T.);
#670=ORIENTED_EDGE('',*,*,#407,.T.);
#671=ORIENTED_EDGE('',*,*,#404,.T.);
#672=ORIENTED_EDGE('',*,*,#402,.T.);
#673=CYLINDRICAL_SURFACE('',#742,3.00000000000001);
#674=CYLINDRICAL_SURFACE('',#747,3.00000000000001);
#675=CYLINDRICAL_SURFACE('',#752,3.);
#676=CYLINDRICAL_SURFACE('',#757,3.);
#677=CYLINDRICAL_SURFACE('',#762,1.6);
#678=CYLINDRICAL_SURFACE('',#764,1.6);
#679=CYLINDRICAL_SURFACE('',#766,1.6);
#680=CYLINDRICAL_SURFACE('',#769,1.6);
#681=CYLINDRICAL_SURFACE('',#771,1.6);
#682=CYLINDRICAL_SURFACE('',#774,1.6);
#683=CYLINDRICAL_SURFACE('',#776,1.6);
#684=CYLINDRICAL_SURFACE('',#783,1.6);
#685=CYLINDRICAL_SURFACE('',#786,5.);
#686=CYLINDRICAL_SURFACE('',#792,4.99999999999998);
#687=CYLINDRICAL_SURFACE('',#798,4.99999999999998);
#688=CYLINDRICAL_SURFACE('',#804,4.99999999999996);
#689=ADVANCED_FACE('',(#63),#673,.T.);
#690=ADVANCED_FACE('',(#64,#19),#41,.T.);
#691=ADVANCED_FACE('',(#65),#674,.T.);
#692=ADVANCED_FACE('',(#66,#20),#42,.T.);
#693=ADVANCED_FACE('',(#67),#675,.T.);
#694=ADVANCED_FACE('',(#68,#21),#43,.T.);
#695=ADVANCED_FACE('',(#69),#676,.T.);
#696=ADVANCED_FACE('',(#70,#22),#44,.T.);
#697=ADVANCED_FACE('',(#71),#677,.F.);
#698=ADVANCED_FACE('',(#72),#678,.F.);
#699=ADVANCED_FACE('',(#73),#679,.F.);
#700=ADVANCED_FACE('',(#74),#680,.F.);
#701=ADVANCED_FACE('',(#75),#681,.F.);
#702=ADVANCED_FACE('',(#76),#682,.F.);
#703=ADVANCED_FACE('',(#77),#683,.F.);
#704=ADVANCED_FACE('',(#78),#45,.T.);
#705=ADVANCED_FACE('',(#79),#46,.T.);
#706=ADVANCED_FACE('',(#80),#47,.T.);
#707=ADVANCED_FACE('',(#81),#48,.T.);
#708=ADVANCED_FACE('',(#82),#684,.F.);
#709=ADVANCED_FACE('',(#83),#685,.T.);
#710=ADVANCED_FACE('',(#84),#49,.T.);
#711=ADVANCED_FACE('',(#85),#50,.T.);
#712=ADVANCED_FACE('',(#86),#51,.T.);
#713=ADVANCED_FACE('',(#87),#686,.T.);
#714=ADVANCED_FACE('',(#88),#52,.T.);
#715=ADVANCED_FACE('',(#89),#53,.T.);
#716=ADVANCED_FACE('',(#90),#54,.T.);
#717=ADVANCED_FACE('',(#91),#687,.T.);
#718=ADVANCED_FACE('',(#92),#55,.T.);
#719=ADVANCED_FACE('',(#93),#56,.T.);
#720=ADVANCED_FACE('',(#94),#57,.T.);
#721=ADVANCED_FACE('',(#95),#688,.T.);
#722=ADVANCED_FACE('',(#96),#58,.T.);
#723=ADVANCED_FACE('',(#97),#59,.T.);
#724=ADVANCED_FACE('',(#98),#60,.T.);
#725=ADVANCED_FACE('',(#99,#23,#24,#25,#26,#27,#28,#29,#30,#31),#61,.T.);
#726=ADVANCED_FACE('',(#100,#32,#33,#34,#35,#36,#37,#38,#39,#40),#62,.F.);
#727=CLOSED_SHELL('',(#689,#690,#691,#692,#693,#694,#695,#696,#697,#698,
#699,#700,#701,#702,#703,#704,#705,#706,#707,#708,#709,#710,#711,#712,#713,
#714,#715,#716,#717,#718,#719,#720,#721,#722,#723,#724,#725,#726));
#728=DERIVED_UNIT_ELEMENT(#730,1.);
#729=DERIVED_UNIT_ELEMENT(#1231,-3.);
#730=(
MASS_UNIT()
NAMED_UNIT(*)
SI_UNIT(.KILO.,.GRAM.)
);
#731=DERIVED_UNIT((#728,#729));
#732=MEASURE_REPRESENTATION_ITEM('density measure',
POSITIVE_RATIO_MEASURE(7850.),#731);
#733=PROPERTY_DEFINITION_REPRESENTATION(#738,#735);
#734=PROPERTY_DEFINITION_REPRESENTATION(#739,#736);
#735=REPRESENTATION('material name',(#737),#1228);
#736=REPRESENTATION('density',(#732),#1228);
#737=DESCRIPTIVE_REPRESENTATION_ITEM('Steel','Steel');
#738=PROPERTY_DEFINITION('material property','material name',#1243);
#739=PROPERTY_DEFINITION('material property','density of part',#1243);
#740=AXIS2_PLACEMENT_3D('',#1023,#813,#814);
#741=AXIS2_PLACEMENT_3D('',#1024,#815,#816);
#742=AXIS2_PLACEMENT_3D('',#1025,#817,#818);
#743=AXIS2_PLACEMENT_3D('',#1027,#819,#820);
#744=AXIS2_PLACEMENT_3D('',#1030,#822,#823);
#745=AXIS2_PLACEMENT_3D('',#1031,#824,#825);
#746=AXIS2_PLACEMENT_3D('',#1033,#826,#827);
#747=AXIS2_PLACEMENT_3D('',#1034,#828,#829);
#748=AXIS2_PLACEMENT_3D('',#1036,#830,#831);
#749=AXIS2_PLACEMENT_3D('',#1039,#833,#834);
#750=AXIS2_PLACEMENT_3D('',#1040,#835,#836);
#751=AXIS2_PLACEMENT_3D('',#1042,#837,#838);
#752=AXIS2_PLACEMENT_3D('',#1043,#839,#840);
#753=AXIS2_PLACEMENT_3D('',#1045,#841,#842);
#754=AXIS2_PLACEMENT_3D('',#1048,#844,#845);
#755=AXIS2_PLACEMENT_3D('',#1049,#846,#847);
#756=AXIS2_PLACEMENT_3D('',#1051,#848,#849);
#757=AXIS2_PLACEMENT_3D('',#1052,#850,#851);
#758=AXIS2_PLACEMENT_3D('',#1054,#852,#853);
#759=AXIS2_PLACEMENT_3D('',#1057,#855,#856);
#760=AXIS2_PLACEMENT_3D('',#1058,#857,#858);
#761=AXIS2_PLACEMENT_3D('',#1060,#859,#860);
#762=AXIS2_PLACEMENT_3D('',#1061,#861,#862);
#763=AXIS2_PLACEMENT_3D('',#1064,#864,#865);
#764=AXIS2_PLACEMENT_3D('',#1065,#866,#867);
#765=AXIS2_PLACEMENT_3D('',#1068,#869,#870);
#766=AXIS2_PLACEMENT_3D('',#1069,#871,#872);
#767=AXIS2_PLACEMENT_3D('',#1071,#873,#874);
#768=AXIS2_PLACEMENT_3D('',#1074,#876,#877);
#769=AXIS2_PLACEMENT_3D('',#1075,#878,#879);
#770=AXIS2_PLACEMENT_3D('',#1078,#881,#882);
#771=AXIS2_PLACEMENT_3D('',#1079,#883,#884);
#772=AXIS2_PLACEMENT_3D('',#1081,#885,#886);
#773=AXIS2_PLACEMENT_3D('',#1084,#888,#889);
#774=AXIS2_PLACEMENT_3D('',#1085,#890,#891);
#775=AXIS2_PLACEMENT_3D('',#1088,#893,#894);
#776=AXIS2_PLACEMENT_3D('',#1089,#895,#896);
#777=AXIS2_PLACEMENT_3D('',#1091,#897,#898);
#778=AXIS2_PLACEMENT_3D('',#1094,#900,#901);
#779=AXIS2_PLACEMENT_3D('',#1095,#902,#903);
#780=AXIS2_PLACEMENT_3D('',#1104,#908,#909);
#781=AXIS2_PLACEMENT_3D('',#1110,#913,#914);
#782=AXIS2_PLACEMENT_3D('',#1116,#918,#919);
#783=AXIS2_PLACEMENT_3D('',#1119,#922,#923);
#784=AXIS2_PLACEMENT_3D('',#1121,#924,#925);
#785=AXIS2_PLACEMENT_3D('',#1124,#927,#928);
#786=AXIS2_PLACEMENT_3D('',#1125,#929,#930);
#787=AXIS2_PLACEMENT_3D('',#1128,#931,#932);
#788=AXIS2_PLACEMENT_3D('',#1132,#934,#935);
#789=AXIS2_PLACEMENT_3D('',#1134,#937,#938);
#790=AXIS2_PLACEMENT_3D('',#1140,#942,#943);
#791=AXIS2_PLACEMENT_3D('',#1146,#947,#948);
#792=AXIS2_PLACEMENT_3D('',#1152,#952,#953);
#793=AXIS2_PLACEMENT_3D('',#1154,#954,#955);
#794=AXIS2_PLACEMENT_3D('',#1156,#956,#957);
#795=AXIS2_PLACEMENT_3D('',#1158,#959,#960);
#796=AXIS2_PLACEMENT_3D('',#1164,#964,#965);
#797=AXIS2_PLACEMENT_3D('',#1170,#969,#970);
#798=AXIS2_PLACEMENT_3D('',#1176,#974,#975);
#799=AXIS2_PLACEMENT_3D('',#1178,#976,#977);
#800=AXIS2_PLACEMENT_3D('',#1180,#978,#979);
#801=AXIS2_PLACEMENT_3D('',#1182,#981,#982);
#802=AXIS2_PLACEMENT_3D('',#1188,#986,#987);
#803=AXIS2_PLACEMENT_3D('',#1194,#991,#992);
#804=AXIS2_PLACEMENT_3D('',#1200,#996,#997);
#805=AXIS2_PLACEMENT_3D('',#1202,#998,#999);
#806=AXIS2_PLACEMENT_3D('',#1204,#1000,#1001);
#807=AXIS2_PLACEMENT_3D('',#1206,#1003,#1004);
#808=AXIS2_PLACEMENT_3D('',#1212,#1008,#1009);
#809=AXIS2_PLACEMENT_3D('',#1218,#1013,#1014);
#810=AXIS2_PLACEMENT_3D('',#1221,#1017,#1018);
#811=AXIS2_PLACEMENT_3D('',#1222,#1019,#1020);
#812=AXIS2_PLACEMENT_3D('',#1223,#1021,#1022);
#813=DIRECTION('axis',(0.,0.,1.));
#814=DIRECTION('refdir',(1.,0.,0.));
#815=DIRECTION('axis',(0.,0.,1.));
#816=DIRECTION('refdir',(1.,0.,0.));
#817=DIRECTION('center_axis',(0.,0.,1.));
#818=DIRECTION('ref_axis',(-1.,0.,0.));
#819=DIRECTION('center_axis',(0.,0.,1.));
#820=DIRECTION('ref_axis',(-1.,0.,0.));
#821=DIRECTION('',(0.,0.,-1.));
#822=DIRECTION('center_axis',(0.,0.,-1.));
#823=DIRECTION('ref_axis',(-1.,0.,0.));
#824=DIRECTION('center_axis',(0.,0.,1.));
#825=DIRECTION('ref_axis',(-1.,0.,0.));
#826=DIRECTION('center_axis',(0.,0.,-1.));
#827=DIRECTION('ref_axis',(-1.,0.,0.));
#828=DIRECTION('center_axis',(0.,0.,1.));
#829=DIRECTION('ref_axis',(-1.,0.,0.));
#830=DIRECTION('center_axis',(0.,0.,1.));
#831=DIRECTION('ref_axis',(-1.,0.,0.));
#832=DIRECTION('',(0.,0.,-1.));
#833=DIRECTION('center_axis',(0.,0.,-1.));
#834=DIRECTION('ref_axis',(-1.,0.,0.));
#835=DIRECTION('center_axis',(0.,0.,1.));
#836=DIRECTION('ref_axis',(-1.,0.,0.));
#837=DIRECTION('center_axis',(0.,0.,-1.));
#838=DIRECTION('ref_axis',(-1.,0.,0.));
#839=DIRECTION('center_axis',(0.,0.,1.));
#840=DIRECTION('ref_axis',(-1.,0.,0.));
#841=DIRECTION('center_axis',(0.,0.,1.));
#842=DIRECTION('ref_axis',(-1.,0.,0.));
#843=DIRECTION('',(0.,0.,-1.));
#844=DIRECTION('center_axis',(0.,0.,-1.));
#845=DIRECTION('ref_axis',(-1.,0.,0.));
#846=DIRECTION('center_axis',(0.,0.,1.));
#847=DIRECTION('ref_axis',(-1.,0.,0.));
#848=DIRECTION('center_axis',(0.,0.,-1.));
#849=DIRECTION('ref_axis',(-1.,0.,0.));
#850=DIRECTION('center_axis',(0.,0.,1.));
#851=DIRECTION('ref_axis',(-1.,0.,0.));
#852=DIRECTION('center_axis',(0.,0.,1.));
#853=DIRECTION('ref_axis',(-1.,0.,0.));
#854=DIRECTION('',(0.,0.,-1.));
#855=DIRECTION('center_axis',(0.,0.,-1.));
#856=DIRECTION('ref_axis',(-1.,0.,0.));
#857=DIRECTION('center_axis',(0.,0.,1.));
#858=DIRECTION('ref_axis',(-1.,0.,0.));
#859=DIRECTION('center_axis',(0.,0.,-1.));
#860=DIRECTION('ref_axis',(-1.,0.,0.));
#861=DIRECTION('center_axis',(0.,0.,-1.));
#862=DIRECTION('ref_axis',(1.,0.,0.));
#863=DIRECTION('',(0.,0.,-1.));
#864=DIRECTION('center_axis',(0.,0.,1.));
#865=DIRECTION('ref_axis',(1.,0.,0.));
#866=DIRECTION('center_axis',(0.,0.,-1.));
#867=DIRECTION('ref_axis',(1.,0.,0.));
#868=DIRECTION('',(0.,0.,-1.));
#869=DIRECTION('center_axis',(0.,0.,1.));
#870=DIRECTION('ref_axis',(1.,0.,0.));
#871=DIRECTION('center_axis',(0.,0.,-1.));
#872=DIRECTION('ref_axis',(1.,0.,0.));
#873=DIRECTION('center_axis',(0.,0.,-1.));
#874=DIRECTION('ref_axis',(1.,0.,0.));
#875=DIRECTION('',(0.,0.,-1.));
#876=DIRECTION('center_axis',(0.,0.,1.));
#877=DIRECTION('ref_axis',(1.,0.,0.));
#878=DIRECTION('center_axis',(0.,0.,-1.));
#879=DIRECTION('ref_axis',(1.,0.,0.));
#880=DIRECTION('',(0.,0.,-1.));
#881=DIRECTION('center_axis',(0.,0.,1.));
#882=DIRECTION('ref_axis',(1.,0.,0.));
#883=DIRECTION('center_axis',(0.,0.,-1.));
#884=DIRECTION('ref_axis',(1.,0.,0.));
#885=DIRECTION('center_axis',(0.,0.,-1.));
#886=DIRECTION('ref_axis',(1.,0.,0.));
#887=DIRECTION('',(0.,0.,-1.));
#888=DIRECTION('center_axis',(0.,0.,1.));
#889=DIRECTION('ref_axis',(1.,0.,0.));
#890=DIRECTION('center_axis',(0.,0.,-1.));
#891=DIRECTION('ref_axis',(1.,0.,0.));
#892=DIRECTION('',(0.,0.,-1.));
#893=DIRECTION('center_axis',(0.,0.,1.));
#894=DIRECTION('ref_axis',(1.,0.,0.));
#895=DIRECTION('center_axis',(0.,0.,-1.));
#896=DIRECTION('ref_axis',(1.,0.,0.));
#897=DIRECTION('center_axis',(0.,0.,-1.));
#898=DIRECTION('ref_axis',(1.,0.,0.));
#899=DIRECTION('',(0.,0.,-1.));
#900=DIRECTION('center_axis',(0.,0.,1.));
#901=DIRECTION('ref_axis',(1.,0.,0.));
#902=DIRECTION('center_axis',(-0.999999960563668,-0.00028084277289798,0.));
#903=DIRECTION('ref_axis',(-0.00028084277289798,0.999999960563668,0.));
#904=DIRECTION('',(0.00028084277289798,-0.999999960563668,0.));
#905=DIRECTION('',(0.,0.,-1.));
#906=DIRECTION('',(-0.00028084277289798,0.999999960563668,0.));
#907=DIRECTION('',(0.,0.,-1.));
#908=DIRECTION('center_axis',(-0.000280842772897822,0.999999960563668,0.));
#909=DIRECTION('ref_axis',(0.999999960563668,0.000280842772897822,0.));
#910=DIRECTION('',(-0.999999960563668,-0.000280842772897822,0.));
#911=DIRECTION('',(0.999999960563668,0.000280842772897822,0.));
#912=DIRECTION('',(0.,0.,-1.));
#913=DIRECTION('center_axis',(1.,3.28954957286528E-17,0.));
#914=DIRECTION('ref_axis',(3.28954957286528E-17,-1.,0.));
#915=DIRECTION('',(-3.28954957286528E-17,1.,0.));
#916=DIRECTION('',(3.28954957286528E-17,-1.,0.));
#917=DIRECTION('',(0.,0.,-1.));
#918=DIRECTION('center_axis',(0.000280842772897989,-0.999999960563668,0.));
#919=DIRECTION('ref_axis',(-0.999999960563668,-0.000280842772897989,0.));
#920=DIRECTION('',(0.999999960563668,0.000280842772897989,0.));
#921=DIRECTION('',(-0.999999960563668,-0.000280842772897989,0.));
#922=DIRECTION('center_axis',(0.,0.,-1.));
#923=DIRECTION('ref_axis',(1.,0.,0.));
#924=DIRECTION('center_axis',(0.,0.,-1.));
#925=DIRECTION('ref_axis',(1.,0.,0.));
#926=DIRECTION('',(0.,0.,-1.));
#927=DIRECTION('center_axis',(0.,0.,1.));
#928=DIRECTION('ref_axis',(1.,0.,0.));
#929=DIRECTION('center_axis',(0.,0.,-1.));
#930=DIRECTION('ref_axis',(-0.686756288140356,0.726887749724591,0.));
#931=DIRECTION('center_axis',(0.,0.,1.));
#932=DIRECTION('ref_axis',(-0.686756288140356,0.726887749724591,0.));
#933=DIRECTION('',(0.,0.,-1.));
#934=DIRECTION('center_axis',(0.,0.,-1.));
#935=DIRECTION('ref_axis',(-0.686756288140356,0.726887749724591,0.));
#936=DIRECTION('',(0.,0.,-1.));
#937=DIRECTION('center_axis',(0.686756288140356,-0.726887749724591,0.));
#938=DIRECTION('ref_axis',(-0.726887749724591,-0.686756288140356,0.));
#939=DIRECTION('',(0.726887749724591,0.686756288140356,0.));
#940=DIRECTION('',(-0.726887749724591,-0.686756288140356,0.));
#941=DIRECTION('',(0.,0.,-1.));
#942=DIRECTION('center_axis',(0.000280842772897757,-0.999999960563668,0.));
#943=DIRECTION('ref_axis',(-0.999999960563668,-0.000280842772897757,0.));
#944=DIRECTION('',(0.999999960563668,0.000280842772897757,0.));
#945=DIRECTION('',(-0.999999960563668,-0.000280842772897757,0.));
#946=DIRECTION('',(0.,0.,-1.));
#947=DIRECTION('center_axis',(-0.800410174775433,-0.599452710491795,0.));
#948=DIRECTION('ref_axis',(-0.599452710491795,0.800410174775433,0.));
#949=DIRECTION('',(0.599452710491795,-0.800410174775433,0.));
#950=DIRECTION('',(-0.599452710491795,0.800410174775433,0.));
#951=DIRECTION('',(0.,0.,-1.));
#952=DIRECTION('center_axis',(0.,0.,-1.));
#953=DIRECTION('ref_axis',(-0.800410174775432,-0.599452710491797,0.));
#954=DIRECTION('center_axis',(0.,0.,1.));
#955=DIRECTION('ref_axis',(-0.800410174775432,-0.599452710491797,0.));
#956=DIRECTION('center_axis',(0.,0.,-1.));
#957=DIRECTION('ref_axis',(-0.800410174775432,-0.599452710491797,0.));
#958=DIRECTION('',(0.,0.,-1.));
#959=DIRECTION('center_axis',(0.800410174775433,0.599452710491795,0.));
#960=DIRECTION('ref_axis',(0.599452710491795,-0.800410174775433,0.));
#961=DIRECTION('',(-0.599452710491795,0.800410174775433,0.));
#962=DIRECTION('',(0.599452710491795,-0.800410174775433,0.));
#963=DIRECTION('',(0.,0.,-1.));
#964=DIRECTION('center_axis',(1.,0.,0.));
#965=DIRECTION('ref_axis',(0.,-1.,0.));
#966=DIRECTION('',(0.,1.,0.));
#967=DIRECTION('',(0.,-1.,0.));
#968=DIRECTION('',(0.,0.,-1.));
#969=DIRECTION('center_axis',(0.535428323764259,-0.844580671168241,0.));
#970=DIRECTION('ref_axis',(-0.844580671168241,-0.535428323764259,0.));
#971=DIRECTION('',(0.844580671168241,0.535428323764259,0.));
#972=DIRECTION('',(-0.844580671168241,-0.535428323764259,0.));
#973=DIRECTION('',(0.,0.,-1.));
#974=DIRECTION('center_axis',(0.,0.,-1.));
#975=DIRECTION('ref_axis',(0.535428323764263,-0.844580671168238,0.));
#976=DIRECTION('center_axis',(0.,0.,1.));
#977=DIRECTION('ref_axis',(0.535428323764263,-0.844580671168238,0.));
#978=DIRECTION('center_axis',(0.,0.,-1.));
#979=DIRECTION('ref_axis',(0.535428323764263,-0.844580671168238,0.));
#980=DIRECTION('',(0.,0.,-1.));
#981=DIRECTION('center_axis',(-0.535428323764259,0.844580671168241,0.));
#982=DIRECTION('ref_axis',(0.844580671168241,0.535428323764259,0.));
#983=DIRECTION('',(-0.844580671168241,-0.535428323764259,0.));
#984=DIRECTION('',(0.844580671168241,0.535428323764259,0.));
#985=DIRECTION('',(0.,0.,-1.));
#986=DIRECTION('center_axis',(0.,1.,0.));
#987=DIRECTION('ref_axis',(1.,0.,0.));
#988=DIRECTION('',(-1.,0.,0.));
#989=DIRECTION('',(1.,0.,0.));
#990=DIRECTION('',(0.,0.,-1.));
#991=DIRECTION('center_axis',(0.712467254326857,0.701705359472158,0.));
#992=DIRECTION('ref_axis',(0.701705359472158,-0.712467254326857,0.));
#993=DIRECTION('',(-0.701705359472158,0.712467254326857,0.));
#994=DIRECTION('',(0.701705359472158,-0.712467254326857,0.));
#995=DIRECTION('',(0.,0.,-1.));
#996=DIRECTION('center_axis',(0.,0.,-1.));
#997=DIRECTION('ref_axis',(0.712467254326855,0.70170535947216,0.));
#998=DIRECTION('center_axis',(0.,0.,1.));
#999=DIRECTION('ref_axis',(0.712467254326855,0.70170535947216,0.));
#1000=DIRECTION('center_axis',(0.,0.,-1.));
#1001=DIRECTION('ref_axis',(0.712467254326855,0.70170535947216,0.));
#1002=DIRECTION('',(0.,0.,-1.));
#1003=DIRECTION('center_axis',(-0.712467254326857,-0.701705359472157,0.));
#1004=DIRECTION('ref_axis',(-0.701705359472157,0.712467254326857,0.));
#1005=DIRECTION('',(0.701705359472157,-0.712467254326857,0.));
#1006=DIRECTION('',(-0.701705359472157,0.712467254326857,0.));
#1007=DIRECTION('',(0.,0.,-1.));
#1008=DIRECTION('center_axis',(-1.,1.41803204142764E-17,0.));
#1009=DIRECTION('ref_axis',(1.41803204142764E-17,1.,0.));
#1010=DIRECTION('',(1.41803204142764E-17,1.,0.));
#1011=DIRECTION('',(1.41803204142764E-17,1.,0.));
#1012=DIRECTION('',(0.,0.,-1.));
#1013=DIRECTION('center_axis',(-0.686756288140356,0.726887749724591,0.));
#1014=DIRECTION('ref_axis',(0.726887749724591,0.686756288140356,0.));
#1015=DIRECTION('',(-0.726887749724591,-0.686756288140356,0.));
#1016=DIRECTION('',(0.726887749724591,0.686756288140356,0.));
#1017=DIRECTION('center_axis',(0.,0.,1.));
#1018=DIRECTION('ref_axis',(1.,0.,0.));
#1019=DIRECTION('center_axis',(0.,0.,1.));
#1020=DIRECTION('ref_axis',(1.,0.,0.));
#1021=DIRECTION('',(0.,0.,1.));
#1022=DIRECTION('',(1.,0.,0.));
#1023=CARTESIAN_POINT('',(0.,0.,0.));
#1024=CARTESIAN_POINT('',(0.,0.,0.));
#1025=CARTESIAN_POINT('Origin',(98.6000627546794,85.4076944831981,0.));
#1026=CARTESIAN_POINT('',(101.600062754679,85.4076944831981,5.));
#1027=CARTESIAN_POINT('Origin',(98.6000627546794,85.4076944831981,5.));
#1028=CARTESIAN_POINT('',(101.600062754679,85.4076944831981,0.));
#1029=CARTESIAN_POINT('',(101.600062754679,85.4076944831981,0.));
#1030=CARTESIAN_POINT('Origin',(98.6000627546794,85.4076944831981,0.));
#1031=CARTESIAN_POINT('Origin',(98.6000627546794,85.4076944831981,5.));
#1032=CARTESIAN_POINT('',(97.0000627546794,85.4076944831981,5.));
#1033=CARTESIAN_POINT('Origin',(98.6000627546794,85.4076944831981,5.));
#1034=CARTESIAN_POINT('Origin',(94.1170539199032,24.9064330766182,0.));
#1035=CARTESIAN_POINT('',(97.1170539199032,24.9064330766182,5.));
#1036=CARTESIAN_POINT('Origin',(94.1170539199032,24.9064330766182,5.));
#1037=CARTESIAN_POINT('',(97.1170539199032,24.9064330766182,0.));
#1038=CARTESIAN_POINT('',(97.1170539199032,24.9064330766182,0.));
#1039=CARTESIAN_POINT('Origin',(94.1170539199032,24.9064330766182,0.));
#1040=CARTESIAN_POINT('Origin',(94.1170539199032,24.9064330766182,5.));
#1041=CARTESIAN_POINT('',(92.5170539199032,24.9064330766182,5.));
#1042=CARTESIAN_POINT('Origin',(94.1170539199032,24.9064330766182,5.));
#1043=CARTESIAN_POINT('Origin',(14.8992488030313,88.2941878283469,0.));
#1044=CARTESIAN_POINT('',(17.8992488030313,88.2941878283469,5.));
#1045=CARTESIAN_POINT('Origin',(14.8992488030313,88.2941878283469,5.));
#1046=CARTESIAN_POINT('',(17.8992488030313,88.2941878283469,0.));
#1047=CARTESIAN_POINT('',(17.8992488030313,88.2941878283469,0.));
#1048=CARTESIAN_POINT('Origin',(14.8992488030313,88.2941878283469,0.));
#1049=CARTESIAN_POINT('Origin',(14.8992488030313,88.2941878283469,5.));
#1050=CARTESIAN_POINT('',(13.2992488030313,88.2941878283469,5.));
#1051=CARTESIAN_POINT('Origin',(14.8992488030313,88.2941878283469,5.));
#1052=CARTESIAN_POINT('Origin',(9.82183157152527,7.88275870128057,0.));
#1053=CARTESIAN_POINT('',(12.8218315715253,7.88275870128057,5.));
#1054=CARTESIAN_POINT('Origin',(9.82183157152527,7.88275870128057,5.));
#1055=CARTESIAN_POINT('',(12.8218315715253,7.88275870128057,0.));
#1056=CARTESIAN_POINT('',(12.8218315715253,7.88275870128057,0.));
#1057=CARTESIAN_POINT('Origin',(9.82183157152527,7.88275870128057,0.));
#1058=CARTESIAN_POINT('Origin',(9.82183157152527,7.88275870128057,5.));
#1059=CARTESIAN_POINT('',(8.22183157152527,7.88275870128057,5.));
#1060=CARTESIAN_POINT('Origin',(9.82183157152527,7.88275870128057,5.));
#1061=CARTESIAN_POINT('Origin',(9.82183157152527,7.88275870128057,0.));
#1062=CARTESIAN_POINT('',(8.22183157152527,7.88275870128057,-5.));
#1063=CARTESIAN_POINT('',(8.22183157152527,7.88275870128057,0.));
#1064=CARTESIAN_POINT('Origin',(9.82183157152527,7.88275870128057,-5.));
#1065=CARTESIAN_POINT('Origin',(94.1170539199032,24.9064330766182,0.));
#1066=CARTESIAN_POINT('',(92.5170539199032,24.9064330766182,-5.));
#1067=CARTESIAN_POINT('',(92.5170539199032,24.9064330766182,0.));
#1068=CARTESIAN_POINT('Origin',(94.1170539199032,24.9064330766182,-5.));
#1069=CARTESIAN_POINT('Origin',(131.909589132271,-25.5554785722946,0.));
#1070=CARTESIAN_POINT('',(130.309589132271,-25.5554785722946,0.));
#1071=CARTESIAN_POINT('Origin',(131.909589132271,-25.5554785722946,0.));
#1072=CARTESIAN_POINT('',(130.309589132271,-25.5554785722946,-5.));
#1073=CARTESIAN_POINT('',(130.309589132271,-25.5554785722946,0.));
#1074=CARTESIAN_POINT('Origin',(131.909589132271,-25.5554785722946,-5.));
#1075=CARTESIAN_POINT('Origin',(98.6000627546794,85.4076944831981,0.));
#1076=CARTESIAN_POINT('',(97.0000627546794,85.4076944831981,-5.));
#1077=CARTESIAN_POINT('',(97.0000627546794,85.4076944831981,0.));
#1078=CARTESIAN_POINT('Origin',(98.6000627546794,85.4076944831981,-5.));
#1079=CARTESIAN_POINT('Origin',(131.909589132272,106.524521427705,0.));
#1080=CARTESIAN_POINT('',(130.309589132272,106.524521427705,0.));
#1081=CARTESIAN_POINT('Origin',(131.909589132272,106.524521427705,0.));
#1082=CARTESIAN_POINT('',(130.309589132272,106.524521427705,-5.));
#1083=CARTESIAN_POINT('',(130.309589132272,106.524521427705,0.));
#1084=CARTESIAN_POINT('Origin',(131.909589132272,106.524521427705,-5.));
#1085=CARTESIAN_POINT('Origin',(14.8992488030313,88.2941878283469,0.));
#1086=CARTESIAN_POINT('',(13.2992488030313,88.2941878283469,-5.));
#1087=CARTESIAN_POINT('',(13.2992488030313,88.2941878283469,0.));
#1088=CARTESIAN_POINT('Origin',(14.8992488030313,88.2941878283469,-5.));
#1089=CARTESIAN_POINT('Origin',(-25.5704108677293,129.384521427706,0.));
#1090=CARTESIAN_POINT('',(-27.1704108677293,129.384521427706,0.));
#1091=CARTESIAN_POINT('Origin',(-25.5704108677293,129.384521427706,0.));
#1092=CARTESIAN_POINT('',(-27.1704108677293,129.384521427706,-5.));
#1093=CARTESIAN_POINT('',(-27.1704108677293,129.384521427706,0.));
#1094=CARTESIAN_POINT('Origin',(-25.5704108677293,129.384521427706,-5.));
#1095=CARTESIAN_POINT('Origin',(89.1204242303596,12.9050293359897,0.));
#1096=CARTESIAN_POINT('',(89.101467343189,80.4050266740372,0.));
#1097=CARTESIAN_POINT('',(89.1204242303596,12.9050293359897,0.));
#1098=CARTESIAN_POINT('',(89.1204242303596,12.9050293359897,0.));
#1099=CARTESIAN_POINT('',(89.101467343189,80.4050266740372,-5.));
#1100=CARTESIAN_POINT('',(89.101467343189,80.4050266740372,0.));
#1101=CARTESIAN_POINT('',(89.1204242303596,12.9050293359897,-5.));
#1102=CARTESIAN_POINT('',(89.1204242303596,12.9050293359897,-5.));
#1103=CARTESIAN_POINT('',(89.1204242303596,12.9050293359897,0.));
#1104=CARTESIAN_POINT('Origin',(19.8992488030313,12.8855890683728,0.));
#1105=CARTESIAN_POINT('',(19.8992488030313,12.8855890683728,0.));
#1106=CARTESIAN_POINT('',(19.8992488030313,12.8855890683728,0.));
#1107=CARTESIAN_POINT('',(19.8992488030313,12.8855890683728,-5.));
#1108=CARTESIAN_POINT('',(19.8992488030313,12.8855890683728,-5.));
#1109=CARTESIAN_POINT('',(19.8992488030313,12.8855890683728,0.));
#1110=CARTESIAN_POINT('Origin',(19.8992488030313,80.3855917303253,0.));
#1111=CARTESIAN_POINT('',(19.8992488030313,80.3855917303253,0.));
#1112=CARTESIAN_POINT('',(19.8992488030313,80.3855917303253,0.));
#1113=CARTESIAN_POINT('',(19.8992488030313,80.3855917303253,-5.));
#1114=CARTESIAN_POINT('',(19.8992488030313,80.3855917303253,-5.));
#1115=CARTESIAN_POINT('',(19.8992488030313,80.3855917303253,0.));
#1116=CARTESIAN_POINT('Origin',(89.101467343189,80.4050266740372,0.));
#1117=CARTESIAN_POINT('',(89.101467343189,80.4050266740372,0.));
#1118=CARTESIAN_POINT('',(89.101467343189,80.4050266740372,-5.));
#1119=CARTESIAN_POINT('Origin',(-25.5704108677287,-25.5554785722941,0.));
#1120=CARTESIAN_POINT('',(-27.1704108677287,-25.5554785722941,0.));
#1121=CARTESIAN_POINT('Origin',(-25.5704108677287,-25.5554785722941,0.));
#1122=CARTESIAN_POINT('',(-27.1704108677287,-25.5554785722941,-5.));
#1123=CARTESIAN_POINT('',(-27.1704108677287,-25.5554785722941,0.));
#1124=CARTESIAN_POINT('Origin',(-25.5704108677287,-25.5554785722941,-5.));
#1125=CARTESIAN_POINT('Origin',(-25.5704108677287,-25.5554785722941,0.));
#1126=CARTESIAN_POINT('',(-29.0041923084304,-21.9210398236711,0.));
#1127=CARTESIAN_POINT('',(-22.1366294270269,-29.189917320917,0.));
#1128=CARTESIAN_POINT('Origin',(-25.5704108677287,-25.5554785722941,0.));
#1129=CARTESIAN_POINT('',(-29.0041923084304,-21.9210398236711,-5.));
#1130=CARTESIAN_POINT('',(-29.0041923084304,-21.9210398236711,0.));
#1131=CARTESIAN_POINT('',(-22.1366294270269,-29.189917320917,-5.));
#1132=CARTESIAN_POINT('Origin',(-25.5704108677287,-25.5554785722941,-5.));
#1133=CARTESIAN_POINT('',(-22.1366294270269,-29.189917320917,0.));
#1134=CARTESIAN_POINT('Origin',(13.255613012227,4.24831995265762,0.));
#1135=CARTESIAN_POINT('',(13.255613012227,4.24831995265762,0.));
#1136=CARTESIAN_POINT('',(-22.1366294270269,-29.189917320917,0.));
#1137=CARTESIAN_POINT('',(13.255613012227,4.24831995265762,-5.));
#1138=CARTESIAN_POINT('',(-22.1366294270269,-29.189917320917,-5.));
#1139=CARTESIAN_POINT('',(13.255613012227,4.24831995265762,0.));
#1140=CARTESIAN_POINT('Origin',(103.322832587319,4.27361468134781,0.));
#1141=CARTESIAN_POINT('',(103.322832587319,4.27361468134781,0.));
#1142=CARTESIAN_POINT('',(13.255613012227,4.24831995265762,0.));
#1143=CARTESIAN_POINT('',(103.322832587319,4.27361468134781,-5.));
#1144=CARTESIAN_POINT('',(13.255613012227,4.24831995265762,-5.));
#1145=CARTESIAN_POINT('',(103.322832587319,4.27361468134781,0.));
#1146=CARTESIAN_POINT('Origin',(127.907538258394,-28.5527421247536,0.));
#1147=CARTESIAN_POINT('',(127.907538258394,-28.5527421247536,0.));
#1148=CARTESIAN_POINT('',(90.115003046026,21.9091695241593,0.));
#1149=CARTESIAN_POINT('',(127.907538258394,-28.5527421247536,-5.));
#1150=CARTESIAN_POINT('',(90.115003046026,21.9091695241593,-5.));
#1151=CARTESIAN_POINT('',(127.907538258394,-28.5527421247536,0.));
#1152=CARTESIAN_POINT('Origin',(131.909589132271,-25.5554785722946,0.));
#1153=CARTESIAN_POINT('',(135.911640006149,-22.5582150198357,0.));
#1154=CARTESIAN_POINT('Origin',(131.909589132271,-25.5554785722946,0.));
#1155=CARTESIAN_POINT('',(135.911640006149,-22.5582150198357,-5.));
#1156=CARTESIAN_POINT('Origin',(131.909589132271,-25.5554785722946,-5.));
#1157=CARTESIAN_POINT('',(135.911640006149,-22.5582150198357,0.));
#1158=CARTESIAN_POINT('Origin',(101.277204373501,23.6868918798113,0.));
#1159=CARTESIAN_POINT('',(101.277204373501,23.6868918798113,0.));
#1160=CARTESIAN_POINT('',(135.911640006149,-22.5582150198357,0.));
#1161=CARTESIAN_POINT('',(101.277204373501,23.6868918798113,-5.));
#1162=CARTESIAN_POINT('',(135.911640006149,-22.5582150198357,-5.));
#1163=CARTESIAN_POINT('',(101.277204373501,23.6868918798113,0.));
#1164=CARTESIAN_POINT('Origin',(101.277204373501,81.1847911273569,0.));
#1165=CARTESIAN_POINT('',(101.277204373501,81.1847911273569,0.));
#1166=CARTESIAN_POINT('',(101.277204373501,23.6868918798113,0.));
#1167=CARTESIAN_POINT('',(101.277204373501,81.1847911273569,-5.));
#1168=CARTESIAN_POINT('',(101.277204373501,23.6868918798113,-5.));
#1169=CARTESIAN_POINT('',(101.277204373501,81.1847911273569,0.));
#1170=CARTESIAN_POINT('Origin',(134.586730751093,102.301618071864,0.));
#1171=CARTESIAN_POINT('',(134.586730751093,102.301618071864,0.));
#1172=CARTESIAN_POINT('',(101.277204373501,81.1847911273569,0.));
#1173=CARTESIAN_POINT('',(134.586730751093,102.301618071864,-5.));
#1174=CARTESIAN_POINT('',(101.277204373501,81.1847911273569,-5.));
#1175=CARTESIAN_POINT('',(134.586730751093,102.301618071864,0.));
#1176=CARTESIAN_POINT('Origin',(131.909589132272,106.524521427705,0.));
#1177=CARTESIAN_POINT('',(129.232447576376,110.747424823439,0.));
#1178=CARTESIAN_POINT('Origin',(131.909589132272,106.524521427705,0.));
#1179=CARTESIAN_POINT('',(129.232447576376,110.747424823439,-5.));
#1180=CARTESIAN_POINT('Origin',(131.909589132272,106.524521427705,-5.));
#1181=CARTESIAN_POINT('',(129.232447576376,110.747424823439,0.));
#1182=CARTESIAN_POINT('Origin',(99.3492020629535,91.8027146257076,0.));
#1183=CARTESIAN_POINT('',(99.3492020629535,91.8027146257076,0.));
#1184=CARTESIAN_POINT('',(129.23244751345,110.747424783547,0.));
#1185=CARTESIAN_POINT('',(99.3492020629535,91.8027146257076,-5.));
#1186=CARTESIAN_POINT('',(129.23244751345,110.747424783547,-5.));
#1187=CARTESIAN_POINT('',(99.3492020629535,91.8027146257076,0.));
#1188=CARTESIAN_POINT('Origin',(18.4615850746655,91.8027146257076,0.));
#1189=CARTESIAN_POINT('',(18.4615850746655,91.8027146257076,0.));
#1190=CARTESIAN_POINT('',(99.3492020629535,91.8027146257076,0.));
#1191=CARTESIAN_POINT('',(18.4615850746655,91.8027146257076,-5.));
#1192=CARTESIAN_POINT('',(99.3492020629535,91.8027146257076,-5.));
#1193=CARTESIAN_POINT('',(18.4615850746655,91.8027146257076,0.));
#1194=CARTESIAN_POINT('Origin',(-22.0080745960951,132.893048225067,0.));
#1195=CARTESIAN_POINT('',(-22.0080745960951,132.893048225067,0.));
#1196=CARTESIAN_POINT('',(18.4615850746655,91.8027146257076,0.));
#1197=CARTESIAN_POINT('',(-22.0080745960951,132.893048225067,-5.));
#1198=CARTESIAN_POINT('',(18.4615850746655,91.8027146257076,-5.));
#1199=CARTESIAN_POINT('',(-22.0080745960951,132.893048225067,0.));
#1200=CARTESIAN_POINT('Origin',(-25.5704108677293,129.384521427706,0.));
#1201=CARTESIAN_POINT('',(-29.1327471393635,125.875994630345,0.));
#1202=CARTESIAN_POINT('Origin',(-25.5704108677293,129.384521427706,0.));
#1203=CARTESIAN_POINT('',(-29.1327471393635,125.875994630345,-5.));
#1204=CARTESIAN_POINT('Origin',(-25.5704108677293,129.384521427706,-5.));
#1205=CARTESIAN_POINT('',(-29.1327471393635,125.875994630345,0.));
#1206=CARTESIAN_POINT('Origin',(6.38805013082349,89.8104230040603,0.));
#1207=CARTESIAN_POINT('',(6.38805013082349,89.8104230040603,0.));
#1208=CARTESIAN_POINT('',(-29.1327471393635,125.875994630345,0.));
#1209=CARTESIAN_POINT('',(6.38805013082349,89.8104230040603,-5.));
#1210=CARTESIAN_POINT('',(-29.1327471393635,125.875994630345,-5.));
#1211=CARTESIAN_POINT('',(6.38805013082349,89.8104230040603,0.));
#1212=CARTESIAN_POINT('Origin',(6.38805013082349,11.5171974499035,0.));
#1213=CARTESIAN_POINT('',(6.38805013082349,11.5171974499035,0.));
#1214=CARTESIAN_POINT('',(6.38805013082349,11.5171974499035,0.));
#1215=CARTESIAN_POINT('',(6.38805013082349,11.5171974499035,-5.));
#1216=CARTESIAN_POINT('',(6.38805013082349,11.5171974499035,-5.));
#1217=CARTESIAN_POINT('',(6.38805013082349,11.5171974499035,0.));
#1218=CARTESIAN_POINT('Origin',(-29.0041923084304,-21.9210398236711,0.));
#1219=CARTESIAN_POINT('',(6.38805013082349,11.5171974499035,0.));
#1220=CARTESIAN_POINT('',(6.38805013082349,11.5171974499035,-5.));
#1221=CARTESIAN_POINT('Origin',(53.1695891322711,51.9145214277056,0.));
#1222=CARTESIAN_POINT('Origin',(53.1695891322711,51.9145214277056,-5.));
#1223=CARTESIAN_POINT('',(0.,0.,0.));
#1224=UNCERTAINTY_MEASURE_WITH_UNIT(LENGTH_MEASURE(0.01),#1230,
'DISTANCE_ACCURACY_VALUE',
'Maximum model space distance between geometric entities at asserted c
onnectivities');
#1225=UNCERTAINTY_MEASURE_WITH_UNIT(LENGTH_MEASURE(0.01),#1230,
'DISTANCE_ACCURACY_VALUE',
'Maximum model space distance between geometric entities at asserted c
onnectivities');
#1226=UNCERTAINTY_MEASURE_WITH_UNIT(LENGTH_MEASURE(0.01),#1230,
'DISTANCE_ACCURACY_VALUE',
'Maximum model space distance between geometric entities at asserted c
onnectivities');
#1227=(
GEOMETRIC_REPRESENTATION_CONTEXT(3)
GLOBAL_UNCERTAINTY_ASSIGNED_CONTEXT((#1224))
GLOBAL_UNIT_ASSIGNED_CONTEXT((#1230,#1232,#1233))
REPRESENTATION_CONTEXT('','3D')
);
#1228=(
GEOMETRIC_REPRESENTATION_CONTEXT(3)
GLOBAL_UNCERTAINTY_ASSIGNED_CONTEXT((#1225))
GLOBAL_UNIT_ASSIGNED_CONTEXT((#1230,#1232,#1233))
REPRESENTATION_CONTEXT('','3D')
);
#1229=(
GEOMETRIC_REPRESENTATION_CONTEXT(3)
GLOBAL_UNCERTAINTY_ASSIGNED_CONTEXT((#1226))
GLOBAL_UNIT_ASSIGNED_CONTEXT((#1230,#1232,#1233))
REPRESENTATION_CONTEXT('','3D')
);
#1230=(
LENGTH_UNIT()
NAMED_UNIT(*)
SI_UNIT(.MILLI.,.METRE.)
);
#1231=(
LENGTH_UNIT()
NAMED_UNIT(*)
SI_UNIT($,.METRE.)
);
#1232=(
NAMED_UNIT(*)
PLANE_ANGLE_UNIT()
SI_UNIT($,.RADIAN.)
);
#1233=(
NAMED_UNIT(*)
SI_UNIT($,.STERADIAN.)
SOLID_ANGLE_UNIT()
);
#1234=SHAPE_DEFINITION_REPRESENTATION(#1236,#1239);
#1235=SHAPE_DEFINITION_REPRESENTATION(#1237,#1240);
#1236=PRODUCT_DEFINITION_SHAPE('',$,#1242);
#1237=PRODUCT_DEFINITION_SHAPE('',$,#1243);
#1238=PRODUCT_DEFINITION_SHAPE($,$,#14);
#1239=SHAPE_REPRESENTATION('',(#740,#812),#1227);
#1240=SHAPE_REPRESENTATION('',(#741),#1228);
#1241=PRODUCT_DEFINITION_CONTEXT('part definition',#1249,'design');
#1242=PRODUCT_DEFINITION('2026-08-18-14-17-43-956','SPU bracket',#1244,
#1241);
#1243=PRODUCT_DEFINITION('2026-08-18-14-19-11-587',
'SPU Mounting bracket',#1245,#1241);
#1244=PRODUCT_DEFINITION_FORMATION('',$,#1251);
#1245=PRODUCT_DEFINITION_FORMATION('',$,#1252);
#1246=PRODUCT_RELATED_PRODUCT_CATEGORY('SPU bracket','SPU bracket',(#1251));
#1247=PRODUCT_RELATED_PRODUCT_CATEGORY('SPU Mounting bracket',
'SPU Mounting bracket',(#1252));
#1248=APPLICATION_PROTOCOL_DEFINITION('international standard',
'automotive_design',2009,#1249);
#1249=APPLICATION_CONTEXT(
'Core Data for Automotive Mechanical Design Process');
#1250=PRODUCT_CONTEXT('part definition',#1249,'mechanical');
#1251=PRODUCT('2026-08-18-14-17-43-956','SPU bracket',$,(#1250));
#1252=PRODUCT('2026-08-18-14-19-11-587','SPU Mounting bracket',$,(#1250));
#1253=PRESENTATION_STYLE_ASSIGNMENT((#1255));
#1254=PRESENTATION_STYLE_ASSIGNMENT((#1256));
#1255=SURFACE_STYLE_USAGE(.BOTH.,#1257);
#1256=SURFACE_STYLE_USAGE(.BOTH.,#1258);
#1257=SURFACE_SIDE_STYLE('',(#1259));
#1258=SURFACE_SIDE_STYLE('',(#1260));
#1259=SURFACE_STYLE_FILL_AREA(#1261);
#1260=SURFACE_STYLE_FILL_AREA(#1262);
#1261=FILL_AREA_STYLE('Steel - Satin',(#1263));
#1262=FILL_AREA_STYLE('Opaque(160,160,160)',(#1264));
#1263=FILL_AREA_STYLE_COLOUR('Steel - Satin',#1265);
#1264=FILL_AREA_STYLE_COLOUR('Opaque(160,160,160)',#1266);
#1265=COLOUR_RGB('Steel - Satin',0.627450980392157,0.627450980392157,0.627450980392157);
#1266=COLOUR_RGB('Opaque(160,160,160)',0.627450980392157,0.627450980392157,
0.627450980392157);
ENDSEC;
END-ISO-10303-21;
