ISO-10303-21;
HEADER;
/* Generated by software containing ST-Developer
 * from STEP Tools, Inc. (www.steptools.com) 
 */

FILE_DESCRIPTION(
/* description */ (''),
/* implementation_level */ '2;1');

FILE_NAME(
/* name */ 'Coil Mount.step',
/* time_stamp */ '2026-08-26T09:49:56+02:00',
/* author */ (''),
/* organization */ (''),
/* preprocessor_version */ 'ST-DEVELOPER v20.1',
/* originating_system */ 'Autodesk Translation Framework v15.8.0.0',
/* authorisation */ '');

FILE_SCHEMA (('AUTOMOTIVE_DESIGN { 1 0 10303 214 3 1 1 }'));
ENDSEC;

DATA;
#10=MECHANICAL_DESIGN_GEOMETRIC_PRESENTATION_REPRESENTATION('',(#13),#1097);
#11=SHAPE_REPRESENTATION_RELATIONSHIP('SRR','None',#1104,#12);
#12=ADVANCED_BREP_SHAPE_REPRESENTATION('',(#14),#1096);
#13=STYLED_ITEM('',(#1114),#14);
#14=MANIFOLD_SOLID_BREP('Body1',#653);
#15=FACE_BOUND('',#81,.T.);
#16=FACE_BOUND('',#82,.T.);
#17=FACE_BOUND('',#85,.T.);
#18=FACE_BOUND('',#86,.T.);
#19=FACE_BOUND('',#89,.T.);
#20=FACE_BOUND('',#90,.T.);
#21=FACE_BOUND('',#98,.T.);
#22=FACE_BOUND('',#99,.T.);
#23=FACE_BOUND('',#101,.T.);
#24=FACE_BOUND('',#103,.T.);
#25=FACE_BOUND('',#104,.T.);
#26=FACE_BOUND('',#107,.T.);
#27=FACE_BOUND('',#108,.T.);
#28=FACE_BOUND('',#110,.T.);
#29=PLANE('',#670);
#30=PLANE('',#676);
#31=PLANE('',#679);
#32=PLANE('',#680);
#33=PLANE('',#695);
#34=PLANE('',#696);
#35=PLANE('',#703);
#36=PLANE('',#704);
#37=PLANE('',#705);
#38=PLANE('',#706);
#39=PLANE('',#713);
#40=PLANE('',#714);
#41=PLANE('',#716);
#42=PLANE('',#718);
#43=PLANE('',#720);
#44=PLANE('',#722);
#45=PLANE('',#725);
#46=PLANE('',#726);
#47=FACE_OUTER_BOUND('',#79,.T.);
#48=FACE_OUTER_BOUND('',#80,.T.);
#49=FACE_OUTER_BOUND('',#83,.T.);
#50=FACE_OUTER_BOUND('',#84,.T.);
#51=FACE_OUTER_BOUND('',#87,.T.);
#52=FACE_OUTER_BOUND('',#88,.T.);
#53=FACE_OUTER_BOUND('',#91,.T.);
#54=FACE_OUTER_BOUND('',#92,.T.);
#55=FACE_OUTER_BOUND('',#93,.T.);
#56=FACE_OUTER_BOUND('',#94,.T.);
#57=FACE_OUTER_BOUND('',#95,.T.);
#58=FACE_OUTER_BOUND('',#96,.T.);
#59=FACE_OUTER_BOUND('',#97,.T.);
#60=FACE_OUTER_BOUND('',#100,.T.);
#61=FACE_OUTER_BOUND('',#102,.T.);
#62=FACE_OUTER_BOUND('',#105,.T.);
#63=FACE_OUTER_BOUND('',#106,.T.);
#64=FACE_OUTER_BOUND('',#109,.T.);
#65=FACE_OUTER_BOUND('',#111,.T.);
#66=FACE_OUTER_BOUND('',#112,.T.);
#67=FACE_OUTER_BOUND('',#113,.T.);
#68=FACE_OUTER_BOUND('',#114,.T.);
#69=FACE_OUTER_BOUND('',#115,.T.);
#70=FACE_OUTER_BOUND('',#116,.T.);
#71=FACE_OUTER_BOUND('',#117,.T.);
#72=FACE_OUTER_BOUND('',#118,.T.);
#73=FACE_OUTER_BOUND('',#119,.T.);
#74=FACE_OUTER_BOUND('',#120,.T.);
#75=FACE_OUTER_BOUND('',#121,.T.);
#76=FACE_OUTER_BOUND('',#122,.T.);
#77=FACE_OUTER_BOUND('',#123,.T.);
#78=FACE_OUTER_BOUND('',#124,.T.);
#79=EDGE_LOOP('',(#427,#428,#429,#430));
#80=EDGE_LOOP('',(#431,#432,#433,#434));
#81=EDGE_LOOP('',(#435));
#82=EDGE_LOOP('',(#436));
#83=EDGE_LOOP('',(#437,#438,#439,#440));
#84=EDGE_LOOP('',(#441,#442,#443,#444,#445,#446));
#85=EDGE_LOOP('',(#447));
#86=EDGE_LOOP('',(#448));
#87=EDGE_LOOP('',(#449,#450,#451,#452,#453,#454));
#88=EDGE_LOOP('',(#455,#456,#457,#458,#459,#460,#461,#462));
#89=EDGE_LOOP('',(#463));
#90=EDGE_LOOP('',(#464));
#91=EDGE_LOOP('',(#465,#466,#467,#468));
#92=EDGE_LOOP('',(#469,#470,#471,#472));
#93=EDGE_LOOP('',(#473,#474,#475,#476));
#94=EDGE_LOOP('',(#477,#478,#479,#480));
#95=EDGE_LOOP('',(#481,#482,#483,#484));
#96=EDGE_LOOP('',(#485,#486,#487,#488));
#97=EDGE_LOOP('',(#489,#490,#491,#492,#493,#494));
#98=EDGE_LOOP('',(#495));
#99=EDGE_LOOP('',(#496));
#100=EDGE_LOOP('',(#497,#498,#499,#500,#501,#502,#503,#504,#505,#506,#507,
#508,#509,#510,#511,#512,#513,#514));
#101=EDGE_LOOP('',(#515,#516,#517,#518));
#102=EDGE_LOOP('',(#519,#520,#521,#522));
#103=EDGE_LOOP('',(#523));
#104=EDGE_LOOP('',(#524));
#105=EDGE_LOOP('',(#525,#526,#527,#528));
#106=EDGE_LOOP('',(#529,#530,#531,#532,#533,#534,#535,#536));
#107=EDGE_LOOP('',(#537));
#108=EDGE_LOOP('',(#538));
#109=EDGE_LOOP('',(#539,#540,#541,#542,#543,#544,#545,#546));
#110=EDGE_LOOP('',(#547,#548,#549,#550));
#111=EDGE_LOOP('',(#551,#552,#553,#554));
#112=EDGE_LOOP('',(#555,#556,#557,#558));
#113=EDGE_LOOP('',(#559,#560,#561,#562));
#114=EDGE_LOOP('',(#563,#564,#565,#566));
#115=EDGE_LOOP('',(#567,#568,#569,#570));
#116=EDGE_LOOP('',(#571,#572,#573,#574));
#117=EDGE_LOOP('',(#575,#576,#577,#578));
#118=EDGE_LOOP('',(#579,#580,#581,#582));
#119=EDGE_LOOP('',(#583,#584,#585,#586));
#120=EDGE_LOOP('',(#587,#588,#589,#590));
#121=EDGE_LOOP('',(#591,#592,#593,#594));
#122=EDGE_LOOP('',(#595,#596,#597,#598));
#123=EDGE_LOOP('',(#599,#600,#601,#602));
#124=EDGE_LOOP('',(#603,#604,#605,#606));
#125=LINE('',#917,#187);
#126=LINE('',#920,#188);
#127=LINE('',#923,#189);
#128=LINE('',#925,#190);
#129=LINE('',#926,#191);
#130=LINE('',#936,#192);
#131=LINE('',#939,#193);
#132=LINE('',#941,#194);
#133=LINE('',#943,#195);
#134=LINE('',#945,#196);
#135=LINE('',#946,#197);
#136=LINE('',#953,#198);
#137=LINE('',#954,#199);
#138=LINE('',#958,#200);
#139=LINE('',#959,#201);
#140=LINE('',#961,#202);
#141=LINE('',#963,#203);
#142=LINE('',#965,#204);
#143=LINE('',#966,#205);
#144=LINE('',#972,#206);
#145=LINE('',#974,#207);
#146=LINE('',#978,#208);
#147=LINE('',#983,#209);
#148=LINE('',#988,#210);
#149=LINE('',#993,#211);
#150=LINE('',#998,#212);
#151=LINE('',#999,#213);
#152=LINE('',#1000,#214);
#153=LINE('',#1003,#215);
#154=LINE('',#1005,#216);
#155=LINE('',#1009,#217);
#156=LINE('',#1013,#218);
#157=LINE('',#1017,#219);
#158=LINE('',#1020,#220);
#159=LINE('',#1022,#221);
#160=LINE('',#1023,#222);
#161=LINE('',#1028,#223);
#162=LINE('',#1031,#224);
#163=LINE('',#1034,#225);
#164=LINE('',#1035,#226);
#165=LINE('',#1038,#227);
#166=LINE('',#1039,#228);
#167=LINE('',#1042,#229);
#168=LINE('',#1043,#230);
#169=LINE('',#1045,#231);
#170=LINE('',#1046,#232);
#171=LINE('',#1050,#233);
#172=LINE('',#1054,#234);
#173=LINE('',#1058,#235);
#174=LINE('',#1063,#236);
#175=LINE('',#1067,#237);
#176=LINE('',#1070,#238);
#177=LINE('',#1072,#239);
#178=LINE('',#1073,#240);
#179=LINE('',#1075,#241);
#180=LINE('',#1077,#242);
#181=LINE('',#1080,#243);
#182=LINE('',#1081,#244);
#183=LINE('',#1083,#245);
#184=LINE('',#1085,#246);
#185=LINE('',#1087,#247);
#186=LINE('',#1089,#248);
#187=VECTOR('',#733,10.);
#188=VECTOR('',#736,10.);
#189=VECTOR('',#739,10.);
#190=VECTOR('',#740,10.);
#191=VECTOR('',#741,10.);
#192=VECTOR('',#752,10.);
#193=VECTOR('',#755,10.);
#194=VECTOR('',#756,10.);
#195=VECTOR('',#757,10.);
#196=VECTOR('',#758,10.);
#197=VECTOR('',#759,10.);
#198=VECTOR('',#766,10.);
#199=VECTOR('',#767,10.);
#200=VECTOR('',#770,10.);
#201=VECTOR('',#771,10.);
#202=VECTOR('',#772,10.);
#203=VECTOR('',#773,10.);
#204=VECTOR('',#774,10.);
#205=VECTOR('',#775,10.);
#206=VECTOR('',#782,1.25);
#207=VECTOR('',#785,1.25);
#208=VECTOR('',#790,1.25);
#209=VECTOR('',#795,1.25);
#210=VECTOR('',#802,1.25);
#211=VECTOR('',#807,1.25);
#212=VECTOR('',#812,10.);
#213=VECTOR('',#813,10.);
#214=VECTOR('',#814,10.);
#215=VECTOR('',#817,10.);
#216=VECTOR('',#818,10.);
#217=VECTOR('',#821,10.);
#218=VECTOR('',#824,10.);
#219=VECTOR('',#827,10.);
#220=VECTOR('',#830,10.);
#221=VECTOR('',#831,10.);
#222=VECTOR('',#832,10.);
#223=VECTOR('',#835,10.);
#224=VECTOR('',#838,10.);
#225=VECTOR('',#841,10.);
#226=VECTOR('',#842,10.);
#227=VECTOR('',#845,10.);
#228=VECTOR('',#846,10.);
#229=VECTOR('',#849,10.);
#230=VECTOR('',#850,10.);
#231=VECTOR('',#851,10.);
#232=VECTOR('',#852,10.);
#233=VECTOR('',#855,10.);
#234=VECTOR('',#858,10.);
#235=VECTOR('',#861,10.);
#236=VECTOR('',#866,10.);
#237=VECTOR('',#869,10.);
#238=VECTOR('',#874,10.);
#239=VECTOR('',#877,10.);
#240=VECTOR('',#878,10.);
#241=VECTOR('',#881,10.);
#242=VECTOR('',#884,10.);
#243=VECTOR('',#889,10.);
#244=VECTOR('',#890,10.);
#245=VECTOR('',#893,10.);
#246=VECTOR('',#896,10.);
#247=VECTOR('',#899,10.);
#248=VECTOR('',#902,10.);
#249=CIRCLE('',#668,2.00000000000018);
#250=CIRCLE('',#669,2.00000000000018);
#251=CIRCLE('',#671,1.2645);
#252=CIRCLE('',#672,1.2645);
#253=CIRCLE('',#674,2.00000000000009);
#254=CIRCLE('',#675,2.00000000000009);
#255=CIRCLE('',#677,1.2645);
#256=CIRCLE('',#678,1.2645);
#257=CIRCLE('',#681,1.2645);
#258=CIRCLE('',#682,1.2645);
#259=CIRCLE('',#686,1.2645);
#260=CIRCLE('',#688,1.2645);
#261=CIRCLE('',#689,1.2645);
#262=CIRCLE('',#691,1.2645);
#263=CIRCLE('',#693,1.2645);
#264=CIRCLE('',#694,1.2645);
#265=CIRCLE('',#697,2.);
#266=CIRCLE('',#698,4.);
#267=CIRCLE('',#699,4.);
#268=CIRCLE('',#700,2.);
#269=CIRCLE('',#701,2.25);
#270=CIRCLE('',#702,2.25);
#271=CIRCLE('',#707,4.);
#272=CIRCLE('',#708,4.);
#273=CIRCLE('',#709,2.);
#274=CIRCLE('',#710,2.);
#275=CIRCLE('',#711,2.25);
#276=CIRCLE('',#712,2.25);
#277=VERTEX_POINT('',#913);
#278=VERTEX_POINT('',#914);
#279=VERTEX_POINT('',#916);
#280=VERTEX_POINT('',#918);
#281=VERTEX_POINT('',#922);
#282=VERTEX_POINT('',#924);
#283=VERTEX_POINT('',#927);
#284=VERTEX_POINT('',#929);
#285=VERTEX_POINT('',#932);
#286=VERTEX_POINT('',#934);
#287=VERTEX_POINT('',#938);
#288=VERTEX_POINT('',#940);
#289=VERTEX_POINT('',#942);
#290=VERTEX_POINT('',#944);
#291=VERTEX_POINT('',#947);
#292=VERTEX_POINT('',#949);
#293=VERTEX_POINT('',#952);
#294=VERTEX_POINT('',#956);
#295=VERTEX_POINT('',#957);
#296=VERTEX_POINT('',#960);
#297=VERTEX_POINT('',#962);
#298=VERTEX_POINT('',#964);
#299=VERTEX_POINT('',#967);
#300=VERTEX_POINT('',#969);
#301=VERTEX_POINT('',#976);
#302=VERTEX_POINT('',#980);
#303=VERTEX_POINT('',#982);
#304=VERTEX_POINT('',#986);
#305=VERTEX_POINT('',#990);
#306=VERTEX_POINT('',#992);
#307=VERTEX_POINT('',#996);
#308=VERTEX_POINT('',#997);
#309=VERTEX_POINT('',#1002);
#310=VERTEX_POINT('',#1004);
#311=VERTEX_POINT('',#1006);
#312=VERTEX_POINT('',#1008);
#313=VERTEX_POINT('',#1010);
#314=VERTEX_POINT('',#1012);
#315=VERTEX_POINT('',#1014);
#316=VERTEX_POINT('',#1016);
#317=VERTEX_POINT('',#1018);
#318=VERTEX_POINT('',#1021);
#319=VERTEX_POINT('',#1024);
#320=VERTEX_POINT('',#1025);
#321=VERTEX_POINT('',#1027);
#322=VERTEX_POINT('',#1029);
#323=VERTEX_POINT('',#1033);
#324=VERTEX_POINT('',#1037);
#325=VERTEX_POINT('',#1041);
#326=VERTEX_POINT('',#1044);
#327=VERTEX_POINT('',#1048);
#328=VERTEX_POINT('',#1049);
#329=VERTEX_POINT('',#1051);
#330=VERTEX_POINT('',#1053);
#331=VERTEX_POINT('',#1055);
#332=VERTEX_POINT('',#1057);
#333=VERTEX_POINT('',#1061);
#334=VERTEX_POINT('',#1062);
#335=VERTEX_POINT('',#1064);
#336=VERTEX_POINT('',#1066);
#337=EDGE_CURVE('',#277,#278,#249,.T.);
#338=EDGE_CURVE('',#279,#277,#125,.T.);
#339=EDGE_CURVE('',#280,#279,#250,.T.);
#340=EDGE_CURVE('',#280,#278,#126,.T.);
#341=EDGE_CURVE('',#278,#281,#127,.T.);
#342=EDGE_CURVE('',#282,#280,#128,.T.);
#343=EDGE_CURVE('',#282,#281,#129,.T.);
#344=EDGE_CURVE('',#283,#283,#251,.T.);
#345=EDGE_CURVE('',#284,#284,#252,.T.);
#346=EDGE_CURVE('',#281,#285,#253,.T.);
#347=EDGE_CURVE('',#286,#282,#254,.T.);
#348=EDGE_CURVE('',#286,#285,#130,.T.);
#349=EDGE_CURVE('',#285,#287,#131,.T.);
#350=EDGE_CURVE('',#286,#288,#132,.T.);
#351=EDGE_CURVE('',#289,#288,#133,.T.);
#352=EDGE_CURVE('',#290,#289,#134,.T.);
#353=EDGE_CURVE('',#287,#290,#135,.T.);
#354=EDGE_CURVE('',#291,#291,#255,.T.);
#355=EDGE_CURVE('',#292,#292,#256,.T.);
#356=EDGE_CURVE('',#293,#279,#136,.T.);
#357=EDGE_CURVE('',#288,#293,#137,.T.);
#358=EDGE_CURVE('',#294,#295,#138,.T.);
#359=EDGE_CURVE('',#295,#289,#139,.T.);
#360=EDGE_CURVE('',#293,#296,#140,.T.);
#361=EDGE_CURVE('',#296,#297,#141,.T.);
#362=EDGE_CURVE('',#297,#298,#142,.T.);
#363=EDGE_CURVE('',#298,#294,#143,.T.);
#364=EDGE_CURVE('',#299,#299,#257,.T.);
#365=EDGE_CURVE('',#300,#300,#258,.T.);
#366=EDGE_CURVE('',#283,#299,#144,.T.);
#367=EDGE_CURVE('',#284,#300,#145,.T.);
#368=EDGE_CURVE('',#301,#301,#259,.T.);
#369=EDGE_CURVE('',#301,#292,#146,.T.);
#370=EDGE_CURVE('',#302,#302,#260,.T.);
#371=EDGE_CURVE('',#302,#303,#147,.T.);
#372=EDGE_CURVE('',#303,#303,#261,.T.);
#373=EDGE_CURVE('',#304,#304,#262,.T.);
#374=EDGE_CURVE('',#304,#291,#148,.T.);
#375=EDGE_CURVE('',#305,#305,#263,.T.);
#376=EDGE_CURVE('',#305,#306,#149,.T.);
#377=EDGE_CURVE('',#306,#306,#264,.T.);
#378=EDGE_CURVE('',#307,#308,#150,.T.);
#379=EDGE_CURVE('',#308,#296,#151,.T.);
#380=EDGE_CURVE('',#277,#307,#152,.T.);
#381=EDGE_CURVE('',#309,#287,#153,.T.);
#382=EDGE_CURVE('',#310,#309,#154,.T.);
#383=EDGE_CURVE('',#311,#310,#265,.T.);
#384=EDGE_CURVE('',#312,#311,#155,.T.);
#385=EDGE_CURVE('',#313,#312,#266,.T.);
#386=EDGE_CURVE('',#314,#313,#156,.T.);
#387=EDGE_CURVE('',#315,#314,#267,.T.);
#388=EDGE_CURVE('',#316,#315,#157,.T.);
#389=EDGE_CURVE('',#317,#316,#268,.T.);
#390=EDGE_CURVE('',#317,#294,#158,.T.);
#391=EDGE_CURVE('',#318,#298,#159,.T.);
#392=EDGE_CURVE('',#307,#318,#160,.T.);
#393=EDGE_CURVE('',#319,#320,#269,.T.);
#394=EDGE_CURVE('',#321,#319,#161,.T.);
#395=EDGE_CURVE('',#322,#321,#270,.T.);
#396=EDGE_CURVE('',#320,#322,#162,.T.);
#397=EDGE_CURVE('',#297,#323,#163,.T.);
#398=EDGE_CURVE('',#318,#323,#164,.T.);
#399=EDGE_CURVE('',#309,#324,#165,.T.);
#400=EDGE_CURVE('',#290,#324,#166,.T.);
#401=EDGE_CURVE('',#310,#325,#167,.T.);
#402=EDGE_CURVE('',#324,#295,#168,.T.);
#403=EDGE_CURVE('',#317,#326,#169,.T.);
#404=EDGE_CURVE('',#325,#326,#170,.T.);
#405=EDGE_CURVE('',#327,#328,#171,.T.);
#406=EDGE_CURVE('',#328,#329,#271,.T.);
#407=EDGE_CURVE('',#329,#330,#172,.T.);
#408=EDGE_CURVE('',#330,#331,#272,.T.);
#409=EDGE_CURVE('',#331,#332,#173,.T.);
#410=EDGE_CURVE('',#332,#325,#273,.T.);
#411=EDGE_CURVE('',#326,#327,#274,.T.);
#412=EDGE_CURVE('',#333,#334,#174,.T.);
#413=EDGE_CURVE('',#334,#335,#275,.T.);
#414=EDGE_CURVE('',#335,#336,#175,.T.);
#415=EDGE_CURVE('',#336,#333,#276,.T.);
#416=EDGE_CURVE('',#323,#308,#176,.T.);
#417=EDGE_CURVE('',#319,#336,#177,.T.);
#418=EDGE_CURVE('',#321,#335,#178,.T.);
#419=EDGE_CURVE('',#322,#334,#179,.T.);
#420=EDGE_CURVE('',#320,#333,#180,.T.);
#421=EDGE_CURVE('',#311,#332,#181,.T.);
#422=EDGE_CURVE('',#312,#331,#182,.T.);
#423=EDGE_CURVE('',#313,#330,#183,.T.);
#424=EDGE_CURVE('',#314,#329,#184,.T.);
#425=EDGE_CURVE('',#315,#328,#185,.T.);
#426=EDGE_CURVE('',#316,#327,#186,.T.);
#427=ORIENTED_EDGE('',*,*,#337,.F.);
#428=ORIENTED_EDGE('',*,*,#338,.F.);
#429=ORIENTED_EDGE('',*,*,#339,.F.);
#430=ORIENTED_EDGE('',*,*,#340,.T.);
#431=ORIENTED_EDGE('',*,*,#341,.F.);
#432=ORIENTED_EDGE('',*,*,#340,.F.);
#433=ORIENTED_EDGE('',*,*,#342,.F.);
#434=ORIENTED_EDGE('',*,*,#343,.T.);
#435=ORIENTED_EDGE('',*,*,#344,.F.);
#436=ORIENTED_EDGE('',*,*,#345,.F.);
#437=ORIENTED_EDGE('',*,*,#346,.F.);
#438=ORIENTED_EDGE('',*,*,#343,.F.);
#439=ORIENTED_EDGE('',*,*,#347,.F.);
#440=ORIENTED_EDGE('',*,*,#348,.T.);
#441=ORIENTED_EDGE('',*,*,#349,.F.);
#442=ORIENTED_EDGE('',*,*,#348,.F.);
#443=ORIENTED_EDGE('',*,*,#350,.T.);
#444=ORIENTED_EDGE('',*,*,#351,.F.);
#445=ORIENTED_EDGE('',*,*,#352,.F.);
#446=ORIENTED_EDGE('',*,*,#353,.F.);
#447=ORIENTED_EDGE('',*,*,#354,.T.);
#448=ORIENTED_EDGE('',*,*,#355,.T.);
#449=ORIENTED_EDGE('',*,*,#347,.T.);
#450=ORIENTED_EDGE('',*,*,#342,.T.);
#451=ORIENTED_EDGE('',*,*,#339,.T.);
#452=ORIENTED_EDGE('',*,*,#356,.F.);
#453=ORIENTED_EDGE('',*,*,#357,.F.);
#454=ORIENTED_EDGE('',*,*,#350,.F.);
#455=ORIENTED_EDGE('',*,*,#358,.T.);
#456=ORIENTED_EDGE('',*,*,#359,.T.);
#457=ORIENTED_EDGE('',*,*,#351,.T.);
#458=ORIENTED_EDGE('',*,*,#357,.T.);
#459=ORIENTED_EDGE('',*,*,#360,.T.);
#460=ORIENTED_EDGE('',*,*,#361,.T.);
#461=ORIENTED_EDGE('',*,*,#362,.T.);
#462=ORIENTED_EDGE('',*,*,#363,.T.);
#463=ORIENTED_EDGE('',*,*,#364,.T.);
#464=ORIENTED_EDGE('',*,*,#365,.T.);
#465=ORIENTED_EDGE('',*,*,#344,.T.);
#466=ORIENTED_EDGE('',*,*,#366,.T.);
#467=ORIENTED_EDGE('',*,*,#364,.F.);
#468=ORIENTED_EDGE('',*,*,#366,.F.);
#469=ORIENTED_EDGE('',*,*,#345,.T.);
#470=ORIENTED_EDGE('',*,*,#367,.T.);
#471=ORIENTED_EDGE('',*,*,#365,.F.);
#472=ORIENTED_EDGE('',*,*,#367,.F.);
#473=ORIENTED_EDGE('',*,*,#368,.F.);
#474=ORIENTED_EDGE('',*,*,#369,.T.);
#475=ORIENTED_EDGE('',*,*,#355,.F.);
#476=ORIENTED_EDGE('',*,*,#369,.F.);
#477=ORIENTED_EDGE('',*,*,#370,.F.);
#478=ORIENTED_EDGE('',*,*,#371,.T.);
#479=ORIENTED_EDGE('',*,*,#372,.F.);
#480=ORIENTED_EDGE('',*,*,#371,.F.);
#481=ORIENTED_EDGE('',*,*,#373,.F.);
#482=ORIENTED_EDGE('',*,*,#374,.T.);
#483=ORIENTED_EDGE('',*,*,#354,.F.);
#484=ORIENTED_EDGE('',*,*,#374,.F.);
#485=ORIENTED_EDGE('',*,*,#375,.F.);
#486=ORIENTED_EDGE('',*,*,#376,.T.);
#487=ORIENTED_EDGE('',*,*,#377,.F.);
#488=ORIENTED_EDGE('',*,*,#376,.F.);
#489=ORIENTED_EDGE('',*,*,#378,.T.);
#490=ORIENTED_EDGE('',*,*,#379,.T.);
#491=ORIENTED_EDGE('',*,*,#360,.F.);
#492=ORIENTED_EDGE('',*,*,#356,.T.);
#493=ORIENTED_EDGE('',*,*,#338,.T.);
#494=ORIENTED_EDGE('',*,*,#380,.T.);
#495=ORIENTED_EDGE('',*,*,#370,.T.);
#496=ORIENTED_EDGE('',*,*,#375,.T.);
#497=ORIENTED_EDGE('',*,*,#349,.T.);
#498=ORIENTED_EDGE('',*,*,#381,.F.);
#499=ORIENTED_EDGE('',*,*,#382,.F.);
#500=ORIENTED_EDGE('',*,*,#383,.F.);
#501=ORIENTED_EDGE('',*,*,#384,.F.);
#502=ORIENTED_EDGE('',*,*,#385,.F.);
#503=ORIENTED_EDGE('',*,*,#386,.F.);
#504=ORIENTED_EDGE('',*,*,#387,.F.);
#505=ORIENTED_EDGE('',*,*,#388,.F.);
#506=ORIENTED_EDGE('',*,*,#389,.F.);
#507=ORIENTED_EDGE('',*,*,#390,.T.);
#508=ORIENTED_EDGE('',*,*,#363,.F.);
#509=ORIENTED_EDGE('',*,*,#391,.F.);
#510=ORIENTED_EDGE('',*,*,#392,.F.);
#511=ORIENTED_EDGE('',*,*,#380,.F.);
#512=ORIENTED_EDGE('',*,*,#337,.T.);
#513=ORIENTED_EDGE('',*,*,#341,.T.);
#514=ORIENTED_EDGE('',*,*,#346,.T.);
#515=ORIENTED_EDGE('',*,*,#393,.F.);
#516=ORIENTED_EDGE('',*,*,#394,.F.);
#517=ORIENTED_EDGE('',*,*,#395,.F.);
#518=ORIENTED_EDGE('',*,*,#396,.F.);
#519=ORIENTED_EDGE('',*,*,#397,.T.);
#520=ORIENTED_EDGE('',*,*,#398,.F.);
#521=ORIENTED_EDGE('',*,*,#391,.T.);
#522=ORIENTED_EDGE('',*,*,#362,.F.);
#523=ORIENTED_EDGE('',*,*,#372,.T.);
#524=ORIENTED_EDGE('',*,*,#377,.T.);
#525=ORIENTED_EDGE('',*,*,#399,.F.);
#526=ORIENTED_EDGE('',*,*,#381,.T.);
#527=ORIENTED_EDGE('',*,*,#353,.T.);
#528=ORIENTED_EDGE('',*,*,#400,.T.);
#529=ORIENTED_EDGE('',*,*,#401,.F.);
#530=ORIENTED_EDGE('',*,*,#382,.T.);
#531=ORIENTED_EDGE('',*,*,#399,.T.);
#532=ORIENTED_EDGE('',*,*,#402,.T.);
#533=ORIENTED_EDGE('',*,*,#358,.F.);
#534=ORIENTED_EDGE('',*,*,#390,.F.);
#535=ORIENTED_EDGE('',*,*,#403,.T.);
#536=ORIENTED_EDGE('',*,*,#404,.F.);
#537=ORIENTED_EDGE('',*,*,#368,.T.);
#538=ORIENTED_EDGE('',*,*,#373,.T.);
#539=ORIENTED_EDGE('',*,*,#405,.T.);
#540=ORIENTED_EDGE('',*,*,#406,.T.);
#541=ORIENTED_EDGE('',*,*,#407,.T.);
#542=ORIENTED_EDGE('',*,*,#408,.T.);
#543=ORIENTED_EDGE('',*,*,#409,.T.);
#544=ORIENTED_EDGE('',*,*,#410,.T.);
#545=ORIENTED_EDGE('',*,*,#404,.T.);
#546=ORIENTED_EDGE('',*,*,#411,.T.);
#547=ORIENTED_EDGE('',*,*,#412,.T.);
#548=ORIENTED_EDGE('',*,*,#413,.T.);
#549=ORIENTED_EDGE('',*,*,#414,.T.);
#550=ORIENTED_EDGE('',*,*,#415,.T.);
#551=ORIENTED_EDGE('',*,*,#398,.T.);
#552=ORIENTED_EDGE('',*,*,#416,.T.);
#553=ORIENTED_EDGE('',*,*,#378,.F.);
#554=ORIENTED_EDGE('',*,*,#392,.T.);
#555=ORIENTED_EDGE('',*,*,#394,.T.);
#556=ORIENTED_EDGE('',*,*,#417,.T.);
#557=ORIENTED_EDGE('',*,*,#414,.F.);
#558=ORIENTED_EDGE('',*,*,#418,.F.);
#559=ORIENTED_EDGE('',*,*,#395,.T.);
#560=ORIENTED_EDGE('',*,*,#418,.T.);
#561=ORIENTED_EDGE('',*,*,#413,.F.);
#562=ORIENTED_EDGE('',*,*,#419,.F.);
#563=ORIENTED_EDGE('',*,*,#396,.T.);
#564=ORIENTED_EDGE('',*,*,#419,.T.);
#565=ORIENTED_EDGE('',*,*,#412,.F.);
#566=ORIENTED_EDGE('',*,*,#420,.F.);
#567=ORIENTED_EDGE('',*,*,#393,.T.);
#568=ORIENTED_EDGE('',*,*,#420,.T.);
#569=ORIENTED_EDGE('',*,*,#415,.F.);
#570=ORIENTED_EDGE('',*,*,#417,.F.);
#571=ORIENTED_EDGE('',*,*,#384,.T.);
#572=ORIENTED_EDGE('',*,*,#421,.T.);
#573=ORIENTED_EDGE('',*,*,#409,.F.);
#574=ORIENTED_EDGE('',*,*,#422,.F.);
#575=ORIENTED_EDGE('',*,*,#385,.T.);
#576=ORIENTED_EDGE('',*,*,#422,.T.);
#577=ORIENTED_EDGE('',*,*,#408,.F.);
#578=ORIENTED_EDGE('',*,*,#423,.F.);
#579=ORIENTED_EDGE('',*,*,#386,.T.);
#580=ORIENTED_EDGE('',*,*,#423,.T.);
#581=ORIENTED_EDGE('',*,*,#407,.F.);
#582=ORIENTED_EDGE('',*,*,#424,.F.);
#583=ORIENTED_EDGE('',*,*,#387,.T.);
#584=ORIENTED_EDGE('',*,*,#424,.T.);
#585=ORIENTED_EDGE('',*,*,#406,.F.);
#586=ORIENTED_EDGE('',*,*,#425,.F.);
#587=ORIENTED_EDGE('',*,*,#388,.T.);
#588=ORIENTED_EDGE('',*,*,#425,.T.);
#589=ORIENTED_EDGE('',*,*,#405,.F.);
#590=ORIENTED_EDGE('',*,*,#426,.F.);
#591=ORIENTED_EDGE('',*,*,#389,.T.);
#592=ORIENTED_EDGE('',*,*,#426,.T.);
#593=ORIENTED_EDGE('',*,*,#411,.F.);
#594=ORIENTED_EDGE('',*,*,#403,.F.);
#595=ORIENTED_EDGE('',*,*,#383,.T.);
#596=ORIENTED_EDGE('',*,*,#401,.T.);
#597=ORIENTED_EDGE('',*,*,#410,.F.);
#598=ORIENTED_EDGE('',*,*,#421,.F.);
#599=ORIENTED_EDGE('',*,*,#397,.F.);
#600=ORIENTED_EDGE('',*,*,#361,.F.);
#601=ORIENTED_EDGE('',*,*,#379,.F.);
#602=ORIENTED_EDGE('',*,*,#416,.F.);
#603=ORIENTED_EDGE('',*,*,#400,.F.);
#604=ORIENTED_EDGE('',*,*,#352,.T.);
#605=ORIENTED_EDGE('',*,*,#359,.F.);
#606=ORIENTED_EDGE('',*,*,#402,.F.);
#607=CYLINDRICAL_SURFACE('',#667,2.00000000000018);
#608=CYLINDRICAL_SURFACE('',#673,2.00000000000009);
#609=CYLINDRICAL_SURFACE('',#683,1.2645);
#610=CYLINDRICAL_SURFACE('',#684,1.2645);
#611=CYLINDRICAL_SURFACE('',#685,1.2645);
#612=CYLINDRICAL_SURFACE('',#687,1.2645);
#613=CYLINDRICAL_SURFACE('',#690,1.2645);
#614=CYLINDRICAL_SURFACE('',#692,1.2645);
#615=CYLINDRICAL_SURFACE('',#715,2.25);
#616=CYLINDRICAL_SURFACE('',#717,2.25);
#617=CYLINDRICAL_SURFACE('',#719,4.);
#618=CYLINDRICAL_SURFACE('',#721,4.);
#619=CYLINDRICAL_SURFACE('',#723,2.);
#620=CYLINDRICAL_SURFACE('',#724,2.);
#621=ADVANCED_FACE('',(#47),#607,.F.);
#622=ADVANCED_FACE('',(#48,#15,#16),#29,.F.);
#623=ADVANCED_FACE('',(#49),#608,.F.);
#624=ADVANCED_FACE('',(#50,#17,#18),#30,.T.);
#625=ADVANCED_FACE('',(#51),#31,.T.);
#626=ADVANCED_FACE('',(#52,#19,#20),#32,.T.);
#627=ADVANCED_FACE('',(#53),#609,.F.);
#628=ADVANCED_FACE('',(#54),#610,.F.);
#629=ADVANCED_FACE('',(#55),#611,.F.);
#630=ADVANCED_FACE('',(#56),#612,.F.);
#631=ADVANCED_FACE('',(#57),#613,.F.);
#632=ADVANCED_FACE('',(#58),#614,.F.);
#633=ADVANCED_FACE('',(#59,#21,#22),#33,.T.);
#634=ADVANCED_FACE('',(#60,#23),#34,.F.);
#635=ADVANCED_FACE('',(#61,#24,#25),#35,.T.);
#636=ADVANCED_FACE('',(#62),#36,.T.);
#637=ADVANCED_FACE('',(#63,#26,#27),#37,.T.);
#638=ADVANCED_FACE('',(#64,#28),#38,.T.);
#639=ADVANCED_FACE('',(#65),#39,.T.);
#640=ADVANCED_FACE('',(#66),#40,.T.);
#641=ADVANCED_FACE('',(#67),#615,.F.);
#642=ADVANCED_FACE('',(#68),#41,.T.);
#643=ADVANCED_FACE('',(#69),#616,.F.);
#644=ADVANCED_FACE('',(#70),#42,.T.);
#645=ADVANCED_FACE('',(#71),#617,.T.);
#646=ADVANCED_FACE('',(#72),#43,.T.);
#647=ADVANCED_FACE('',(#73),#618,.T.);
#648=ADVANCED_FACE('',(#74),#44,.T.);
#649=ADVANCED_FACE('',(#75),#619,.F.);
#650=ADVANCED_FACE('',(#76),#620,.F.);
#651=ADVANCED_FACE('',(#77),#45,.T.);
#652=ADVANCED_FACE('',(#78),#46,.T.);
#653=CLOSED_SHELL('',(#621,#622,#623,#624,#625,#626,#627,#628,#629,#630,
#631,#632,#633,#634,#635,#636,#637,#638,#639,#640,#641,#642,#643,#644,#645,
#646,#647,#648,#649,#650,#651,#652));
#654=DERIVED_UNIT_ELEMENT(#656,1.);
#655=DERIVED_UNIT_ELEMENT(#1099,-3.);
#656=(
MASS_UNIT()
NAMED_UNIT(*)
SI_UNIT(.KILO.,.GRAM.)
);
#657=DERIVED_UNIT((#654,#655));
#658=MEASURE_REPRESENTATION_ITEM('density measure',
POSITIVE_RATIO_MEASURE(8470.),#657);
#659=PROPERTY_DEFINITION_REPRESENTATION(#664,#661);
#660=PROPERTY_DEFINITION_REPRESENTATION(#665,#662);
#661=REPRESENTATION('material name',(#663),#1096);
#662=REPRESENTATION('density',(#658),#1096);
#663=DESCRIPTIVE_REPRESENTATION_ITEM('Brass, Soft Yellow',
'Brass, Soft Yellow');
#664=PROPERTY_DEFINITION('material property','material name',#1106);
#665=PROPERTY_DEFINITION('material property','density of part',#1106);
#666=AXIS2_PLACEMENT_3D('',#911,#727,#728);
#667=AXIS2_PLACEMENT_3D('',#912,#729,#730);
#668=AXIS2_PLACEMENT_3D('',#915,#731,#732);
#669=AXIS2_PLACEMENT_3D('',#919,#734,#735);
#670=AXIS2_PLACEMENT_3D('',#921,#737,#738);
#671=AXIS2_PLACEMENT_3D('',#928,#742,#743);
#672=AXIS2_PLACEMENT_3D('',#930,#744,#745);
#673=AXIS2_PLACEMENT_3D('',#931,#746,#747);
#674=AXIS2_PLACEMENT_3D('',#933,#748,#749);
#675=AXIS2_PLACEMENT_3D('',#935,#750,#751);
#676=AXIS2_PLACEMENT_3D('',#937,#753,#754);
#677=AXIS2_PLACEMENT_3D('',#948,#760,#761);
#678=AXIS2_PLACEMENT_3D('',#950,#762,#763);
#679=AXIS2_PLACEMENT_3D('',#951,#764,#765);
#680=AXIS2_PLACEMENT_3D('',#955,#768,#769);
#681=AXIS2_PLACEMENT_3D('',#968,#776,#777);
#682=AXIS2_PLACEMENT_3D('',#970,#778,#779);
#683=AXIS2_PLACEMENT_3D('',#971,#780,#781);
#684=AXIS2_PLACEMENT_3D('',#973,#783,#784);
#685=AXIS2_PLACEMENT_3D('',#975,#786,#787);
#686=AXIS2_PLACEMENT_3D('',#977,#788,#789);
#687=AXIS2_PLACEMENT_3D('',#979,#791,#792);
#688=AXIS2_PLACEMENT_3D('',#981,#793,#794);
#689=AXIS2_PLACEMENT_3D('',#984,#796,#797);
#690=AXIS2_PLACEMENT_3D('',#985,#798,#799);
#691=AXIS2_PLACEMENT_3D('',#987,#800,#801);
#692=AXIS2_PLACEMENT_3D('',#989,#803,#804);
#693=AXIS2_PLACEMENT_3D('',#991,#805,#806);
#694=AXIS2_PLACEMENT_3D('',#994,#808,#809);
#695=AXIS2_PLACEMENT_3D('',#995,#810,#811);
#696=AXIS2_PLACEMENT_3D('',#1001,#815,#816);
#697=AXIS2_PLACEMENT_3D('',#1007,#819,#820);
#698=AXIS2_PLACEMENT_3D('',#1011,#822,#823);
#699=AXIS2_PLACEMENT_3D('',#1015,#825,#826);
#700=AXIS2_PLACEMENT_3D('',#1019,#828,#829);
#701=AXIS2_PLACEMENT_3D('',#1026,#833,#834);
#702=AXIS2_PLACEMENT_3D('',#1030,#836,#837);
#703=AXIS2_PLACEMENT_3D('',#1032,#839,#840);
#704=AXIS2_PLACEMENT_3D('',#1036,#843,#844);
#705=AXIS2_PLACEMENT_3D('',#1040,#847,#848);
#706=AXIS2_PLACEMENT_3D('',#1047,#853,#854);
#707=AXIS2_PLACEMENT_3D('',#1052,#856,#857);
#708=AXIS2_PLACEMENT_3D('',#1056,#859,#860);
#709=AXIS2_PLACEMENT_3D('',#1059,#862,#863);
#710=AXIS2_PLACEMENT_3D('',#1060,#864,#865);
#711=AXIS2_PLACEMENT_3D('',#1065,#867,#868);
#712=AXIS2_PLACEMENT_3D('',#1068,#870,#871);
#713=AXIS2_PLACEMENT_3D('',#1069,#872,#873);
#714=AXIS2_PLACEMENT_3D('',#1071,#875,#876);
#715=AXIS2_PLACEMENT_3D('',#1074,#879,#880);
#716=AXIS2_PLACEMENT_3D('',#1076,#882,#883);
#717=AXIS2_PLACEMENT_3D('',#1078,#885,#886);
#718=AXIS2_PLACEMENT_3D('',#1079,#887,#888);
#719=AXIS2_PLACEMENT_3D('',#1082,#891,#892);
#720=AXIS2_PLACEMENT_3D('',#1084,#894,#895);
#721=AXIS2_PLACEMENT_3D('',#1086,#897,#898);
#722=AXIS2_PLACEMENT_3D('',#1088,#900,#901);
#723=AXIS2_PLACEMENT_3D('',#1090,#903,#904);
#724=AXIS2_PLACEMENT_3D('',#1091,#905,#906);
#725=AXIS2_PLACEMENT_3D('',#1092,#907,#908);
#726=AXIS2_PLACEMENT_3D('',#1093,#909,#910);
#727=DIRECTION('axis',(0.,0.,1.));
#728=DIRECTION('refdir',(1.,0.,0.));
#729=DIRECTION('center_axis',(0.,0.,-1.));
#730=DIRECTION('ref_axis',(-1.11022302462506E-15,1.,0.));
#731=DIRECTION('center_axis',(0.,0.,1.));
#732=DIRECTION('ref_axis',(-1.11022302462506E-15,1.,0.));
#733=DIRECTION('',(0.,0.,-1.));
#734=DIRECTION('center_axis',(0.,0.,-1.));
#735=DIRECTION('ref_axis',(-1.11022302462506E-15,1.,0.));
#736=DIRECTION('',(0.,0.,-1.));
#737=DIRECTION('center_axis',(-1.,0.,0.));
#738=DIRECTION('ref_axis',(0.,1.,0.));
#739=DIRECTION('',(0.,-1.,0.));
#740=DIRECTION('',(0.,1.,0.));
#741=DIRECTION('',(0.,0.,-1.));
#742=DIRECTION('center_axis',(1.,0.,0.));
#743=DIRECTION('ref_axis',(0.,1.,0.));
#744=DIRECTION('center_axis',(1.,0.,0.));
#745=DIRECTION('ref_axis',(0.,1.,0.));
#746=DIRECTION('center_axis',(0.,0.,-1.));
#747=DIRECTION('ref_axis',(-0.999999999999958,2.90572641503659E-7,0.));
#748=DIRECTION('center_axis',(0.,0.,1.));
#749=DIRECTION('ref_axis',(-0.999999999999958,2.90572641503659E-7,0.));
#750=DIRECTION('center_axis',(0.,0.,-1.));
#751=DIRECTION('ref_axis',(-0.999999999999958,2.90572641503659E-7,0.));
#752=DIRECTION('',(0.,0.,-1.));
#753=DIRECTION('center_axis',(0.,1.,0.));
#754=DIRECTION('ref_axis',(-1.,0.,0.));
#755=DIRECTION('',(1.,0.,0.));
#756=DIRECTION('',(-1.,0.,0.));
#757=DIRECTION('',(0.,0.,-1.));
#758=DIRECTION('',(-1.,0.,0.));
#759=DIRECTION('',(0.,0.,1.));
#760=DIRECTION('center_axis',(0.,-1.,0.));
#761=DIRECTION('ref_axis',(1.,5.89377655047923E-16,0.));
#762=DIRECTION('center_axis',(0.,-1.,0.));
#763=DIRECTION('ref_axis',(1.,5.89377655047923E-16,0.));
#764=DIRECTION('center_axis',(0.,0.,1.));
#765=DIRECTION('ref_axis',(0.,-1.,0.));
#766=DIRECTION('',(1.,0.,0.));
#767=DIRECTION('',(0.,1.,0.));
#768=DIRECTION('center_axis',(-1.,0.,0.));
#769=DIRECTION('ref_axis',(0.,-1.,0.));
#770=DIRECTION('',(0.,0.,1.));
#771=DIRECTION('',(0.,1.,0.));
#772=DIRECTION('',(0.,0.,1.));
#773=DIRECTION('',(0.,1.,0.));
#774=DIRECTION('',(0.,0.,-1.));
#775=DIRECTION('',(0.,-1.,0.));
#776=DIRECTION('center_axis',(1.,0.,0.));
#777=DIRECTION('ref_axis',(0.,1.,0.));
#778=DIRECTION('center_axis',(1.,0.,0.));
#779=DIRECTION('ref_axis',(0.,1.,0.));
#780=DIRECTION('center_axis',(-1.,0.,0.));
#781=DIRECTION('ref_axis',(0.,1.,0.));
#782=DIRECTION('',(-1.,0.,0.));
#783=DIRECTION('center_axis',(-1.,0.,0.));
#784=DIRECTION('ref_axis',(0.,1.,0.));
#785=DIRECTION('',(-1.,0.,0.));
#786=DIRECTION('center_axis',(-5.89377655047923E-16,1.,0.));
#787=DIRECTION('ref_axis',(1.,5.89377655047923E-16,0.));
#788=DIRECTION('center_axis',(-5.9211894646675E-16,1.,0.));
#789=DIRECTION('ref_axis',(1.,5.89377655047923E-16,0.));
#790=DIRECTION('',(-5.89377655047923E-16,1.,0.));
#791=DIRECTION('center_axis',(-5.89377655047923E-16,1.,0.));
#792=DIRECTION('ref_axis',(1.,5.89377655047923E-16,0.));
#793=DIRECTION('center_axis',(0.,1.,0.));
#794=DIRECTION('ref_axis',(1.,5.89377655047923E-16,0.));
#795=DIRECTION('',(-5.89377655047923E-16,1.,0.));
#796=DIRECTION('center_axis',(-5.9211894646675E-16,-1.,0.));
#797=DIRECTION('ref_axis',(1.,5.89377655047923E-16,0.));
#798=DIRECTION('center_axis',(-5.89377655047923E-16,1.,0.));
#799=DIRECTION('ref_axis',(1.,5.89377655047923E-16,0.));
#800=DIRECTION('center_axis',(-5.9211894646675E-16,1.,0.));
#801=DIRECTION('ref_axis',(1.,5.89377655047923E-16,0.));
#802=DIRECTION('',(-5.89377655047923E-16,1.,0.));
#803=DIRECTION('center_axis',(-5.89377655047923E-16,1.,0.));
#804=DIRECTION('ref_axis',(1.,5.89377655047923E-16,0.));
#805=DIRECTION('center_axis',(0.,1.,0.));
#806=DIRECTION('ref_axis',(1.,5.89377655047923E-16,0.));
#807=DIRECTION('',(-5.89377655047923E-16,1.,0.));
#808=DIRECTION('center_axis',(-5.9211894646675E-16,-1.,0.));
#809=DIRECTION('ref_axis',(1.,5.89377655047923E-16,0.));
#810=DIRECTION('center_axis',(0.,-1.,0.));
#811=DIRECTION('ref_axis',(1.,0.,0.));
#812=DIRECTION('',(0.,0.,1.));
#813=DIRECTION('',(-1.,0.,0.));
#814=DIRECTION('',(1.,0.,0.));
#815=DIRECTION('center_axis',(0.,0.,1.));
#816=DIRECTION('ref_axis',(0.,-1.,0.));
#817=DIRECTION('',(-6.2172489379009E-15,1.,0.));
#818=DIRECTION('',(1.,5.9211894646675E-16,0.));
#819=DIRECTION('center_axis',(0.,0.,-1.));
#820=DIRECTION('ref_axis',(0.,-1.,0.));
#821=DIRECTION('',(-1.11869800954596E-15,1.,0.));
#822=DIRECTION('center_axis',(0.,0.,1.));
#823=DIRECTION('ref_axis',(4.16333634234434E-16,-1.,0.));
#824=DIRECTION('',(1.,0.,0.));
#825=DIRECTION('center_axis',(0.,0.,1.));
#826=DIRECTION('ref_axis',(-1.,-4.16333634234435E-16,0.));
#827=DIRECTION('',(6.77998793664218E-17,-1.,0.));
#828=DIRECTION('center_axis',(0.,0.,-1.));
#829=DIRECTION('ref_axis',(-1.,2.22044604925031E-15,0.));
#830=DIRECTION('',(-1.,0.,0.));
#831=DIRECTION('',(-1.,5.9211894646675E-16,0.));
#832=DIRECTION('',(6.2172489379009E-15,1.,0.));
#833=DIRECTION('center_axis',(0.,0.,-1.));
#834=DIRECTION('ref_axis',(1.,2.46716227694479E-16,0.));
#835=DIRECTION('',(5.96400798352357E-16,-1.,0.));
#836=DIRECTION('center_axis',(0.,0.,-1.));
#837=DIRECTION('ref_axis',(-1.,0.,0.));
#838=DIRECTION('',(5.50523813863714E-17,1.,0.));
#839=DIRECTION('center_axis',(5.9211894646675E-16,1.,0.));
#840=DIRECTION('ref_axis',(-1.,5.9211894646675E-16,0.));
#841=DIRECTION('',(1.,-5.9211894646675E-16,0.));
#842=DIRECTION('',(0.,0.,1.));
#843=DIRECTION('center_axis',(1.,6.2172489379009E-15,0.));
#844=DIRECTION('ref_axis',(-6.2172489379009E-15,1.,0.));
#845=DIRECTION('',(0.,0.,1.));
#846=DIRECTION('',(6.2172489379009E-15,-1.,0.));
#847=DIRECTION('center_axis',(5.9211894646675E-16,-1.,0.));
#848=DIRECTION('ref_axis',(1.,5.9211894646675E-16,0.));
#849=DIRECTION('',(0.,0.,1.));
#850=DIRECTION('',(-1.,0.,0.));
#851=DIRECTION('',(0.,0.,1.));
#852=DIRECTION('',(-1.,-5.9211894646675E-16,0.));
#853=DIRECTION('center_axis',(0.,0.,1.));
#854=DIRECTION('ref_axis',(0.,-1.,0.));
#855=DIRECTION('',(6.77998793664218E-17,-1.,0.));
#856=DIRECTION('center_axis',(0.,0.,1.));
#857=DIRECTION('ref_axis',(-1.,-4.16333634234435E-16,0.));
#858=DIRECTION('',(1.,0.,0.));
#859=DIRECTION('center_axis',(0.,0.,1.));
#860=DIRECTION('ref_axis',(4.16333634234434E-16,-1.,0.));
#861=DIRECTION('',(-1.11869800954596E-15,1.,0.));
#862=DIRECTION('center_axis',(0.,0.,-1.));
#863=DIRECTION('ref_axis',(0.,-1.,0.));
#864=DIRECTION('center_axis',(0.,0.,-1.));
#865=DIRECTION('ref_axis',(-1.,2.22044604925031E-15,0.));
#866=DIRECTION('',(5.50523813863714E-17,1.,0.));
#867=DIRECTION('center_axis',(0.,0.,-1.));
#868=DIRECTION('ref_axis',(-1.,0.,0.));
#869=DIRECTION('',(5.96400798352357E-16,-1.,0.));
#870=DIRECTION('center_axis',(0.,0.,-1.));
#871=DIRECTION('ref_axis',(1.,2.46716227694479E-16,0.));
#872=DIRECTION('center_axis',(1.,-6.2172489379009E-15,0.));
#873=DIRECTION('ref_axis',(6.2172489379009E-15,1.,0.));
#874=DIRECTION('',(-6.2172489379009E-15,-1.,0.));
#875=DIRECTION('center_axis',(-1.,-5.96400798352357E-16,0.));
#876=DIRECTION('ref_axis',(5.96400798352357E-16,-1.,0.));
#877=DIRECTION('',(0.,0.,1.));
#878=DIRECTION('',(0.,0.,1.));
#879=DIRECTION('center_axis',(0.,0.,1.));
#880=DIRECTION('ref_axis',(-1.,0.,0.));
#881=DIRECTION('',(0.,0.,1.));
#882=DIRECTION('center_axis',(1.,-5.50523813863714E-17,0.));
#883=DIRECTION('ref_axis',(5.50523813863714E-17,1.,0.));
#884=DIRECTION('',(0.,0.,1.));
#885=DIRECTION('center_axis',(0.,0.,1.));
#886=DIRECTION('ref_axis',(1.,2.46716227694479E-16,0.));
#887=DIRECTION('center_axis',(1.,1.11869800954596E-15,0.));
#888=DIRECTION('ref_axis',(-1.11869800954596E-15,1.,0.));
#889=DIRECTION('',(0.,0.,1.));
#890=DIRECTION('',(0.,0.,1.));
#891=DIRECTION('center_axis',(0.,0.,1.));
#892=DIRECTION('ref_axis',(4.16333634234434E-16,-1.,0.));
#893=DIRECTION('',(0.,0.,1.));
#894=DIRECTION('center_axis',(0.,-1.,0.));
#895=DIRECTION('ref_axis',(1.,0.,0.));
#896=DIRECTION('',(0.,0.,1.));
#897=DIRECTION('center_axis',(0.,0.,1.));
#898=DIRECTION('ref_axis',(-1.,-4.16333634234435E-16,0.));
#899=DIRECTION('',(0.,0.,1.));
#900=DIRECTION('center_axis',(-1.,-6.77998793664218E-17,0.));
#901=DIRECTION('ref_axis',(6.77998793664218E-17,-1.,0.));
#902=DIRECTION('',(0.,0.,1.));
#903=DIRECTION('center_axis',(0.,0.,1.));
#904=DIRECTION('ref_axis',(-1.,2.22044604925031E-15,0.));
#905=DIRECTION('center_axis',(0.,0.,1.));
#906=DIRECTION('ref_axis',(0.,-1.,0.));
#907=DIRECTION('center_axis',(0.,0.,1.));
#908=DIRECTION('ref_axis',(0.,-1.,0.));
#909=DIRECTION('center_axis',(0.,0.,1.));
#910=DIRECTION('ref_axis',(0.,-1.,0.));
#911=CARTESIAN_POINT('',(0.,0.,0.));
#912=CARTESIAN_POINT('Origin',(-5.00000000000001,57.,11.5));
#913=CARTESIAN_POINT('',(-5.00000000000001,59.0000000000002,0.));
#914=CARTESIAN_POINT('',(-7.00000000000001,57.0000008493662,0.));
#915=CARTESIAN_POINT('Origin',(-5.00000000000001,57.,0.));
#916=CARTESIAN_POINT('',(-5.00000000000001,59.0000000000002,11.5));
#917=CARTESIAN_POINT('',(-5.00000000000001,59.0000000000002,11.5));
#918=CARTESIAN_POINT('',(-7.00000000000001,57.0000008493662,11.5));
#919=CARTESIAN_POINT('Origin',(-5.00000000000001,57.,11.5));
#920=CARTESIAN_POINT('',(-7.00000000000001,57.0000008493662,11.5));
#921=CARTESIAN_POINT('Origin',(-7.00000000000001,39.0000005811453,11.5));
#922=CARTESIAN_POINT('',(-7.00000000000001,39.0000005811453,0.));
#923=CARTESIAN_POINT('',(-7.00000000000001,33.8125002905726,0.));
#924=CARTESIAN_POINT('',(-7.00000000000001,39.0000005811453,11.5));
#925=CARTESIAN_POINT('',(-7.00000000000001,43.5000002905726,11.5));
#926=CARTESIAN_POINT('',(-7.00000000000001,39.0000005811453,11.5));
#927=CARTESIAN_POINT('',(-7.00000000000001,50.2355,8.5));
#928=CARTESIAN_POINT('Origin',(-7.00000000000001,51.5,8.5));
#929=CARTESIAN_POINT('',(-7.00000000000001,43.2355,8.5));
#930=CARTESIAN_POINT('Origin',(-7.00000000000001,44.5,8.5));
#931=CARTESIAN_POINT('Origin',(-5.,39.,11.5));
#932=CARTESIAN_POINT('',(-5.,36.9999999999999,0.));
#933=CARTESIAN_POINT('Origin',(-5.,39.,0.));
#934=CARTESIAN_POINT('',(-5.,36.9999999999999,11.5));
#935=CARTESIAN_POINT('Origin',(-5.,39.,11.5));
#936=CARTESIAN_POINT('',(-5.,36.9999999999999,11.5));
#937=CARTESIAN_POINT('Origin',(7.49999999999999,37.,0.));
#938=CARTESIAN_POINT('',(7.49999999999999,37.,0.));
#939=CARTESIAN_POINT('',(3.75,36.9999999999999,0.));
#940=CARTESIAN_POINT('',(-9.50000000000001,37.,11.5));
#941=CARTESIAN_POINT('',(-7.50000000000001,37.,11.5));
#942=CARTESIAN_POINT('',(-9.50000000000001,37.,18.));
#943=CARTESIAN_POINT('',(-9.50000000000001,37.,0.));
#944=CARTESIAN_POINT('',(7.49999999999999,37.,18.));
#945=CARTESIAN_POINT('',(-7.50000000000001,37.,18.));
#946=CARTESIAN_POINT('',(7.49999999999999,37.,0.));
#947=CARTESIAN_POINT('',(-4.7645,37.,15.));
#948=CARTESIAN_POINT('Origin',(-3.5,37.,15.));
#949=CARTESIAN_POINT('',(2.2355,37.,15.));
#950=CARTESIAN_POINT('Origin',(3.5,37.,15.));
#951=CARTESIAN_POINT('Origin',(-5.25000000000001,48.,11.5));
#952=CARTESIAN_POINT('',(-9.50000000000001,59.,11.5));
#953=CARTESIAN_POINT('',(-6.37500000000001,59.,11.5));
#954=CARTESIAN_POINT('',(-9.5,53.5,11.5));
#955=CARTESIAN_POINT('Origin',(-9.5,37.,0.));
#956=CARTESIAN_POINT('',(-9.5,34.5,0.));
#957=CARTESIAN_POINT('',(-9.5,34.5,18.));
#958=CARTESIAN_POINT('',(-9.5,34.5,0.));
#959=CARTESIAN_POINT('',(-9.5,42.5,18.));
#960=CARTESIAN_POINT('',(-9.50000000000001,59.,18.));
#961=CARTESIAN_POINT('',(-9.50000000000001,59.,0.));
#962=CARTESIAN_POINT('',(-9.5,61.5,18.));
#963=CARTESIAN_POINT('',(-9.5,54.75,18.));
#964=CARTESIAN_POINT('',(-9.5,61.5,0.));
#965=CARTESIAN_POINT('',(-9.5,61.5,0.));
#966=CARTESIAN_POINT('',(-9.5,61.5,0.));
#967=CARTESIAN_POINT('',(-9.5,50.2355,8.5));
#968=CARTESIAN_POINT('Origin',(-9.5,51.5,8.5));
#969=CARTESIAN_POINT('',(-9.5,43.2355,8.5));
#970=CARTESIAN_POINT('Origin',(-9.5,44.5,8.5));
#971=CARTESIAN_POINT('Origin',(-5.00000000000001,51.5,8.5));
#972=CARTESIAN_POINT('',(-5.00000000000001,50.2355,8.5));
#973=CARTESIAN_POINT('Origin',(-5.00000000000001,44.5,8.5));
#974=CARTESIAN_POINT('',(-5.00000000000001,43.2355,8.5));
#975=CARTESIAN_POINT('Origin',(3.5,34.5,15.));
#976=CARTESIAN_POINT('',(2.2355,34.5,15.));
#977=CARTESIAN_POINT('Origin',(3.5,34.5,15.));
#978=CARTESIAN_POINT('',(2.2355,34.5,15.));
#979=CARTESIAN_POINT('Origin',(3.5,34.5,15.));
#980=CARTESIAN_POINT('',(2.23549999999999,59.,15.));
#981=CARTESIAN_POINT('Origin',(3.49999999999999,59.,15.));
#982=CARTESIAN_POINT('',(2.23549999999998,61.5,15.));
#983=CARTESIAN_POINT('',(2.2355,34.5,15.));
#984=CARTESIAN_POINT('Origin',(3.49999999999998,61.5,15.));
#985=CARTESIAN_POINT('Origin',(-3.5,34.5,15.));
#986=CARTESIAN_POINT('',(-4.7645,34.5,15.));
#987=CARTESIAN_POINT('Origin',(-3.5,34.5,15.));
#988=CARTESIAN_POINT('',(-4.7645,34.5,15.));
#989=CARTESIAN_POINT('Origin',(-3.5,34.5,15.));
#990=CARTESIAN_POINT('',(-4.76450000000002,59.,15.));
#991=CARTESIAN_POINT('Origin',(-3.50000000000001,59.,15.));
#992=CARTESIAN_POINT('',(-4.76450000000002,61.5,15.));
#993=CARTESIAN_POINT('',(-4.7645,34.5,15.));
#994=CARTESIAN_POINT('Origin',(-3.50000000000002,61.5,15.));
#995=CARTESIAN_POINT('Origin',(-7.50000000000001,59.,0.));
#996=CARTESIAN_POINT('',(7.49999999999999,59.,0.));
#997=CARTESIAN_POINT('',(7.49999999999999,59.,18.));
#998=CARTESIAN_POINT('',(7.49999999999999,59.,0.));
#999=CARTESIAN_POINT('',(-3.75,59.,18.));
#1000=CARTESIAN_POINT('',(-3.00000000000001,59.,0.));
#1001=CARTESIAN_POINT('Origin',(1.66533453693773E-15,28.625,0.));
#1002=CARTESIAN_POINT('',(7.50000000000001,34.5,0.));
#1003=CARTESIAN_POINT('',(7.50000000000001,34.5,0.));
#1004=CARTESIAN_POINT('',(6.24999999999998,34.5,0.));
#1005=CARTESIAN_POINT('',(-7.50000000000001,34.5,0.));
#1006=CARTESIAN_POINT('',(4.24999999999996,32.5,0.));
#1007=CARTESIAN_POINT('Origin',(6.24999999999998,32.5,0.));
#1008=CARTESIAN_POINT('',(4.25,-0.25,0.));
#1009=CARTESIAN_POINT('',(4.25,-0.25,0.));
#1010=CARTESIAN_POINT('',(0.250000000000009,-4.25,0.));
#1011=CARTESIAN_POINT('Origin',(0.250000000000007,-0.25,0.));
#1012=CARTESIAN_POINT('',(-0.249999999999994,-4.25,0.));
#1013=CARTESIAN_POINT('',(-0.249999999999994,-4.25,0.));
#1014=CARTESIAN_POINT('',(-4.24999999999998,-0.25,0.));
#1015=CARTESIAN_POINT('Origin',(-0.249999999999995,-0.25,0.));
#1016=CARTESIAN_POINT('',(-4.24999999999999,32.5,0.));
#1017=CARTESIAN_POINT('',(-4.24999999999999,32.5,0.));
#1018=CARTESIAN_POINT('',(-6.24999999999999,34.5,0.));
#1019=CARTESIAN_POINT('Origin',(-6.24999999999999,32.5,0.));
#1020=CARTESIAN_POINT('',(-7.5,34.5,0.));
#1021=CARTESIAN_POINT('',(7.50000000000001,61.5,0.));
#1022=CARTESIAN_POINT('',(7.50000000000001,61.5,0.));
#1023=CARTESIAN_POINT('',(7.49999999999999,59.,0.));
#1024=CARTESIAN_POINT('',(2.25000000000001,0.,0.));
#1025=CARTESIAN_POINT('',(-2.25,0.,0.));
#1026=CARTESIAN_POINT('Origin',(2.44929359829471E-16,0.,0.));
#1027=CARTESIAN_POINT('',(2.24999999999999,30.25,0.));
#1028=CARTESIAN_POINT('',(2.24999999999999,30.25,0.));
#1029=CARTESIAN_POINT('',(-2.25,30.25,0.));
#1030=CARTESIAN_POINT('Origin',(1.28261901615675E-14,30.25,0.));
#1031=CARTESIAN_POINT('',(-2.25,0.,0.));
#1032=CARTESIAN_POINT('Origin',(7.50000000000001,61.5,0.));
#1033=CARTESIAN_POINT('',(7.50000000000001,61.5,18.));
#1034=CARTESIAN_POINT('',(3.75000000000001,61.5,18.));
#1035=CARTESIAN_POINT('',(7.50000000000001,61.5,0.));
#1036=CARTESIAN_POINT('Origin',(7.50000000000001,34.5,0.));
#1037=CARTESIAN_POINT('',(7.50000000000001,34.5,18.));
#1038=CARTESIAN_POINT('',(7.50000000000001,34.5,0.));
#1039=CARTESIAN_POINT('',(7.49999999999997,41.25,18.));
#1040=CARTESIAN_POINT('Origin',(-7.5,34.5,0.));
#1041=CARTESIAN_POINT('',(6.24999999999998,34.5,5.));
#1042=CARTESIAN_POINT('',(6.24999999999998,34.5,0.));
#1043=CARTESIAN_POINT('',(-7.5,34.5,18.));
#1044=CARTESIAN_POINT('',(-6.24999999999999,34.5,5.));
#1045=CARTESIAN_POINT('',(-6.24999999999999,34.5,0.));
#1046=CARTESIAN_POINT('',(-3.75,34.5,5.));
#1047=CARTESIAN_POINT('Origin',(1.66533453693773E-15,28.625,5.));
#1048=CARTESIAN_POINT('',(-4.24999999999999,32.5,5.));
#1049=CARTESIAN_POINT('',(-4.24999999999998,-0.25,5.));
#1050=CARTESIAN_POINT('',(-4.24999999999999,32.5,5.));
#1051=CARTESIAN_POINT('',(-0.249999999999994,-4.25,5.));
#1052=CARTESIAN_POINT('Origin',(-0.249999999999995,-0.25,5.));
#1053=CARTESIAN_POINT('',(0.250000000000009,-4.25,5.));
#1054=CARTESIAN_POINT('',(-0.249999999999994,-4.25,5.));
#1055=CARTESIAN_POINT('',(4.25,-0.25,5.));
#1056=CARTESIAN_POINT('Origin',(0.250000000000007,-0.25,5.));
#1057=CARTESIAN_POINT('',(4.24999999999996,32.5,5.));
#1058=CARTESIAN_POINT('',(4.25,-0.25,5.));
#1059=CARTESIAN_POINT('Origin',(6.24999999999998,32.5,5.));
#1060=CARTESIAN_POINT('Origin',(-6.24999999999999,32.5,5.));
#1061=CARTESIAN_POINT('',(-2.25,0.,5.));
#1062=CARTESIAN_POINT('',(-2.25,30.25,5.));
#1063=CARTESIAN_POINT('',(-2.25,0.,5.));
#1064=CARTESIAN_POINT('',(2.24999999999999,30.25,5.));
#1065=CARTESIAN_POINT('Origin',(1.28261901615675E-14,30.25,5.));
#1066=CARTESIAN_POINT('',(2.25000000000001,0.,5.));
#1067=CARTESIAN_POINT('',(2.24999999999999,30.25,5.));
#1068=CARTESIAN_POINT('Origin',(2.44929359829471E-16,0.,5.));
#1069=CARTESIAN_POINT('Origin',(7.49999999999999,59.,0.));
#1070=CARTESIAN_POINT('',(7.49999999999996,53.5,18.));
#1071=CARTESIAN_POINT('Origin',(2.24999999999999,30.25,0.));
#1072=CARTESIAN_POINT('',(2.25000000000001,0.,0.));
#1073=CARTESIAN_POINT('',(2.24999999999999,30.25,0.));
#1074=CARTESIAN_POINT('Origin',(1.28261901615675E-14,30.25,0.));
#1075=CARTESIAN_POINT('',(-2.25,30.25,0.));
#1076=CARTESIAN_POINT('Origin',(-2.25,0.,0.));
#1077=CARTESIAN_POINT('',(-2.25,0.,0.));
#1078=CARTESIAN_POINT('Origin',(2.44929359829471E-16,0.,0.));
#1079=CARTESIAN_POINT('Origin',(4.25,-0.25,0.));
#1080=CARTESIAN_POINT('',(4.24999999999996,32.5,0.));
#1081=CARTESIAN_POINT('',(4.25,-0.25,0.));
#1082=CARTESIAN_POINT('Origin',(0.250000000000007,-0.25,0.));
#1083=CARTESIAN_POINT('',(0.250000000000009,-4.25,0.));
#1084=CARTESIAN_POINT('Origin',(-0.249999999999994,-4.25,0.));
#1085=CARTESIAN_POINT('',(-0.249999999999994,-4.25,0.));
#1086=CARTESIAN_POINT('Origin',(-0.249999999999995,-0.25,0.));
#1087=CARTESIAN_POINT('',(-4.24999999999998,-0.25,0.));
#1088=CARTESIAN_POINT('Origin',(-4.24999999999999,32.5,0.));
#1089=CARTESIAN_POINT('',(-4.24999999999999,32.5,0.));
#1090=CARTESIAN_POINT('Origin',(-6.24999999999999,32.5,0.));
#1091=CARTESIAN_POINT('Origin',(6.24999999999998,32.5,0.));
#1092=CARTESIAN_POINT('Origin',(0.,48.,18.));
#1093=CARTESIAN_POINT('Origin',(0.,48.,18.));
#1094=UNCERTAINTY_MEASURE_WITH_UNIT(LENGTH_MEASURE(0.01),#1098,
'DISTANCE_ACCURACY_VALUE',
'Maximum model space distance between geometric entities at asserted c
onnectivities');
#1095=UNCERTAINTY_MEASURE_WITH_UNIT(LENGTH_MEASURE(0.01),#1098,
'DISTANCE_ACCURACY_VALUE',
'Maximum model space distance between geometric entities at asserted c
onnectivities');
#1096=(
GEOMETRIC_REPRESENTATION_CONTEXT(3)
GLOBAL_UNCERTAINTY_ASSIGNED_CONTEXT((#1094))
GLOBAL_UNIT_ASSIGNED_CONTEXT((#1098,#1100,#1101))
REPRESENTATION_CONTEXT('','3D')
);
#1097=(
GEOMETRIC_REPRESENTATION_CONTEXT(3)
GLOBAL_UNCERTAINTY_ASSIGNED_CONTEXT((#1095))
GLOBAL_UNIT_ASSIGNED_CONTEXT((#1098,#1100,#1101))
REPRESENTATION_CONTEXT('','3D')
);
#1098=(
LENGTH_UNIT()
NAMED_UNIT(*)
SI_UNIT(.MILLI.,.METRE.)
);
#1099=(
LENGTH_UNIT()
NAMED_UNIT(*)
SI_UNIT($,.METRE.)
);
#1100=(
NAMED_UNIT(*)
PLANE_ANGLE_UNIT()
SI_UNIT($,.RADIAN.)
);
#1101=(
NAMED_UNIT(*)
SI_UNIT($,.STERADIAN.)
SOLID_ANGLE_UNIT()
);
#1102=SHAPE_DEFINITION_REPRESENTATION(#1103,#1104);
#1103=PRODUCT_DEFINITION_SHAPE('',$,#1106);
#1104=SHAPE_REPRESENTATION('',(#666),#1096);
#1105=PRODUCT_DEFINITION_CONTEXT('part definition',#1110,'design');
#1106=PRODUCT_DEFINITION('Coil Mount','Coil Mount',#1107,#1105);
#1107=PRODUCT_DEFINITION_FORMATION('',$,#1112);
#1108=PRODUCT_RELATED_PRODUCT_CATEGORY('Coil Mount','Coil Mount',(#1112));
#1109=APPLICATION_PROTOCOL_DEFINITION('international standard',
'automotive_design',2009,#1110);
#1110=APPLICATION_CONTEXT(
'Core Data for Automotive Mechanical Design Process');
#1111=PRODUCT_CONTEXT('part definition',#1110,'mechanical');
#1112=PRODUCT('Coil Mount','Coil Mount',$,(#1111));
#1113=PRESENTATION_STYLE_ASSIGNMENT((#1115));
#1114=PRESENTATION_STYLE_ASSIGNMENT((#1116));
#1115=SURFACE_STYLE_USAGE(.BOTH.,#1117);
#1116=SURFACE_STYLE_USAGE(.BOTH.,#1118);
#1117=SURFACE_SIDE_STYLE('',(#1119));
#1118=SURFACE_SIDE_STYLE('',(#1120));
#1119=SURFACE_STYLE_FILL_AREA(#1121);
#1120=SURFACE_STYLE_FILL_AREA(#1122);
#1121=FILL_AREA_STYLE('Brass - Matte',(#1123));
#1122=FILL_AREA_STYLE('Brass - Polished',(#1124));
#1123=FILL_AREA_STYLE_COLOUR('Brass - Matte',#1125);
#1124=FILL_AREA_STYLE_COLOUR('Brass - Polished',#1126);
#1125=COLOUR_RGB('Brass - Matte',0.952941176470588,0.796078431372549,0.486274509803922);
#1126=COLOUR_RGB('Brass - Polished',0.952941176470588,0.796078431372549,
0.486274509803922);
ENDSEC;
END-ISO-10303-21;
