ISO-10303-21;
HEADER;
/* Generated by software containing ST-Developer
 * from STEP Tools, Inc. (www.steptools.com) 
 */

FILE_DESCRIPTION(
/* description */ (''),
/* implementation_level */ '2;1');

FILE_NAME(
/* name */ 'Coil Spacer.step',
/* time_stamp */ '2026-08-26T09:49:36+02:00',
/* author */ (''),
/* organization */ (''),
/* preprocessor_version */ 'ST-DEVELOPER v20.1',
/* originating_system */ 'Autodesk Translation Framework v15.8.0.0',
/* authorisation */ '');

FILE_SCHEMA (('AUTOMOTIVE_DESIGN { 1 0 10303 214 3 1 1 }'));
ENDSEC;

DATA;
#10=MECHANICAL_DESIGN_GEOMETRIC_PRESENTATION_REPRESENTATION('',(#13),#325);
#11=SHAPE_REPRESENTATION_RELATIONSHIP('SRR','None',#332,#12);
#12=ADVANCED_BREP_SHAPE_REPRESENTATION('',(#14),#324);
#13=STYLED_ITEM('',(#342),#14);
#14=MANIFOLD_SOLID_BREP('Body1',#147);
#15=PLANE('',#173);
#16=PLANE('',#174);
#17=FACE_BOUND('',#35,.T.);
#18=FACE_BOUND('',#36,.T.);
#19=FACE_BOUND('',#38,.T.);
#20=FACE_BOUND('',#40,.T.);
#21=CIRCLE('',#168,1.25);
#22=CIRCLE('',#169,1.25);
#23=CIRCLE('',#171,2.5);
#24=CIRCLE('',#172,2.5);
#25=FACE_OUTER_BOUND('',#31,.T.);
#26=FACE_OUTER_BOUND('',#32,.T.);
#27=FACE_OUTER_BOUND('',#33,.T.);
#28=FACE_OUTER_BOUND('',#34,.T.);
#29=FACE_OUTER_BOUND('',#37,.T.);
#30=FACE_OUTER_BOUND('',#39,.T.);
#31=EDGE_LOOP('',(#97,#98,#99,#100,#101,#102,#103));
#32=EDGE_LOOP('',(#104,#105,#106,#107,#108,#109,#110));
#33=EDGE_LOOP('',(#111,#112,#113,#114,#115,#116,#117,#118,#119,#120,#121,
#122));
#34=EDGE_LOOP('',(#123,#124,#125,#126));
#35=EDGE_LOOP('',(#127,#128,#129));
#36=EDGE_LOOP('',(#130,#131,#132));
#37=EDGE_LOOP('',(#133));
#38=EDGE_LOOP('',(#134));
#39=EDGE_LOOP('',(#135));
#40=EDGE_LOOP('',(#136));
#41=ELLIPSE('',#162,1.76776695296637,1.25);
#42=ELLIPSE('',#163,1.76776695296637,1.25);
#43=ELLIPSE('',#165,1.76776695296637,1.25);
#44=ELLIPSE('',#166,1.76776695296637,1.25);
#45=LINE('',#245,#51);
#46=LINE('',#292,#52);
#47=LINE('',#309,#53);
#48=LINE('',#310,#54);
#49=LINE('',#312,#55);
#50=LINE('',#318,#56);
#51=VECTOR('',#179,1.25);
#52=VECTOR('',#186,1.25);
#53=VECTOR('',#195,1.25);
#54=VECTOR('',#196,1.25);
#55=VECTOR('',#197,1.25);
#56=VECTOR('',#204,2.5);
#57=B_SPLINE_CURVE_WITH_KNOTS('',3,(#215,#216,#217,#218,#219,#220,#221,
#222,#223,#224,#225,#226,#227,#228,#229,#230,#231,#232),.UNSPECIFIED.,.F.,
 .F.,(4,2,2,2,2,2,2,2,4),(0.192195276051885,0.240178513967643,0.288161751883402,
0.336276151993586,0.38439055210377,0.432504952213954,0.480619352324138,
0.528602590239897,0.576585828155655),.UNSPECIFIED.);
#58=B_SPLINE_CURVE_WITH_KNOTS('',3,(#234,#235,#236,#237,#238,#239,#240,
#241,#242,#243),.UNSPECIFIED.,.F.,.F.,(4,2,2,2,4),(0.76878110420754,0.816895504317724,
0.865009904427908,0.912993142343667,0.960976380259425),.UNSPECIFIED.);
#59=B_SPLINE_CURVE_WITH_KNOTS('',3,(#249,#250,#251,#252,#253,#254,#255,
#256,#257,#258),.UNSPECIFIED.,.F.,.F.,(4,2,2,2,4),(0.576585828155655,0.624569066071413,
0.672552303987172,0.720666704097356,0.76878110420754),.UNSPECIFIED.);
#60=B_SPLINE_CURVE_WITH_KNOTS('',3,(#262,#263,#264,#265,#266,#267,#268,
#269,#270,#271,#272,#273,#274,#275,#276,#277,#278,#279),.UNSPECIFIED.,.F.,
 .F.,(4,2,2,2,2,2,2,2,4),(0.192195276051885,0.240178513967643,0.288161751883402,
0.336276151993586,0.38439055210377,0.432504952213954,0.480619352324138,
0.528602590239896,0.576585828155654),.UNSPECIFIED.);
#61=B_SPLINE_CURVE_WITH_KNOTS('',3,(#281,#282,#283,#284,#285,#286,#287,
#288,#289,#290),.UNSPECIFIED.,.F.,.F.,(4,2,2,2,4),(0.768781104207539,0.816895504317723,
0.865009904427907,0.912993142343666,0.960976380259424),.UNSPECIFIED.);
#62=B_SPLINE_CURVE_WITH_KNOTS('',3,(#296,#297,#298,#299,#300,#301,#302,
#303,#304,#305),.UNSPECIFIED.,.F.,.F.,(4,2,2,2,4),(0.576585828155654,0.624569066071413,
0.672552303987171,0.720666704097355,0.768781104207539),.UNSPECIFIED.);
#63=VERTEX_POINT('',#213);
#64=VERTEX_POINT('',#214);
#65=VERTEX_POINT('',#233);
#66=VERTEX_POINT('',#244);
#67=VERTEX_POINT('',#246);
#68=VERTEX_POINT('',#260);
#69=VERTEX_POINT('',#261);
#70=VERTEX_POINT('',#280);
#71=VERTEX_POINT('',#291);
#72=VERTEX_POINT('',#293);
#73=VERTEX_POINT('',#307);
#74=VERTEX_POINT('',#311);
#75=VERTEX_POINT('',#315);
#76=VERTEX_POINT('',#317);
#77=EDGE_CURVE('',#63,#64,#57,.T.);
#78=EDGE_CURVE('',#65,#63,#58,.T.);
#79=EDGE_CURVE('',#65,#66,#45,.T.);
#80=EDGE_CURVE('',#67,#66,#41,.T.);
#81=EDGE_CURVE('',#66,#67,#42,.T.);
#82=EDGE_CURVE('',#64,#65,#59,.T.);
#83=EDGE_CURVE('',#68,#69,#60,.T.);
#84=EDGE_CURVE('',#70,#68,#61,.T.);
#85=EDGE_CURVE('',#70,#71,#46,.T.);
#86=EDGE_CURVE('',#72,#71,#43,.T.);
#87=EDGE_CURVE('',#71,#72,#44,.T.);
#88=EDGE_CURVE('',#69,#70,#62,.T.);
#89=EDGE_CURVE('',#73,#73,#21,.T.);
#90=EDGE_CURVE('',#73,#71,#47,.T.);
#91=EDGE_CURVE('',#71,#66,#48,.T.);
#92=EDGE_CURVE('',#66,#74,#49,.T.);
#93=EDGE_CURVE('',#74,#74,#22,.T.);
#94=EDGE_CURVE('',#75,#75,#23,.T.);
#95=EDGE_CURVE('',#75,#76,#50,.T.);
#96=EDGE_CURVE('',#76,#76,#24,.T.);
#97=ORIENTED_EDGE('',*,*,#77,.F.);
#98=ORIENTED_EDGE('',*,*,#78,.F.);
#99=ORIENTED_EDGE('',*,*,#79,.T.);
#100=ORIENTED_EDGE('',*,*,#80,.F.);
#101=ORIENTED_EDGE('',*,*,#81,.F.);
#102=ORIENTED_EDGE('',*,*,#79,.F.);
#103=ORIENTED_EDGE('',*,*,#82,.F.);
#104=ORIENTED_EDGE('',*,*,#83,.F.);
#105=ORIENTED_EDGE('',*,*,#84,.F.);
#106=ORIENTED_EDGE('',*,*,#85,.T.);
#107=ORIENTED_EDGE('',*,*,#86,.F.);
#108=ORIENTED_EDGE('',*,*,#87,.F.);
#109=ORIENTED_EDGE('',*,*,#85,.F.);
#110=ORIENTED_EDGE('',*,*,#88,.F.);
#111=ORIENTED_EDGE('',*,*,#89,.F.);
#112=ORIENTED_EDGE('',*,*,#90,.T.);
#113=ORIENTED_EDGE('',*,*,#91,.T.);
#114=ORIENTED_EDGE('',*,*,#92,.T.);
#115=ORIENTED_EDGE('',*,*,#93,.T.);
#116=ORIENTED_EDGE('',*,*,#92,.F.);
#117=ORIENTED_EDGE('',*,*,#81,.T.);
#118=ORIENTED_EDGE('',*,*,#80,.T.);
#119=ORIENTED_EDGE('',*,*,#91,.F.);
#120=ORIENTED_EDGE('',*,*,#87,.T.);
#121=ORIENTED_EDGE('',*,*,#86,.T.);
#122=ORIENTED_EDGE('',*,*,#90,.F.);
#123=ORIENTED_EDGE('',*,*,#94,.F.);
#124=ORIENTED_EDGE('',*,*,#95,.T.);
#125=ORIENTED_EDGE('',*,*,#96,.T.);
#126=ORIENTED_EDGE('',*,*,#95,.F.);
#127=ORIENTED_EDGE('',*,*,#77,.T.);
#128=ORIENTED_EDGE('',*,*,#82,.T.);
#129=ORIENTED_EDGE('',*,*,#78,.T.);
#130=ORIENTED_EDGE('',*,*,#83,.T.);
#131=ORIENTED_EDGE('',*,*,#88,.T.);
#132=ORIENTED_EDGE('',*,*,#84,.T.);
#133=ORIENTED_EDGE('',*,*,#94,.T.);
#134=ORIENTED_EDGE('',*,*,#89,.T.);
#135=ORIENTED_EDGE('',*,*,#96,.F.);
#136=ORIENTED_EDGE('',*,*,#93,.F.);
#137=CYLINDRICAL_SURFACE('',#161,1.25);
#138=CYLINDRICAL_SURFACE('',#164,1.25);
#139=CYLINDRICAL_SURFACE('',#167,1.25);
#140=CYLINDRICAL_SURFACE('',#170,2.5);
#141=ADVANCED_FACE('',(#25),#137,.F.);
#142=ADVANCED_FACE('',(#26),#138,.F.);
#143=ADVANCED_FACE('',(#27),#139,.F.);
#144=ADVANCED_FACE('',(#28,#17,#18),#140,.T.);
#145=ADVANCED_FACE('',(#29,#19),#15,.T.);
#146=ADVANCED_FACE('',(#30,#20),#16,.F.);
#147=CLOSED_SHELL('',(#141,#142,#143,#144,#145,#146));
#148=DERIVED_UNIT_ELEMENT(#150,1.);
#149=DERIVED_UNIT_ELEMENT(#327,-3.);
#150=(
MASS_UNIT()
NAMED_UNIT(*)
SI_UNIT(.KILO.,.GRAM.)
);
#151=DERIVED_UNIT((#148,#149));
#152=MEASURE_REPRESENTATION_ITEM('density measure',
POSITIVE_RATIO_MEASURE(8470.),#151);
#153=PROPERTY_DEFINITION_REPRESENTATION(#158,#155);
#154=PROPERTY_DEFINITION_REPRESENTATION(#159,#156);
#155=REPRESENTATION('material name',(#157),#324);
#156=REPRESENTATION('density',(#152),#324);
#157=DESCRIPTIVE_REPRESENTATION_ITEM('Brass, Soft Yellow',
'Brass, Soft Yellow');
#158=PROPERTY_DEFINITION('material property','material name',#334);
#159=PROPERTY_DEFINITION('material property','density of part',#334);
#160=AXIS2_PLACEMENT_3D('',#211,#175,#176);
#161=AXIS2_PLACEMENT_3D('',#212,#177,#178);
#162=AXIS2_PLACEMENT_3D('',#247,#180,#181);
#163=AXIS2_PLACEMENT_3D('',#248,#182,#183);
#164=AXIS2_PLACEMENT_3D('',#259,#184,#185);
#165=AXIS2_PLACEMENT_3D('',#294,#187,#188);
#166=AXIS2_PLACEMENT_3D('',#295,#189,#190);
#167=AXIS2_PLACEMENT_3D('',#306,#191,#192);
#168=AXIS2_PLACEMENT_3D('',#308,#193,#194);
#169=AXIS2_PLACEMENT_3D('',#313,#198,#199);
#170=AXIS2_PLACEMENT_3D('',#314,#200,#201);
#171=AXIS2_PLACEMENT_3D('',#316,#202,#203);
#172=AXIS2_PLACEMENT_3D('',#319,#205,#206);
#173=AXIS2_PLACEMENT_3D('',#320,#207,#208);
#174=AXIS2_PLACEMENT_3D('',#321,#209,#210);
#175=DIRECTION('axis',(0.,0.,1.));
#176=DIRECTION('refdir',(1.,0.,0.));
#177=DIRECTION('center_axis',(0.,-1.,0.));
#178=DIRECTION('ref_axis',(-1.,0.,0.));
#179=DIRECTION('',(0.,-1.,0.));
#180=DIRECTION('center_axis',(0.,0.707106781186548,-0.707106781186548));
#181=DIRECTION('ref_axis',(0.,-0.707106781186547,-0.707106781186547));
#182=DIRECTION('center_axis',(0.,0.707106781186548,0.707106781186548));
#183=DIRECTION('ref_axis',(0.,0.707106781186547,-0.707106781186547));
#184=DIRECTION('center_axis',(0.,-1.,0.));
#185=DIRECTION('ref_axis',(-1.,0.,0.));
#186=DIRECTION('',(0.,-1.,0.));
#187=DIRECTION('center_axis',(0.,0.707106781186548,-0.707106781186548));
#188=DIRECTION('ref_axis',(0.,-0.707106781186547,-0.707106781186547));
#189=DIRECTION('center_axis',(0.,0.707106781186548,0.707106781186548));
#190=DIRECTION('ref_axis',(0.,0.707106781186547,-0.707106781186547));
#191=DIRECTION('center_axis',(0.,0.,1.));
#192=DIRECTION('ref_axis',(-1.,0.,0.));
#193=DIRECTION('center_axis',(0.,0.,-1.));
#194=DIRECTION('ref_axis',(-1.,0.,0.));
#195=DIRECTION('',(0.,0.,-1.));
#196=DIRECTION('',(0.,0.,-1.));
#197=DIRECTION('',(0.,0.,-1.));
#198=DIRECTION('center_axis',(0.,0.,-1.));
#199=DIRECTION('ref_axis',(-1.,0.,0.));
#200=DIRECTION('center_axis',(0.,0.,1.));
#201=DIRECTION('ref_axis',(1.,0.,0.));
#202=DIRECTION('center_axis',(0.,0.,1.));
#203=DIRECTION('ref_axis',(1.,0.,0.));
#204=DIRECTION('',(0.,0.,-1.));
#205=DIRECTION('center_axis',(0.,0.,1.));
#206=DIRECTION('ref_axis',(1.,0.,0.));
#207=DIRECTION('center_axis',(0.,0.,1.));
#208=DIRECTION('ref_axis',(1.,0.,0.));
#209=DIRECTION('center_axis',(0.,0.,1.));
#210=DIRECTION('ref_axis',(1.,0.,0.));
#211=CARTESIAN_POINT('',(0.,0.,0.));
#212=CARTESIAN_POINT('Origin',(6.9980437574596E-16,2.5,5.25));
#213=CARTESIAN_POINT('',(-1.23259516440783E-31,2.5,6.5));
#214=CARTESIAN_POINT('',(-1.23259516440783E-31,2.5,4.));
#215=CARTESIAN_POINT('Ctrl Pts',(5.89805981832114E-16,2.5,6.5));
#216=CARTESIAN_POINT('Ctrl Pts',(-0.15994412638586,2.5,6.5));
#217=CARTESIAN_POINT('Ctrl Pts',(-0.328681344361068,2.48323996043832,6.46745488233641));
#218=CARTESIAN_POINT('Ctrl Pts',(-0.635925947642967,2.42283105129935,6.33895634990573));
#219=CARTESIAN_POINT('Ctrl Pts',(-0.774620837257828,2.37983326258812,6.24314611570854));
#220=CARTESIAN_POINT('Ctrl Pts',(-0.993444785163792,2.29712558443605,6.02432216780258));
#221=CARTESIAN_POINT('Ctrl Pts',(-1.08903588717028,2.25149501557585,5.88572794938478));
#222=CARTESIAN_POINT('Ctrl Pts',(-1.21735698059595,2.18478179494117,5.57892325157911));
#223=CARTESIAN_POINT('Ctrl Pts',(-1.25,2.1650635094611,5.41038133370061));
#224=CARTESIAN_POINT('Ctrl Pts',(-1.25,2.1650635094611,5.08961866629939));
#225=CARTESIAN_POINT('Ctrl Pts',(-1.21735698059595,2.18478179494117,4.92107674842089));
#226=CARTESIAN_POINT('Ctrl Pts',(-1.08903588717028,2.25149501557585,4.61427205061522));
#227=CARTESIAN_POINT('Ctrl Pts',(-0.993444785163792,2.29712558443605,4.47567783219742));
#228=CARTESIAN_POINT('Ctrl Pts',(-0.774620837257828,2.37983326258812,4.25685388429146));
#229=CARTESIAN_POINT('Ctrl Pts',(-0.635925947642968,2.42283105129935,4.16104365009427));
#230=CARTESIAN_POINT('Ctrl Pts',(-0.328681344361068,2.48323996043832,4.03254511766359));
#231=CARTESIAN_POINT('Ctrl Pts',(-0.15994412638586,2.5,4.));
#232=CARTESIAN_POINT('Ctrl Pts',(6.24500451351651E-16,2.5,4.));
#233=CARTESIAN_POINT('',(1.25,2.1650635094611,5.25));
#234=CARTESIAN_POINT('Ctrl Pts',(1.25,2.1650635094611,5.25));
#235=CARTESIAN_POINT('Ctrl Pts',(1.25,2.1650635094611,5.41038133370061));
#236=CARTESIAN_POINT('Ctrl Pts',(1.21735698059595,2.18478179494117,5.57892325157911));
#237=CARTESIAN_POINT('Ctrl Pts',(1.08903588717028,2.25149501557585,5.88572794938478));
#238=CARTESIAN_POINT('Ctrl Pts',(0.993444785163794,2.29712558443605,6.02432216780258));
#239=CARTESIAN_POINT('Ctrl Pts',(0.774620837257829,2.37983326258812,6.24314611570854));
#240=CARTESIAN_POINT('Ctrl Pts',(0.635925947642969,2.42283105129935,6.33895634990573));
#241=CARTESIAN_POINT('Ctrl Pts',(0.32868134436107,2.48323996043832,6.46745488233641));
#242=CARTESIAN_POINT('Ctrl Pts',(0.159944126385862,2.5,6.5));
#243=CARTESIAN_POINT('Ctrl Pts',(6.24500451351651E-16,2.5,6.5));
#244=CARTESIAN_POINT('',(1.25,0.,5.25));
#245=CARTESIAN_POINT('',(1.25,2.5,5.25));
#246=CARTESIAN_POINT('',(-1.25,0.,5.25));
#247=CARTESIAN_POINT('Origin',(6.9980437574596E-16,0.,5.25));
#248=CARTESIAN_POINT('Origin',(6.9980437574596E-16,0.,5.25));
#249=CARTESIAN_POINT('Ctrl Pts',(4.85722573273506E-16,2.5,4.));
#250=CARTESIAN_POINT('Ctrl Pts',(0.159944126385862,2.5,4.));
#251=CARTESIAN_POINT('Ctrl Pts',(0.328681344361069,2.48323996043832,4.03254511766359));
#252=CARTESIAN_POINT('Ctrl Pts',(0.635925947642969,2.42283105129935,4.16104365009427));
#253=CARTESIAN_POINT('Ctrl Pts',(0.774620837257829,2.37983326258812,4.25685388429146));
#254=CARTESIAN_POINT('Ctrl Pts',(0.993444785163794,2.29712558443605,4.47567783219742));
#255=CARTESIAN_POINT('Ctrl Pts',(1.08903588717028,2.25149501557585,4.61427205061522));
#256=CARTESIAN_POINT('Ctrl Pts',(1.21735698059595,2.18478179494117,4.92107674842089));
#257=CARTESIAN_POINT('Ctrl Pts',(1.25,2.1650635094611,5.08961866629939));
#258=CARTESIAN_POINT('Ctrl Pts',(1.25,2.1650635094611,5.25));
#259=CARTESIAN_POINT('Origin',(2.72047159433909E-15,2.5,21.75));
#260=CARTESIAN_POINT('',(0.,2.5,23.));
#261=CARTESIAN_POINT('',(0.,2.5,20.5));
#262=CARTESIAN_POINT('Ctrl Pts',(2.74086309204336E-15,2.5,23.));
#263=CARTESIAN_POINT('Ctrl Pts',(-0.159944126385858,2.5,23.));
#264=CARTESIAN_POINT('Ctrl Pts',(-0.328681344361066,2.48323996043832,22.9674548823364));
#265=CARTESIAN_POINT('Ctrl Pts',(-0.635925947642967,2.42283105129935,22.8389563499057));
#266=CARTESIAN_POINT('Ctrl Pts',(-0.774620837257826,2.37983326258812,22.7431461157085));
#267=CARTESIAN_POINT('Ctrl Pts',(-0.99344478516379,2.29712558443605,22.5243221678026));
#268=CARTESIAN_POINT('Ctrl Pts',(-1.08903588717028,2.25149501557585,22.3857279493848));
#269=CARTESIAN_POINT('Ctrl Pts',(-1.21735698059595,2.18478179494117,22.0789232515791));
#270=CARTESIAN_POINT('Ctrl Pts',(-1.25,2.1650635094611,21.9103813337006));
#271=CARTESIAN_POINT('Ctrl Pts',(-1.25,2.1650635094611,21.5896186662994));
#272=CARTESIAN_POINT('Ctrl Pts',(-1.21735698059595,2.18478179494117,21.4210767484209));
#273=CARTESIAN_POINT('Ctrl Pts',(-1.08903588717028,2.25149501557585,21.1142720506152));
#274=CARTESIAN_POINT('Ctrl Pts',(-0.99344478516379,2.29712558443605,20.9756778321974));
#275=CARTESIAN_POINT('Ctrl Pts',(-0.774620837257826,2.37983326258812,20.7568538842915));
#276=CARTESIAN_POINT('Ctrl Pts',(-0.635925947642967,2.42283105129935,20.6610436500943));
#277=CARTESIAN_POINT('Ctrl Pts',(-0.328681344361066,2.48323996043832,20.5325451176636));
#278=CARTESIAN_POINT('Ctrl Pts',(-0.159944126385859,2.5,20.5));
#279=CARTESIAN_POINT('Ctrl Pts',(2.56739074444567E-15,2.5,20.5));
#280=CARTESIAN_POINT('',(1.25,2.16506350946109,21.75));
#281=CARTESIAN_POINT('Ctrl Pts',(1.25,2.16506350946109,21.75));
#282=CARTESIAN_POINT('Ctrl Pts',(1.25,2.16506350946109,21.9103813337006));
#283=CARTESIAN_POINT('Ctrl Pts',(1.21735698059595,2.18478179494117,22.0789232515791));
#284=CARTESIAN_POINT('Ctrl Pts',(1.08903588717029,2.25149501557585,22.3857279493848));
#285=CARTESIAN_POINT('Ctrl Pts',(0.993444785163795,2.29712558443604,22.5243221678026));
#286=CARTESIAN_POINT('Ctrl Pts',(0.774620837257831,2.37983326258812,22.7431461157085));
#287=CARTESIAN_POINT('Ctrl Pts',(0.635925947642972,2.42283105129935,22.8389563499057));
#288=CARTESIAN_POINT('Ctrl Pts',(0.328681344361072,2.48323996043832,22.9674548823364));
#289=CARTESIAN_POINT('Ctrl Pts',(0.159944126385864,2.5,23.));
#290=CARTESIAN_POINT('Ctrl Pts',(2.77555756156289E-15,2.5,23.));
#291=CARTESIAN_POINT('',(1.25,0.,21.75));
#292=CARTESIAN_POINT('',(1.25,2.5,21.75));
#293=CARTESIAN_POINT('',(-1.25,0.,21.75));
#294=CARTESIAN_POINT('Origin',(2.72047159433909E-15,0.,21.75));
#295=CARTESIAN_POINT('Origin',(2.72047159433909E-15,0.,21.75));
#296=CARTESIAN_POINT('Ctrl Pts',(2.70616862252382E-15,2.5,20.5));
#297=CARTESIAN_POINT('Ctrl Pts',(0.159944126385864,2.5,20.5));
#298=CARTESIAN_POINT('Ctrl Pts',(0.328681344361071,2.48323996043832,20.5325451176636));
#299=CARTESIAN_POINT('Ctrl Pts',(0.635925947642972,2.42283105129935,20.6610436500943));
#300=CARTESIAN_POINT('Ctrl Pts',(0.774620837257831,2.37983326258812,20.7568538842915));
#301=CARTESIAN_POINT('Ctrl Pts',(0.993444785163795,2.29712558443604,20.9756778321974));
#302=CARTESIAN_POINT('Ctrl Pts',(1.08903588717029,2.25149501557585,21.1142720506152));
#303=CARTESIAN_POINT('Ctrl Pts',(1.21735698059595,2.18478179494117,21.4210767484209));
#304=CARTESIAN_POINT('Ctrl Pts',(1.25,2.16506350946109,21.5896186662994));
#305=CARTESIAN_POINT('Ctrl Pts',(1.25,2.16506350946109,21.75));
#306=CARTESIAN_POINT('Origin',(0.,0.,0.));
#307=CARTESIAN_POINT('',(1.25,1.53080849893419E-16,27.));
#308=CARTESIAN_POINT('Origin',(0.,0.,27.));
#309=CARTESIAN_POINT('',(1.25,1.53080849893419E-16,0.));
#310=CARTESIAN_POINT('',(1.25,1.53080849893419E-16,0.));
#311=CARTESIAN_POINT('',(1.25,1.53080849893419E-16,0.));
#312=CARTESIAN_POINT('',(1.25,1.53080849893419E-16,0.));
#313=CARTESIAN_POINT('Origin',(0.,0.,0.));
#314=CARTESIAN_POINT('Origin',(0.,0.,0.));
#315=CARTESIAN_POINT('',(-2.5,-3.06161699786838E-16,27.));
#316=CARTESIAN_POINT('Origin',(0.,0.,27.));
#317=CARTESIAN_POINT('',(-2.5,-3.06161699786838E-16,0.));
#318=CARTESIAN_POINT('',(-2.5,-3.06161699786838E-16,0.));
#319=CARTESIAN_POINT('Origin',(0.,0.,0.));
#320=CARTESIAN_POINT('Origin',(0.,0.,27.));
#321=CARTESIAN_POINT('Origin',(0.,0.,0.));
#322=UNCERTAINTY_MEASURE_WITH_UNIT(LENGTH_MEASURE(0.01),#326,
'DISTANCE_ACCURACY_VALUE',
'Maximum model space distance between geometric entities at asserted c
onnectivities');
#323=UNCERTAINTY_MEASURE_WITH_UNIT(LENGTH_MEASURE(0.01),#326,
'DISTANCE_ACCURACY_VALUE',
'Maximum model space distance between geometric entities at asserted c
onnectivities');
#324=(
GEOMETRIC_REPRESENTATION_CONTEXT(3)
GLOBAL_UNCERTAINTY_ASSIGNED_CONTEXT((#322))
GLOBAL_UNIT_ASSIGNED_CONTEXT((#326,#328,#329))
REPRESENTATION_CONTEXT('','3D')
);
#325=(
GEOMETRIC_REPRESENTATION_CONTEXT(3)
GLOBAL_UNCERTAINTY_ASSIGNED_CONTEXT((#323))
GLOBAL_UNIT_ASSIGNED_CONTEXT((#326,#328,#329))
REPRESENTATION_CONTEXT('','3D')
);
#326=(
LENGTH_UNIT()
NAMED_UNIT(*)
SI_UNIT(.MILLI.,.METRE.)
);
#327=(
LENGTH_UNIT()
NAMED_UNIT(*)
SI_UNIT($,.METRE.)
);
#328=(
NAMED_UNIT(*)
PLANE_ANGLE_UNIT()
SI_UNIT($,.RADIAN.)
);
#329=(
NAMED_UNIT(*)
SI_UNIT($,.STERADIAN.)
SOLID_ANGLE_UNIT()
);
#330=SHAPE_DEFINITION_REPRESENTATION(#331,#332);
#331=PRODUCT_DEFINITION_SHAPE('',$,#334);
#332=SHAPE_REPRESENTATION('',(#160),#324);
#333=PRODUCT_DEFINITION_CONTEXT('part definition',#338,'design');
#334=PRODUCT_DEFINITION('2026-07-06-09-15-30-304','Coil Spacer',#335,#333);
#335=PRODUCT_DEFINITION_FORMATION('',$,#340);
#336=PRODUCT_RELATED_PRODUCT_CATEGORY('Coil Spacer','Coil Spacer',(#340));
#337=APPLICATION_PROTOCOL_DEFINITION('international standard',
'automotive_design',2009,#338);
#338=APPLICATION_CONTEXT(
'Core Data for Automotive Mechanical Design Process');
#339=PRODUCT_CONTEXT('part definition',#338,'mechanical');
#340=PRODUCT('2026-07-06-09-15-30-304','Coil Spacer',$,(#339));
#341=PRESENTATION_STYLE_ASSIGNMENT((#343));
#342=PRESENTATION_STYLE_ASSIGNMENT((#344));
#343=SURFACE_STYLE_USAGE(.BOTH.,#345);
#344=SURFACE_STYLE_USAGE(.BOTH.,#346);
#345=SURFACE_SIDE_STYLE('',(#347));
#346=SURFACE_SIDE_STYLE('',(#348));
#347=SURFACE_STYLE_FILL_AREA(#349);
#348=SURFACE_STYLE_FILL_AREA(#350);
#349=FILL_AREA_STYLE('Brass - Satin',(#351));
#350=FILL_AREA_STYLE('Brass - Polished',(#352));
#351=FILL_AREA_STYLE_COLOUR('Brass - Satin',#353);
#352=FILL_AREA_STYLE_COLOUR('Brass - Polished',#354);
#353=COLOUR_RGB('Brass - Satin',0.,0.,0.);
#354=COLOUR_RGB('Brass - Polished',0.952941176470588,0.796078431372549,
0.486274509803922);
ENDSEC;
END-ISO-10303-21;
